%TF.GenerationSoftware,KiCad,Pcbnew,(6.0.10-0)*%
%TF.CreationDate,2023-02-06T00:02:57-08:00*%
%TF.ProjectId,poe-led-bars,706f652d-6c65-4642-9d62-6172732e6b69,rev?*%
%TF.SameCoordinates,Original*%
%TF.FileFunction,Copper,L3,Inr*%
%TF.FilePolarity,Positive*%
%FSLAX46Y46*%
G04 Gerber Fmt 4.6, Leading zero omitted, Abs format (unit mm)*
G04 Created by KiCad (PCBNEW (6.0.10-0)) date 2023-02-06 00:02:57*
%MOMM*%
%LPD*%
G01*
G04 APERTURE LIST*
G04 Aperture macros list*
%AMRoundRect*
0 Rectangle with rounded corners*
0 $1 Rounding radius*
0 $2 $3 $4 $5 $6 $7 $8 $9 X,Y pos of 4 corners*
0 Add a 4 corners polygon primitive as box body*
4,1,4,$2,$3,$4,$5,$6,$7,$8,$9,$2,$3,0*
0 Add four circle primitives for the rounded corners*
1,1,$1+$1,$2,$3*
1,1,$1+$1,$4,$5*
1,1,$1+$1,$6,$7*
1,1,$1+$1,$8,$9*
0 Add four rect primitives between the rounded corners*
20,1,$1+$1,$2,$3,$4,$5,0*
20,1,$1+$1,$4,$5,$6,$7,0*
20,1,$1+$1,$6,$7,$8,$9,0*
20,1,$1+$1,$8,$9,$2,$3,0*%
G04 Aperture macros list end*
%TA.AperFunction,ComponentPad*%
%ADD10C,1.850000*%
%TD*%
%TA.AperFunction,ComponentPad*%
%ADD11R,1.850000X1.850000*%
%TD*%
%TA.AperFunction,ComponentPad*%
%ADD12O,1.950000X1.700000*%
%TD*%
%TA.AperFunction,ComponentPad*%
%ADD13RoundRect,0.250000X-0.725000X0.600000X-0.725000X-0.600000X0.725000X-0.600000X0.725000X0.600000X0*%
%TD*%
%TA.AperFunction,ComponentPad*%
%ADD14C,6.200000*%
%TD*%
%TA.AperFunction,ComponentPad*%
%ADD15C,2.500000*%
%TD*%
%TA.AperFunction,ComponentPad*%
%ADD16C,1.500000*%
%TD*%
%TA.AperFunction,ComponentPad*%
%ADD17RoundRect,0.250500X-0.499500X-0.499500X0.499500X-0.499500X0.499500X0.499500X-0.499500X0.499500X0*%
%TD*%
%TA.AperFunction,ViaPad*%
%ADD18C,0.500000*%
%TD*%
%TA.AperFunction,ViaPad*%
%ADD19C,0.800000*%
%TD*%
%TA.AperFunction,Conductor*%
%ADD20C,0.200000*%
%TD*%
%TA.AperFunction,Conductor*%
%ADD21C,1.000000*%
%TD*%
G04 APERTURE END LIST*
D10*
%TO.N,N/C*%
%TO.C,PS1*%
X100840000Y-48740000D03*
%TO.N,+12V*%
X111000000Y-42390000D03*
X111000000Y-44930000D03*
%TO.N,GNDD*%
X111000000Y-47470000D03*
X111000000Y-50010000D03*
%TO.N,N/C*%
X111000000Y-84300000D03*
%TO.N,unconnected-(PS1-Pad5)*%
X111000000Y-86840000D03*
%TO.N,POEB2*%
X111000000Y-89380000D03*
%TO.N,POEB1*%
X111000000Y-91920000D03*
%TO.N,POEA2*%
X111000000Y-94460000D03*
D11*
%TO.N,POEA1*%
X111000000Y-97000000D03*
%TD*%
D12*
%TO.N,GNDD*%
%TO.C,J3*%
X87325000Y-58850000D03*
%TO.N,Net-(J3-Pad3)*%
X87325000Y-56350000D03*
%TO.N,Net-(J3-Pad2)*%
X87325000Y-53850000D03*
D13*
%TO.N,+12V*%
X87325000Y-51350000D03*
%TD*%
D12*
%TO.N,GNDD*%
%TO.C,J2*%
X87325000Y-73850000D03*
%TO.N,Net-(J2-Pad3)*%
X87325000Y-71350000D03*
%TO.N,Net-(J2-Pad2)*%
X87325000Y-68850000D03*
D13*
%TO.N,+12V*%
X87325000Y-66350000D03*
%TD*%
D14*
%TO.N,GNDD*%
%TO.C,*%
X87500000Y-144000000D03*
%TD*%
%TO.N,GNDD*%
%TO.C,*%
X112500000Y-144000000D03*
%TD*%
%TO.N,GNDD*%
%TO.C,*%
X87500000Y-45000000D03*
%TD*%
D15*
%TO.N,Net-(C12-Pad1)*%
%TO.C,J1*%
X107875000Y-137450000D03*
X92125000Y-137450000D03*
D16*
%TO.N,+3V3*%
X106630000Y-144560000D03*
%TO.N,Net-(J1-Pad11)*%
X104090000Y-144560000D03*
%TO.N,Net-(J1-Pad10)*%
X93370000Y-144560000D03*
%TO.N,GNDD*%
X95910000Y-144560000D03*
%TO.N,POEB2*%
X104445000Y-131610000D03*
X103175000Y-134150000D03*
%TO.N,ETH_RXN*%
X101905000Y-131610000D03*
%TO.N,POEB1*%
X100635000Y-134150000D03*
X99365000Y-131610000D03*
%TO.N,ETH_RXP*%
X98095000Y-134150000D03*
%TO.N,ETH_TXN*%
X96825000Y-131610000D03*
D17*
%TO.N,ETH_TXP*%
X95555000Y-134150000D03*
%TD*%
D18*
%TO.N,GNDD*%
X102200000Y-104200000D03*
X102200000Y-101100000D03*
X97300000Y-98600000D03*
X99800000Y-104200000D03*
X99800000Y-101100000D03*
X91300000Y-92200000D03*
X88700000Y-100600000D03*
X86300000Y-96200000D03*
X83800000Y-97700000D03*
X86100000Y-93400000D03*
X87500000Y-79300000D03*
X86000000Y-80300000D03*
X87100000Y-82000000D03*
X87400000Y-84500000D03*
X87500000Y-88200000D03*
X83800000Y-89000000D03*
X115992894Y-39007106D03*
X84007106Y-39007106D03*
X84007106Y-148992894D03*
X115992894Y-148992894D03*
X87100000Y-104100000D03*
X91200000Y-105700000D03*
X95300000Y-110000000D03*
X100400000Y-111000000D03*
X100400000Y-113600000D03*
X100500000Y-119500000D03*
X103600000Y-117800000D03*
X103700000Y-114100000D03*
X106900000Y-108900000D03*
X103000000Y-108600000D03*
X102100000Y-107600000D03*
X105000000Y-107100000D03*
X103700000Y-107100000D03*
X104400000Y-105500000D03*
X109900000Y-107000000D03*
X112800000Y-105400000D03*
X111800000Y-105400000D03*
X111700000Y-108000000D03*
X112000000Y-121000000D03*
X101900000Y-126500000D03*
X107900000Y-125000000D03*
X110400000Y-125000000D03*
X113100000Y-121000000D03*
X111600000Y-140000000D03*
X113900000Y-139000000D03*
X112500000Y-140000000D03*
X113400000Y-140000000D03*
X88400000Y-140000000D03*
X86600000Y-140000000D03*
X87500000Y-140000000D03*
X88900000Y-139000000D03*
X86100000Y-139000000D03*
X83600000Y-127000000D03*
X84600000Y-123500000D03*
X99900000Y-122200000D03*
X102500000Y-123400000D03*
X110100000Y-117900000D03*
X112500000Y-111900000D03*
X87300000Y-110800000D03*
X86300000Y-110800000D03*
X93600000Y-106200000D03*
X88600000Y-103500000D03*
%TO.N,+3V3*%
X86100000Y-100500000D03*
%TO.N,GNDD*%
X109100000Y-114100000D03*
X110100000Y-115100000D03*
X111100000Y-114100000D03*
X110100000Y-113100000D03*
X110100000Y-114100000D03*
X94000000Y-119000000D03*
X93988636Y-118019314D03*
X94000000Y-117000000D03*
X94000000Y-116000000D03*
X90000000Y-116000000D03*
X90000000Y-117000000D03*
X90000000Y-118000000D03*
X90000000Y-119000000D03*
X91000000Y-119000000D03*
X91000000Y-118000000D03*
X91000000Y-117000000D03*
X91000000Y-116000000D03*
X93000000Y-116000000D03*
X93000000Y-117000000D03*
X93000000Y-118000000D03*
X93000000Y-119000000D03*
X92000000Y-119000000D03*
X92000000Y-116000000D03*
X92000000Y-117000000D03*
X92000000Y-118000000D03*
%TO.N,+3V3*%
X89600000Y-79950000D03*
X86300000Y-126300000D03*
X85800000Y-126300000D03*
X109350000Y-108000000D03*
X109800000Y-108000000D03*
X110250000Y-108000000D03*
%TO.N,LED_CLK*%
X91400000Y-78650000D03*
X85700000Y-85800000D03*
%TO.N,Net-(Q3-Pad2)*%
X87300000Y-92850000D03*
X85850000Y-90200000D03*
%TO.N,OUT_C*%
X86800000Y-87550000D03*
%TO.N,OUT_D*%
X86250000Y-86850000D03*
%TO.N,Net-(C14-Pad2)*%
X83950000Y-96650000D03*
X101300000Y-141250000D03*
%TO.N,Net-(U6-Pad6)*%
X83650000Y-99425000D03*
%TO.N,Net-(U6-Pad7)*%
X84150500Y-98657755D03*
%TO.N,MDC*%
X103700000Y-113100000D03*
%TO.N,EN*%
X84900000Y-91150000D03*
%TO.N,OUT_DAT*%
X85750000Y-83100000D03*
%TO.N,OUT_CLK*%
X86450000Y-84400000D03*
X99750000Y-105650000D03*
%TO.N,OUT_DAT*%
X102050000Y-108700000D03*
%TO.N,EN*%
X87050000Y-123650000D03*
%TO.N,GNDD*%
X109600000Y-109300000D03*
X104900000Y-116600000D03*
%TO.N,Net-(C3-Pad2)*%
X113300000Y-118400000D03*
X112900000Y-116000000D03*
X106900000Y-118400000D03*
X108300000Y-116600000D03*
X108300000Y-111500000D03*
%TO.N,+3V3*%
X107600000Y-109300000D03*
X104900000Y-111200000D03*
X108600000Y-109300000D03*
X104900000Y-110200000D03*
D19*
%TO.N,ETH_RXP*%
X114600000Y-129800000D03*
%TO.N,ETH_RXN*%
X112000000Y-129800000D03*
%TO.N,POEA1*%
X109200000Y-129800000D03*
X112100000Y-125400000D03*
%TO.N,POEA2*%
X113400000Y-125400000D03*
D18*
%TO.N,CRS_DV*%
X109250000Y-111400000D03*
X98500000Y-123650000D03*
%TO.N,RXD0*%
X112700000Y-111000000D03*
X95950000Y-123650000D03*
X110900000Y-109300000D03*
%TO.N,RXD1*%
X111900000Y-109300000D03*
X97250000Y-123650000D03*
%TO.N,MDIO*%
X106350000Y-109550000D03*
X94700000Y-109325000D03*
%TO.N,ESP32_TX*%
X86094029Y-105952713D03*
X86094029Y-104102713D03*
%TO.N,LINK_LED*%
X111100000Y-139400000D03*
X113000000Y-114000000D03*
%TO.N,TXD0*%
X104900000Y-114600000D03*
X93400000Y-109325000D03*
%TO.N,TXD1*%
X87100000Y-109325000D03*
X104900000Y-115600000D03*
%TO.N,TXEN*%
X104900000Y-113600000D03*
X90900000Y-109325000D03*
%TO.N,100T_LED*%
X113000000Y-114800500D03*
X110500000Y-138800000D03*
%TO.N,Net-(R27-Pad1)*%
X98850000Y-106250000D03*
X113650000Y-113650000D03*
%TO.N,OUT_C*%
X99750000Y-123650000D03*
%TO.N,OUT_D*%
X101050000Y-123650000D03*
%TO.N,MDC*%
X107500000Y-112600000D03*
X86350000Y-109875000D03*
%TD*%
D20*
%TO.N,MDC*%
X107500000Y-112600000D02*
X104200000Y-112600000D01*
X104200000Y-112600000D02*
X103700000Y-113100000D01*
D21*
%TO.N,POEB1*%
X107757944Y-126600000D02*
X114102944Y-126600000D01*
X99365000Y-131610000D02*
X101175000Y-129800000D01*
X100635000Y-134150000D02*
X100635000Y-132880000D01*
X100635000Y-132880000D02*
X99365000Y-131610000D01*
X114102944Y-126600000D02*
X114700000Y-126002944D01*
X104557944Y-129800000D02*
X107757944Y-126600000D01*
X101175000Y-129800000D02*
X104557944Y-129800000D01*
X114700000Y-126002944D02*
X114700000Y-95620000D01*
X114700000Y-95620000D02*
X111000000Y-91920000D01*
%TO.N,POEB2*%
X104445000Y-131610000D02*
X108255000Y-127800000D01*
X104400000Y-132925000D02*
X104400000Y-131655000D01*
X115900000Y-126500000D02*
X115900000Y-94280000D01*
X103175000Y-134150000D02*
X104400000Y-132925000D01*
X114600000Y-127800000D02*
X115900000Y-126500000D01*
X104400000Y-131655000D02*
X104445000Y-131610000D01*
X108255000Y-127800000D02*
X114600000Y-127800000D01*
X115900000Y-94280000D02*
X111000000Y-89380000D01*
%TD*%
%TA.AperFunction,Conductor*%
%TO.N,GNDD*%
G36*
X115972976Y-38308731D02*
G01*
X115986519Y-38311119D01*
X115986520Y-38311119D01*
X115992895Y-38312243D01*
X115999762Y-38311032D01*
X116019867Y-38310263D01*
X116122107Y-38320333D01*
X116136334Y-38323163D01*
X116253610Y-38358737D01*
X116267010Y-38364288D01*
X116361636Y-38414866D01*
X116375086Y-38422055D01*
X116387148Y-38430114D01*
X116481882Y-38507860D01*
X116492138Y-38518116D01*
X116569886Y-38612852D01*
X116577945Y-38624914D01*
X116635711Y-38732987D01*
X116641263Y-38746390D01*
X116676837Y-38863666D01*
X116679667Y-38877893D01*
X116689737Y-38980133D01*
X116688968Y-39000238D01*
X116687757Y-39007105D01*
X116688881Y-39013480D01*
X116688881Y-39013481D01*
X116691269Y-39027024D01*
X116692393Y-39039873D01*
X116692393Y-93195978D01*
X116675080Y-93243544D01*
X116631243Y-93268854D01*
X116581393Y-93260064D01*
X116566067Y-93248304D01*
X112644086Y-89326323D01*
X112622640Y-89279803D01*
X112610680Y-89127822D01*
X112610679Y-89127817D01*
X112610452Y-89124930D01*
X112550722Y-88876140D01*
X112542151Y-88855446D01*
X112468078Y-88676619D01*
X112452809Y-88639757D01*
X112319123Y-88421601D01*
X112310049Y-88410976D01*
X112154847Y-88229258D01*
X112152956Y-88227044D01*
X111958399Y-88060877D01*
X111740243Y-87927191D01*
X111665591Y-87896269D01*
X111661757Y-87894681D01*
X111624436Y-87860484D01*
X111617829Y-87810298D01*
X111642756Y-87769420D01*
X111796650Y-87641427D01*
X111799258Y-87639258D01*
X111810667Y-87625540D01*
X111929358Y-87482831D01*
X111929361Y-87482826D01*
X111931528Y-87480221D01*
X111975287Y-87402084D01*
X112030945Y-87302701D01*
X112030947Y-87302696D01*
X112032601Y-87299743D01*
X112099091Y-87103868D01*
X112128773Y-86899156D01*
X112130322Y-86840000D01*
X112127604Y-86810412D01*
X112111705Y-86637392D01*
X112111395Y-86634015D01*
X112110476Y-86630757D01*
X112110475Y-86630751D01*
X112056167Y-86438194D01*
X112056166Y-86438192D01*
X112055246Y-86434929D01*
X111963758Y-86249408D01*
X111941116Y-86219086D01*
X111842025Y-86086388D01*
X111842024Y-86086387D01*
X111839993Y-86083667D01*
X111688096Y-85943255D01*
X111513155Y-85832876D01*
X111416815Y-85794440D01*
X111324183Y-85757483D01*
X111324180Y-85757482D01*
X111321029Y-85756225D01*
X111317702Y-85755563D01*
X111317698Y-85755562D01*
X111121475Y-85716531D01*
X111121473Y-85716531D01*
X111118151Y-85715870D01*
X111026888Y-85714675D01*
X110914709Y-85713206D01*
X110914704Y-85713206D01*
X110911316Y-85713162D01*
X110907970Y-85713737D01*
X110907969Y-85713737D01*
X110848720Y-85723918D01*
X110707451Y-85748193D01*
X110513384Y-85819788D01*
X110335613Y-85925550D01*
X110180093Y-86061938D01*
X110177996Y-86064597D01*
X110177995Y-86064599D01*
X110108355Y-86152937D01*
X110052032Y-86224383D01*
X110009855Y-86304549D01*
X109957303Y-86404432D01*
X109957300Y-86404438D01*
X109955719Y-86407444D01*
X109894378Y-86604993D01*
X109870065Y-86810412D01*
X109883594Y-87016821D01*
X109934512Y-87217309D01*
X109935928Y-87220381D01*
X109935930Y-87220386D01*
X110002170Y-87364073D01*
X110021112Y-87405161D01*
X110023070Y-87407931D01*
X110138537Y-87571314D01*
X110138541Y-87571318D01*
X110140496Y-87574085D01*
X110142921Y-87576447D01*
X110142925Y-87576452D01*
X110204721Y-87636650D01*
X110288665Y-87718425D01*
X110355366Y-87762993D01*
X110385297Y-87803813D01*
X110381986Y-87854324D01*
X110342572Y-87892888D01*
X110259757Y-87927191D01*
X110041601Y-88060877D01*
X109847044Y-88227044D01*
X109845153Y-88229258D01*
X109689952Y-88410976D01*
X109680877Y-88421601D01*
X109547191Y-88639757D01*
X109531922Y-88676619D01*
X109457850Y-88855446D01*
X109449278Y-88876140D01*
X109389548Y-89124930D01*
X109389321Y-89127817D01*
X109389320Y-89127822D01*
X109373698Y-89326323D01*
X109369474Y-89380000D01*
X109369702Y-89382897D01*
X109379241Y-89504099D01*
X109389548Y-89635070D01*
X109390226Y-89637894D01*
X109443795Y-89861020D01*
X109449278Y-89883860D01*
X109450390Y-89886543D01*
X109450391Y-89886548D01*
X109518657Y-90051355D01*
X109547191Y-90120243D01*
X109680877Y-90338399D01*
X109682769Y-90340614D01*
X109682771Y-90340617D01*
X109827931Y-90510578D01*
X109847044Y-90532956D01*
X109849258Y-90534847D01*
X109918201Y-90593730D01*
X109943127Y-90637787D01*
X109933903Y-90687558D01*
X109918201Y-90706270D01*
X109847044Y-90767044D01*
X109845153Y-90769258D01*
X109689952Y-90950976D01*
X109680877Y-90961601D01*
X109547191Y-91179757D01*
X109531922Y-91216619D01*
X109454097Y-91404507D01*
X109449278Y-91416140D01*
X109448599Y-91418967D01*
X109448598Y-91418971D01*
X109405075Y-91600257D01*
X109389548Y-91664930D01*
X109389321Y-91667817D01*
X109389320Y-91667822D01*
X109376872Y-91825999D01*
X109369474Y-91920000D01*
X109369702Y-91922897D01*
X109379241Y-92044099D01*
X109389548Y-92175070D01*
X109390226Y-92177894D01*
X109443510Y-92399834D01*
X109449278Y-92423860D01*
X109450390Y-92426543D01*
X109450391Y-92426548D01*
X109485381Y-92511020D01*
X109547191Y-92660243D01*
X109680877Y-92878399D01*
X109682769Y-92880614D01*
X109682771Y-92880617D01*
X109827931Y-93050578D01*
X109847044Y-93072956D01*
X109849258Y-93074847D01*
X109918201Y-93133730D01*
X109943127Y-93177787D01*
X109933903Y-93227558D01*
X109918201Y-93246270D01*
X109853481Y-93301546D01*
X109847044Y-93307044D01*
X109845153Y-93309258D01*
X109689952Y-93490976D01*
X109680877Y-93501601D01*
X109547191Y-93719757D01*
X109531922Y-93756619D01*
X109457850Y-93935446D01*
X109449278Y-93956140D01*
X109389548Y-94204930D01*
X109389321Y-94207817D01*
X109389320Y-94207822D01*
X109376872Y-94365999D01*
X109369474Y-94460000D01*
X109369702Y-94462897D01*
X109379241Y-94584099D01*
X109389548Y-94715070D01*
X109449278Y-94963860D01*
X109450390Y-94966543D01*
X109450391Y-94966548D01*
X109509211Y-95108552D01*
X109547191Y-95200243D01*
X109548711Y-95202723D01*
X109676110Y-95410621D01*
X109686202Y-95460224D01*
X109662049Y-95504709D01*
X109651353Y-95512580D01*
X109639592Y-95519703D01*
X109519703Y-95639592D01*
X109431873Y-95784617D01*
X109381171Y-95946406D01*
X109374500Y-96019007D01*
X109374501Y-97980992D01*
X109381171Y-98053594D01*
X109382343Y-98057335D01*
X109382344Y-98057338D01*
X109411459Y-98150243D01*
X109431873Y-98215383D01*
X109519703Y-98360408D01*
X109639592Y-98480297D01*
X109784617Y-98568127D01*
X109946406Y-98618829D01*
X109966263Y-98620654D01*
X110017317Y-98625345D01*
X110017323Y-98625345D01*
X110019007Y-98625500D01*
X110999711Y-98625500D01*
X111980992Y-98625499D01*
X112041886Y-98619905D01*
X112049687Y-98619188D01*
X112049688Y-98619188D01*
X112053594Y-98618829D01*
X112057335Y-98617657D01*
X112057338Y-98617656D01*
X112211123Y-98569462D01*
X112215383Y-98568127D01*
X112360408Y-98480297D01*
X112480297Y-98360408D01*
X112568127Y-98215383D01*
X112618829Y-98053594D01*
X112625500Y-97980993D01*
X112625499Y-96019008D01*
X112618829Y-95946406D01*
X112614479Y-95932523D01*
X112569462Y-95788877D01*
X112568127Y-95784617D01*
X112480297Y-95639592D01*
X112360408Y-95519703D01*
X112348651Y-95512583D01*
X112316933Y-95473135D01*
X112317993Y-95422527D01*
X112323890Y-95410621D01*
X112452809Y-95200243D01*
X112454233Y-95201116D01*
X112487228Y-95170384D01*
X112537780Y-95167764D01*
X112568429Y-95186192D01*
X113477826Y-96095589D01*
X113499218Y-96141465D01*
X113499500Y-96147915D01*
X113499500Y-113171582D01*
X113482187Y-113219148D01*
X113463397Y-113233338D01*
X113464155Y-113234539D01*
X113355019Y-113303399D01*
X113351531Y-113307348D01*
X113351529Y-113307350D01*
X113326507Y-113335683D01*
X113269596Y-113400122D01*
X113267357Y-113404891D01*
X113267355Y-113404894D01*
X113251206Y-113439291D01*
X113214754Y-113516932D01*
X113214496Y-113518589D01*
X113184927Y-113557825D01*
X113135605Y-113569210D01*
X113123425Y-113566659D01*
X113099203Y-113559415D01*
X113072326Y-113551377D01*
X113072325Y-113551377D01*
X113067273Y-113549866D01*
X113001771Y-113549466D01*
X112943501Y-113549110D01*
X112943500Y-113549110D01*
X112938231Y-113549078D01*
X112814155Y-113584539D01*
X112705019Y-113653399D01*
X112701531Y-113657348D01*
X112701529Y-113657350D01*
X112665845Y-113697755D01*
X112619596Y-113750122D01*
X112617357Y-113754891D01*
X112617355Y-113754894D01*
X112579425Y-113835683D01*
X112564754Y-113866932D01*
X112544901Y-113994440D01*
X112545584Y-113999663D01*
X112545584Y-113999666D01*
X112559928Y-114109352D01*
X112561633Y-114122394D01*
X112613605Y-114240510D01*
X112696639Y-114339291D01*
X112701025Y-114342211D01*
X112704296Y-114345135D01*
X112728217Y-114389745D01*
X112717867Y-114439294D01*
X112705642Y-114453506D01*
X112705019Y-114453899D01*
X112619596Y-114550622D01*
X112617357Y-114555391D01*
X112617355Y-114555394D01*
X112591192Y-114611120D01*
X112564754Y-114667432D01*
X112544901Y-114794940D01*
X112545584Y-114800163D01*
X112545584Y-114800166D01*
X112551388Y-114844545D01*
X112561633Y-114922894D01*
X112613605Y-115041010D01*
X112696639Y-115139791D01*
X112804060Y-115211296D01*
X112809092Y-115212868D01*
X112809094Y-115212869D01*
X112844714Y-115223997D01*
X112927233Y-115249778D01*
X112932501Y-115249875D01*
X112932504Y-115249875D01*
X112986552Y-115250865D01*
X113056255Y-115252143D01*
X113061338Y-115250757D01*
X113061340Y-115250757D01*
X113175671Y-115219586D01*
X113180755Y-115218200D01*
X113290724Y-115150679D01*
X113370638Y-115062392D01*
X113415393Y-115038744D01*
X113464878Y-115049398D01*
X113495938Y-115089368D01*
X113499500Y-115112051D01*
X113499500Y-115969357D01*
X113486598Y-116004804D01*
X113498273Y-116024663D01*
X113499500Y-116038085D01*
X113499500Y-117890042D01*
X113482187Y-117937608D01*
X113438350Y-117962918D01*
X113404298Y-117960939D01*
X113367273Y-117949866D01*
X113301771Y-117949466D01*
X113243501Y-117949110D01*
X113243500Y-117949110D01*
X113238231Y-117949078D01*
X113114155Y-117984539D01*
X113005019Y-118053399D01*
X113001531Y-118057348D01*
X113001529Y-118057350D01*
X112998288Y-118061020D01*
X112919596Y-118150122D01*
X112917357Y-118154891D01*
X112917355Y-118154894D01*
X112873892Y-118247469D01*
X112864754Y-118266932D01*
X112844901Y-118394440D01*
X112845584Y-118399663D01*
X112845584Y-118399666D01*
X112846708Y-118408257D01*
X112861633Y-118522394D01*
X112913605Y-118640510D01*
X112996639Y-118739291D01*
X113104060Y-118810796D01*
X113109092Y-118812368D01*
X113109094Y-118812369D01*
X113144714Y-118823497D01*
X113227233Y-118849278D01*
X113232501Y-118849375D01*
X113232504Y-118849375D01*
X113286552Y-118850365D01*
X113356255Y-118851643D01*
X113406036Y-118838071D01*
X113456480Y-118842262D01*
X113492429Y-118877898D01*
X113499500Y-118909465D01*
X113499500Y-124225654D01*
X113482187Y-124273220D01*
X113438350Y-124298530D01*
X113424533Y-124299648D01*
X113401529Y-124299347D01*
X113316680Y-124298236D01*
X113316675Y-124298236D01*
X113313286Y-124298192D01*
X113309941Y-124298767D01*
X113309938Y-124298767D01*
X113213618Y-124315318D01*
X113113949Y-124332444D01*
X112924193Y-124402449D01*
X112921280Y-124404182D01*
X112786771Y-124484206D01*
X112737040Y-124493648D01*
X112709447Y-124483194D01*
X112604618Y-124417051D01*
X112604617Y-124417050D01*
X112601757Y-124415246D01*
X112598614Y-124413992D01*
X112598612Y-124413991D01*
X112417052Y-124341556D01*
X112417049Y-124341555D01*
X112413898Y-124340298D01*
X112410571Y-124339636D01*
X112410567Y-124339635D01*
X112218849Y-124301500D01*
X112215526Y-124300839D01*
X112128249Y-124299697D01*
X112016680Y-124298236D01*
X112016675Y-124298236D01*
X112013286Y-124298192D01*
X112009941Y-124298767D01*
X112009938Y-124298767D01*
X111913618Y-124315318D01*
X111813949Y-124332444D01*
X111624193Y-124402449D01*
X111450371Y-124505862D01*
X111447827Y-124508093D01*
X111447823Y-124508096D01*
X111364710Y-124580985D01*
X111298305Y-124639220D01*
X111173089Y-124798057D01*
X111078914Y-124977053D01*
X111018937Y-125170213D01*
X111018538Y-125173587D01*
X110999528Y-125334198D01*
X110976745Y-125379399D01*
X110926041Y-125399500D01*
X107800975Y-125399500D01*
X107796135Y-125399342D01*
X107729770Y-125394992D01*
X107726383Y-125394770D01*
X107723013Y-125395169D01*
X107723010Y-125395169D01*
X107633415Y-125405774D01*
X107631488Y-125405977D01*
X107541606Y-125414236D01*
X107541605Y-125414236D01*
X107538233Y-125414546D01*
X107528598Y-125417263D01*
X107517219Y-125419527D01*
X107507276Y-125420704D01*
X107504037Y-125421710D01*
X107504031Y-125421711D01*
X107417852Y-125448470D01*
X107416027Y-125449011D01*
X107325880Y-125474435D01*
X107322843Y-125475933D01*
X107322842Y-125475933D01*
X107316898Y-125478864D01*
X107306121Y-125483164D01*
X107296564Y-125486131D01*
X107293558Y-125487712D01*
X107293552Y-125487715D01*
X107213724Y-125529715D01*
X107211999Y-125530594D01*
X107140144Y-125566030D01*
X107127997Y-125572020D01*
X107125275Y-125574053D01*
X107119980Y-125578007D01*
X107110160Y-125584203D01*
X107104304Y-125587284D01*
X107101303Y-125588863D01*
X107098647Y-125590957D01*
X107098642Y-125590960D01*
X107027755Y-125646843D01*
X107026218Y-125648022D01*
X106951211Y-125704033D01*
X106948905Y-125706528D01*
X106891853Y-125768246D01*
X106889839Y-125770341D01*
X104082355Y-128577826D01*
X104036479Y-128599218D01*
X104030029Y-128599500D01*
X101218047Y-128599500D01*
X101213207Y-128599342D01*
X101211316Y-128599218D01*
X101143440Y-128594769D01*
X101140070Y-128595168D01*
X101140067Y-128595168D01*
X101050438Y-128605777D01*
X101048511Y-128605980D01*
X101024727Y-128608166D01*
X100955289Y-128614546D01*
X100952031Y-128615465D01*
X100952025Y-128615466D01*
X100945659Y-128617262D01*
X100934271Y-128619527D01*
X100924333Y-128620703D01*
X100921095Y-128621709D01*
X100921083Y-128621711D01*
X100834884Y-128648477D01*
X100833060Y-128649018D01*
X100742936Y-128674435D01*
X100739898Y-128675933D01*
X100739893Y-128675935D01*
X100733959Y-128678861D01*
X100723180Y-128683161D01*
X100716869Y-128685121D01*
X100716865Y-128685123D01*
X100713621Y-128686130D01*
X100710620Y-128687709D01*
X100710615Y-128687711D01*
X100630750Y-128729730D01*
X100629025Y-128730609D01*
X100548098Y-128770518D01*
X100548095Y-128770520D01*
X100545053Y-128772020D01*
X100537031Y-128778010D01*
X100527222Y-128784200D01*
X100518360Y-128788862D01*
X100444805Y-128846848D01*
X100443340Y-128847973D01*
X100368267Y-128904033D01*
X100312411Y-128964458D01*
X100308897Y-128968259D01*
X100306883Y-128970354D01*
X99110243Y-130166994D01*
X99069113Y-130187815D01*
X99027698Y-130194153D01*
X99024809Y-130195097D01*
X99024806Y-130195098D01*
X98803866Y-130267312D01*
X98803862Y-130267314D01*
X98800982Y-130268255D01*
X98589414Y-130378390D01*
X98398675Y-130521602D01*
X98233887Y-130694042D01*
X98232176Y-130696551D01*
X98232173Y-130696554D01*
X98156130Y-130808029D01*
X98115023Y-130837567D01*
X98064547Y-130833772D01*
X98032867Y-130806523D01*
X98010935Y-130772621D01*
X97978155Y-130721951D01*
X97920795Y-130658913D01*
X97819672Y-130547781D01*
X97819671Y-130547780D01*
X97817629Y-130545536D01*
X97630445Y-130397707D01*
X97537954Y-130346649D01*
X97424293Y-130283905D01*
X97424288Y-130283903D01*
X97421631Y-130282436D01*
X97418765Y-130281421D01*
X97199664Y-130203833D01*
X97199660Y-130203832D01*
X97196794Y-130202817D01*
X97193799Y-130202283D01*
X97193797Y-130202283D01*
X97079383Y-130181903D01*
X96961972Y-130160988D01*
X96803027Y-130159046D01*
X96726508Y-130158111D01*
X96726507Y-130158111D01*
X96723471Y-130158074D01*
X96487698Y-130194153D01*
X96484818Y-130195094D01*
X96484815Y-130195095D01*
X96263866Y-130267312D01*
X96263862Y-130267314D01*
X96260982Y-130268255D01*
X96049414Y-130378390D01*
X95858675Y-130521602D01*
X95693887Y-130694042D01*
X95692176Y-130696551D01*
X95692173Y-130696554D01*
X95642483Y-130769397D01*
X95559475Y-130891082D01*
X95558196Y-130893837D01*
X95558195Y-130893839D01*
X95553618Y-130903700D01*
X95459051Y-131107428D01*
X95395309Y-131337272D01*
X95369963Y-131574440D01*
X95383694Y-131812562D01*
X95436131Y-132045245D01*
X95525867Y-132266239D01*
X95527453Y-132268827D01*
X95624834Y-132427737D01*
X95650493Y-132469609D01*
X95652482Y-132471905D01*
X95652484Y-132471908D01*
X95743560Y-132577049D01*
X95761618Y-132624338D01*
X95745054Y-132672170D01*
X95701620Y-132698165D01*
X95687627Y-132699500D01*
X95000550Y-132699500D01*
X94998904Y-132699647D01*
X94998902Y-132699647D01*
X94889737Y-132709389D01*
X94889732Y-132709390D01*
X94886224Y-132709703D01*
X94800958Y-132734153D01*
X94704116Y-132761922D01*
X94704112Y-132761923D01*
X94700508Y-132762957D01*
X94529293Y-132852466D01*
X94379574Y-132974574D01*
X94257466Y-133124293D01*
X94255728Y-133127617D01*
X94255727Y-133127619D01*
X94227981Y-133180692D01*
X94167957Y-133295508D01*
X94166923Y-133299112D01*
X94166922Y-133299116D01*
X94142831Y-133383133D01*
X94114703Y-133481224D01*
X94114390Y-133484732D01*
X94114389Y-133484737D01*
X94113136Y-133498782D01*
X94104500Y-133595550D01*
X94104500Y-134704450D01*
X94114703Y-134818776D01*
X94167957Y-135004492D01*
X94257466Y-135175707D01*
X94379574Y-135325426D01*
X94529293Y-135447534D01*
X94700508Y-135537043D01*
X94704112Y-135538077D01*
X94704116Y-135538078D01*
X94796930Y-135564692D01*
X94886224Y-135590297D01*
X94889732Y-135590610D01*
X94889737Y-135590611D01*
X94998902Y-135600353D01*
X94998904Y-135600353D01*
X95000550Y-135600500D01*
X96109450Y-135600500D01*
X96111096Y-135600353D01*
X96111098Y-135600353D01*
X96220263Y-135590611D01*
X96220268Y-135590610D01*
X96223776Y-135590297D01*
X96313070Y-135564692D01*
X96405884Y-135538078D01*
X96405888Y-135538077D01*
X96409492Y-135537043D01*
X96580707Y-135447534D01*
X96730426Y-135325426D01*
X96852534Y-135175707D01*
X96881911Y-135119514D01*
X96919291Y-135085382D01*
X96969865Y-135083262D01*
X97003423Y-135105347D01*
X97076660Y-135189894D01*
X97260176Y-135342252D01*
X97262794Y-135343782D01*
X97262800Y-135343786D01*
X97463486Y-135461057D01*
X97463491Y-135461059D01*
X97466112Y-135462591D01*
X97468951Y-135463675D01*
X97686092Y-135546594D01*
X97686096Y-135546595D01*
X97688937Y-135547680D01*
X97691921Y-135548287D01*
X97691924Y-135548288D01*
X97772553Y-135564692D01*
X97922666Y-135595233D01*
X98013615Y-135598568D01*
X98157985Y-135603862D01*
X98157991Y-135603862D01*
X98161025Y-135603973D01*
X98164037Y-135603587D01*
X98164041Y-135603587D01*
X98394596Y-135574051D01*
X98397609Y-135573665D01*
X98626068Y-135505125D01*
X98628792Y-135503791D01*
X98628796Y-135503789D01*
X98837537Y-135401527D01*
X98840264Y-135400191D01*
X99034445Y-135261683D01*
X99036597Y-135259539D01*
X99201242Y-135095468D01*
X99201245Y-135095465D01*
X99203397Y-135093320D01*
X99304851Y-134952131D01*
X99346666Y-134923607D01*
X99397035Y-134928634D01*
X99428039Y-134956649D01*
X99460493Y-135009609D01*
X99462482Y-135011905D01*
X99462484Y-135011908D01*
X99533005Y-135093320D01*
X99616660Y-135189894D01*
X99800176Y-135342252D01*
X99802794Y-135343782D01*
X99802800Y-135343786D01*
X100003486Y-135461057D01*
X100003491Y-135461059D01*
X100006112Y-135462591D01*
X100008951Y-135463675D01*
X100226092Y-135546594D01*
X100226096Y-135546595D01*
X100228937Y-135547680D01*
X100231921Y-135548287D01*
X100231924Y-135548288D01*
X100312553Y-135564692D01*
X100462666Y-135595233D01*
X100553615Y-135598568D01*
X100697985Y-135603862D01*
X100697991Y-135603862D01*
X100701025Y-135603973D01*
X100704037Y-135603587D01*
X100704041Y-135603587D01*
X100934596Y-135574051D01*
X100937609Y-135573665D01*
X101166068Y-135505125D01*
X101168792Y-135503791D01*
X101168796Y-135503789D01*
X101377537Y-135401527D01*
X101380264Y-135400191D01*
X101574445Y-135261683D01*
X101576597Y-135259539D01*
X101741242Y-135095468D01*
X101741245Y-135095465D01*
X101743397Y-135093320D01*
X101844851Y-134952131D01*
X101886666Y-134923607D01*
X101937035Y-134928634D01*
X101968039Y-134956649D01*
X102000493Y-135009609D01*
X102002482Y-135011905D01*
X102002484Y-135011908D01*
X102073005Y-135093320D01*
X102156660Y-135189894D01*
X102340176Y-135342252D01*
X102342794Y-135343782D01*
X102342800Y-135343786D01*
X102543486Y-135461057D01*
X102543491Y-135461059D01*
X102546112Y-135462591D01*
X102548951Y-135463675D01*
X102766092Y-135546594D01*
X102766096Y-135546595D01*
X102768937Y-135547680D01*
X102771921Y-135548287D01*
X102771924Y-135548288D01*
X102852553Y-135564692D01*
X103002666Y-135595233D01*
X103093615Y-135598568D01*
X103237985Y-135603862D01*
X103237991Y-135603862D01*
X103241025Y-135603973D01*
X103244037Y-135603587D01*
X103244041Y-135603587D01*
X103474596Y-135574051D01*
X103477609Y-135573665D01*
X103706068Y-135505125D01*
X103708792Y-135503791D01*
X103708796Y-135503789D01*
X103917537Y-135401527D01*
X103920264Y-135400191D01*
X104114445Y-135261683D01*
X104116597Y-135259539D01*
X104281242Y-135095468D01*
X104281245Y-135095465D01*
X104283397Y-135093320D01*
X104285167Y-135090857D01*
X104285172Y-135090851D01*
X104420810Y-134902089D01*
X104422582Y-134899623D01*
X104528263Y-134685795D01*
X104597600Y-134457577D01*
X104599235Y-134445157D01*
X104620276Y-134402488D01*
X105218459Y-133804305D01*
X105221993Y-133800995D01*
X105271994Y-133757145D01*
X105274543Y-133754910D01*
X105332535Y-133681347D01*
X105333727Y-133679875D01*
X105393602Y-133607883D01*
X105398493Y-133599150D01*
X105404938Y-133589503D01*
X105411137Y-133581640D01*
X105454731Y-133498782D01*
X105455656Y-133497079D01*
X105499753Y-133418340D01*
X105499758Y-133418329D01*
X105501410Y-133415379D01*
X105504628Y-133405901D01*
X105509210Y-133395235D01*
X105512288Y-133389385D01*
X105513869Y-133386380D01*
X105541636Y-133296958D01*
X105542204Y-133295208D01*
X105572332Y-133206452D01*
X105573770Y-133196535D01*
X105576331Y-133185217D01*
X105579297Y-133175667D01*
X105590300Y-133082700D01*
X105590553Y-133080779D01*
X105603503Y-132991463D01*
X105603991Y-132988098D01*
X105600557Y-132900696D01*
X105600500Y-132897791D01*
X105600500Y-132511599D01*
X105614406Y-132468417D01*
X105690810Y-132362089D01*
X105692582Y-132359623D01*
X105798263Y-132145795D01*
X105867600Y-131917577D01*
X105869235Y-131905157D01*
X105890276Y-131862488D01*
X107972698Y-129780066D01*
X108018574Y-129758674D01*
X108067469Y-129771775D01*
X108096503Y-129813239D01*
X108098866Y-129827552D01*
X108108392Y-129972894D01*
X108109226Y-129976177D01*
X108156162Y-130160988D01*
X108158178Y-130168928D01*
X108159599Y-130172011D01*
X108159600Y-130172013D01*
X108193858Y-130246323D01*
X108242856Y-130352607D01*
X108244810Y-130355372D01*
X108244813Y-130355377D01*
X108357635Y-130515017D01*
X108359588Y-130517780D01*
X108504466Y-130658913D01*
X108507278Y-130660792D01*
X108507283Y-130660796D01*
X108658251Y-130761669D01*
X108672637Y-130771282D01*
X108675751Y-130772620D01*
X108675753Y-130772621D01*
X108764508Y-130810753D01*
X108858470Y-130851122D01*
X108957755Y-130873588D01*
X109052425Y-130895010D01*
X109052426Y-130895010D01*
X109055740Y-130895760D01*
X109151462Y-130899521D01*
X109254447Y-130903567D01*
X109254451Y-130903567D01*
X109257842Y-130903700D01*
X109391504Y-130884320D01*
X109454649Y-130875165D01*
X109454650Y-130875165D01*
X109458007Y-130874678D01*
X109649531Y-130809664D01*
X109652483Y-130808011D01*
X109652487Y-130808009D01*
X109823041Y-130712495D01*
X109823044Y-130712493D01*
X109826001Y-130710837D01*
X109828606Y-130708670D01*
X109828611Y-130708667D01*
X109978897Y-130583674D01*
X109981505Y-130581505D01*
X110036803Y-130515017D01*
X110108667Y-130428611D01*
X110108670Y-130428606D01*
X110110837Y-130426001D01*
X110125628Y-130399590D01*
X110208009Y-130252487D01*
X110208011Y-130252483D01*
X110209664Y-130249531D01*
X110274678Y-130058007D01*
X110303700Y-129857842D01*
X110305215Y-129800000D01*
X110302622Y-129771775D01*
X110287018Y-129601968D01*
X110286708Y-129598591D01*
X110285789Y-129595333D01*
X110285788Y-129595327D01*
X110232728Y-129407191D01*
X110232727Y-129407189D01*
X110231807Y-129403926D01*
X110142351Y-129222527D01*
X110124079Y-129198057D01*
X110064876Y-129118776D01*
X110050288Y-129070305D01*
X110070269Y-129023797D01*
X110115471Y-129001013D01*
X110124169Y-129000500D01*
X111076263Y-129000500D01*
X111123829Y-129017813D01*
X111149139Y-129061650D01*
X111140349Y-129111500D01*
X111134377Y-129120312D01*
X111073089Y-129198057D01*
X110978914Y-129377053D01*
X110918937Y-129570213D01*
X110895164Y-129771069D01*
X110908392Y-129972894D01*
X110909226Y-129976177D01*
X110956162Y-130160988D01*
X110958178Y-130168928D01*
X110959599Y-130172011D01*
X110959600Y-130172013D01*
X110993858Y-130246323D01*
X111042856Y-130352607D01*
X111044810Y-130355372D01*
X111044813Y-130355377D01*
X111157635Y-130515017D01*
X111159588Y-130517780D01*
X111304466Y-130658913D01*
X111307278Y-130660792D01*
X111307283Y-130660796D01*
X111458251Y-130761669D01*
X111472637Y-130771282D01*
X111475751Y-130772620D01*
X111475753Y-130772621D01*
X111564508Y-130810753D01*
X111658470Y-130851122D01*
X111757755Y-130873588D01*
X111852425Y-130895010D01*
X111852426Y-130895010D01*
X111855740Y-130895760D01*
X111951462Y-130899521D01*
X112054447Y-130903567D01*
X112054451Y-130903567D01*
X112057842Y-130903700D01*
X112191504Y-130884320D01*
X112254649Y-130875165D01*
X112254650Y-130875165D01*
X112258007Y-130874678D01*
X112449531Y-130809664D01*
X112452483Y-130808011D01*
X112452487Y-130808009D01*
X112623041Y-130712495D01*
X112623044Y-130712493D01*
X112626001Y-130710837D01*
X112628606Y-130708670D01*
X112628611Y-130708667D01*
X112778897Y-130583674D01*
X112781505Y-130581505D01*
X112836803Y-130515017D01*
X112908667Y-130428611D01*
X112908670Y-130428606D01*
X112910837Y-130426001D01*
X112925628Y-130399590D01*
X113008009Y-130252487D01*
X113008011Y-130252483D01*
X113009664Y-130249531D01*
X113074678Y-130058007D01*
X113103700Y-129857842D01*
X113105215Y-129800000D01*
X113102622Y-129771775D01*
X113087018Y-129601968D01*
X113086708Y-129598591D01*
X113085789Y-129595333D01*
X113085788Y-129595327D01*
X113032728Y-129407191D01*
X113032727Y-129407189D01*
X113031807Y-129403926D01*
X112942351Y-129222527D01*
X112924079Y-129198057D01*
X112864876Y-129118776D01*
X112850288Y-129070305D01*
X112870269Y-129023797D01*
X112915471Y-129001013D01*
X112924169Y-129000500D01*
X113676263Y-129000500D01*
X113723829Y-129017813D01*
X113749139Y-129061650D01*
X113740349Y-129111500D01*
X113734377Y-129120312D01*
X113673089Y-129198057D01*
X113578914Y-129377053D01*
X113518937Y-129570213D01*
X113495164Y-129771069D01*
X113508392Y-129972894D01*
X113509226Y-129976177D01*
X113556162Y-130160988D01*
X113558178Y-130168928D01*
X113559599Y-130172011D01*
X113559600Y-130172013D01*
X113593858Y-130246323D01*
X113642856Y-130352607D01*
X113644810Y-130355372D01*
X113644813Y-130355377D01*
X113757635Y-130515017D01*
X113759588Y-130517780D01*
X113904466Y-130658913D01*
X113907278Y-130660792D01*
X113907283Y-130660796D01*
X114058251Y-130761669D01*
X114072637Y-130771282D01*
X114075751Y-130772620D01*
X114075753Y-130772621D01*
X114164508Y-130810753D01*
X114258470Y-130851122D01*
X114357755Y-130873588D01*
X114452425Y-130895010D01*
X114452426Y-130895010D01*
X114455740Y-130895760D01*
X114551462Y-130899521D01*
X114654447Y-130903567D01*
X114654451Y-130903567D01*
X114657842Y-130903700D01*
X114791504Y-130884320D01*
X114854649Y-130875165D01*
X114854650Y-130875165D01*
X114858007Y-130874678D01*
X115049531Y-130809664D01*
X115052483Y-130808011D01*
X115052487Y-130808009D01*
X115223041Y-130712495D01*
X115223044Y-130712493D01*
X115226001Y-130710837D01*
X115228606Y-130708670D01*
X115228611Y-130708667D01*
X115378897Y-130583674D01*
X115381505Y-130581505D01*
X115436803Y-130515017D01*
X115508667Y-130428611D01*
X115508670Y-130428606D01*
X115510837Y-130426001D01*
X115525628Y-130399590D01*
X115608009Y-130252487D01*
X115608011Y-130252483D01*
X115609664Y-130249531D01*
X115674678Y-130058007D01*
X115703700Y-129857842D01*
X115705215Y-129800000D01*
X115702622Y-129771775D01*
X115687018Y-129601968D01*
X115686708Y-129598591D01*
X115685789Y-129595333D01*
X115685788Y-129595327D01*
X115632728Y-129407191D01*
X115632727Y-129407189D01*
X115631807Y-129403926D01*
X115542351Y-129222527D01*
X115524079Y-129198057D01*
X115423367Y-129063188D01*
X115423366Y-129063187D01*
X115421335Y-129060467D01*
X115418844Y-129058164D01*
X115418841Y-129058161D01*
X115321585Y-128968259D01*
X115272812Y-128923174D01*
X115269937Y-128921360D01*
X115267831Y-128919744D01*
X115240632Y-128877053D01*
X115247237Y-128826867D01*
X115267064Y-128802920D01*
X115330189Y-128753157D01*
X115331726Y-128751978D01*
X115404012Y-128697999D01*
X115404013Y-128697998D01*
X115406733Y-128695967D01*
X115466090Y-128631755D01*
X115468104Y-128629660D01*
X116566067Y-127531697D01*
X116611943Y-127510305D01*
X116660838Y-127523406D01*
X116689872Y-127564870D01*
X116692393Y-127584023D01*
X116692393Y-148960127D01*
X116691269Y-148972976D01*
X116687757Y-148992895D01*
X116688882Y-148999273D01*
X116688968Y-148999762D01*
X116689737Y-149019867D01*
X116679667Y-149122107D01*
X116676837Y-149136334D01*
X116641263Y-149253610D01*
X116635711Y-149267013D01*
X116577945Y-149375086D01*
X116569886Y-149387148D01*
X116562612Y-149396012D01*
X116492140Y-149481882D01*
X116481882Y-149492140D01*
X116387148Y-149569886D01*
X116375087Y-149577944D01*
X116267010Y-149635712D01*
X116253610Y-149641263D01*
X116136334Y-149676837D01*
X116122107Y-149679667D01*
X116019867Y-149689737D01*
X115999762Y-149688968D01*
X115999645Y-149688947D01*
X115992895Y-149687757D01*
X115986520Y-149688881D01*
X115986519Y-149688881D01*
X115972976Y-149691269D01*
X115960127Y-149692393D01*
X84039873Y-149692393D01*
X84027024Y-149691269D01*
X84013481Y-149688881D01*
X84013480Y-149688881D01*
X84007105Y-149687757D01*
X84000355Y-149688947D01*
X84000238Y-149688968D01*
X83980133Y-149689737D01*
X83877893Y-149679667D01*
X83863666Y-149676837D01*
X83746390Y-149641263D01*
X83732990Y-149635712D01*
X83624913Y-149577944D01*
X83612852Y-149569886D01*
X83518118Y-149492140D01*
X83507860Y-149481882D01*
X83437389Y-149396012D01*
X83430114Y-149387148D01*
X83422055Y-149375086D01*
X83364289Y-149267013D01*
X83358737Y-149253610D01*
X83323163Y-149136334D01*
X83320333Y-149122107D01*
X83310263Y-149019867D01*
X83311032Y-148999762D01*
X83311118Y-148999273D01*
X83312243Y-148992895D01*
X83308731Y-148972976D01*
X83307607Y-148960127D01*
X83307607Y-146474307D01*
X85390047Y-146474307D01*
X85391133Y-146478357D01*
X85659569Y-146684336D01*
X85662874Y-146686599D01*
X85960239Y-146867400D01*
X85963772Y-146869294D01*
X86278932Y-147016926D01*
X86282633Y-147018421D01*
X86611896Y-147131152D01*
X86615736Y-147132240D01*
X86955259Y-147208754D01*
X86959197Y-147209420D01*
X87304970Y-147248816D01*
X87308982Y-147249055D01*
X87656987Y-147250876D01*
X87660993Y-147250681D01*
X88007168Y-147214907D01*
X88011116Y-147214281D01*
X88351410Y-147141329D01*
X88355269Y-147140281D01*
X88685687Y-147031005D01*
X88689416Y-147029543D01*
X89006090Y-146885226D01*
X89009654Y-146883363D01*
X89308890Y-146705691D01*
X89312218Y-146703463D01*
X89590527Y-146494503D01*
X89593592Y-146491931D01*
X89604279Y-146481931D01*
X89608147Y-146474307D01*
X110390047Y-146474307D01*
X110391133Y-146478357D01*
X110659569Y-146684336D01*
X110662874Y-146686599D01*
X110960239Y-146867400D01*
X110963772Y-146869294D01*
X111278932Y-147016926D01*
X111282633Y-147018421D01*
X111611896Y-147131152D01*
X111615736Y-147132240D01*
X111955259Y-147208754D01*
X111959197Y-147209420D01*
X112304970Y-147248816D01*
X112308982Y-147249055D01*
X112656987Y-147250876D01*
X112660993Y-147250681D01*
X113007168Y-147214907D01*
X113011116Y-147214281D01*
X113351410Y-147141329D01*
X113355269Y-147140281D01*
X113685687Y-147031005D01*
X113689416Y-147029543D01*
X114006090Y-146885226D01*
X114009654Y-146883363D01*
X114308890Y-146705691D01*
X114312218Y-146703463D01*
X114590527Y-146494503D01*
X114593592Y-146491931D01*
X114604279Y-146481931D01*
X114609091Y-146472446D01*
X114607834Y-146467044D01*
X112509226Y-144368436D01*
X112499587Y-144363941D01*
X112493688Y-144365522D01*
X110394542Y-146464668D01*
X110390047Y-146474307D01*
X89608147Y-146474307D01*
X89609091Y-146472446D01*
X89607834Y-146467044D01*
X87509226Y-144368436D01*
X87499587Y-144363941D01*
X87493688Y-144365522D01*
X85394542Y-146464668D01*
X85390047Y-146474307D01*
X83307607Y-146474307D01*
X83307607Y-143990652D01*
X84245349Y-143990652D01*
X84262956Y-144338220D01*
X84263372Y-144342184D01*
X84318416Y-144685837D01*
X84319263Y-144689751D01*
X84411098Y-145025442D01*
X84412355Y-145029220D01*
X84539912Y-145353043D01*
X84541572Y-145356668D01*
X84703351Y-145664811D01*
X84705396Y-145668242D01*
X84899503Y-145957105D01*
X84901917Y-145960308D01*
X85020855Y-146101551D01*
X85030075Y-146106853D01*
X85034774Y-146106016D01*
X87131564Y-144009226D01*
X87135674Y-144000413D01*
X87863941Y-144000413D01*
X87865522Y-144006312D01*
X89961466Y-146102256D01*
X89971105Y-146106751D01*
X89975857Y-146105477D01*
X90077423Y-145987396D01*
X90079853Y-145984239D01*
X90276980Y-145697417D01*
X90279062Y-145694008D01*
X90444060Y-145387574D01*
X90445759Y-145383962D01*
X90576693Y-145061508D01*
X90577996Y-145057725D01*
X90673340Y-144723020D01*
X90674229Y-144719109D01*
X90703705Y-144546665D01*
X92414994Y-144546665D01*
X92415297Y-144550274D01*
X92415297Y-144550276D01*
X92418180Y-144584608D01*
X92430592Y-144732414D01*
X92481971Y-144911595D01*
X92499161Y-144945042D01*
X92565520Y-145074164D01*
X92565523Y-145074169D01*
X92567176Y-145077385D01*
X92682959Y-145223468D01*
X92824912Y-145344279D01*
X92846654Y-145356430D01*
X92984468Y-145433452D01*
X92984472Y-145433454D01*
X92987627Y-145435217D01*
X92991063Y-145436334D01*
X92991069Y-145436336D01*
X93103313Y-145472806D01*
X93164907Y-145492819D01*
X93232399Y-145500867D01*
X93346398Y-145514461D01*
X93346401Y-145514461D01*
X93349998Y-145514890D01*
X93409440Y-145510316D01*
X93532240Y-145500867D01*
X93532241Y-145500867D01*
X93535851Y-145500589D01*
X93642436Y-145470830D01*
X93711906Y-145451434D01*
X93711907Y-145451434D01*
X93715387Y-145450462D01*
X93749061Y-145433452D01*
X93878534Y-145368051D01*
X93878537Y-145368049D01*
X93881768Y-145366417D01*
X93899265Y-145352747D01*
X95481608Y-145352747D01*
X95486075Y-145356430D01*
X95626818Y-145419091D01*
X95634139Y-145421470D01*
X95811611Y-145459193D01*
X95819286Y-145460000D01*
X96000714Y-145460000D01*
X96008389Y-145459193D01*
X96185861Y-145421470D01*
X96193182Y-145419091D01*
X96331204Y-145357641D01*
X96338855Y-145350253D01*
X96336004Y-145345214D01*
X95919226Y-144928436D01*
X95909587Y-144923941D01*
X95903688Y-144925522D01*
X95486102Y-145343108D01*
X95481608Y-145352747D01*
X93899265Y-145352747D01*
X94028655Y-145251656D01*
X94150454Y-145110550D01*
X94152237Y-145107411D01*
X94152240Y-145107407D01*
X94221301Y-144985836D01*
X94242526Y-144948474D01*
X94250687Y-144923941D01*
X94300221Y-144775038D01*
X94300222Y-144775035D01*
X94301364Y-144771601D01*
X94324727Y-144586668D01*
X94325045Y-144563853D01*
X95005448Y-144563853D01*
X95024413Y-144744293D01*
X95026017Y-144751842D01*
X95082083Y-144924393D01*
X95085219Y-144931435D01*
X95113150Y-144979814D01*
X95121300Y-144986652D01*
X95123416Y-144986652D01*
X95125405Y-144985385D01*
X95541564Y-144569226D01*
X95545674Y-144560413D01*
X96273941Y-144560413D01*
X96275522Y-144566312D01*
X96691099Y-144981889D01*
X96700738Y-144986384D01*
X96702783Y-144985836D01*
X96704378Y-144984094D01*
X96734781Y-144931435D01*
X96737917Y-144924393D01*
X96793983Y-144751842D01*
X96795587Y-144744293D01*
X96814552Y-144563853D01*
X96814552Y-144556147D01*
X96813555Y-144546665D01*
X103134994Y-144546665D01*
X103135297Y-144550274D01*
X103135297Y-144550276D01*
X103138180Y-144584608D01*
X103150592Y-144732414D01*
X103201971Y-144911595D01*
X103219161Y-144945042D01*
X103285520Y-145074164D01*
X103285523Y-145074169D01*
X103287176Y-145077385D01*
X103402959Y-145223468D01*
X103544912Y-145344279D01*
X103566654Y-145356430D01*
X103704468Y-145433452D01*
X103704472Y-145433454D01*
X103707627Y-145435217D01*
X103711063Y-145436334D01*
X103711069Y-145436336D01*
X103823313Y-145472806D01*
X103884907Y-145492819D01*
X103952399Y-145500867D01*
X104066398Y-145514461D01*
X104066401Y-145514461D01*
X104069998Y-145514890D01*
X104129440Y-145510316D01*
X104252240Y-145500867D01*
X104252241Y-145500867D01*
X104255851Y-145500589D01*
X104362436Y-145470830D01*
X104431906Y-145451434D01*
X104431907Y-145451434D01*
X104435387Y-145450462D01*
X104469061Y-145433452D01*
X104598534Y-145368051D01*
X104598537Y-145368049D01*
X104601768Y-145366417D01*
X104748655Y-145251656D01*
X104870454Y-145110550D01*
X104872237Y-145107411D01*
X104872240Y-145107407D01*
X104941301Y-144985836D01*
X104962526Y-144948474D01*
X104970687Y-144923941D01*
X105020221Y-144775038D01*
X105020222Y-144775035D01*
X105021364Y-144771601D01*
X105044727Y-144586668D01*
X105045099Y-144560000D01*
X105044195Y-144550774D01*
X105043792Y-144546665D01*
X105674994Y-144546665D01*
X105675297Y-144550274D01*
X105675297Y-144550276D01*
X105678180Y-144584608D01*
X105690592Y-144732414D01*
X105741971Y-144911595D01*
X105759161Y-144945042D01*
X105825520Y-145074164D01*
X105825523Y-145074169D01*
X105827176Y-145077385D01*
X105942959Y-145223468D01*
X106084912Y-145344279D01*
X106106654Y-145356430D01*
X106244468Y-145433452D01*
X106244472Y-145433454D01*
X106247627Y-145435217D01*
X106251063Y-145436334D01*
X106251069Y-145436336D01*
X106363313Y-145472806D01*
X106424907Y-145492819D01*
X106492399Y-145500867D01*
X106606398Y-145514461D01*
X106606401Y-145514461D01*
X106609998Y-145514890D01*
X106669440Y-145510316D01*
X106792240Y-145500867D01*
X106792241Y-145500867D01*
X106795851Y-145500589D01*
X106902436Y-145470830D01*
X106971906Y-145451434D01*
X106971907Y-145451434D01*
X106975387Y-145450462D01*
X107009061Y-145433452D01*
X107138534Y-145368051D01*
X107138537Y-145368049D01*
X107141768Y-145366417D01*
X107288655Y-145251656D01*
X107410454Y-145110550D01*
X107412237Y-145107411D01*
X107412240Y-145107407D01*
X107481301Y-144985836D01*
X107502526Y-144948474D01*
X107510687Y-144923941D01*
X107560221Y-144775038D01*
X107560222Y-144775035D01*
X107561364Y-144771601D01*
X107584727Y-144586668D01*
X107585099Y-144560000D01*
X107584195Y-144550774D01*
X107567262Y-144378090D01*
X107566909Y-144374487D01*
X107513033Y-144196040D01*
X107425522Y-144031456D01*
X107392243Y-143990652D01*
X109245349Y-143990652D01*
X109262956Y-144338220D01*
X109263372Y-144342184D01*
X109318416Y-144685837D01*
X109319263Y-144689751D01*
X109411098Y-145025442D01*
X109412355Y-145029220D01*
X109539912Y-145353043D01*
X109541572Y-145356668D01*
X109703351Y-145664811D01*
X109705396Y-145668242D01*
X109899503Y-145957105D01*
X109901917Y-145960308D01*
X110020855Y-146101551D01*
X110030075Y-146106853D01*
X110034774Y-146106016D01*
X112131564Y-144009226D01*
X112135674Y-144000413D01*
X112863941Y-144000413D01*
X112865522Y-144006312D01*
X114961466Y-146102256D01*
X114971105Y-146106751D01*
X114975857Y-146105477D01*
X115077423Y-145987396D01*
X115079853Y-145984239D01*
X115276980Y-145697417D01*
X115279062Y-145694008D01*
X115444060Y-145387574D01*
X115445759Y-145383962D01*
X115576693Y-145061508D01*
X115577996Y-145057725D01*
X115673340Y-144723020D01*
X115674229Y-144719109D01*
X115732867Y-144376061D01*
X115733325Y-144372103D01*
X115754630Y-144023773D01*
X115754698Y-144021676D01*
X115754769Y-144001043D01*
X115754716Y-143998955D01*
X115735845Y-143650490D01*
X115735411Y-143646502D01*
X115679170Y-143303060D01*
X115678314Y-143299163D01*
X115585305Y-142963786D01*
X115584031Y-142960000D01*
X115455351Y-142636642D01*
X115453673Y-142633010D01*
X115290820Y-142325434D01*
X115288760Y-142322006D01*
X115093648Y-142033827D01*
X115091231Y-142030643D01*
X114979137Y-141898465D01*
X114969896Y-141893194D01*
X114965154Y-141894056D01*
X112868436Y-143990774D01*
X112863941Y-144000413D01*
X112135674Y-144000413D01*
X112136059Y-143999587D01*
X112134478Y-143993688D01*
X110038546Y-141897756D01*
X110028907Y-141893261D01*
X110024202Y-141894522D01*
X109915660Y-142021609D01*
X109913233Y-142024783D01*
X109717110Y-142312290D01*
X109715043Y-142315703D01*
X109551117Y-142622707D01*
X109549429Y-142626327D01*
X109419617Y-142949246D01*
X109418332Y-142953021D01*
X109324153Y-143288067D01*
X109323282Y-143291968D01*
X109265842Y-143635213D01*
X109265395Y-143639199D01*
X109245363Y-143986626D01*
X109245349Y-143990652D01*
X107392243Y-143990652D01*
X107307710Y-143887005D01*
X107164085Y-143768187D01*
X107039657Y-143700909D01*
X107003299Y-143681250D01*
X107000116Y-143679529D01*
X106822049Y-143624409D01*
X106636668Y-143604924D01*
X106620978Y-143606352D01*
X106454645Y-143621489D01*
X106454643Y-143621489D01*
X106451032Y-143621818D01*
X106272214Y-143674448D01*
X106269015Y-143676120D01*
X106269011Y-143676122D01*
X106196596Y-143713980D01*
X106107023Y-143760807D01*
X106104205Y-143763073D01*
X106104203Y-143763074D01*
X106089635Y-143774787D01*
X105961752Y-143877608D01*
X105841935Y-144020401D01*
X105752135Y-144183746D01*
X105748235Y-144196040D01*
X105703133Y-144338220D01*
X105695772Y-144361424D01*
X105674994Y-144546665D01*
X105043792Y-144546665D01*
X105027262Y-144378090D01*
X105026909Y-144374487D01*
X104973033Y-144196040D01*
X104885522Y-144031456D01*
X104767710Y-143887005D01*
X104624085Y-143768187D01*
X104499657Y-143700909D01*
X104463299Y-143681250D01*
X104460116Y-143679529D01*
X104282049Y-143624409D01*
X104096668Y-143604924D01*
X104080978Y-143606352D01*
X103914645Y-143621489D01*
X103914643Y-143621489D01*
X103911032Y-143621818D01*
X103732214Y-143674448D01*
X103729015Y-143676120D01*
X103729011Y-143676122D01*
X103656596Y-143713980D01*
X103567023Y-143760807D01*
X103564205Y-143763073D01*
X103564203Y-143763074D01*
X103549635Y-143774787D01*
X103421752Y-143877608D01*
X103301935Y-144020401D01*
X103212135Y-144183746D01*
X103208235Y-144196040D01*
X103163133Y-144338220D01*
X103155772Y-144361424D01*
X103134994Y-144546665D01*
X96813555Y-144546665D01*
X96795587Y-144375707D01*
X96793983Y-144368158D01*
X96737917Y-144195607D01*
X96734781Y-144188565D01*
X96706850Y-144140186D01*
X96698700Y-144133348D01*
X96696584Y-144133348D01*
X96694595Y-144134615D01*
X96278436Y-144550774D01*
X96273941Y-144560413D01*
X95545674Y-144560413D01*
X95546059Y-144559587D01*
X95544478Y-144553688D01*
X95128901Y-144138111D01*
X95119262Y-144133616D01*
X95117217Y-144134164D01*
X95115622Y-144135906D01*
X95085219Y-144188565D01*
X95082083Y-144195607D01*
X95026017Y-144368158D01*
X95024413Y-144375707D01*
X95005448Y-144556147D01*
X95005448Y-144563853D01*
X94325045Y-144563853D01*
X94325099Y-144560000D01*
X94324195Y-144550774D01*
X94307262Y-144378090D01*
X94306909Y-144374487D01*
X94253033Y-144196040D01*
X94165522Y-144031456D01*
X94047710Y-143887005D01*
X93905972Y-143769748D01*
X95481146Y-143769748D01*
X95483997Y-143774787D01*
X95900774Y-144191564D01*
X95910413Y-144196059D01*
X95916312Y-144194478D01*
X96333898Y-143776892D01*
X96338393Y-143767253D01*
X96333925Y-143763570D01*
X96193182Y-143700909D01*
X96185861Y-143698530D01*
X96008389Y-143660807D01*
X96000714Y-143660000D01*
X95819286Y-143660000D01*
X95811611Y-143660807D01*
X95634149Y-143698528D01*
X95626806Y-143700914D01*
X95488797Y-143762360D01*
X95481146Y-143769748D01*
X93905972Y-143769748D01*
X93904085Y-143768187D01*
X93779657Y-143700909D01*
X93743299Y-143681250D01*
X93740116Y-143679529D01*
X93562049Y-143624409D01*
X93376668Y-143604924D01*
X93360978Y-143606352D01*
X93194645Y-143621489D01*
X93194643Y-143621489D01*
X93191032Y-143621818D01*
X93012214Y-143674448D01*
X93009015Y-143676120D01*
X93009011Y-143676122D01*
X92936596Y-143713980D01*
X92847023Y-143760807D01*
X92844205Y-143763073D01*
X92844203Y-143763074D01*
X92829635Y-143774787D01*
X92701752Y-143877608D01*
X92581935Y-144020401D01*
X92492135Y-144183746D01*
X92488235Y-144196040D01*
X92443133Y-144338220D01*
X92435772Y-144361424D01*
X92414994Y-144546665D01*
X90703705Y-144546665D01*
X90732867Y-144376061D01*
X90733325Y-144372103D01*
X90754630Y-144023773D01*
X90754698Y-144021676D01*
X90754769Y-144001043D01*
X90754716Y-143998955D01*
X90735845Y-143650490D01*
X90735411Y-143646502D01*
X90679170Y-143303060D01*
X90678314Y-143299163D01*
X90585305Y-142963786D01*
X90584031Y-142960000D01*
X90455351Y-142636642D01*
X90453673Y-142633010D01*
X90290820Y-142325434D01*
X90288760Y-142322006D01*
X90093648Y-142033827D01*
X90091231Y-142030643D01*
X89979137Y-141898465D01*
X89969896Y-141893194D01*
X89965154Y-141894056D01*
X87868436Y-143990774D01*
X87863941Y-144000413D01*
X87135674Y-144000413D01*
X87136059Y-143999587D01*
X87134478Y-143993688D01*
X85038546Y-141897756D01*
X85028907Y-141893261D01*
X85024202Y-141894522D01*
X84915660Y-142021609D01*
X84913233Y-142024783D01*
X84717110Y-142312290D01*
X84715043Y-142315703D01*
X84551117Y-142622707D01*
X84549429Y-142626327D01*
X84419617Y-142949246D01*
X84418332Y-142953021D01*
X84324153Y-143288067D01*
X84323282Y-143291968D01*
X84265842Y-143635213D01*
X84265395Y-143639199D01*
X84245363Y-143986626D01*
X84245349Y-143990652D01*
X83307607Y-143990652D01*
X83307607Y-141527163D01*
X85390536Y-141527163D01*
X85391824Y-141532614D01*
X87490774Y-143631564D01*
X87500413Y-143636059D01*
X87506312Y-143634478D01*
X89605358Y-141535432D01*
X89609853Y-141525793D01*
X89608474Y-141520650D01*
X89607892Y-141520154D01*
X89331056Y-141309260D01*
X89327730Y-141307000D01*
X89029730Y-141127236D01*
X89026215Y-141125367D01*
X88710543Y-140978836D01*
X88706815Y-140977345D01*
X88377168Y-140865765D01*
X88373317Y-140864690D01*
X88033553Y-140789367D01*
X88029588Y-140788711D01*
X87683669Y-140750521D01*
X87679694Y-140750299D01*
X87331667Y-140749692D01*
X87327659Y-140749902D01*
X86981609Y-140786884D01*
X86977667Y-140787523D01*
X86637645Y-140861658D01*
X86633768Y-140862726D01*
X86303734Y-140973155D01*
X86300023Y-140974624D01*
X85983828Y-141120057D01*
X85980305Y-141121914D01*
X85681669Y-141300645D01*
X85678356Y-141302879D01*
X85400787Y-141512803D01*
X85397717Y-141515398D01*
X85395315Y-141517660D01*
X85390536Y-141527163D01*
X83307607Y-141527163D01*
X83307607Y-137388577D01*
X90170483Y-137388577D01*
X90170586Y-137391196D01*
X90177795Y-137574675D01*
X90181327Y-137664583D01*
X90230953Y-137936309D01*
X90318370Y-138198331D01*
X90319536Y-138200665D01*
X90319540Y-138200674D01*
X90393694Y-138349078D01*
X90441834Y-138445421D01*
X90443318Y-138447568D01*
X90443322Y-138447575D01*
X90517422Y-138554788D01*
X90598882Y-138672651D01*
X90786380Y-138875485D01*
X91000588Y-139049877D01*
X91002829Y-139051226D01*
X91002833Y-139051229D01*
X91117447Y-139120232D01*
X91237230Y-139192347D01*
X91239634Y-139193365D01*
X91489175Y-139299033D01*
X91489181Y-139299035D01*
X91491585Y-139300053D01*
X91494118Y-139300725D01*
X91494122Y-139300726D01*
X91713778Y-139358966D01*
X91758579Y-139370845D01*
X92032884Y-139403311D01*
X92158804Y-139400344D01*
X92306408Y-139396866D01*
X92306412Y-139396866D01*
X92309027Y-139396804D01*
X92311602Y-139396375D01*
X92311606Y-139396375D01*
X92578916Y-139351882D01*
X92578919Y-139351881D01*
X92581498Y-139351452D01*
X92645430Y-139331233D01*
X92652273Y-139329069D01*
X92702846Y-139331233D01*
X92740196Y-139365398D01*
X92746847Y-139415579D01*
X92734416Y-139443173D01*
X92688494Y-139506263D01*
X92561764Y-139747137D01*
X92471133Y-140003782D01*
X92418500Y-140270823D01*
X92404967Y-140542664D01*
X92430818Y-140813611D01*
X92431456Y-140816217D01*
X92431456Y-140816219D01*
X92477625Y-141004894D01*
X92495511Y-141077989D01*
X92496520Y-141080480D01*
X92589185Y-141309260D01*
X92597690Y-141330259D01*
X92599042Y-141332569D01*
X92599044Y-141332572D01*
X92622361Y-141372394D01*
X92735217Y-141565137D01*
X92905209Y-141777701D01*
X93104105Y-141963499D01*
X93327739Y-142118640D01*
X93330133Y-142119831D01*
X93330138Y-142119834D01*
X93569033Y-142238683D01*
X93569039Y-142238685D01*
X93571426Y-142239873D01*
X93711851Y-142285907D01*
X93827511Y-142323822D01*
X93827514Y-142323823D01*
X93830062Y-142324658D01*
X94098228Y-142371219D01*
X94100482Y-142371331D01*
X94100489Y-142371332D01*
X94153039Y-142373948D01*
X94184222Y-142375500D01*
X94354144Y-142375500D01*
X94556464Y-142360820D01*
X94822242Y-142302142D01*
X95076765Y-142205712D01*
X95314702Y-142073550D01*
X95366751Y-142033827D01*
X95528939Y-141910049D01*
X95528941Y-141910048D01*
X95531068Y-141908424D01*
X95721331Y-141713794D01*
X95730176Y-141701643D01*
X95858173Y-141525793D01*
X95881506Y-141493737D01*
X96008236Y-141252863D01*
X96011210Y-141244440D01*
X100844901Y-141244440D01*
X100845584Y-141249663D01*
X100845584Y-141249666D01*
X100856426Y-141332572D01*
X100861633Y-141372394D01*
X100913605Y-141490510D01*
X100996639Y-141589291D01*
X101104060Y-141660796D01*
X101109092Y-141662368D01*
X101109094Y-141662369D01*
X101144714Y-141673497D01*
X101227233Y-141699278D01*
X101232501Y-141699375D01*
X101232504Y-141699375D01*
X101286552Y-141700365D01*
X101356255Y-141701643D01*
X101361338Y-141700257D01*
X101361340Y-141700257D01*
X101475671Y-141669086D01*
X101480755Y-141667700D01*
X101590724Y-141600179D01*
X101677322Y-141504507D01*
X101733588Y-141388375D01*
X101754997Y-141261120D01*
X101755133Y-141250000D01*
X101736839Y-141122259D01*
X101683428Y-141004788D01*
X101678226Y-140998750D01*
X101602633Y-140911020D01*
X101602632Y-140911019D01*
X101599193Y-140907028D01*
X101594774Y-140904164D01*
X101594772Y-140904162D01*
X101495329Y-140839708D01*
X101495330Y-140839708D01*
X101490906Y-140836841D01*
X101485857Y-140835331D01*
X101485855Y-140835330D01*
X101372326Y-140801377D01*
X101372325Y-140801377D01*
X101367273Y-140799866D01*
X101301771Y-140799466D01*
X101243501Y-140799110D01*
X101243500Y-140799110D01*
X101238231Y-140799078D01*
X101114155Y-140834539D01*
X101005019Y-140903399D01*
X101001531Y-140907348D01*
X101001529Y-140907350D01*
X100998288Y-140911020D01*
X100919596Y-141000122D01*
X100917357Y-141004891D01*
X100917355Y-141004894D01*
X100884263Y-141075379D01*
X100864754Y-141116932D01*
X100844901Y-141244440D01*
X96011210Y-141244440D01*
X96098867Y-140996218D01*
X96103124Y-140974624D01*
X96150980Y-140731815D01*
X96151500Y-140729177D01*
X96160785Y-140542664D01*
X103834967Y-140542664D01*
X103860818Y-140813611D01*
X103861456Y-140816217D01*
X103861456Y-140816219D01*
X103907625Y-141004894D01*
X103925511Y-141077989D01*
X103926520Y-141080480D01*
X104019185Y-141309260D01*
X104027690Y-141330259D01*
X104029042Y-141332569D01*
X104029044Y-141332572D01*
X104052361Y-141372394D01*
X104165217Y-141565137D01*
X104335209Y-141777701D01*
X104534105Y-141963499D01*
X104757739Y-142118640D01*
X104760133Y-142119831D01*
X104760138Y-142119834D01*
X104999033Y-142238683D01*
X104999039Y-142238685D01*
X105001426Y-142239873D01*
X105141851Y-142285907D01*
X105257511Y-142323822D01*
X105257514Y-142323823D01*
X105260062Y-142324658D01*
X105528228Y-142371219D01*
X105530482Y-142371331D01*
X105530489Y-142371332D01*
X105583039Y-142373948D01*
X105614222Y-142375500D01*
X105784144Y-142375500D01*
X105986464Y-142360820D01*
X106252242Y-142302142D01*
X106506765Y-142205712D01*
X106744702Y-142073550D01*
X106796751Y-142033827D01*
X106958939Y-141910049D01*
X106958941Y-141910048D01*
X106961068Y-141908424D01*
X107151331Y-141713794D01*
X107160176Y-141701643D01*
X107287176Y-141527163D01*
X110390536Y-141527163D01*
X110391824Y-141532614D01*
X112490774Y-143631564D01*
X112500413Y-143636059D01*
X112506312Y-143634478D01*
X114605358Y-141535432D01*
X114609853Y-141525793D01*
X114608474Y-141520650D01*
X114607892Y-141520154D01*
X114331056Y-141309260D01*
X114327730Y-141307000D01*
X114029730Y-141127236D01*
X114026215Y-141125367D01*
X113710543Y-140978836D01*
X113706815Y-140977345D01*
X113377168Y-140865765D01*
X113373317Y-140864690D01*
X113033553Y-140789367D01*
X113029588Y-140788711D01*
X112683669Y-140750521D01*
X112679694Y-140750299D01*
X112331667Y-140749692D01*
X112327659Y-140749902D01*
X111981609Y-140786884D01*
X111977667Y-140787523D01*
X111637645Y-140861658D01*
X111633768Y-140862726D01*
X111303734Y-140973155D01*
X111300023Y-140974624D01*
X110983828Y-141120057D01*
X110980305Y-141121914D01*
X110681669Y-141300645D01*
X110678356Y-141302879D01*
X110400787Y-141512803D01*
X110397717Y-141515398D01*
X110395315Y-141517660D01*
X110390536Y-141527163D01*
X107287176Y-141527163D01*
X107288173Y-141525793D01*
X107311506Y-141493737D01*
X107438236Y-141252863D01*
X107528867Y-140996218D01*
X107533124Y-140974624D01*
X107580980Y-140731815D01*
X107581500Y-140729177D01*
X107595033Y-140457336D01*
X107569182Y-140186389D01*
X107568544Y-140183781D01*
X107505128Y-139924621D01*
X107505127Y-139924617D01*
X107504489Y-139922011D01*
X107474392Y-139847705D01*
X107403318Y-139672229D01*
X107403317Y-139672226D01*
X107402310Y-139669741D01*
X107390613Y-139649763D01*
X107266322Y-139437491D01*
X107257228Y-139387695D01*
X107282269Y-139343704D01*
X107329729Y-139326101D01*
X107349144Y-139328572D01*
X107508579Y-139370845D01*
X107782884Y-139403311D01*
X107908804Y-139400344D01*
X108056408Y-139396866D01*
X108056412Y-139396866D01*
X108059027Y-139396804D01*
X108061602Y-139396375D01*
X108061606Y-139396375D01*
X108328916Y-139351882D01*
X108328919Y-139351881D01*
X108331498Y-139351452D01*
X108395430Y-139331233D01*
X108592367Y-139268950D01*
X108592370Y-139268949D01*
X108594861Y-139268161D01*
X108597216Y-139267030D01*
X108597219Y-139267029D01*
X108841514Y-139149720D01*
X108843861Y-139148593D01*
X108931625Y-139089951D01*
X109071351Y-138996590D01*
X109071358Y-138996585D01*
X109073529Y-138995134D01*
X109279283Y-138810845D01*
X109293073Y-138794440D01*
X110044901Y-138794440D01*
X110045584Y-138799663D01*
X110045584Y-138799666D01*
X110056467Y-138882887D01*
X110061633Y-138922394D01*
X110113605Y-139040510D01*
X110196639Y-139139291D01*
X110304060Y-139210796D01*
X110309092Y-139212368D01*
X110309094Y-139212369D01*
X110326158Y-139217700D01*
X110427233Y-139249278D01*
X110432501Y-139249375D01*
X110432504Y-139249375D01*
X110486552Y-139250365D01*
X110556255Y-139251643D01*
X110561465Y-139250222D01*
X110561905Y-139250103D01*
X110562306Y-139250136D01*
X110566571Y-139249605D01*
X110566683Y-139250500D01*
X110612350Y-139254297D01*
X110648297Y-139289935D01*
X110654485Y-139332882D01*
X110648575Y-139370845D01*
X110644901Y-139394440D01*
X110645584Y-139399663D01*
X110645584Y-139399666D01*
X110659524Y-139506263D01*
X110661633Y-139522394D01*
X110713605Y-139640510D01*
X110796639Y-139739291D01*
X110904060Y-139810796D01*
X110909092Y-139812368D01*
X110909094Y-139812369D01*
X110944714Y-139823497D01*
X111027233Y-139849278D01*
X111032501Y-139849375D01*
X111032504Y-139849375D01*
X111086552Y-139850365D01*
X111156255Y-139851643D01*
X111161338Y-139850257D01*
X111161340Y-139850257D01*
X111275671Y-139819086D01*
X111280755Y-139817700D01*
X111390724Y-139750179D01*
X111477322Y-139654507D01*
X111533588Y-139538375D01*
X111547002Y-139458644D01*
X111554522Y-139413944D01*
X111554522Y-139413943D01*
X111554997Y-139411120D01*
X111555133Y-139400000D01*
X111548242Y-139351882D01*
X111537586Y-139277472D01*
X111537585Y-139277469D01*
X111536839Y-139272259D01*
X111528672Y-139254297D01*
X111485610Y-139159586D01*
X111485608Y-139159583D01*
X111483428Y-139154788D01*
X111479062Y-139149720D01*
X111402633Y-139061020D01*
X111402632Y-139061019D01*
X111399193Y-139057028D01*
X111394774Y-139054164D01*
X111394772Y-139054162D01*
X111295329Y-138989708D01*
X111295330Y-138989708D01*
X111290906Y-138986841D01*
X111285857Y-138985331D01*
X111285855Y-138985330D01*
X111172326Y-138951377D01*
X111172325Y-138951377D01*
X111167273Y-138949866D01*
X111102752Y-138949472D01*
X111043502Y-138949110D01*
X111043501Y-138949110D01*
X111038231Y-138949078D01*
X111033160Y-138950527D01*
X111028864Y-138951116D01*
X110979388Y-138940421D01*
X110948361Y-138900425D01*
X110945844Y-138865524D01*
X110954522Y-138813944D01*
X110954522Y-138813943D01*
X110954997Y-138811120D01*
X110955133Y-138800000D01*
X110954315Y-138794288D01*
X110937586Y-138677472D01*
X110937585Y-138677469D01*
X110936839Y-138672259D01*
X110917071Y-138628781D01*
X110885610Y-138559586D01*
X110885608Y-138559583D01*
X110883428Y-138554788D01*
X110876003Y-138546170D01*
X110802633Y-138461020D01*
X110802632Y-138461019D01*
X110799193Y-138457028D01*
X110794774Y-138454164D01*
X110794772Y-138454162D01*
X110695329Y-138389708D01*
X110695330Y-138389708D01*
X110690906Y-138386841D01*
X110685857Y-138385331D01*
X110685855Y-138385330D01*
X110572326Y-138351377D01*
X110572325Y-138351377D01*
X110567273Y-138349866D01*
X110501771Y-138349466D01*
X110443501Y-138349110D01*
X110443500Y-138349110D01*
X110438231Y-138349078D01*
X110314155Y-138384539D01*
X110205019Y-138453399D01*
X110201531Y-138457348D01*
X110201529Y-138457350D01*
X110198288Y-138461020D01*
X110119596Y-138550122D01*
X110117357Y-138554891D01*
X110117355Y-138554894D01*
X110086760Y-138620061D01*
X110064754Y-138666932D01*
X110044901Y-138794440D01*
X109293073Y-138794440D01*
X109457018Y-138599403D01*
X109589584Y-138386841D01*
X109601808Y-138367241D01*
X109601809Y-138367239D01*
X109603188Y-138365028D01*
X109714875Y-138112396D01*
X109789853Y-137846547D01*
X109826623Y-137572786D01*
X109830482Y-137450000D01*
X109830348Y-137448106D01*
X109811158Y-137177077D01*
X109811157Y-137177071D01*
X109810973Y-137174470D01*
X109797364Y-137111256D01*
X109753387Y-136906994D01*
X109752837Y-136904438D01*
X109657233Y-136645291D01*
X109628552Y-136592136D01*
X109527310Y-136404501D01*
X109527307Y-136404496D01*
X109526068Y-136402200D01*
X109361960Y-136180016D01*
X109168183Y-135983171D01*
X109082897Y-135918083D01*
X108950683Y-135817180D01*
X108950677Y-135817176D01*
X108948604Y-135815594D01*
X108707604Y-135680627D01*
X108449991Y-135580964D01*
X108447448Y-135580375D01*
X108447443Y-135580373D01*
X108183451Y-135519183D01*
X108183449Y-135519183D01*
X108180905Y-135518593D01*
X108178305Y-135518368D01*
X108178300Y-135518367D01*
X107908324Y-135494985D01*
X107908325Y-135494985D01*
X107905715Y-135494759D01*
X107629913Y-135509938D01*
X107627341Y-135510450D01*
X107627338Y-135510450D01*
X107437112Y-135548288D01*
X107359001Y-135563825D01*
X107356533Y-135564692D01*
X107356532Y-135564692D01*
X107100855Y-135654479D01*
X107100852Y-135654480D01*
X107098384Y-135655347D01*
X107096064Y-135656552D01*
X107096062Y-135656553D01*
X106855578Y-135781475D01*
X106855573Y-135781478D01*
X106853263Y-135782678D01*
X106628529Y-135943275D01*
X106428665Y-136133936D01*
X106257659Y-136350856D01*
X106118923Y-136589707D01*
X106015226Y-136845723D01*
X105948636Y-137113796D01*
X105920483Y-137388577D01*
X105920586Y-137391196D01*
X105927795Y-137574675D01*
X105931327Y-137664583D01*
X105980953Y-137936309D01*
X106068370Y-138198331D01*
X106069536Y-138200665D01*
X106069540Y-138200674D01*
X106143694Y-138349078D01*
X106191834Y-138445421D01*
X106193318Y-138447568D01*
X106193322Y-138447575D01*
X106278687Y-138571087D01*
X106291490Y-138620061D01*
X106269817Y-138665806D01*
X106223811Y-138686917D01*
X106194762Y-138683479D01*
X106172494Y-138676179D01*
X106172483Y-138676176D01*
X106169938Y-138675342D01*
X105901772Y-138628781D01*
X105899518Y-138628669D01*
X105899511Y-138628668D01*
X105846961Y-138626052D01*
X105815778Y-138624500D01*
X105645856Y-138624500D01*
X105443536Y-138639180D01*
X105177758Y-138697858D01*
X104923235Y-138794288D01*
X104685298Y-138926450D01*
X104683170Y-138928074D01*
X104514201Y-139057028D01*
X104468932Y-139091576D01*
X104278669Y-139286206D01*
X104118494Y-139506263D01*
X103991764Y-139747137D01*
X103901133Y-140003782D01*
X103848500Y-140270823D01*
X103834967Y-140542664D01*
X96160785Y-140542664D01*
X96165033Y-140457336D01*
X96139182Y-140186389D01*
X96138544Y-140183781D01*
X96075128Y-139924621D01*
X96075127Y-139924617D01*
X96074489Y-139922011D01*
X96044392Y-139847705D01*
X95973318Y-139672229D01*
X95973317Y-139672226D01*
X95972310Y-139669741D01*
X95960613Y-139649763D01*
X95888860Y-139527219D01*
X95834783Y-139434863D01*
X95664791Y-139222299D01*
X95515378Y-139082725D01*
X95467850Y-139038327D01*
X95467848Y-139038325D01*
X95465895Y-139036501D01*
X95242261Y-138881360D01*
X95239867Y-138880169D01*
X95239862Y-138880166D01*
X95000967Y-138761317D01*
X95000961Y-138761315D01*
X94998574Y-138760127D01*
X94806863Y-138697281D01*
X94742489Y-138676178D01*
X94742486Y-138676177D01*
X94739938Y-138675342D01*
X94471772Y-138628781D01*
X94469518Y-138628669D01*
X94469511Y-138628668D01*
X94416961Y-138626052D01*
X94385778Y-138624500D01*
X94215856Y-138624500D01*
X94013536Y-138639180D01*
X94010918Y-138639758D01*
X93812887Y-138683479D01*
X93801205Y-138686058D01*
X93751025Y-138679407D01*
X93716860Y-138642057D01*
X93714696Y-138591484D01*
X93722462Y-138574639D01*
X93724678Y-138571087D01*
X93839584Y-138386841D01*
X93851808Y-138367241D01*
X93851809Y-138367239D01*
X93853188Y-138365028D01*
X93964875Y-138112396D01*
X94039853Y-137846547D01*
X94076623Y-137572786D01*
X94080482Y-137450000D01*
X94080348Y-137448106D01*
X94061158Y-137177077D01*
X94061157Y-137177071D01*
X94060973Y-137174470D01*
X94047364Y-137111256D01*
X94003387Y-136906994D01*
X94002837Y-136904438D01*
X93907233Y-136645291D01*
X93878552Y-136592136D01*
X93777310Y-136404501D01*
X93777307Y-136404496D01*
X93776068Y-136402200D01*
X93611960Y-136180016D01*
X93418183Y-135983171D01*
X93332897Y-135918083D01*
X93200683Y-135817180D01*
X93200677Y-135817176D01*
X93198604Y-135815594D01*
X92957604Y-135680627D01*
X92699991Y-135580964D01*
X92697448Y-135580375D01*
X92697443Y-135580373D01*
X92433451Y-135519183D01*
X92433449Y-135519183D01*
X92430905Y-135518593D01*
X92428305Y-135518368D01*
X92428300Y-135518367D01*
X92158324Y-135494985D01*
X92158325Y-135494985D01*
X92155715Y-135494759D01*
X91879913Y-135509938D01*
X91877341Y-135510450D01*
X91877338Y-135510450D01*
X91687112Y-135548288D01*
X91609001Y-135563825D01*
X91606533Y-135564692D01*
X91606532Y-135564692D01*
X91350855Y-135654479D01*
X91350852Y-135654480D01*
X91348384Y-135655347D01*
X91346064Y-135656552D01*
X91346062Y-135656553D01*
X91105578Y-135781475D01*
X91105573Y-135781478D01*
X91103263Y-135782678D01*
X90878529Y-135943275D01*
X90678665Y-136133936D01*
X90507659Y-136350856D01*
X90368923Y-136589707D01*
X90265226Y-136845723D01*
X90198636Y-137113796D01*
X90170483Y-137388577D01*
X83307607Y-137388577D01*
X83307607Y-126294440D01*
X85344901Y-126294440D01*
X85345584Y-126299663D01*
X85345584Y-126299666D01*
X85346708Y-126308257D01*
X85361633Y-126422394D01*
X85413605Y-126540510D01*
X85496639Y-126639291D01*
X85604060Y-126710796D01*
X85609092Y-126712368D01*
X85609094Y-126712369D01*
X85644714Y-126723497D01*
X85727233Y-126749278D01*
X85732501Y-126749375D01*
X85732504Y-126749375D01*
X85786552Y-126750365D01*
X85856255Y-126751643D01*
X85861338Y-126750257D01*
X85861340Y-126750257D01*
X85975671Y-126719086D01*
X85980755Y-126717700D01*
X86009962Y-126699767D01*
X86059556Y-126689632D01*
X86089686Y-126701228D01*
X86099672Y-126707875D01*
X86104060Y-126710796D01*
X86227233Y-126749278D01*
X86232501Y-126749375D01*
X86232504Y-126749375D01*
X86286552Y-126750365D01*
X86356255Y-126751643D01*
X86361338Y-126750257D01*
X86361340Y-126750257D01*
X86475671Y-126719086D01*
X86480755Y-126717700D01*
X86590724Y-126650179D01*
X86677322Y-126554507D01*
X86733588Y-126438375D01*
X86754997Y-126311120D01*
X86755133Y-126300000D01*
X86736839Y-126172259D01*
X86683428Y-126054788D01*
X86676003Y-126046170D01*
X86602633Y-125961020D01*
X86602632Y-125961019D01*
X86599193Y-125957028D01*
X86594774Y-125954164D01*
X86594772Y-125954162D01*
X86495329Y-125889708D01*
X86495330Y-125889708D01*
X86490906Y-125886841D01*
X86485857Y-125885331D01*
X86485855Y-125885330D01*
X86372326Y-125851377D01*
X86372325Y-125851377D01*
X86367273Y-125849866D01*
X86301771Y-125849466D01*
X86243501Y-125849110D01*
X86243500Y-125849110D01*
X86238231Y-125849078D01*
X86114155Y-125884539D01*
X86109700Y-125887350D01*
X86109698Y-125887351D01*
X86089927Y-125899826D01*
X86040460Y-125910567D01*
X86010188Y-125899339D01*
X85995330Y-125889708D01*
X85995327Y-125889707D01*
X85990906Y-125886841D01*
X85985857Y-125885331D01*
X85985855Y-125885330D01*
X85872326Y-125851377D01*
X85872325Y-125851377D01*
X85867273Y-125849866D01*
X85801771Y-125849466D01*
X85743501Y-125849110D01*
X85743500Y-125849110D01*
X85738231Y-125849078D01*
X85614155Y-125884539D01*
X85505019Y-125953399D01*
X85501531Y-125957348D01*
X85501529Y-125957350D01*
X85498288Y-125961020D01*
X85419596Y-126050122D01*
X85417357Y-126054891D01*
X85417355Y-126054894D01*
X85373892Y-126147469D01*
X85364754Y-126166932D01*
X85344901Y-126294440D01*
X83307607Y-126294440D01*
X83307607Y-123644440D01*
X86594901Y-123644440D01*
X86595584Y-123649663D01*
X86595584Y-123649666D01*
X86596708Y-123658257D01*
X86611633Y-123772394D01*
X86663605Y-123890510D01*
X86746639Y-123989291D01*
X86854060Y-124060796D01*
X86859092Y-124062368D01*
X86859094Y-124062369D01*
X86894714Y-124073497D01*
X86977233Y-124099278D01*
X86982501Y-124099375D01*
X86982504Y-124099375D01*
X87036552Y-124100365D01*
X87106255Y-124101643D01*
X87111338Y-124100257D01*
X87111340Y-124100257D01*
X87225671Y-124069086D01*
X87230755Y-124067700D01*
X87340724Y-124000179D01*
X87427322Y-123904507D01*
X87483588Y-123788375D01*
X87504997Y-123661120D01*
X87505133Y-123650000D01*
X87504337Y-123644440D01*
X95494901Y-123644440D01*
X95495584Y-123649663D01*
X95495584Y-123649666D01*
X95496708Y-123658257D01*
X95511633Y-123772394D01*
X95563605Y-123890510D01*
X95646639Y-123989291D01*
X95754060Y-124060796D01*
X95759092Y-124062368D01*
X95759094Y-124062369D01*
X95794714Y-124073497D01*
X95877233Y-124099278D01*
X95882501Y-124099375D01*
X95882504Y-124099375D01*
X95936552Y-124100365D01*
X96006255Y-124101643D01*
X96011338Y-124100257D01*
X96011340Y-124100257D01*
X96125671Y-124069086D01*
X96130755Y-124067700D01*
X96240724Y-124000179D01*
X96327322Y-123904507D01*
X96383588Y-123788375D01*
X96404997Y-123661120D01*
X96405133Y-123650000D01*
X96404337Y-123644440D01*
X96794901Y-123644440D01*
X96795584Y-123649663D01*
X96795584Y-123649666D01*
X96796708Y-123658257D01*
X96811633Y-123772394D01*
X96863605Y-123890510D01*
X96946639Y-123989291D01*
X97054060Y-124060796D01*
X97059092Y-124062368D01*
X97059094Y-124062369D01*
X97094714Y-124073497D01*
X97177233Y-124099278D01*
X97182501Y-124099375D01*
X97182504Y-124099375D01*
X97236552Y-124100365D01*
X97306255Y-124101643D01*
X97311338Y-124100257D01*
X97311340Y-124100257D01*
X97425671Y-124069086D01*
X97430755Y-124067700D01*
X97540724Y-124000179D01*
X97627322Y-123904507D01*
X97683588Y-123788375D01*
X97704997Y-123661120D01*
X97705133Y-123650000D01*
X97704337Y-123644440D01*
X98044901Y-123644440D01*
X98045584Y-123649663D01*
X98045584Y-123649666D01*
X98046708Y-123658257D01*
X98061633Y-123772394D01*
X98113605Y-123890510D01*
X98196639Y-123989291D01*
X98304060Y-124060796D01*
X98309092Y-124062368D01*
X98309094Y-124062369D01*
X98344714Y-124073497D01*
X98427233Y-124099278D01*
X98432501Y-124099375D01*
X98432504Y-124099375D01*
X98486552Y-124100365D01*
X98556255Y-124101643D01*
X98561338Y-124100257D01*
X98561340Y-124100257D01*
X98675671Y-124069086D01*
X98680755Y-124067700D01*
X98790724Y-124000179D01*
X98877322Y-123904507D01*
X98933588Y-123788375D01*
X98954997Y-123661120D01*
X98955133Y-123650000D01*
X98954337Y-123644440D01*
X99294901Y-123644440D01*
X99295584Y-123649663D01*
X99295584Y-123649666D01*
X99296708Y-123658257D01*
X99311633Y-123772394D01*
X99363605Y-123890510D01*
X99446639Y-123989291D01*
X99554060Y-124060796D01*
X99559092Y-124062368D01*
X99559094Y-124062369D01*
X99594714Y-124073497D01*
X99677233Y-124099278D01*
X99682501Y-124099375D01*
X99682504Y-124099375D01*
X99736552Y-124100365D01*
X99806255Y-124101643D01*
X99811338Y-124100257D01*
X99811340Y-124100257D01*
X99925671Y-124069086D01*
X99930755Y-124067700D01*
X100040724Y-124000179D01*
X100127322Y-123904507D01*
X100183588Y-123788375D01*
X100204997Y-123661120D01*
X100205133Y-123650000D01*
X100204337Y-123644440D01*
X100594901Y-123644440D01*
X100595584Y-123649663D01*
X100595584Y-123649666D01*
X100596708Y-123658257D01*
X100611633Y-123772394D01*
X100663605Y-123890510D01*
X100746639Y-123989291D01*
X100854060Y-124060796D01*
X100859092Y-124062368D01*
X100859094Y-124062369D01*
X100894714Y-124073497D01*
X100977233Y-124099278D01*
X100982501Y-124099375D01*
X100982504Y-124099375D01*
X101036552Y-124100365D01*
X101106255Y-124101643D01*
X101111338Y-124100257D01*
X101111340Y-124100257D01*
X101225671Y-124069086D01*
X101230755Y-124067700D01*
X101340724Y-124000179D01*
X101427322Y-123904507D01*
X101483588Y-123788375D01*
X101504997Y-123661120D01*
X101505133Y-123650000D01*
X101486839Y-123522259D01*
X101433428Y-123404788D01*
X101426003Y-123396170D01*
X101352633Y-123311020D01*
X101352632Y-123311019D01*
X101349193Y-123307028D01*
X101344774Y-123304164D01*
X101344772Y-123304162D01*
X101245329Y-123239708D01*
X101245330Y-123239708D01*
X101240906Y-123236841D01*
X101235857Y-123235331D01*
X101235855Y-123235330D01*
X101122326Y-123201377D01*
X101122325Y-123201377D01*
X101117273Y-123199866D01*
X101051771Y-123199466D01*
X100993501Y-123199110D01*
X100993500Y-123199110D01*
X100988231Y-123199078D01*
X100864155Y-123234539D01*
X100755019Y-123303399D01*
X100751531Y-123307348D01*
X100751529Y-123307350D01*
X100748288Y-123311020D01*
X100669596Y-123400122D01*
X100667357Y-123404891D01*
X100667355Y-123404894D01*
X100623892Y-123497469D01*
X100614754Y-123516932D01*
X100594901Y-123644440D01*
X100204337Y-123644440D01*
X100186839Y-123522259D01*
X100133428Y-123404788D01*
X100126003Y-123396170D01*
X100052633Y-123311020D01*
X100052632Y-123311019D01*
X100049193Y-123307028D01*
X100044774Y-123304164D01*
X100044772Y-123304162D01*
X99945329Y-123239708D01*
X99945330Y-123239708D01*
X99940906Y-123236841D01*
X99935857Y-123235331D01*
X99935855Y-123235330D01*
X99822326Y-123201377D01*
X99822325Y-123201377D01*
X99817273Y-123199866D01*
X99751771Y-123199466D01*
X99693501Y-123199110D01*
X99693500Y-123199110D01*
X99688231Y-123199078D01*
X99564155Y-123234539D01*
X99455019Y-123303399D01*
X99451531Y-123307348D01*
X99451529Y-123307350D01*
X99448288Y-123311020D01*
X99369596Y-123400122D01*
X99367357Y-123404891D01*
X99367355Y-123404894D01*
X99323892Y-123497469D01*
X99314754Y-123516932D01*
X99294901Y-123644440D01*
X98954337Y-123644440D01*
X98936839Y-123522259D01*
X98883428Y-123404788D01*
X98876003Y-123396170D01*
X98802633Y-123311020D01*
X98802632Y-123311019D01*
X98799193Y-123307028D01*
X98794774Y-123304164D01*
X98794772Y-123304162D01*
X98695329Y-123239708D01*
X98695330Y-123239708D01*
X98690906Y-123236841D01*
X98685857Y-123235331D01*
X98685855Y-123235330D01*
X98572326Y-123201377D01*
X98572325Y-123201377D01*
X98567273Y-123199866D01*
X98501771Y-123199466D01*
X98443501Y-123199110D01*
X98443500Y-123199110D01*
X98438231Y-123199078D01*
X98314155Y-123234539D01*
X98205019Y-123303399D01*
X98201531Y-123307348D01*
X98201529Y-123307350D01*
X98198288Y-123311020D01*
X98119596Y-123400122D01*
X98117357Y-123404891D01*
X98117355Y-123404894D01*
X98073892Y-123497469D01*
X98064754Y-123516932D01*
X98044901Y-123644440D01*
X97704337Y-123644440D01*
X97686839Y-123522259D01*
X97633428Y-123404788D01*
X97626003Y-123396170D01*
X97552633Y-123311020D01*
X97552632Y-123311019D01*
X97549193Y-123307028D01*
X97544774Y-123304164D01*
X97544772Y-123304162D01*
X97445329Y-123239708D01*
X97445330Y-123239708D01*
X97440906Y-123236841D01*
X97435857Y-123235331D01*
X97435855Y-123235330D01*
X97322326Y-123201377D01*
X97322325Y-123201377D01*
X97317273Y-123199866D01*
X97251771Y-123199466D01*
X97193501Y-123199110D01*
X97193500Y-123199110D01*
X97188231Y-123199078D01*
X97064155Y-123234539D01*
X96955019Y-123303399D01*
X96951531Y-123307348D01*
X96951529Y-123307350D01*
X96948288Y-123311020D01*
X96869596Y-123400122D01*
X96867357Y-123404891D01*
X96867355Y-123404894D01*
X96823892Y-123497469D01*
X96814754Y-123516932D01*
X96794901Y-123644440D01*
X96404337Y-123644440D01*
X96386839Y-123522259D01*
X96333428Y-123404788D01*
X96326003Y-123396170D01*
X96252633Y-123311020D01*
X96252632Y-123311019D01*
X96249193Y-123307028D01*
X96244774Y-123304164D01*
X96244772Y-123304162D01*
X96145329Y-123239708D01*
X96145330Y-123239708D01*
X96140906Y-123236841D01*
X96135857Y-123235331D01*
X96135855Y-123235330D01*
X96022326Y-123201377D01*
X96022325Y-123201377D01*
X96017273Y-123199866D01*
X95951771Y-123199466D01*
X95893501Y-123199110D01*
X95893500Y-123199110D01*
X95888231Y-123199078D01*
X95764155Y-123234539D01*
X95655019Y-123303399D01*
X95651531Y-123307348D01*
X95651529Y-123307350D01*
X95648288Y-123311020D01*
X95569596Y-123400122D01*
X95567357Y-123404891D01*
X95567355Y-123404894D01*
X95523892Y-123497469D01*
X95514754Y-123516932D01*
X95494901Y-123644440D01*
X87504337Y-123644440D01*
X87486839Y-123522259D01*
X87433428Y-123404788D01*
X87426003Y-123396170D01*
X87352633Y-123311020D01*
X87352632Y-123311019D01*
X87349193Y-123307028D01*
X87344774Y-123304164D01*
X87344772Y-123304162D01*
X87245329Y-123239708D01*
X87245330Y-123239708D01*
X87240906Y-123236841D01*
X87235857Y-123235331D01*
X87235855Y-123235330D01*
X87122326Y-123201377D01*
X87122325Y-123201377D01*
X87117273Y-123199866D01*
X87051771Y-123199466D01*
X86993501Y-123199110D01*
X86993500Y-123199110D01*
X86988231Y-123199078D01*
X86864155Y-123234539D01*
X86755019Y-123303399D01*
X86751531Y-123307348D01*
X86751529Y-123307350D01*
X86748288Y-123311020D01*
X86669596Y-123400122D01*
X86667357Y-123404891D01*
X86667355Y-123404894D01*
X86623892Y-123497469D01*
X86614754Y-123516932D01*
X86594901Y-123644440D01*
X83307607Y-123644440D01*
X83307607Y-118394440D01*
X106444901Y-118394440D01*
X106445584Y-118399663D01*
X106445584Y-118399666D01*
X106446708Y-118408257D01*
X106461633Y-118522394D01*
X106513605Y-118640510D01*
X106596639Y-118739291D01*
X106704060Y-118810796D01*
X106709092Y-118812368D01*
X106709094Y-118812369D01*
X106744714Y-118823497D01*
X106827233Y-118849278D01*
X106832501Y-118849375D01*
X106832504Y-118849375D01*
X106886552Y-118850365D01*
X106956255Y-118851643D01*
X106961338Y-118850257D01*
X106961340Y-118850257D01*
X107075671Y-118819086D01*
X107080755Y-118817700D01*
X107190724Y-118750179D01*
X107277322Y-118654507D01*
X107333588Y-118538375D01*
X107354997Y-118411120D01*
X107355133Y-118400000D01*
X107336839Y-118272259D01*
X107283428Y-118154788D01*
X107276003Y-118146170D01*
X107202633Y-118061020D01*
X107202632Y-118061019D01*
X107199193Y-118057028D01*
X107194774Y-118054164D01*
X107194772Y-118054162D01*
X107123931Y-118008247D01*
X107090906Y-117986841D01*
X107085857Y-117985331D01*
X107085855Y-117985330D01*
X106972326Y-117951377D01*
X106972325Y-117951377D01*
X106967273Y-117949866D01*
X106901771Y-117949466D01*
X106843501Y-117949110D01*
X106843500Y-117949110D01*
X106838231Y-117949078D01*
X106714155Y-117984539D01*
X106605019Y-118053399D01*
X106601531Y-118057348D01*
X106601529Y-118057350D01*
X106598288Y-118061020D01*
X106519596Y-118150122D01*
X106517357Y-118154891D01*
X106517355Y-118154894D01*
X106473892Y-118247469D01*
X106464754Y-118266932D01*
X106444901Y-118394440D01*
X83307607Y-118394440D01*
X83307607Y-116594440D01*
X107844901Y-116594440D01*
X107845584Y-116599663D01*
X107845584Y-116599666D01*
X107846708Y-116608257D01*
X107861633Y-116722394D01*
X107913605Y-116840510D01*
X107996639Y-116939291D01*
X108104060Y-117010796D01*
X108109092Y-117012368D01*
X108109094Y-117012369D01*
X108144714Y-117023497D01*
X108227233Y-117049278D01*
X108232501Y-117049375D01*
X108232504Y-117049375D01*
X108286552Y-117050365D01*
X108356255Y-117051643D01*
X108361338Y-117050257D01*
X108361340Y-117050257D01*
X108475671Y-117019086D01*
X108480755Y-117017700D01*
X108590724Y-116950179D01*
X108677322Y-116854507D01*
X108733588Y-116738375D01*
X108754997Y-116611120D01*
X108755133Y-116600000D01*
X108736839Y-116472259D01*
X108732247Y-116462159D01*
X108685610Y-116359586D01*
X108685608Y-116359583D01*
X108683428Y-116354788D01*
X108676003Y-116346170D01*
X108602633Y-116261020D01*
X108602632Y-116261019D01*
X108599193Y-116257028D01*
X108594774Y-116254164D01*
X108594772Y-116254162D01*
X108495329Y-116189708D01*
X108495330Y-116189708D01*
X108490906Y-116186841D01*
X108485857Y-116185331D01*
X108485855Y-116185330D01*
X108372326Y-116151377D01*
X108372325Y-116151377D01*
X108367273Y-116149866D01*
X108301771Y-116149466D01*
X108243501Y-116149110D01*
X108243500Y-116149110D01*
X108238231Y-116149078D01*
X108114155Y-116184539D01*
X108005019Y-116253399D01*
X108001531Y-116257348D01*
X108001529Y-116257350D01*
X107998288Y-116261020D01*
X107919596Y-116350122D01*
X107917357Y-116354891D01*
X107917355Y-116354894D01*
X107873892Y-116447469D01*
X107864754Y-116466932D01*
X107844901Y-116594440D01*
X83307607Y-116594440D01*
X83307607Y-115594440D01*
X104444901Y-115594440D01*
X104445584Y-115599663D01*
X104445584Y-115599666D01*
X104452711Y-115654162D01*
X104461633Y-115722394D01*
X104463756Y-115727219D01*
X104473834Y-115750122D01*
X104513605Y-115840510D01*
X104596639Y-115939291D01*
X104704060Y-116010796D01*
X104709092Y-116012368D01*
X104709094Y-116012369D01*
X104744714Y-116023497D01*
X104827233Y-116049278D01*
X104832501Y-116049375D01*
X104832504Y-116049375D01*
X104886552Y-116050365D01*
X104956255Y-116051643D01*
X104961338Y-116050257D01*
X104961340Y-116050257D01*
X105075671Y-116019086D01*
X105080755Y-116017700D01*
X105118638Y-115994440D01*
X112444901Y-115994440D01*
X112445584Y-115999663D01*
X112445584Y-115999666D01*
X112452369Y-116051546D01*
X112461633Y-116122394D01*
X112513605Y-116240510D01*
X112596639Y-116339291D01*
X112704060Y-116410796D01*
X112709092Y-116412368D01*
X112709094Y-116412369D01*
X112744714Y-116423497D01*
X112827233Y-116449278D01*
X112832501Y-116449375D01*
X112832504Y-116449375D01*
X112886552Y-116450365D01*
X112956255Y-116451643D01*
X112961338Y-116450257D01*
X112961340Y-116450257D01*
X113075671Y-116419086D01*
X113080755Y-116417700D01*
X113190724Y-116350179D01*
X113277322Y-116254507D01*
X113333588Y-116138375D01*
X113348842Y-116047705D01*
X113352526Y-116025808D01*
X113364448Y-116004778D01*
X113355963Y-115994666D01*
X113352247Y-115979848D01*
X113337586Y-115877472D01*
X113337585Y-115877469D01*
X113336839Y-115872259D01*
X113283428Y-115754788D01*
X113276003Y-115746170D01*
X113202633Y-115661020D01*
X113202632Y-115661019D01*
X113199193Y-115657028D01*
X113194774Y-115654164D01*
X113194772Y-115654162D01*
X113095329Y-115589708D01*
X113095330Y-115589708D01*
X113090906Y-115586841D01*
X113085857Y-115585331D01*
X113085855Y-115585330D01*
X112972326Y-115551377D01*
X112972325Y-115551377D01*
X112967273Y-115549866D01*
X112901771Y-115549466D01*
X112843501Y-115549110D01*
X112843500Y-115549110D01*
X112838231Y-115549078D01*
X112714155Y-115584539D01*
X112605019Y-115653399D01*
X112601531Y-115657348D01*
X112601529Y-115657350D01*
X112598288Y-115661020D01*
X112519596Y-115750122D01*
X112517357Y-115754891D01*
X112517355Y-115754894D01*
X112479425Y-115835683D01*
X112464754Y-115866932D01*
X112444901Y-115994440D01*
X105118638Y-115994440D01*
X105190724Y-115950179D01*
X105277322Y-115854507D01*
X105333588Y-115738375D01*
X105354997Y-115611120D01*
X105355133Y-115600000D01*
X105353321Y-115587350D01*
X105337586Y-115477472D01*
X105337585Y-115477469D01*
X105336839Y-115472259D01*
X105283428Y-115354788D01*
X105276003Y-115346170D01*
X105202633Y-115261020D01*
X105202632Y-115261019D01*
X105199193Y-115257028D01*
X105194774Y-115254164D01*
X105194772Y-115254162D01*
X105095329Y-115189708D01*
X105095330Y-115189708D01*
X105090906Y-115186841D01*
X105085857Y-115185331D01*
X105085855Y-115185330D01*
X105058192Y-115177057D01*
X105038271Y-115171100D01*
X104997661Y-115140885D01*
X104985973Y-115091633D01*
X105008678Y-115046392D01*
X105040010Y-115028809D01*
X105075671Y-115019086D01*
X105080755Y-115017700D01*
X105190724Y-114950179D01*
X105277322Y-114854507D01*
X105333588Y-114738375D01*
X105354997Y-114611120D01*
X105355133Y-114600000D01*
X105348665Y-114554836D01*
X105337586Y-114477472D01*
X105337585Y-114477469D01*
X105336839Y-114472259D01*
X105329746Y-114456659D01*
X105285610Y-114359586D01*
X105285608Y-114359583D01*
X105283428Y-114354788D01*
X105276003Y-114346170D01*
X105202633Y-114261020D01*
X105202632Y-114261019D01*
X105199193Y-114257028D01*
X105194774Y-114254164D01*
X105194772Y-114254162D01*
X105095329Y-114189708D01*
X105095330Y-114189708D01*
X105090906Y-114186841D01*
X105085857Y-114185331D01*
X105085855Y-114185330D01*
X105058192Y-114177057D01*
X105038271Y-114171100D01*
X104997661Y-114140885D01*
X104985973Y-114091633D01*
X105008678Y-114046392D01*
X105040010Y-114028809D01*
X105075671Y-114019086D01*
X105080755Y-114017700D01*
X105190724Y-113950179D01*
X105277322Y-113854507D01*
X105333588Y-113738375D01*
X105354997Y-113611120D01*
X105355133Y-113600000D01*
X105353321Y-113587350D01*
X105337586Y-113477472D01*
X105337585Y-113477469D01*
X105336839Y-113472259D01*
X105323177Y-113442211D01*
X105285610Y-113359586D01*
X105285608Y-113359583D01*
X105283428Y-113354788D01*
X105279099Y-113349763D01*
X105202633Y-113261020D01*
X105202632Y-113261019D01*
X105199193Y-113257028D01*
X105194774Y-113254164D01*
X105194772Y-113254162D01*
X105095329Y-113189708D01*
X105095330Y-113189708D01*
X105090906Y-113186841D01*
X105085857Y-113185331D01*
X105085855Y-113185330D01*
X104972326Y-113151377D01*
X104972325Y-113151377D01*
X104967273Y-113149866D01*
X104901771Y-113149466D01*
X104843501Y-113149110D01*
X104843500Y-113149110D01*
X104838231Y-113149078D01*
X104714155Y-113184539D01*
X104605019Y-113253399D01*
X104601531Y-113257348D01*
X104601529Y-113257350D01*
X104598288Y-113261020D01*
X104519596Y-113350122D01*
X104517357Y-113354891D01*
X104517355Y-113354894D01*
X104479626Y-113435256D01*
X104464754Y-113466932D01*
X104444901Y-113594440D01*
X104445584Y-113599663D01*
X104445584Y-113599666D01*
X104452611Y-113653399D01*
X104461633Y-113722394D01*
X104463756Y-113727219D01*
X104473834Y-113750122D01*
X104513605Y-113840510D01*
X104596639Y-113939291D01*
X104704060Y-114010796D01*
X104709092Y-114012368D01*
X104709094Y-114012369D01*
X104763134Y-114029252D01*
X104803374Y-114059962D01*
X104814459Y-114109352D01*
X104791203Y-114154312D01*
X104761403Y-114171036D01*
X104714155Y-114184539D01*
X104605019Y-114253399D01*
X104601531Y-114257348D01*
X104601529Y-114257350D01*
X104598288Y-114261020D01*
X104519596Y-114350122D01*
X104517357Y-114354891D01*
X104517355Y-114354894D01*
X104490662Y-114411750D01*
X104464754Y-114466932D01*
X104444901Y-114594440D01*
X104445584Y-114599663D01*
X104445584Y-114599666D01*
X104454446Y-114667432D01*
X104461633Y-114722394D01*
X104513605Y-114840510D01*
X104596639Y-114939291D01*
X104704060Y-115010796D01*
X104709092Y-115012368D01*
X104709094Y-115012369D01*
X104763134Y-115029252D01*
X104803374Y-115059962D01*
X104814459Y-115109352D01*
X104791203Y-115154312D01*
X104761403Y-115171036D01*
X104714155Y-115184539D01*
X104605019Y-115253399D01*
X104601531Y-115257348D01*
X104601529Y-115257350D01*
X104598288Y-115261020D01*
X104519596Y-115350122D01*
X104517357Y-115354891D01*
X104517355Y-115354894D01*
X104473892Y-115447469D01*
X104464754Y-115466932D01*
X104444901Y-115594440D01*
X83307607Y-115594440D01*
X83307607Y-113094440D01*
X103244901Y-113094440D01*
X103245584Y-113099663D01*
X103245584Y-113099666D01*
X103257359Y-113189708D01*
X103261633Y-113222394D01*
X103263756Y-113227219D01*
X103296039Y-113300587D01*
X103313605Y-113340510D01*
X103396639Y-113439291D01*
X103504060Y-113510796D01*
X103509092Y-113512368D01*
X103509094Y-113512369D01*
X103544714Y-113523497D01*
X103627233Y-113549278D01*
X103632501Y-113549375D01*
X103632504Y-113549375D01*
X103686552Y-113550365D01*
X103756255Y-113551643D01*
X103761338Y-113550257D01*
X103761340Y-113550257D01*
X103875671Y-113519086D01*
X103880755Y-113517700D01*
X103990724Y-113450179D01*
X104077322Y-113354507D01*
X104133588Y-113238375D01*
X104148367Y-113150527D01*
X104154522Y-113113944D01*
X104154522Y-113113943D01*
X104154997Y-113111120D01*
X104155133Y-113100000D01*
X104156808Y-113100020D01*
X104169444Y-113056738D01*
X104176776Y-113048195D01*
X104302797Y-112922174D01*
X104348673Y-112900782D01*
X104355123Y-112900500D01*
X107129564Y-112900500D01*
X107177130Y-112917813D01*
X107186210Y-112926885D01*
X107193244Y-112935254D01*
X107193250Y-112935260D01*
X107196639Y-112939291D01*
X107304060Y-113010796D01*
X107309092Y-113012368D01*
X107309094Y-113012369D01*
X107344714Y-113023497D01*
X107427233Y-113049278D01*
X107432501Y-113049375D01*
X107432504Y-113049375D01*
X107486552Y-113050365D01*
X107556255Y-113051643D01*
X107561338Y-113050257D01*
X107561340Y-113050257D01*
X107675671Y-113019086D01*
X107680755Y-113017700D01*
X107790724Y-112950179D01*
X107877322Y-112854507D01*
X107933588Y-112738375D01*
X107954997Y-112611120D01*
X107955133Y-112600000D01*
X107936839Y-112472259D01*
X107934659Y-112467464D01*
X107885610Y-112359586D01*
X107885608Y-112359583D01*
X107883428Y-112354788D01*
X107864294Y-112332581D01*
X107802633Y-112261020D01*
X107802632Y-112261019D01*
X107799193Y-112257028D01*
X107794774Y-112254164D01*
X107794772Y-112254162D01*
X107695329Y-112189708D01*
X107695330Y-112189708D01*
X107690906Y-112186841D01*
X107685857Y-112185331D01*
X107685855Y-112185330D01*
X107572326Y-112151377D01*
X107572325Y-112151377D01*
X107567273Y-112149866D01*
X107501771Y-112149466D01*
X107443501Y-112149110D01*
X107443500Y-112149110D01*
X107438231Y-112149078D01*
X107314155Y-112184539D01*
X107205019Y-112253399D01*
X107201531Y-112257349D01*
X107201528Y-112257351D01*
X107186395Y-112274486D01*
X107141931Y-112298678D01*
X107130930Y-112299500D01*
X104254567Y-112299500D01*
X104249094Y-112299098D01*
X104244658Y-112297575D01*
X104237834Y-112297831D01*
X104237833Y-112297831D01*
X104194759Y-112299448D01*
X104191983Y-112299500D01*
X104172052Y-112299500D01*
X104168700Y-112300124D01*
X104165309Y-112300437D01*
X104165291Y-112300247D01*
X104161245Y-112300706D01*
X104132792Y-112301774D01*
X104126515Y-112304471D01*
X104126510Y-112304472D01*
X104119657Y-112307416D01*
X104103998Y-112312174D01*
X104089947Y-112314791D01*
X104084132Y-112318376D01*
X104084128Y-112318377D01*
X104065710Y-112329730D01*
X104056093Y-112334726D01*
X104034733Y-112343903D01*
X104034731Y-112343904D01*
X104029937Y-112345964D01*
X104025051Y-112349977D01*
X104018618Y-112356410D01*
X104005123Y-112367077D01*
X104000470Y-112369945D01*
X104000468Y-112369947D01*
X103994652Y-112373532D01*
X103990516Y-112378971D01*
X103975963Y-112398109D01*
X103969385Y-112405643D01*
X103747280Y-112627748D01*
X103701404Y-112649140D01*
X103694503Y-112649421D01*
X103643501Y-112649110D01*
X103643500Y-112649110D01*
X103638231Y-112649078D01*
X103514155Y-112684539D01*
X103405019Y-112753399D01*
X103401531Y-112757348D01*
X103401529Y-112757350D01*
X103365845Y-112797755D01*
X103319596Y-112850122D01*
X103317357Y-112854891D01*
X103317355Y-112854894D01*
X103295811Y-112900782D01*
X103264754Y-112966932D01*
X103244901Y-113094440D01*
X83307607Y-113094440D01*
X83307607Y-111194440D01*
X104444901Y-111194440D01*
X104445584Y-111199663D01*
X104445584Y-111199666D01*
X104455759Y-111277472D01*
X104461633Y-111322394D01*
X104463756Y-111327219D01*
X104483523Y-111372142D01*
X104513605Y-111440510D01*
X104596639Y-111539291D01*
X104704060Y-111610796D01*
X104709092Y-111612368D01*
X104709094Y-111612369D01*
X104741183Y-111622394D01*
X104827233Y-111649278D01*
X104832501Y-111649375D01*
X104832504Y-111649375D01*
X104886552Y-111650365D01*
X104956255Y-111651643D01*
X104961338Y-111650257D01*
X104961340Y-111650257D01*
X105075671Y-111619086D01*
X105080755Y-111617700D01*
X105190724Y-111550179D01*
X105241176Y-111494440D01*
X107844901Y-111494440D01*
X107845584Y-111499663D01*
X107845584Y-111499666D01*
X107860659Y-111614943D01*
X107861633Y-111622394D01*
X107913605Y-111740510D01*
X107996639Y-111839291D01*
X108104060Y-111910796D01*
X108109092Y-111912368D01*
X108109094Y-111912369D01*
X108144714Y-111923497D01*
X108227233Y-111949278D01*
X108232501Y-111949375D01*
X108232504Y-111949375D01*
X108286552Y-111950365D01*
X108356255Y-111951643D01*
X108361338Y-111950257D01*
X108361340Y-111950257D01*
X108475671Y-111919086D01*
X108480755Y-111917700D01*
X108590724Y-111850179D01*
X108677322Y-111754507D01*
X108731790Y-111642086D01*
X108768110Y-111606828D01*
X108818596Y-111603165D01*
X108861209Y-111635247D01*
X108861483Y-111635687D01*
X108863605Y-111640510D01*
X108946639Y-111739291D01*
X109054060Y-111810796D01*
X109059092Y-111812368D01*
X109059094Y-111812369D01*
X109094714Y-111823497D01*
X109177233Y-111849278D01*
X109182501Y-111849375D01*
X109182504Y-111849375D01*
X109236552Y-111850365D01*
X109306255Y-111851643D01*
X109311338Y-111850257D01*
X109311340Y-111850257D01*
X109425671Y-111819086D01*
X109430755Y-111817700D01*
X109540724Y-111750179D01*
X109627322Y-111654507D01*
X109683588Y-111538375D01*
X109704997Y-111411120D01*
X109705133Y-111400000D01*
X109701160Y-111372259D01*
X109687586Y-111277472D01*
X109687585Y-111277469D01*
X109686839Y-111272259D01*
X109684417Y-111266932D01*
X109635610Y-111159586D01*
X109635608Y-111159583D01*
X109633428Y-111154788D01*
X109629809Y-111150587D01*
X109552633Y-111061020D01*
X109552632Y-111061019D01*
X109549193Y-111057028D01*
X109544774Y-111054164D01*
X109544772Y-111054162D01*
X109452630Y-110994440D01*
X112244901Y-110994440D01*
X112245584Y-110999663D01*
X112245584Y-110999666D01*
X112257359Y-111089708D01*
X112261633Y-111122394D01*
X112263756Y-111127219D01*
X112273834Y-111150122D01*
X112313605Y-111240510D01*
X112396639Y-111339291D01*
X112504060Y-111410796D01*
X112509092Y-111412368D01*
X112509094Y-111412369D01*
X112544714Y-111423497D01*
X112627233Y-111449278D01*
X112632501Y-111449375D01*
X112632504Y-111449375D01*
X112686552Y-111450365D01*
X112756255Y-111451643D01*
X112761338Y-111450257D01*
X112761340Y-111450257D01*
X112875671Y-111419086D01*
X112880755Y-111417700D01*
X112990724Y-111350179D01*
X113077322Y-111254507D01*
X113133588Y-111138375D01*
X113148367Y-111050527D01*
X113154522Y-111013944D01*
X113154522Y-111013943D01*
X113154997Y-111011120D01*
X113155133Y-111000000D01*
X113153321Y-110987350D01*
X113137586Y-110877472D01*
X113137585Y-110877469D01*
X113136839Y-110872259D01*
X113128264Y-110853399D01*
X113085610Y-110759586D01*
X113085608Y-110759583D01*
X113083428Y-110754788D01*
X113076003Y-110746170D01*
X113002633Y-110661020D01*
X113002632Y-110661019D01*
X112999193Y-110657028D01*
X112994774Y-110654164D01*
X112994772Y-110654162D01*
X112895329Y-110589708D01*
X112895330Y-110589708D01*
X112890906Y-110586841D01*
X112885857Y-110585331D01*
X112885855Y-110585330D01*
X112772326Y-110551377D01*
X112772325Y-110551377D01*
X112767273Y-110549866D01*
X112701771Y-110549466D01*
X112643501Y-110549110D01*
X112643500Y-110549110D01*
X112638231Y-110549078D01*
X112514155Y-110584539D01*
X112405019Y-110653399D01*
X112401531Y-110657348D01*
X112401529Y-110657350D01*
X112398288Y-110661020D01*
X112319596Y-110750122D01*
X112317357Y-110754891D01*
X112317355Y-110754894D01*
X112301010Y-110789708D01*
X112264754Y-110866932D01*
X112244901Y-110994440D01*
X109452630Y-110994440D01*
X109445329Y-110989708D01*
X109445330Y-110989708D01*
X109440906Y-110986841D01*
X109435857Y-110985331D01*
X109435855Y-110985330D01*
X109322326Y-110951377D01*
X109322325Y-110951377D01*
X109317273Y-110949866D01*
X109251771Y-110949466D01*
X109193501Y-110949110D01*
X109193500Y-110949110D01*
X109188231Y-110949078D01*
X109064155Y-110984539D01*
X108955019Y-111053399D01*
X108951531Y-111057348D01*
X108951529Y-111057350D01*
X108938362Y-111072259D01*
X108869596Y-111150122D01*
X108867357Y-111154891D01*
X108867355Y-111154894D01*
X108818905Y-111258090D01*
X108783018Y-111293789D01*
X108732580Y-111298069D01*
X108691192Y-111268927D01*
X108688029Y-111263368D01*
X108685608Y-111259583D01*
X108683428Y-111254788D01*
X108679099Y-111249763D01*
X108602633Y-111161020D01*
X108602632Y-111161019D01*
X108599193Y-111157028D01*
X108594774Y-111154164D01*
X108594772Y-111154162D01*
X108495329Y-111089708D01*
X108495330Y-111089708D01*
X108490906Y-111086841D01*
X108485857Y-111085331D01*
X108485855Y-111085330D01*
X108372326Y-111051377D01*
X108372325Y-111051377D01*
X108367273Y-111049866D01*
X108301771Y-111049466D01*
X108243501Y-111049110D01*
X108243500Y-111049110D01*
X108238231Y-111049078D01*
X108114155Y-111084539D01*
X108005019Y-111153399D01*
X108001531Y-111157348D01*
X108001529Y-111157350D01*
X107968773Y-111194440D01*
X107919596Y-111250122D01*
X107917357Y-111254891D01*
X107917355Y-111254894D01*
X107885664Y-111322394D01*
X107864754Y-111366932D01*
X107844901Y-111494440D01*
X105241176Y-111494440D01*
X105277322Y-111454507D01*
X105333588Y-111338375D01*
X105354997Y-111211120D01*
X105355133Y-111200000D01*
X105348658Y-111154788D01*
X105337586Y-111077472D01*
X105337585Y-111077469D01*
X105336839Y-111072259D01*
X105328264Y-111053399D01*
X105285610Y-110959586D01*
X105285608Y-110959583D01*
X105283428Y-110954788D01*
X105279160Y-110949834D01*
X105202633Y-110861020D01*
X105202632Y-110861019D01*
X105199193Y-110857028D01*
X105194774Y-110854164D01*
X105194772Y-110854162D01*
X105095329Y-110789708D01*
X105095330Y-110789708D01*
X105090906Y-110786841D01*
X105085857Y-110785331D01*
X105085855Y-110785330D01*
X105058192Y-110777057D01*
X105038271Y-110771100D01*
X104997661Y-110740885D01*
X104985973Y-110691633D01*
X105008678Y-110646392D01*
X105040010Y-110628809D01*
X105075671Y-110619086D01*
X105080755Y-110617700D01*
X105190724Y-110550179D01*
X105277322Y-110454507D01*
X105333588Y-110338375D01*
X105354997Y-110211120D01*
X105355133Y-110200000D01*
X105336839Y-110072259D01*
X105332247Y-110062159D01*
X105285610Y-109959586D01*
X105285608Y-109959583D01*
X105283428Y-109954788D01*
X105276003Y-109946170D01*
X105202633Y-109861020D01*
X105202632Y-109861019D01*
X105199193Y-109857028D01*
X105194774Y-109854164D01*
X105194772Y-109854162D01*
X105118162Y-109804507D01*
X105090906Y-109786841D01*
X105085857Y-109785331D01*
X105085855Y-109785330D01*
X104972326Y-109751377D01*
X104972325Y-109751377D01*
X104967273Y-109749866D01*
X104901771Y-109749466D01*
X104843501Y-109749110D01*
X104843500Y-109749110D01*
X104838231Y-109749078D01*
X104714155Y-109784539D01*
X104605019Y-109853399D01*
X104601531Y-109857348D01*
X104601529Y-109857350D01*
X104583414Y-109877862D01*
X104519596Y-109950122D01*
X104517357Y-109954891D01*
X104517355Y-109954894D01*
X104492341Y-110008173D01*
X104464754Y-110066932D01*
X104444901Y-110194440D01*
X104445584Y-110199663D01*
X104445584Y-110199666D01*
X104457390Y-110289943D01*
X104461633Y-110322394D01*
X104513605Y-110440510D01*
X104596639Y-110539291D01*
X104704060Y-110610796D01*
X104709092Y-110612368D01*
X104709094Y-110612369D01*
X104763134Y-110629252D01*
X104803374Y-110659962D01*
X104814459Y-110709352D01*
X104791203Y-110754312D01*
X104761403Y-110771036D01*
X104714155Y-110784539D01*
X104605019Y-110853399D01*
X104601531Y-110857348D01*
X104601529Y-110857350D01*
X104588362Y-110872259D01*
X104519596Y-110950122D01*
X104517357Y-110954891D01*
X104517355Y-110954894D01*
X104489632Y-111013944D01*
X104464754Y-111066932D01*
X104444901Y-111194440D01*
X83307607Y-111194440D01*
X83307607Y-109869440D01*
X85894901Y-109869440D01*
X85895584Y-109874663D01*
X85895584Y-109874666D01*
X85907390Y-109964943D01*
X85911633Y-109997394D01*
X85963605Y-110115510D01*
X86046639Y-110214291D01*
X86154060Y-110285796D01*
X86159092Y-110287368D01*
X86159094Y-110287369D01*
X86194714Y-110298497D01*
X86277233Y-110324278D01*
X86282501Y-110324375D01*
X86282504Y-110324375D01*
X86336552Y-110325365D01*
X86406255Y-110326643D01*
X86411338Y-110325257D01*
X86411340Y-110325257D01*
X86525671Y-110294086D01*
X86530755Y-110292700D01*
X86640724Y-110225179D01*
X86727322Y-110129507D01*
X86783588Y-110013375D01*
X86804997Y-109886120D01*
X86805133Y-109875000D01*
X86795941Y-109810816D01*
X86806336Y-109761276D01*
X86846142Y-109730007D01*
X86900617Y-109733504D01*
X86904060Y-109735796D01*
X86909090Y-109737367D01*
X86909091Y-109737368D01*
X86938490Y-109746553D01*
X87027233Y-109774278D01*
X87032501Y-109774375D01*
X87032504Y-109774375D01*
X87086552Y-109775365D01*
X87156255Y-109776643D01*
X87161338Y-109775257D01*
X87161340Y-109775257D01*
X87275671Y-109744086D01*
X87280755Y-109742700D01*
X87390724Y-109675179D01*
X87477322Y-109579507D01*
X87533588Y-109463375D01*
X87554997Y-109336120D01*
X87555133Y-109325000D01*
X87554337Y-109319440D01*
X90444901Y-109319440D01*
X90445584Y-109324663D01*
X90445584Y-109324666D01*
X90460584Y-109439370D01*
X90461633Y-109447394D01*
X90463756Y-109452219D01*
X90506634Y-109549666D01*
X90513605Y-109565510D01*
X90596639Y-109664291D01*
X90704060Y-109735796D01*
X90709092Y-109737368D01*
X90709094Y-109737369D01*
X90740376Y-109747142D01*
X90827233Y-109774278D01*
X90832501Y-109774375D01*
X90832504Y-109774375D01*
X90886552Y-109775365D01*
X90956255Y-109776643D01*
X90961338Y-109775257D01*
X90961340Y-109775257D01*
X91075671Y-109744086D01*
X91080755Y-109742700D01*
X91190724Y-109675179D01*
X91277322Y-109579507D01*
X91333588Y-109463375D01*
X91354997Y-109336120D01*
X91355133Y-109325000D01*
X91354337Y-109319440D01*
X92944901Y-109319440D01*
X92945584Y-109324663D01*
X92945584Y-109324666D01*
X92960584Y-109439370D01*
X92961633Y-109447394D01*
X92963756Y-109452219D01*
X93006634Y-109549666D01*
X93013605Y-109565510D01*
X93096639Y-109664291D01*
X93204060Y-109735796D01*
X93209092Y-109737368D01*
X93209094Y-109737369D01*
X93240376Y-109747142D01*
X93327233Y-109774278D01*
X93332501Y-109774375D01*
X93332504Y-109774375D01*
X93386552Y-109775365D01*
X93456255Y-109776643D01*
X93461338Y-109775257D01*
X93461340Y-109775257D01*
X93575671Y-109744086D01*
X93580755Y-109742700D01*
X93690724Y-109675179D01*
X93777322Y-109579507D01*
X93833588Y-109463375D01*
X93854997Y-109336120D01*
X93855133Y-109325000D01*
X93854337Y-109319440D01*
X94244901Y-109319440D01*
X94245584Y-109324663D01*
X94245584Y-109324666D01*
X94260584Y-109439370D01*
X94261633Y-109447394D01*
X94263756Y-109452219D01*
X94306634Y-109549666D01*
X94313605Y-109565510D01*
X94396639Y-109664291D01*
X94504060Y-109735796D01*
X94509092Y-109737368D01*
X94509094Y-109737369D01*
X94540376Y-109747142D01*
X94627233Y-109774278D01*
X94632501Y-109774375D01*
X94632504Y-109774375D01*
X94686552Y-109775365D01*
X94756255Y-109776643D01*
X94761338Y-109775257D01*
X94761340Y-109775257D01*
X94875671Y-109744086D01*
X94880755Y-109742700D01*
X94990724Y-109675179D01*
X95077322Y-109579507D01*
X95094312Y-109544440D01*
X105894901Y-109544440D01*
X105895584Y-109549663D01*
X105895584Y-109549666D01*
X105910046Y-109660256D01*
X105911633Y-109672394D01*
X105913756Y-109677219D01*
X105960341Y-109783091D01*
X105963605Y-109790510D01*
X106046639Y-109889291D01*
X106154060Y-109960796D01*
X106159092Y-109962368D01*
X106159094Y-109962369D01*
X106194714Y-109973497D01*
X106277233Y-109999278D01*
X106282501Y-109999375D01*
X106282504Y-109999375D01*
X106336552Y-110000365D01*
X106406255Y-110001643D01*
X106411338Y-110000257D01*
X106411340Y-110000257D01*
X106525671Y-109969086D01*
X106530755Y-109967700D01*
X106640724Y-109900179D01*
X106727322Y-109804507D01*
X106783588Y-109688375D01*
X106803580Y-109569545D01*
X106804522Y-109563944D01*
X106804522Y-109563943D01*
X106804997Y-109561120D01*
X106805133Y-109550000D01*
X106802559Y-109532028D01*
X106787586Y-109427472D01*
X106787585Y-109427469D01*
X106786839Y-109422259D01*
X106747674Y-109336120D01*
X106735610Y-109309586D01*
X106735608Y-109309583D01*
X106733428Y-109304788D01*
X106729303Y-109300000D01*
X106724512Y-109294440D01*
X107144901Y-109294440D01*
X107145584Y-109299663D01*
X107145584Y-109299666D01*
X107160919Y-109416932D01*
X107161633Y-109422394D01*
X107163756Y-109427219D01*
X107210015Y-109532350D01*
X107213605Y-109540510D01*
X107296639Y-109639291D01*
X107404060Y-109710796D01*
X107409092Y-109712368D01*
X107409094Y-109712369D01*
X107444714Y-109723497D01*
X107527233Y-109749278D01*
X107532501Y-109749375D01*
X107532504Y-109749375D01*
X107586552Y-109750365D01*
X107656255Y-109751643D01*
X107661338Y-109750257D01*
X107661340Y-109750257D01*
X107775671Y-109719086D01*
X107780755Y-109717700D01*
X107890724Y-109650179D01*
X107977322Y-109554507D01*
X108033588Y-109438375D01*
X108035445Y-109439275D01*
X108061409Y-109405679D01*
X108110866Y-109394894D01*
X108155684Y-109418422D01*
X108168686Y-109438424D01*
X108211481Y-109535683D01*
X108213605Y-109540510D01*
X108296639Y-109639291D01*
X108404060Y-109710796D01*
X108409092Y-109712368D01*
X108409094Y-109712369D01*
X108444714Y-109723497D01*
X108527233Y-109749278D01*
X108532501Y-109749375D01*
X108532504Y-109749375D01*
X108586552Y-109750365D01*
X108656255Y-109751643D01*
X108661338Y-109750257D01*
X108661340Y-109750257D01*
X108775671Y-109719086D01*
X108780755Y-109717700D01*
X108890724Y-109650179D01*
X108977322Y-109554507D01*
X109033588Y-109438375D01*
X109054997Y-109311120D01*
X109055133Y-109300000D01*
X109054728Y-109297172D01*
X109054337Y-109294440D01*
X110444901Y-109294440D01*
X110445584Y-109299663D01*
X110445584Y-109299666D01*
X110460919Y-109416932D01*
X110461633Y-109422394D01*
X110463756Y-109427219D01*
X110510015Y-109532350D01*
X110513605Y-109540510D01*
X110596639Y-109639291D01*
X110704060Y-109710796D01*
X110709092Y-109712368D01*
X110709094Y-109712369D01*
X110744714Y-109723497D01*
X110827233Y-109749278D01*
X110832501Y-109749375D01*
X110832504Y-109749375D01*
X110886552Y-109750365D01*
X110956255Y-109751643D01*
X110961338Y-109750257D01*
X110961340Y-109750257D01*
X111075671Y-109719086D01*
X111080755Y-109717700D01*
X111190724Y-109650179D01*
X111277322Y-109554507D01*
X111333588Y-109438375D01*
X111335445Y-109439275D01*
X111361409Y-109405679D01*
X111410866Y-109394894D01*
X111455684Y-109418422D01*
X111468686Y-109438424D01*
X111511481Y-109535683D01*
X111513605Y-109540510D01*
X111596639Y-109639291D01*
X111704060Y-109710796D01*
X111709092Y-109712368D01*
X111709094Y-109712369D01*
X111744714Y-109723497D01*
X111827233Y-109749278D01*
X111832501Y-109749375D01*
X111832504Y-109749375D01*
X111886552Y-109750365D01*
X111956255Y-109751643D01*
X111961338Y-109750257D01*
X111961340Y-109750257D01*
X112075671Y-109719086D01*
X112080755Y-109717700D01*
X112190724Y-109650179D01*
X112277322Y-109554507D01*
X112333588Y-109438375D01*
X112354997Y-109311120D01*
X112355133Y-109300000D01*
X112354728Y-109297172D01*
X112337586Y-109177472D01*
X112337585Y-109177469D01*
X112336839Y-109172259D01*
X112334417Y-109166932D01*
X112285610Y-109059586D01*
X112285608Y-109059583D01*
X112283428Y-109054788D01*
X112276003Y-109046170D01*
X112202633Y-108961020D01*
X112202632Y-108961019D01*
X112199193Y-108957028D01*
X112194774Y-108954164D01*
X112194772Y-108954162D01*
X112095329Y-108889708D01*
X112095330Y-108889708D01*
X112090906Y-108886841D01*
X112085857Y-108885331D01*
X112085855Y-108885330D01*
X111972326Y-108851377D01*
X111972325Y-108851377D01*
X111967273Y-108849866D01*
X111901771Y-108849466D01*
X111843501Y-108849110D01*
X111843500Y-108849110D01*
X111838231Y-108849078D01*
X111714155Y-108884539D01*
X111605019Y-108953399D01*
X111601531Y-108957348D01*
X111601529Y-108957350D01*
X111579450Y-108982350D01*
X111519596Y-109050122D01*
X111517357Y-109054891D01*
X111517355Y-109054894D01*
X111466603Y-109162994D01*
X111430716Y-109198693D01*
X111380278Y-109202973D01*
X111338890Y-109173831D01*
X111332254Y-109162174D01*
X111285610Y-109059586D01*
X111285608Y-109059583D01*
X111283428Y-109054788D01*
X111276003Y-109046170D01*
X111202633Y-108961020D01*
X111202632Y-108961019D01*
X111199193Y-108957028D01*
X111194774Y-108954164D01*
X111194772Y-108954162D01*
X111095329Y-108889708D01*
X111095330Y-108889708D01*
X111090906Y-108886841D01*
X111085857Y-108885331D01*
X111085855Y-108885330D01*
X110972326Y-108851377D01*
X110972325Y-108851377D01*
X110967273Y-108849866D01*
X110901771Y-108849466D01*
X110843501Y-108849110D01*
X110843500Y-108849110D01*
X110838231Y-108849078D01*
X110714155Y-108884539D01*
X110605019Y-108953399D01*
X110601531Y-108957348D01*
X110601529Y-108957350D01*
X110579450Y-108982350D01*
X110519596Y-109050122D01*
X110517357Y-109054891D01*
X110517355Y-109054894D01*
X110480642Y-109133091D01*
X110464754Y-109166932D01*
X110444901Y-109294440D01*
X109054337Y-109294440D01*
X109037586Y-109177472D01*
X109037585Y-109177469D01*
X109036839Y-109172259D01*
X109034417Y-109166932D01*
X108985610Y-109059586D01*
X108985608Y-109059583D01*
X108983428Y-109054788D01*
X108976003Y-109046170D01*
X108902633Y-108961020D01*
X108902632Y-108961019D01*
X108899193Y-108957028D01*
X108894774Y-108954164D01*
X108894772Y-108954162D01*
X108795329Y-108889708D01*
X108795330Y-108889708D01*
X108790906Y-108886841D01*
X108785857Y-108885331D01*
X108785855Y-108885330D01*
X108672326Y-108851377D01*
X108672325Y-108851377D01*
X108667273Y-108849866D01*
X108601771Y-108849466D01*
X108543501Y-108849110D01*
X108543500Y-108849110D01*
X108538231Y-108849078D01*
X108414155Y-108884539D01*
X108305019Y-108953399D01*
X108301531Y-108957348D01*
X108301529Y-108957350D01*
X108279450Y-108982350D01*
X108219596Y-109050122D01*
X108217357Y-109054891D01*
X108217355Y-109054894D01*
X108166603Y-109162994D01*
X108130716Y-109198693D01*
X108080278Y-109202973D01*
X108038890Y-109173831D01*
X108032254Y-109162174D01*
X107985610Y-109059586D01*
X107985608Y-109059583D01*
X107983428Y-109054788D01*
X107976003Y-109046170D01*
X107902633Y-108961020D01*
X107902632Y-108961019D01*
X107899193Y-108957028D01*
X107894774Y-108954164D01*
X107894772Y-108954162D01*
X107795329Y-108889708D01*
X107795330Y-108889708D01*
X107790906Y-108886841D01*
X107785857Y-108885331D01*
X107785855Y-108885330D01*
X107672326Y-108851377D01*
X107672325Y-108851377D01*
X107667273Y-108849866D01*
X107601771Y-108849466D01*
X107543501Y-108849110D01*
X107543500Y-108849110D01*
X107538231Y-108849078D01*
X107414155Y-108884539D01*
X107305019Y-108953399D01*
X107301531Y-108957348D01*
X107301529Y-108957350D01*
X107279450Y-108982350D01*
X107219596Y-109050122D01*
X107217357Y-109054891D01*
X107217355Y-109054894D01*
X107180642Y-109133091D01*
X107164754Y-109166932D01*
X107144901Y-109294440D01*
X106724512Y-109294440D01*
X106652633Y-109211020D01*
X106652632Y-109211019D01*
X106649193Y-109207028D01*
X106644774Y-109204164D01*
X106644772Y-109204162D01*
X106545329Y-109139708D01*
X106545330Y-109139708D01*
X106540906Y-109136841D01*
X106535857Y-109135331D01*
X106535855Y-109135330D01*
X106422326Y-109101377D01*
X106422325Y-109101377D01*
X106417273Y-109099866D01*
X106351771Y-109099466D01*
X106293501Y-109099110D01*
X106293500Y-109099110D01*
X106288231Y-109099078D01*
X106164155Y-109134539D01*
X106055019Y-109203399D01*
X106051531Y-109207348D01*
X106051529Y-109207350D01*
X106048288Y-109211020D01*
X105969596Y-109300122D01*
X105967357Y-109304891D01*
X105967355Y-109304894D01*
X105956572Y-109327862D01*
X105914754Y-109416932D01*
X105894901Y-109544440D01*
X95094312Y-109544440D01*
X95133588Y-109463375D01*
X95154997Y-109336120D01*
X95155133Y-109325000D01*
X95151004Y-109296170D01*
X95137586Y-109202472D01*
X95137585Y-109202469D01*
X95136839Y-109197259D01*
X95132247Y-109187159D01*
X95085610Y-109084586D01*
X95085608Y-109084583D01*
X95083428Y-109079788D01*
X95076003Y-109071170D01*
X95002633Y-108986020D01*
X95002632Y-108986019D01*
X94999193Y-108982028D01*
X94994774Y-108979164D01*
X94994772Y-108979162D01*
X94895329Y-108914708D01*
X94895330Y-108914708D01*
X94890906Y-108911841D01*
X94885857Y-108910331D01*
X94885855Y-108910330D01*
X94772326Y-108876377D01*
X94772325Y-108876377D01*
X94767273Y-108874866D01*
X94701771Y-108874466D01*
X94643501Y-108874110D01*
X94643500Y-108874110D01*
X94638231Y-108874078D01*
X94514155Y-108909539D01*
X94405019Y-108978399D01*
X94401531Y-108982348D01*
X94401529Y-108982350D01*
X94398288Y-108986020D01*
X94319596Y-109075122D01*
X94317357Y-109079891D01*
X94317355Y-109079894D01*
X94278732Y-109162159D01*
X94264754Y-109191932D01*
X94244901Y-109319440D01*
X93854337Y-109319440D01*
X93851004Y-109296170D01*
X93837586Y-109202472D01*
X93837585Y-109202469D01*
X93836839Y-109197259D01*
X93832247Y-109187159D01*
X93785610Y-109084586D01*
X93785608Y-109084583D01*
X93783428Y-109079788D01*
X93776003Y-109071170D01*
X93702633Y-108986020D01*
X93702632Y-108986019D01*
X93699193Y-108982028D01*
X93694774Y-108979164D01*
X93694772Y-108979162D01*
X93595329Y-108914708D01*
X93595330Y-108914708D01*
X93590906Y-108911841D01*
X93585857Y-108910331D01*
X93585855Y-108910330D01*
X93472326Y-108876377D01*
X93472325Y-108876377D01*
X93467273Y-108874866D01*
X93401771Y-108874466D01*
X93343501Y-108874110D01*
X93343500Y-108874110D01*
X93338231Y-108874078D01*
X93214155Y-108909539D01*
X93105019Y-108978399D01*
X93101531Y-108982348D01*
X93101529Y-108982350D01*
X93098288Y-108986020D01*
X93019596Y-109075122D01*
X93017357Y-109079891D01*
X93017355Y-109079894D01*
X92978732Y-109162159D01*
X92964754Y-109191932D01*
X92944901Y-109319440D01*
X91354337Y-109319440D01*
X91351004Y-109296170D01*
X91337586Y-109202472D01*
X91337585Y-109202469D01*
X91336839Y-109197259D01*
X91332247Y-109187159D01*
X91285610Y-109084586D01*
X91285608Y-109084583D01*
X91283428Y-109079788D01*
X91276003Y-109071170D01*
X91202633Y-108986020D01*
X91202632Y-108986019D01*
X91199193Y-108982028D01*
X91194774Y-108979164D01*
X91194772Y-108979162D01*
X91095329Y-108914708D01*
X91095330Y-108914708D01*
X91090906Y-108911841D01*
X91085857Y-108910331D01*
X91085855Y-108910330D01*
X90972326Y-108876377D01*
X90972325Y-108876377D01*
X90967273Y-108874866D01*
X90901771Y-108874466D01*
X90843501Y-108874110D01*
X90843500Y-108874110D01*
X90838231Y-108874078D01*
X90714155Y-108909539D01*
X90605019Y-108978399D01*
X90601531Y-108982348D01*
X90601529Y-108982350D01*
X90598288Y-108986020D01*
X90519596Y-109075122D01*
X90517357Y-109079891D01*
X90517355Y-109079894D01*
X90478732Y-109162159D01*
X90464754Y-109191932D01*
X90444901Y-109319440D01*
X87554337Y-109319440D01*
X87551004Y-109296170D01*
X87537586Y-109202472D01*
X87537585Y-109202469D01*
X87536839Y-109197259D01*
X87532247Y-109187159D01*
X87485610Y-109084586D01*
X87485608Y-109084583D01*
X87483428Y-109079788D01*
X87476003Y-109071170D01*
X87402633Y-108986020D01*
X87402632Y-108986019D01*
X87399193Y-108982028D01*
X87394774Y-108979164D01*
X87394772Y-108979162D01*
X87295329Y-108914708D01*
X87295330Y-108914708D01*
X87290906Y-108911841D01*
X87285857Y-108910331D01*
X87285855Y-108910330D01*
X87172326Y-108876377D01*
X87172325Y-108876377D01*
X87167273Y-108874866D01*
X87101771Y-108874466D01*
X87043501Y-108874110D01*
X87043500Y-108874110D01*
X87038231Y-108874078D01*
X86914155Y-108909539D01*
X86805019Y-108978399D01*
X86801531Y-108982348D01*
X86801529Y-108982350D01*
X86798288Y-108986020D01*
X86719596Y-109075122D01*
X86717357Y-109079891D01*
X86717355Y-109079894D01*
X86678732Y-109162159D01*
X86664754Y-109191932D01*
X86644901Y-109319440D01*
X86645584Y-109324663D01*
X86645584Y-109324665D01*
X86654123Y-109389961D01*
X86643124Y-109439370D01*
X86602939Y-109470150D01*
X86549710Y-109466732D01*
X86545328Y-109464707D01*
X86540906Y-109461841D01*
X86535857Y-109460331D01*
X86535855Y-109460330D01*
X86422326Y-109426377D01*
X86422325Y-109426377D01*
X86417273Y-109424866D01*
X86351771Y-109424466D01*
X86293501Y-109424110D01*
X86293500Y-109424110D01*
X86288231Y-109424078D01*
X86164155Y-109459539D01*
X86055019Y-109528399D01*
X86051531Y-109532348D01*
X86051529Y-109532350D01*
X86026507Y-109560683D01*
X85969596Y-109625122D01*
X85967357Y-109629891D01*
X85967355Y-109629894D01*
X85944799Y-109677937D01*
X85914754Y-109741932D01*
X85894901Y-109869440D01*
X83307607Y-109869440D01*
X83307607Y-108694440D01*
X101594901Y-108694440D01*
X101595584Y-108699663D01*
X101595584Y-108699666D01*
X101596708Y-108708257D01*
X101611633Y-108822394D01*
X101613756Y-108827219D01*
X101650326Y-108910330D01*
X101663605Y-108940510D01*
X101746639Y-109039291D01*
X101854060Y-109110796D01*
X101859092Y-109112368D01*
X101859094Y-109112369D01*
X101894714Y-109123497D01*
X101977233Y-109149278D01*
X101982501Y-109149375D01*
X101982504Y-109149375D01*
X102036552Y-109150365D01*
X102106255Y-109151643D01*
X102111338Y-109150257D01*
X102111340Y-109150257D01*
X102225671Y-109119086D01*
X102230755Y-109117700D01*
X102340724Y-109050179D01*
X102427322Y-108954507D01*
X102483588Y-108838375D01*
X102504997Y-108711120D01*
X102505133Y-108700000D01*
X102486839Y-108572259D01*
X102433428Y-108454788D01*
X102428681Y-108449278D01*
X102352633Y-108361020D01*
X102352632Y-108361019D01*
X102349193Y-108357028D01*
X102344774Y-108354164D01*
X102344772Y-108354162D01*
X102245329Y-108289708D01*
X102245330Y-108289708D01*
X102240906Y-108286841D01*
X102235857Y-108285331D01*
X102235855Y-108285330D01*
X102122326Y-108251377D01*
X102122325Y-108251377D01*
X102117273Y-108249866D01*
X102051771Y-108249466D01*
X101993501Y-108249110D01*
X101993500Y-108249110D01*
X101988231Y-108249078D01*
X101864155Y-108284539D01*
X101755019Y-108353399D01*
X101751531Y-108357348D01*
X101751529Y-108357350D01*
X101748288Y-108361020D01*
X101669596Y-108450122D01*
X101667357Y-108454891D01*
X101667355Y-108454894D01*
X101623892Y-108547469D01*
X101614754Y-108566932D01*
X101594901Y-108694440D01*
X83307607Y-108694440D01*
X83307607Y-107994440D01*
X108894901Y-107994440D01*
X108895584Y-107999663D01*
X108895584Y-107999666D01*
X108896708Y-108008257D01*
X108911633Y-108122394D01*
X108963605Y-108240510D01*
X109046639Y-108339291D01*
X109154060Y-108410796D01*
X109159092Y-108412368D01*
X109159094Y-108412369D01*
X109194714Y-108423497D01*
X109277233Y-108449278D01*
X109282501Y-108449375D01*
X109282504Y-108449375D01*
X109336552Y-108450365D01*
X109406255Y-108451643D01*
X109411338Y-108450257D01*
X109411340Y-108450257D01*
X109525668Y-108419087D01*
X109525669Y-108419087D01*
X109530755Y-108417700D01*
X109535252Y-108414939D01*
X109535622Y-108414712D01*
X109535915Y-108414652D01*
X109540084Y-108412848D01*
X109540463Y-108413723D01*
X109585217Y-108404581D01*
X109602778Y-108409943D01*
X109604060Y-108410796D01*
X109727233Y-108449278D01*
X109732501Y-108449375D01*
X109732504Y-108449375D01*
X109786552Y-108450365D01*
X109856255Y-108451643D01*
X109861338Y-108450257D01*
X109861340Y-108450257D01*
X109975668Y-108419087D01*
X109975669Y-108419087D01*
X109980755Y-108417700D01*
X109985252Y-108414939D01*
X109985622Y-108414712D01*
X109985915Y-108414652D01*
X109990084Y-108412848D01*
X109990463Y-108413723D01*
X110035217Y-108404581D01*
X110052778Y-108409943D01*
X110054060Y-108410796D01*
X110177233Y-108449278D01*
X110182501Y-108449375D01*
X110182504Y-108449375D01*
X110236552Y-108450365D01*
X110306255Y-108451643D01*
X110311338Y-108450257D01*
X110311340Y-108450257D01*
X110405559Y-108424569D01*
X110430755Y-108417700D01*
X110540724Y-108350179D01*
X110627322Y-108254507D01*
X110683588Y-108138375D01*
X110704997Y-108011120D01*
X110705133Y-108000000D01*
X110686839Y-107872259D01*
X110633428Y-107754788D01*
X110626003Y-107746170D01*
X110552633Y-107661020D01*
X110552632Y-107661019D01*
X110549193Y-107657028D01*
X110544774Y-107654164D01*
X110544772Y-107654162D01*
X110445329Y-107589708D01*
X110445330Y-107589708D01*
X110440906Y-107586841D01*
X110435857Y-107585331D01*
X110435855Y-107585330D01*
X110322326Y-107551377D01*
X110322325Y-107551377D01*
X110317273Y-107549866D01*
X110251771Y-107549466D01*
X110193501Y-107549110D01*
X110193500Y-107549110D01*
X110188231Y-107549078D01*
X110064155Y-107584539D01*
X110059697Y-107587352D01*
X110055111Y-107589403D01*
X110004622Y-107593020D01*
X109994844Y-107589394D01*
X109990906Y-107586841D01*
X109917665Y-107564937D01*
X109872326Y-107551377D01*
X109872325Y-107551377D01*
X109867273Y-107549866D01*
X109801771Y-107549466D01*
X109743501Y-107549110D01*
X109743500Y-107549110D01*
X109738231Y-107549078D01*
X109614155Y-107584539D01*
X109609697Y-107587352D01*
X109605111Y-107589403D01*
X109554622Y-107593020D01*
X109544844Y-107589394D01*
X109540906Y-107586841D01*
X109467665Y-107564937D01*
X109422326Y-107551377D01*
X109422325Y-107551377D01*
X109417273Y-107549866D01*
X109351771Y-107549466D01*
X109293501Y-107549110D01*
X109293500Y-107549110D01*
X109288231Y-107549078D01*
X109164155Y-107584539D01*
X109055019Y-107653399D01*
X109051531Y-107657348D01*
X109051529Y-107657350D01*
X109048288Y-107661020D01*
X108969596Y-107750122D01*
X108967357Y-107754891D01*
X108967355Y-107754894D01*
X108923892Y-107847469D01*
X108914754Y-107866932D01*
X108894901Y-107994440D01*
X83307607Y-107994440D01*
X83307607Y-105947153D01*
X85638930Y-105947153D01*
X85639613Y-105952376D01*
X85639613Y-105952379D01*
X85654875Y-106069086D01*
X85655662Y-106075107D01*
X85707634Y-106193223D01*
X85790668Y-106292004D01*
X85898089Y-106363509D01*
X85903121Y-106365081D01*
X85903123Y-106365082D01*
X85926528Y-106372394D01*
X86021262Y-106401991D01*
X86026530Y-106402088D01*
X86026533Y-106402088D01*
X86080581Y-106403078D01*
X86150284Y-106404356D01*
X86155367Y-106402970D01*
X86155369Y-106402970D01*
X86269700Y-106371799D01*
X86274784Y-106370413D01*
X86384753Y-106302892D01*
X86437661Y-106244440D01*
X98394901Y-106244440D01*
X98395584Y-106249663D01*
X98395584Y-106249666D01*
X98410677Y-106365082D01*
X98411633Y-106372394D01*
X98413756Y-106377219D01*
X98425697Y-106404356D01*
X98463605Y-106490510D01*
X98546639Y-106589291D01*
X98654060Y-106660796D01*
X98659092Y-106662368D01*
X98659094Y-106662369D01*
X98694714Y-106673497D01*
X98777233Y-106699278D01*
X98782501Y-106699375D01*
X98782504Y-106699375D01*
X98836552Y-106700365D01*
X98906255Y-106701643D01*
X98911338Y-106700257D01*
X98911340Y-106700257D01*
X99025671Y-106669086D01*
X99030755Y-106667700D01*
X99140724Y-106600179D01*
X99227322Y-106504507D01*
X99283588Y-106388375D01*
X99304997Y-106261120D01*
X99305133Y-106250000D01*
X99299566Y-106211127D01*
X99287586Y-106127472D01*
X99287585Y-106127469D01*
X99286839Y-106122259D01*
X99282247Y-106112159D01*
X99235610Y-106009586D01*
X99235608Y-106009583D01*
X99233428Y-106004788D01*
X99226003Y-105996170D01*
X99152633Y-105911020D01*
X99152632Y-105911019D01*
X99149193Y-105907028D01*
X99144774Y-105904164D01*
X99144772Y-105904162D01*
X99045329Y-105839708D01*
X99045330Y-105839708D01*
X99040906Y-105836841D01*
X99035857Y-105835331D01*
X99035855Y-105835330D01*
X98922326Y-105801377D01*
X98922325Y-105801377D01*
X98917273Y-105799866D01*
X98851771Y-105799466D01*
X98793501Y-105799110D01*
X98793500Y-105799110D01*
X98788231Y-105799078D01*
X98664155Y-105834539D01*
X98555019Y-105903399D01*
X98551531Y-105907348D01*
X98551529Y-105907350D01*
X98516377Y-105947153D01*
X98469596Y-106000122D01*
X98467357Y-106004891D01*
X98467355Y-106004894D01*
X98436845Y-106069880D01*
X98414754Y-106116932D01*
X98394901Y-106244440D01*
X86437661Y-106244440D01*
X86471351Y-106207220D01*
X86527617Y-106091088D01*
X86549026Y-105963833D01*
X86549162Y-105952713D01*
X86542818Y-105908414D01*
X86531615Y-105830185D01*
X86531614Y-105830182D01*
X86530868Y-105824972D01*
X86520140Y-105801377D01*
X86479639Y-105712299D01*
X86479637Y-105712296D01*
X86477457Y-105707501D01*
X86470032Y-105698883D01*
X86423121Y-105644440D01*
X99294901Y-105644440D01*
X99295584Y-105649663D01*
X99295584Y-105649666D01*
X99303775Y-105712299D01*
X99311633Y-105772394D01*
X99313756Y-105777219D01*
X99337062Y-105830185D01*
X99363605Y-105890510D01*
X99446639Y-105989291D01*
X99554060Y-106060796D01*
X99559092Y-106062368D01*
X99559094Y-106062369D01*
X99583136Y-106069880D01*
X99677233Y-106099278D01*
X99682501Y-106099375D01*
X99682504Y-106099375D01*
X99736552Y-106100365D01*
X99806255Y-106101643D01*
X99811338Y-106100257D01*
X99811340Y-106100257D01*
X99925671Y-106069086D01*
X99930755Y-106067700D01*
X100040724Y-106000179D01*
X100127322Y-105904507D01*
X100183588Y-105788375D01*
X100204997Y-105661120D01*
X100205133Y-105650000D01*
X100199414Y-105610063D01*
X100187586Y-105527472D01*
X100187585Y-105527469D01*
X100186839Y-105522259D01*
X100177891Y-105502579D01*
X100135610Y-105409586D01*
X100135608Y-105409583D01*
X100133428Y-105404788D01*
X100126003Y-105396170D01*
X100052633Y-105311020D01*
X100052632Y-105311019D01*
X100049193Y-105307028D01*
X100044774Y-105304164D01*
X100044772Y-105304162D01*
X99945329Y-105239708D01*
X99945330Y-105239708D01*
X99940906Y-105236841D01*
X99935857Y-105235331D01*
X99935855Y-105235330D01*
X99822326Y-105201377D01*
X99822325Y-105201377D01*
X99817273Y-105199866D01*
X99751771Y-105199466D01*
X99693501Y-105199110D01*
X99693500Y-105199110D01*
X99688231Y-105199078D01*
X99564155Y-105234539D01*
X99455019Y-105303399D01*
X99451531Y-105307348D01*
X99451529Y-105307350D01*
X99448288Y-105311020D01*
X99369596Y-105400122D01*
X99367357Y-105404891D01*
X99367355Y-105404894D01*
X99323892Y-105497469D01*
X99314754Y-105516932D01*
X99294901Y-105644440D01*
X86423121Y-105644440D01*
X86396662Y-105613733D01*
X86396661Y-105613732D01*
X86393222Y-105609741D01*
X86388803Y-105606877D01*
X86388801Y-105606875D01*
X86289358Y-105542421D01*
X86289359Y-105542421D01*
X86284935Y-105539554D01*
X86279886Y-105538044D01*
X86279884Y-105538043D01*
X86166355Y-105504090D01*
X86166354Y-105504090D01*
X86161302Y-105502579D01*
X86095800Y-105502179D01*
X86037530Y-105501823D01*
X86037529Y-105501823D01*
X86032260Y-105501791D01*
X85908184Y-105537252D01*
X85799048Y-105606112D01*
X85795560Y-105610061D01*
X85795558Y-105610063D01*
X85765198Y-105644440D01*
X85713625Y-105702835D01*
X85711386Y-105707604D01*
X85711384Y-105707607D01*
X85673464Y-105788375D01*
X85658783Y-105819645D01*
X85638930Y-105947153D01*
X83307607Y-105947153D01*
X83307607Y-104097153D01*
X85638930Y-104097153D01*
X85639613Y-104102376D01*
X85639613Y-104102379D01*
X85640737Y-104110970D01*
X85655662Y-104225107D01*
X85707634Y-104343223D01*
X85790668Y-104442004D01*
X85898089Y-104513509D01*
X85903121Y-104515081D01*
X85903123Y-104515082D01*
X85938743Y-104526210D01*
X86021262Y-104551991D01*
X86026530Y-104552088D01*
X86026533Y-104552088D01*
X86080581Y-104553078D01*
X86150284Y-104554356D01*
X86155367Y-104552970D01*
X86155369Y-104552970D01*
X86269700Y-104521799D01*
X86274784Y-104520413D01*
X86384753Y-104452892D01*
X86471351Y-104357220D01*
X86527617Y-104241088D01*
X86549026Y-104113833D01*
X86549162Y-104102713D01*
X86530868Y-103974972D01*
X86477457Y-103857501D01*
X86470032Y-103848883D01*
X86396662Y-103763733D01*
X86396661Y-103763732D01*
X86393222Y-103759741D01*
X86388803Y-103756877D01*
X86388801Y-103756875D01*
X86289358Y-103692421D01*
X86289359Y-103692421D01*
X86284935Y-103689554D01*
X86279886Y-103688044D01*
X86279884Y-103688043D01*
X86166355Y-103654090D01*
X86166354Y-103654090D01*
X86161302Y-103652579D01*
X86095800Y-103652179D01*
X86037530Y-103651823D01*
X86037529Y-103651823D01*
X86032260Y-103651791D01*
X85908184Y-103687252D01*
X85799048Y-103756112D01*
X85795560Y-103760061D01*
X85795558Y-103760063D01*
X85792317Y-103763733D01*
X85713625Y-103852835D01*
X85711386Y-103857604D01*
X85711384Y-103857607D01*
X85667921Y-103950182D01*
X85658783Y-103969645D01*
X85638930Y-104097153D01*
X83307607Y-104097153D01*
X83307607Y-100494440D01*
X85644901Y-100494440D01*
X85645584Y-100499663D01*
X85645584Y-100499666D01*
X85646708Y-100508257D01*
X85661633Y-100622394D01*
X85713605Y-100740510D01*
X85796639Y-100839291D01*
X85904060Y-100910796D01*
X85909092Y-100912368D01*
X85909094Y-100912369D01*
X85944714Y-100923497D01*
X86027233Y-100949278D01*
X86032501Y-100949375D01*
X86032504Y-100949375D01*
X86086552Y-100950365D01*
X86156255Y-100951643D01*
X86161338Y-100950257D01*
X86161340Y-100950257D01*
X86275671Y-100919086D01*
X86280755Y-100917700D01*
X86390724Y-100850179D01*
X86477322Y-100754507D01*
X86533588Y-100638375D01*
X86554997Y-100511120D01*
X86555133Y-100500000D01*
X86536839Y-100372259D01*
X86483428Y-100254788D01*
X86476003Y-100246170D01*
X86402633Y-100161020D01*
X86402632Y-100161019D01*
X86399193Y-100157028D01*
X86394774Y-100154164D01*
X86394772Y-100154162D01*
X86295329Y-100089708D01*
X86295330Y-100089708D01*
X86290906Y-100086841D01*
X86285857Y-100085331D01*
X86285855Y-100085330D01*
X86172326Y-100051377D01*
X86172325Y-100051377D01*
X86167273Y-100049866D01*
X86101771Y-100049466D01*
X86043501Y-100049110D01*
X86043500Y-100049110D01*
X86038231Y-100049078D01*
X85914155Y-100084539D01*
X85805019Y-100153399D01*
X85801531Y-100157348D01*
X85801529Y-100157350D01*
X85798288Y-100161020D01*
X85719596Y-100250122D01*
X85717357Y-100254891D01*
X85717355Y-100254894D01*
X85673892Y-100347469D01*
X85664754Y-100366932D01*
X85644901Y-100494440D01*
X83307607Y-100494440D01*
X83307607Y-99876464D01*
X83324920Y-99828898D01*
X83368757Y-99803588D01*
X83422611Y-99814863D01*
X83449668Y-99832873D01*
X83449671Y-99832874D01*
X83454060Y-99835796D01*
X83459092Y-99837368D01*
X83459094Y-99837369D01*
X83494714Y-99848497D01*
X83577233Y-99874278D01*
X83582501Y-99874375D01*
X83582504Y-99874375D01*
X83636552Y-99875365D01*
X83706255Y-99876643D01*
X83711338Y-99875257D01*
X83711340Y-99875257D01*
X83825671Y-99844086D01*
X83830755Y-99842700D01*
X83940724Y-99775179D01*
X84027322Y-99679507D01*
X84083588Y-99563375D01*
X84104997Y-99436120D01*
X84105133Y-99425000D01*
X84086839Y-99297259D01*
X84084659Y-99292464D01*
X84084658Y-99292461D01*
X84048242Y-99212368D01*
X84044315Y-99161902D01*
X84073745Y-99120718D01*
X84116962Y-99107752D01*
X84206755Y-99109398D01*
X84211838Y-99108012D01*
X84211840Y-99108012D01*
X84307146Y-99082028D01*
X84331255Y-99075455D01*
X84441224Y-99007934D01*
X84527822Y-98912262D01*
X84584088Y-98796130D01*
X84605497Y-98668875D01*
X84605633Y-98657755D01*
X84599890Y-98617655D01*
X84588086Y-98535227D01*
X84588085Y-98535224D01*
X84587339Y-98530014D01*
X84582747Y-98519914D01*
X84536110Y-98417341D01*
X84536108Y-98417338D01*
X84533928Y-98412543D01*
X84526503Y-98403925D01*
X84453133Y-98318775D01*
X84453132Y-98318774D01*
X84449693Y-98314783D01*
X84445274Y-98311919D01*
X84445272Y-98311917D01*
X84345829Y-98247463D01*
X84345830Y-98247463D01*
X84341406Y-98244596D01*
X84336357Y-98243086D01*
X84336355Y-98243085D01*
X84222826Y-98209132D01*
X84222825Y-98209132D01*
X84217773Y-98207621D01*
X84152271Y-98207221D01*
X84094001Y-98206865D01*
X84094000Y-98206865D01*
X84088731Y-98206833D01*
X83964655Y-98242294D01*
X83855519Y-98311154D01*
X83852031Y-98315103D01*
X83852029Y-98315105D01*
X83848788Y-98318775D01*
X83770096Y-98407877D01*
X83767857Y-98412646D01*
X83767855Y-98412649D01*
X83737574Y-98477146D01*
X83715254Y-98524687D01*
X83695401Y-98652195D01*
X83696084Y-98657418D01*
X83696084Y-98657421D01*
X83697208Y-98666012D01*
X83712133Y-98780149D01*
X83721254Y-98800877D01*
X83752047Y-98870860D01*
X83755358Y-98921370D01*
X83725426Y-98962192D01*
X83683862Y-98974662D01*
X83672700Y-98974594D01*
X83593501Y-98974110D01*
X83593500Y-98974110D01*
X83588231Y-98974078D01*
X83464155Y-99009539D01*
X83459700Y-99012350D01*
X83421095Y-99036708D01*
X83371628Y-99047448D01*
X83326831Y-99023879D01*
X83307607Y-98974124D01*
X83307607Y-96644440D01*
X83494901Y-96644440D01*
X83495584Y-96649663D01*
X83495584Y-96649666D01*
X83502729Y-96704301D01*
X83511633Y-96772394D01*
X83513756Y-96777219D01*
X83558640Y-96879225D01*
X83563605Y-96890510D01*
X83646639Y-96989291D01*
X83754060Y-97060796D01*
X83759092Y-97062368D01*
X83759094Y-97062369D01*
X83794714Y-97073497D01*
X83877233Y-97099278D01*
X83882501Y-97099375D01*
X83882504Y-97099375D01*
X83936552Y-97100365D01*
X84006255Y-97101643D01*
X84011338Y-97100257D01*
X84011340Y-97100257D01*
X84046563Y-97090654D01*
X99688133Y-97090654D01*
X99688708Y-97094000D01*
X99688708Y-97094001D01*
X99690021Y-97101643D01*
X99723941Y-97299047D01*
X99797127Y-97497425D01*
X99905238Y-97679144D01*
X99907469Y-97681688D01*
X99907472Y-97681692D01*
X99983792Y-97768718D01*
X100044655Y-97838119D01*
X100210708Y-97969024D01*
X100397836Y-98067477D01*
X100401075Y-98068483D01*
X100401078Y-98068484D01*
X100596533Y-98129174D01*
X100599773Y-98130180D01*
X100748235Y-98147752D01*
X100769283Y-98150243D01*
X100769284Y-98150243D01*
X100771455Y-98150500D01*
X100893641Y-98150500D01*
X100895325Y-98150345D01*
X100895331Y-98150345D01*
X101047181Y-98136392D01*
X101047186Y-98136391D01*
X101050560Y-98136081D01*
X101053823Y-98135161D01*
X101053827Y-98135160D01*
X101149097Y-98108291D01*
X101254069Y-98078686D01*
X101443710Y-97985165D01*
X101446422Y-97983140D01*
X101446425Y-97983138D01*
X101610412Y-97860683D01*
X101610413Y-97860682D01*
X101613133Y-97858651D01*
X101667990Y-97799306D01*
X101754360Y-97705873D01*
X101754363Y-97705869D01*
X101756663Y-97703381D01*
X101770348Y-97681692D01*
X101867690Y-97527415D01*
X101867691Y-97527414D01*
X101869495Y-97524554D01*
X101879156Y-97500338D01*
X101946590Y-97331314D01*
X101946591Y-97331311D01*
X101947848Y-97328160D01*
X101989099Y-97120775D01*
X101990782Y-96992211D01*
X101991823Y-96912739D01*
X101991823Y-96912734D01*
X101991867Y-96909346D01*
X101988631Y-96890510D01*
X101969164Y-96777219D01*
X101956059Y-96700953D01*
X101882873Y-96502575D01*
X101774762Y-96320856D01*
X101772531Y-96318312D01*
X101772528Y-96318308D01*
X101669982Y-96201377D01*
X101635345Y-96161881D01*
X101612465Y-96143844D01*
X101471950Y-96033071D01*
X101471947Y-96033069D01*
X101469292Y-96030976D01*
X101282164Y-95932523D01*
X101278925Y-95931517D01*
X101278922Y-95931516D01*
X101083467Y-95870826D01*
X101080227Y-95869820D01*
X100931765Y-95852248D01*
X100910717Y-95849757D01*
X100910716Y-95849757D01*
X100908545Y-95849500D01*
X100786359Y-95849500D01*
X100784675Y-95849655D01*
X100784669Y-95849655D01*
X100632819Y-95863608D01*
X100632814Y-95863609D01*
X100629440Y-95863919D01*
X100626177Y-95864839D01*
X100626173Y-95864840D01*
X100530903Y-95891709D01*
X100425931Y-95921314D01*
X100236290Y-96014835D01*
X100233578Y-96016860D01*
X100233575Y-96016862D01*
X100211869Y-96033071D01*
X100066867Y-96141349D01*
X100045531Y-96164430D01*
X99925640Y-96294127D01*
X99925637Y-96294131D01*
X99923337Y-96296619D01*
X99921528Y-96299486D01*
X99908045Y-96320856D01*
X99810505Y-96475446D01*
X99809251Y-96478588D01*
X99809250Y-96478591D01*
X99741994Y-96647172D01*
X99732152Y-96671840D01*
X99690901Y-96879225D01*
X99690519Y-96908414D01*
X99688434Y-97067700D01*
X99688133Y-97090654D01*
X84046563Y-97090654D01*
X84125671Y-97069086D01*
X84130755Y-97067700D01*
X84240724Y-97000179D01*
X84327322Y-96904507D01*
X84383588Y-96788375D01*
X84402633Y-96675171D01*
X84404522Y-96663944D01*
X84404522Y-96663943D01*
X84404997Y-96661120D01*
X84405133Y-96650000D01*
X84386839Y-96522259D01*
X84376565Y-96499662D01*
X84335610Y-96409586D01*
X84335608Y-96409583D01*
X84333428Y-96404788D01*
X84326003Y-96396170D01*
X84252633Y-96311020D01*
X84252632Y-96311019D01*
X84249193Y-96307028D01*
X84244774Y-96304164D01*
X84244772Y-96304162D01*
X84145329Y-96239708D01*
X84145330Y-96239708D01*
X84140906Y-96236841D01*
X84135857Y-96235331D01*
X84135855Y-96235330D01*
X84022326Y-96201377D01*
X84022325Y-96201377D01*
X84017273Y-96199866D01*
X83951771Y-96199466D01*
X83893501Y-96199110D01*
X83893500Y-96199110D01*
X83888231Y-96199078D01*
X83764155Y-96234539D01*
X83655019Y-96303399D01*
X83651531Y-96307348D01*
X83651529Y-96307350D01*
X83615845Y-96347755D01*
X83569596Y-96400122D01*
X83567357Y-96404891D01*
X83567355Y-96404894D01*
X83532755Y-96478591D01*
X83514754Y-96516932D01*
X83494901Y-96644440D01*
X83307607Y-96644440D01*
X83307607Y-94550654D01*
X99688133Y-94550654D01*
X99723941Y-94759047D01*
X99797127Y-94957425D01*
X99905238Y-95139144D01*
X99907469Y-95141688D01*
X99907472Y-95141692D01*
X99958820Y-95200243D01*
X100044655Y-95298119D01*
X100047314Y-95300216D01*
X100047316Y-95300217D01*
X100202467Y-95422527D01*
X100210708Y-95429024D01*
X100397836Y-95527477D01*
X100401075Y-95528483D01*
X100401078Y-95528484D01*
X100596533Y-95589174D01*
X100599773Y-95590180D01*
X100748235Y-95607752D01*
X100769283Y-95610243D01*
X100769284Y-95610243D01*
X100771455Y-95610500D01*
X100893641Y-95610500D01*
X100895325Y-95610345D01*
X100895331Y-95610345D01*
X101047181Y-95596392D01*
X101047186Y-95596391D01*
X101050560Y-95596081D01*
X101053823Y-95595161D01*
X101053827Y-95595160D01*
X101149097Y-95568291D01*
X101254069Y-95538686D01*
X101443710Y-95445165D01*
X101446422Y-95443140D01*
X101446425Y-95443138D01*
X101610412Y-95320683D01*
X101610413Y-95320682D01*
X101613133Y-95318651D01*
X101720296Y-95202723D01*
X101754360Y-95165873D01*
X101754363Y-95165869D01*
X101756663Y-95163381D01*
X101770348Y-95141692D01*
X101867690Y-94987415D01*
X101867691Y-94987414D01*
X101869495Y-94984554D01*
X101877751Y-94963860D01*
X101946590Y-94791314D01*
X101946591Y-94791311D01*
X101947848Y-94788160D01*
X101989099Y-94580775D01*
X101991867Y-94369346D01*
X101956059Y-94160953D01*
X101882873Y-93962575D01*
X101774762Y-93780856D01*
X101772531Y-93778312D01*
X101772528Y-93778308D01*
X101637580Y-93624430D01*
X101635345Y-93621881D01*
X101482770Y-93501601D01*
X101471950Y-93493071D01*
X101471947Y-93493069D01*
X101469292Y-93490976D01*
X101282164Y-93392523D01*
X101278925Y-93391517D01*
X101278922Y-93391516D01*
X101083467Y-93330826D01*
X101080227Y-93329820D01*
X100931765Y-93312248D01*
X100910717Y-93309757D01*
X100910716Y-93309757D01*
X100908545Y-93309500D01*
X100786359Y-93309500D01*
X100784675Y-93309655D01*
X100784669Y-93309655D01*
X100632819Y-93323608D01*
X100632814Y-93323609D01*
X100629440Y-93323919D01*
X100626177Y-93324839D01*
X100626173Y-93324840D01*
X100530903Y-93351709D01*
X100425931Y-93381314D01*
X100236290Y-93474835D01*
X100233578Y-93476860D01*
X100233575Y-93476862D01*
X100197115Y-93504088D01*
X100066867Y-93601349D01*
X100045531Y-93624430D01*
X99925640Y-93754127D01*
X99925637Y-93754131D01*
X99923337Y-93756619D01*
X99921528Y-93759486D01*
X99908045Y-93780856D01*
X99810505Y-93935446D01*
X99809251Y-93938588D01*
X99809250Y-93938591D01*
X99798413Y-93965756D01*
X99732152Y-94131840D01*
X99690901Y-94339225D01*
X99688133Y-94550654D01*
X83307607Y-94550654D01*
X83307607Y-92844440D01*
X86844901Y-92844440D01*
X86845584Y-92849663D01*
X86845584Y-92849666D01*
X86853038Y-92906663D01*
X86861633Y-92972394D01*
X86913605Y-93090510D01*
X86996639Y-93189291D01*
X87104060Y-93260796D01*
X87109092Y-93262368D01*
X87109094Y-93262369D01*
X87144714Y-93273497D01*
X87227233Y-93299278D01*
X87232501Y-93299375D01*
X87232504Y-93299375D01*
X87286552Y-93300365D01*
X87356255Y-93301643D01*
X87361338Y-93300257D01*
X87361340Y-93300257D01*
X87475671Y-93269086D01*
X87480755Y-93267700D01*
X87590724Y-93200179D01*
X87677322Y-93104507D01*
X87733588Y-92988375D01*
X87752090Y-92878399D01*
X87754522Y-92863944D01*
X87754522Y-92863943D01*
X87754997Y-92861120D01*
X87755133Y-92850000D01*
X87736839Y-92722259D01*
X87691882Y-92623381D01*
X87685610Y-92609586D01*
X87685608Y-92609583D01*
X87683428Y-92604788D01*
X87676003Y-92596170D01*
X87602633Y-92511020D01*
X87602632Y-92511019D01*
X87599193Y-92507028D01*
X87594774Y-92504164D01*
X87594772Y-92504162D01*
X87502806Y-92444554D01*
X87490906Y-92436841D01*
X87485857Y-92435331D01*
X87485855Y-92435330D01*
X87372326Y-92401377D01*
X87372325Y-92401377D01*
X87367273Y-92399866D01*
X87301771Y-92399466D01*
X87243501Y-92399110D01*
X87243500Y-92399110D01*
X87238231Y-92399078D01*
X87114155Y-92434539D01*
X87005019Y-92503399D01*
X87001531Y-92507348D01*
X87001529Y-92507350D01*
X86998288Y-92511020D01*
X86919596Y-92600122D01*
X86917357Y-92604891D01*
X86917355Y-92604894D01*
X86910022Y-92620514D01*
X86864754Y-92716932D01*
X86844901Y-92844440D01*
X83307607Y-92844440D01*
X83307607Y-92010654D01*
X99688133Y-92010654D01*
X99723941Y-92219047D01*
X99797127Y-92417425D01*
X99905238Y-92599144D01*
X99907469Y-92601688D01*
X99907472Y-92601692D01*
X99958820Y-92660243D01*
X100044655Y-92758119D01*
X100047314Y-92760216D01*
X100047316Y-92760217D01*
X100200044Y-92880617D01*
X100210708Y-92889024D01*
X100397836Y-92987477D01*
X100401075Y-92988483D01*
X100401078Y-92988484D01*
X100596533Y-93049174D01*
X100599773Y-93050180D01*
X100748235Y-93067752D01*
X100769283Y-93070243D01*
X100769284Y-93070243D01*
X100771455Y-93070500D01*
X100893641Y-93070500D01*
X100895325Y-93070345D01*
X100895331Y-93070345D01*
X101047181Y-93056392D01*
X101047186Y-93056391D01*
X101050560Y-93056081D01*
X101053823Y-93055161D01*
X101053827Y-93055160D01*
X101149097Y-93028291D01*
X101254069Y-92998686D01*
X101443710Y-92905165D01*
X101446422Y-92903140D01*
X101446425Y-92903138D01*
X101610412Y-92780683D01*
X101610413Y-92780682D01*
X101613133Y-92778651D01*
X101720296Y-92662723D01*
X101754360Y-92625873D01*
X101754363Y-92625869D01*
X101756663Y-92623381D01*
X101765367Y-92609586D01*
X101867690Y-92447415D01*
X101867691Y-92447414D01*
X101869495Y-92444554D01*
X101870750Y-92441409D01*
X101946590Y-92251314D01*
X101946591Y-92251311D01*
X101947848Y-92248160D01*
X101989099Y-92040775D01*
X101991867Y-91829346D01*
X101956059Y-91620953D01*
X101882873Y-91422575D01*
X101774762Y-91240856D01*
X101772531Y-91238312D01*
X101772528Y-91238308D01*
X101637580Y-91084430D01*
X101635345Y-91081881D01*
X101606723Y-91059317D01*
X101471950Y-90953071D01*
X101471947Y-90953069D01*
X101469292Y-90950976D01*
X101282164Y-90852523D01*
X101278925Y-90851517D01*
X101278922Y-90851516D01*
X101083467Y-90790826D01*
X101080227Y-90789820D01*
X100931765Y-90772248D01*
X100910717Y-90769757D01*
X100910716Y-90769757D01*
X100908545Y-90769500D01*
X100786359Y-90769500D01*
X100784675Y-90769655D01*
X100784669Y-90769655D01*
X100632819Y-90783608D01*
X100632814Y-90783609D01*
X100629440Y-90783919D01*
X100626177Y-90784839D01*
X100626173Y-90784840D01*
X100557663Y-90804162D01*
X100425931Y-90841314D01*
X100236290Y-90934835D01*
X100233578Y-90936860D01*
X100233575Y-90936862D01*
X100119215Y-91022259D01*
X100066867Y-91061349D01*
X100045531Y-91084430D01*
X99925640Y-91214127D01*
X99925637Y-91214131D01*
X99923337Y-91216619D01*
X99921528Y-91219486D01*
X99908045Y-91240856D01*
X99810505Y-91395446D01*
X99809251Y-91398588D01*
X99809250Y-91398591D01*
X99742883Y-91564943D01*
X99732152Y-91591840D01*
X99690901Y-91799225D01*
X99688133Y-92010654D01*
X83307607Y-92010654D01*
X83307607Y-91144440D01*
X84444901Y-91144440D01*
X84445584Y-91149663D01*
X84445584Y-91149666D01*
X84457890Y-91243768D01*
X84461633Y-91272394D01*
X84513605Y-91390510D01*
X84596639Y-91489291D01*
X84704060Y-91560796D01*
X84709092Y-91562368D01*
X84709094Y-91562369D01*
X84744714Y-91573497D01*
X84827233Y-91599278D01*
X84832501Y-91599375D01*
X84832504Y-91599375D01*
X84886552Y-91600365D01*
X84956255Y-91601643D01*
X84961338Y-91600257D01*
X84961340Y-91600257D01*
X85075671Y-91569086D01*
X85080755Y-91567700D01*
X85190724Y-91500179D01*
X85277322Y-91404507D01*
X85333588Y-91288375D01*
X85354997Y-91161120D01*
X85355133Y-91150000D01*
X85345077Y-91079783D01*
X85337586Y-91027472D01*
X85337585Y-91027469D01*
X85336839Y-91022259D01*
X85310390Y-90964088D01*
X85285610Y-90909586D01*
X85285608Y-90909583D01*
X85283428Y-90904788D01*
X85276003Y-90896170D01*
X85202633Y-90811020D01*
X85202632Y-90811019D01*
X85199193Y-90807028D01*
X85194774Y-90804164D01*
X85194772Y-90804162D01*
X85095329Y-90739708D01*
X85095330Y-90739708D01*
X85090906Y-90736841D01*
X85085857Y-90735331D01*
X85085855Y-90735330D01*
X84972326Y-90701377D01*
X84972325Y-90701377D01*
X84967273Y-90699866D01*
X84901771Y-90699466D01*
X84843501Y-90699110D01*
X84843500Y-90699110D01*
X84838231Y-90699078D01*
X84714155Y-90734539D01*
X84605019Y-90803399D01*
X84601531Y-90807348D01*
X84601529Y-90807350D01*
X84565845Y-90847755D01*
X84519596Y-90900122D01*
X84517357Y-90904891D01*
X84517355Y-90904894D01*
X84491773Y-90959383D01*
X84464754Y-91016932D01*
X84444901Y-91144440D01*
X83307607Y-91144440D01*
X83307607Y-90194440D01*
X85394901Y-90194440D01*
X85395584Y-90199663D01*
X85395584Y-90199666D01*
X85398272Y-90220217D01*
X85411633Y-90322394D01*
X85463605Y-90440510D01*
X85546639Y-90539291D01*
X85654060Y-90610796D01*
X85659092Y-90612368D01*
X85659094Y-90612369D01*
X85694714Y-90623497D01*
X85777233Y-90649278D01*
X85782501Y-90649375D01*
X85782504Y-90649375D01*
X85836552Y-90650365D01*
X85906255Y-90651643D01*
X85911338Y-90650257D01*
X85911340Y-90650257D01*
X86025671Y-90619086D01*
X86030755Y-90617700D01*
X86140724Y-90550179D01*
X86227322Y-90454507D01*
X86283588Y-90338375D01*
X86304997Y-90211120D01*
X86305133Y-90200000D01*
X86293711Y-90120243D01*
X86287586Y-90077472D01*
X86287585Y-90077469D01*
X86286839Y-90072259D01*
X86282247Y-90062159D01*
X86235610Y-89959586D01*
X86235608Y-89959583D01*
X86233428Y-89954788D01*
X86226003Y-89946170D01*
X86152633Y-89861020D01*
X86152632Y-89861019D01*
X86149193Y-89857028D01*
X86144774Y-89854164D01*
X86144772Y-89854162D01*
X86045329Y-89789708D01*
X86045330Y-89789708D01*
X86040906Y-89786841D01*
X86035857Y-89785331D01*
X86035855Y-89785330D01*
X85922326Y-89751377D01*
X85922325Y-89751377D01*
X85917273Y-89749866D01*
X85851771Y-89749466D01*
X85793501Y-89749110D01*
X85793500Y-89749110D01*
X85788231Y-89749078D01*
X85664155Y-89784539D01*
X85555019Y-89853399D01*
X85551531Y-89857348D01*
X85551529Y-89857350D01*
X85548288Y-89861020D01*
X85469596Y-89950122D01*
X85467357Y-89954891D01*
X85467355Y-89954894D01*
X85423892Y-90047469D01*
X85414754Y-90066932D01*
X85394901Y-90194440D01*
X83307607Y-90194440D01*
X83307607Y-89470654D01*
X99688133Y-89470654D01*
X99723941Y-89679047D01*
X99797127Y-89877425D01*
X99905238Y-90059144D01*
X99907469Y-90061688D01*
X99907472Y-90061692D01*
X99958820Y-90120243D01*
X100044655Y-90218119D01*
X100047314Y-90220216D01*
X100047316Y-90220217D01*
X100200044Y-90340617D01*
X100210708Y-90349024D01*
X100397836Y-90447477D01*
X100401075Y-90448483D01*
X100401078Y-90448484D01*
X100596533Y-90509174D01*
X100599773Y-90510180D01*
X100748235Y-90527752D01*
X100769283Y-90530243D01*
X100769284Y-90530243D01*
X100771455Y-90530500D01*
X100893641Y-90530500D01*
X100895325Y-90530345D01*
X100895331Y-90530345D01*
X101047181Y-90516392D01*
X101047186Y-90516391D01*
X101050560Y-90516081D01*
X101053823Y-90515161D01*
X101053827Y-90515160D01*
X101149097Y-90488291D01*
X101254069Y-90458686D01*
X101443710Y-90365165D01*
X101446422Y-90363140D01*
X101446425Y-90363138D01*
X101610412Y-90240683D01*
X101610413Y-90240682D01*
X101613133Y-90238651D01*
X101720296Y-90122723D01*
X101754360Y-90085873D01*
X101754363Y-90085869D01*
X101756663Y-90083381D01*
X101760391Y-90077472D01*
X101867690Y-89907415D01*
X101867691Y-89907414D01*
X101869495Y-89904554D01*
X101877751Y-89883860D01*
X101946590Y-89711314D01*
X101946591Y-89711311D01*
X101947848Y-89708160D01*
X101989099Y-89500775D01*
X101991867Y-89289346D01*
X101956059Y-89080953D01*
X101882873Y-88882575D01*
X101774762Y-88700856D01*
X101772531Y-88698312D01*
X101772528Y-88698308D01*
X101637580Y-88544430D01*
X101635345Y-88541881D01*
X101482770Y-88421601D01*
X101471950Y-88413071D01*
X101471947Y-88413069D01*
X101469292Y-88410976D01*
X101282164Y-88312523D01*
X101278925Y-88311517D01*
X101278922Y-88311516D01*
X101083467Y-88250826D01*
X101080227Y-88249820D01*
X100931765Y-88232248D01*
X100910717Y-88229757D01*
X100910716Y-88229757D01*
X100908545Y-88229500D01*
X100786359Y-88229500D01*
X100784675Y-88229655D01*
X100784669Y-88229655D01*
X100632819Y-88243608D01*
X100632814Y-88243609D01*
X100629440Y-88243919D01*
X100626177Y-88244839D01*
X100626173Y-88244840D01*
X100530903Y-88271709D01*
X100425931Y-88301314D01*
X100236290Y-88394835D01*
X100233578Y-88396860D01*
X100233575Y-88396862D01*
X100197115Y-88424088D01*
X100066867Y-88521349D01*
X100045531Y-88544430D01*
X99925640Y-88674127D01*
X99925637Y-88674131D01*
X99923337Y-88676619D01*
X99921528Y-88679486D01*
X99908045Y-88700856D01*
X99810505Y-88855446D01*
X99809251Y-88858588D01*
X99809250Y-88858591D01*
X99798413Y-88885756D01*
X99732152Y-89051840D01*
X99690901Y-89259225D01*
X99688133Y-89470654D01*
X83307607Y-89470654D01*
X83307607Y-86844440D01*
X85794901Y-86844440D01*
X85795584Y-86849663D01*
X85795584Y-86849666D01*
X85796708Y-86858257D01*
X85811633Y-86972394D01*
X85863605Y-87090510D01*
X85946639Y-87189291D01*
X86054060Y-87260796D01*
X86059092Y-87262368D01*
X86059094Y-87262369D01*
X86076158Y-87267700D01*
X86177233Y-87299278D01*
X86182500Y-87299375D01*
X86182503Y-87299375D01*
X86237232Y-87300378D01*
X86303773Y-87301598D01*
X86351013Y-87319779D01*
X86375515Y-87364073D01*
X86369401Y-87407034D01*
X86364754Y-87416932D01*
X86344901Y-87544440D01*
X86345584Y-87549663D01*
X86345584Y-87549666D01*
X86357584Y-87641427D01*
X86361633Y-87672394D01*
X86413605Y-87790510D01*
X86496639Y-87889291D01*
X86604060Y-87960796D01*
X86609092Y-87962368D01*
X86609094Y-87962369D01*
X86644714Y-87973497D01*
X86727233Y-87999278D01*
X86732501Y-87999375D01*
X86732504Y-87999375D01*
X86786552Y-88000365D01*
X86856255Y-88001643D01*
X86861338Y-88000257D01*
X86861340Y-88000257D01*
X86975671Y-87969086D01*
X86980755Y-87967700D01*
X87090724Y-87900179D01*
X87177322Y-87804507D01*
X87233588Y-87688375D01*
X87254997Y-87561120D01*
X87255133Y-87550000D01*
X87236839Y-87422259D01*
X87232247Y-87412159D01*
X87185610Y-87309586D01*
X87185608Y-87309583D01*
X87183428Y-87304788D01*
X87178681Y-87299278D01*
X87102633Y-87211020D01*
X87102632Y-87211019D01*
X87099193Y-87207028D01*
X87094774Y-87204164D01*
X87094772Y-87204162D01*
X86995329Y-87139708D01*
X86995330Y-87139708D01*
X86990906Y-87136841D01*
X86985857Y-87135331D01*
X86985855Y-87135330D01*
X86872326Y-87101377D01*
X86872325Y-87101377D01*
X86867273Y-87099866D01*
X86747553Y-87099135D01*
X86700093Y-87081532D01*
X86675052Y-87037541D01*
X86680616Y-86998439D01*
X86679686Y-86998142D01*
X86681288Y-86993122D01*
X86683588Y-86988375D01*
X86704997Y-86861120D01*
X86705133Y-86850000D01*
X86699464Y-86810412D01*
X86687586Y-86727472D01*
X86687585Y-86727469D01*
X86686839Y-86722259D01*
X86682247Y-86712159D01*
X86635610Y-86609586D01*
X86635608Y-86609583D01*
X86633428Y-86604788D01*
X86626003Y-86596170D01*
X86552633Y-86511020D01*
X86552632Y-86511019D01*
X86549193Y-86507028D01*
X86544774Y-86504164D01*
X86544772Y-86504162D01*
X86445329Y-86439708D01*
X86445330Y-86439708D01*
X86440906Y-86436841D01*
X86435857Y-86435331D01*
X86435855Y-86435330D01*
X86322326Y-86401377D01*
X86322325Y-86401377D01*
X86317273Y-86399866D01*
X86251771Y-86399466D01*
X86193501Y-86399110D01*
X86193500Y-86399110D01*
X86188231Y-86399078D01*
X86064155Y-86434539D01*
X85955019Y-86503399D01*
X85951531Y-86507348D01*
X85951529Y-86507350D01*
X85948288Y-86511020D01*
X85869596Y-86600122D01*
X85867357Y-86604891D01*
X85867355Y-86604894D01*
X85823892Y-86697469D01*
X85814754Y-86716932D01*
X85794901Y-86844440D01*
X83307607Y-86844440D01*
X83307607Y-85794440D01*
X85244901Y-85794440D01*
X85245584Y-85799663D01*
X85245584Y-85799666D01*
X85250164Y-85834686D01*
X85261633Y-85922394D01*
X85313605Y-86040510D01*
X85396639Y-86139291D01*
X85504060Y-86210796D01*
X85509092Y-86212368D01*
X85509094Y-86212369D01*
X85539022Y-86221719D01*
X85627233Y-86249278D01*
X85632501Y-86249375D01*
X85632504Y-86249375D01*
X85686552Y-86250365D01*
X85756255Y-86251643D01*
X85761338Y-86250257D01*
X85761340Y-86250257D01*
X85875671Y-86219086D01*
X85880755Y-86217700D01*
X85990724Y-86150179D01*
X86077322Y-86054507D01*
X86133588Y-85938375D01*
X86154997Y-85811120D01*
X86155133Y-85800000D01*
X86147631Y-85747618D01*
X86137586Y-85677472D01*
X86137585Y-85677469D01*
X86136839Y-85672259D01*
X86083428Y-85554788D01*
X86076003Y-85546170D01*
X86002633Y-85461020D01*
X86002632Y-85461019D01*
X85999193Y-85457028D01*
X85994774Y-85454164D01*
X85994772Y-85454162D01*
X85895329Y-85389708D01*
X85895330Y-85389708D01*
X85890906Y-85386841D01*
X85885857Y-85385331D01*
X85885855Y-85385330D01*
X85772326Y-85351377D01*
X85772325Y-85351377D01*
X85767273Y-85349866D01*
X85701771Y-85349466D01*
X85643501Y-85349110D01*
X85643500Y-85349110D01*
X85638231Y-85349078D01*
X85514155Y-85384539D01*
X85405019Y-85453399D01*
X85401531Y-85457348D01*
X85401529Y-85457350D01*
X85398288Y-85461020D01*
X85319596Y-85550122D01*
X85317357Y-85554891D01*
X85317355Y-85554894D01*
X85273892Y-85647469D01*
X85264754Y-85666932D01*
X85244901Y-85794440D01*
X83307607Y-85794440D01*
X83307607Y-84394440D01*
X85994901Y-84394440D01*
X85995584Y-84399663D01*
X85995584Y-84399666D01*
X86005674Y-84476821D01*
X86011633Y-84522394D01*
X86063605Y-84640510D01*
X86146639Y-84739291D01*
X86254060Y-84810796D01*
X86259092Y-84812368D01*
X86259094Y-84812369D01*
X86294714Y-84823497D01*
X86377233Y-84849278D01*
X86382501Y-84849375D01*
X86382504Y-84849375D01*
X86436552Y-84850365D01*
X86506255Y-84851643D01*
X86511338Y-84850257D01*
X86511340Y-84850257D01*
X86625671Y-84819086D01*
X86630755Y-84817700D01*
X86740724Y-84750179D01*
X86827322Y-84654507D01*
X86883588Y-84538375D01*
X86904997Y-84411120D01*
X86905133Y-84400000D01*
X86886839Y-84272259D01*
X86885999Y-84270412D01*
X109870065Y-84270412D01*
X109883594Y-84476821D01*
X109934512Y-84677309D01*
X109935928Y-84680381D01*
X109935930Y-84680386D01*
X110014241Y-84850257D01*
X110021112Y-84865161D01*
X110023070Y-84867931D01*
X110138537Y-85031314D01*
X110138541Y-85031318D01*
X110140496Y-85034085D01*
X110142921Y-85036447D01*
X110142925Y-85036452D01*
X110204721Y-85096650D01*
X110288665Y-85178425D01*
X110460657Y-85293346D01*
X110463771Y-85294684D01*
X110463773Y-85294685D01*
X110592136Y-85349834D01*
X110650711Y-85375000D01*
X110852463Y-85420652D01*
X110950508Y-85424504D01*
X111055761Y-85428640D01*
X111055765Y-85428640D01*
X111059156Y-85428773D01*
X111263868Y-85399091D01*
X111459743Y-85332601D01*
X111462696Y-85330947D01*
X111462701Y-85330945D01*
X111637260Y-85233186D01*
X111640221Y-85231528D01*
X111642826Y-85229361D01*
X111642831Y-85229358D01*
X111796650Y-85101427D01*
X111799258Y-85099258D01*
X111810667Y-85085540D01*
X111929358Y-84942831D01*
X111929361Y-84942826D01*
X111931528Y-84940221D01*
X111981189Y-84851546D01*
X112030945Y-84762701D01*
X112030947Y-84762696D01*
X112032601Y-84759743D01*
X112099091Y-84563868D01*
X112128773Y-84359156D01*
X112130322Y-84300000D01*
X112127604Y-84270412D01*
X112111705Y-84097392D01*
X112111395Y-84094015D01*
X112110476Y-84090757D01*
X112110475Y-84090751D01*
X112056167Y-83898194D01*
X112056166Y-83898192D01*
X112055246Y-83894929D01*
X111963758Y-83709408D01*
X111844256Y-83549375D01*
X111842025Y-83546388D01*
X111842024Y-83546387D01*
X111839993Y-83543667D01*
X111734628Y-83446269D01*
X111690592Y-83405562D01*
X111690590Y-83405561D01*
X111688096Y-83403255D01*
X111588651Y-83340510D01*
X111516024Y-83294686D01*
X111516022Y-83294685D01*
X111513155Y-83292876D01*
X111457184Y-83270546D01*
X111324183Y-83217483D01*
X111324180Y-83217482D01*
X111321029Y-83216225D01*
X111317702Y-83215563D01*
X111317698Y-83215562D01*
X111121475Y-83176531D01*
X111121473Y-83176531D01*
X111118151Y-83175870D01*
X111026888Y-83174675D01*
X110914709Y-83173206D01*
X110914704Y-83173206D01*
X110911316Y-83173162D01*
X110907970Y-83173737D01*
X110907969Y-83173737D01*
X110848720Y-83183918D01*
X110707451Y-83208193D01*
X110513384Y-83279788D01*
X110335613Y-83385550D01*
X110180093Y-83521938D01*
X110177996Y-83524597D01*
X110177995Y-83524599D01*
X110054132Y-83681719D01*
X110052032Y-83684383D01*
X110009855Y-83764549D01*
X109957303Y-83864432D01*
X109957300Y-83864438D01*
X109955719Y-83867444D01*
X109894378Y-84064993D01*
X109870065Y-84270412D01*
X86885999Y-84270412D01*
X86833428Y-84154788D01*
X86826003Y-84146170D01*
X86752633Y-84061020D01*
X86752632Y-84061019D01*
X86749193Y-84057028D01*
X86744774Y-84054164D01*
X86744772Y-84054162D01*
X86645329Y-83989708D01*
X86645330Y-83989708D01*
X86640906Y-83986841D01*
X86635857Y-83985331D01*
X86635855Y-83985330D01*
X86522326Y-83951377D01*
X86522325Y-83951377D01*
X86517273Y-83949866D01*
X86451771Y-83949466D01*
X86393501Y-83949110D01*
X86393500Y-83949110D01*
X86388231Y-83949078D01*
X86264155Y-83984539D01*
X86155019Y-84053399D01*
X86151531Y-84057348D01*
X86151529Y-84057350D01*
X86122031Y-84090751D01*
X86069596Y-84150122D01*
X86067357Y-84154891D01*
X86067355Y-84154894D01*
X86023892Y-84247469D01*
X86014754Y-84266932D01*
X85994901Y-84394440D01*
X83307607Y-84394440D01*
X83307607Y-83094440D01*
X85294901Y-83094440D01*
X85295584Y-83099663D01*
X85295584Y-83099666D01*
X85310740Y-83215562D01*
X85311633Y-83222394D01*
X85313756Y-83227219D01*
X85342093Y-83291619D01*
X85363605Y-83340510D01*
X85446639Y-83439291D01*
X85554060Y-83510796D01*
X85559092Y-83512368D01*
X85559094Y-83512369D01*
X85582569Y-83519703D01*
X85677233Y-83549278D01*
X85682501Y-83549375D01*
X85682504Y-83549375D01*
X85736552Y-83550365D01*
X85806255Y-83551643D01*
X85811338Y-83550257D01*
X85811340Y-83550257D01*
X85925671Y-83519086D01*
X85930755Y-83517700D01*
X86040724Y-83450179D01*
X86127322Y-83354507D01*
X86183588Y-83238375D01*
X86204997Y-83111120D01*
X86205133Y-83100000D01*
X86186839Y-82972259D01*
X86133428Y-82854788D01*
X86126003Y-82846170D01*
X86052633Y-82761020D01*
X86052632Y-82761019D01*
X86049193Y-82757028D01*
X86044774Y-82754164D01*
X86044772Y-82754162D01*
X85945329Y-82689708D01*
X85945330Y-82689708D01*
X85940906Y-82686841D01*
X85935857Y-82685331D01*
X85935855Y-82685330D01*
X85822326Y-82651377D01*
X85822325Y-82651377D01*
X85817273Y-82649866D01*
X85751771Y-82649466D01*
X85693501Y-82649110D01*
X85693500Y-82649110D01*
X85688231Y-82649078D01*
X85564155Y-82684539D01*
X85455019Y-82753399D01*
X85451531Y-82757348D01*
X85451529Y-82757350D01*
X85448288Y-82761020D01*
X85369596Y-82850122D01*
X85367357Y-82854891D01*
X85367355Y-82854894D01*
X85323892Y-82947469D01*
X85314754Y-82966932D01*
X85294901Y-83094440D01*
X83307607Y-83094440D01*
X83307607Y-79944440D01*
X89144901Y-79944440D01*
X89145584Y-79949663D01*
X89145584Y-79949666D01*
X89146708Y-79958257D01*
X89161633Y-80072394D01*
X89213605Y-80190510D01*
X89296639Y-80289291D01*
X89404060Y-80360796D01*
X89409092Y-80362368D01*
X89409094Y-80362369D01*
X89444714Y-80373497D01*
X89527233Y-80399278D01*
X89532501Y-80399375D01*
X89532504Y-80399375D01*
X89586552Y-80400365D01*
X89656255Y-80401643D01*
X89661338Y-80400257D01*
X89661340Y-80400257D01*
X89775671Y-80369086D01*
X89780755Y-80367700D01*
X89890724Y-80300179D01*
X89977322Y-80204507D01*
X90033588Y-80088375D01*
X90054997Y-79961120D01*
X90055133Y-79950000D01*
X90036839Y-79822259D01*
X89983428Y-79704788D01*
X89976003Y-79696170D01*
X89902633Y-79611020D01*
X89902632Y-79611019D01*
X89899193Y-79607028D01*
X89894774Y-79604164D01*
X89894772Y-79604162D01*
X89795329Y-79539708D01*
X89795330Y-79539708D01*
X89790906Y-79536841D01*
X89785857Y-79535331D01*
X89785855Y-79535330D01*
X89672326Y-79501377D01*
X89672325Y-79501377D01*
X89667273Y-79499866D01*
X89601771Y-79499466D01*
X89543501Y-79499110D01*
X89543500Y-79499110D01*
X89538231Y-79499078D01*
X89414155Y-79534539D01*
X89305019Y-79603399D01*
X89301531Y-79607348D01*
X89301529Y-79607350D01*
X89298288Y-79611020D01*
X89219596Y-79700122D01*
X89217357Y-79704891D01*
X89217355Y-79704894D01*
X89173892Y-79797469D01*
X89164754Y-79816932D01*
X89144901Y-79944440D01*
X83307607Y-79944440D01*
X83307607Y-78644440D01*
X90944901Y-78644440D01*
X90945584Y-78649663D01*
X90945584Y-78649666D01*
X90946708Y-78658257D01*
X90961633Y-78772394D01*
X91013605Y-78890510D01*
X91096639Y-78989291D01*
X91204060Y-79060796D01*
X91209092Y-79062368D01*
X91209094Y-79062369D01*
X91244714Y-79073497D01*
X91327233Y-79099278D01*
X91332501Y-79099375D01*
X91332504Y-79099375D01*
X91386552Y-79100365D01*
X91456255Y-79101643D01*
X91461338Y-79100257D01*
X91461340Y-79100257D01*
X91575671Y-79069086D01*
X91580755Y-79067700D01*
X91690724Y-79000179D01*
X91777322Y-78904507D01*
X91833588Y-78788375D01*
X91854997Y-78661120D01*
X91855133Y-78650000D01*
X91836839Y-78522259D01*
X91783428Y-78404788D01*
X91776003Y-78396170D01*
X91702633Y-78311020D01*
X91702632Y-78311019D01*
X91699193Y-78307028D01*
X91694774Y-78304164D01*
X91694772Y-78304162D01*
X91595329Y-78239708D01*
X91595330Y-78239708D01*
X91590906Y-78236841D01*
X91585857Y-78235331D01*
X91585855Y-78235330D01*
X91472326Y-78201377D01*
X91472325Y-78201377D01*
X91467273Y-78199866D01*
X91401771Y-78199466D01*
X91343501Y-78199110D01*
X91343500Y-78199110D01*
X91338231Y-78199078D01*
X91214155Y-78234539D01*
X91105019Y-78303399D01*
X91101531Y-78307348D01*
X91101529Y-78307350D01*
X91098288Y-78311020D01*
X91019596Y-78400122D01*
X91017357Y-78404891D01*
X91017355Y-78404894D01*
X90973892Y-78497469D01*
X90964754Y-78516932D01*
X90944901Y-78644440D01*
X83307607Y-78644440D01*
X83307607Y-74107883D01*
X86230815Y-74107883D01*
X86231290Y-74113203D01*
X86295278Y-74287117D01*
X86298545Y-74293817D01*
X86401651Y-74460108D01*
X86406199Y-74466014D01*
X86540638Y-74608179D01*
X86546276Y-74613046D01*
X86706550Y-74725271D01*
X86713068Y-74728914D01*
X86892636Y-74806620D01*
X86899736Y-74808872D01*
X87058227Y-74841982D01*
X87068756Y-74840465D01*
X87070910Y-74838055D01*
X87071000Y-74837591D01*
X87071000Y-74829006D01*
X87579000Y-74829006D01*
X87582638Y-74839002D01*
X87586590Y-74841283D01*
X87648384Y-74835006D01*
X87655692Y-74833506D01*
X87842397Y-74774996D01*
X87849251Y-74772058D01*
X88020381Y-74677200D01*
X88026503Y-74672945D01*
X88175057Y-74545618D01*
X88180204Y-74540213D01*
X88300126Y-74385610D01*
X88304074Y-74379292D01*
X88390463Y-74203730D01*
X88393059Y-74196748D01*
X88413929Y-74116627D01*
X88412928Y-74106036D01*
X88411322Y-74104453D01*
X88409243Y-74104000D01*
X87592048Y-74104000D01*
X87582052Y-74107638D01*
X87579000Y-74112925D01*
X87579000Y-74829006D01*
X87071000Y-74829006D01*
X87071000Y-74117048D01*
X87067362Y-74107052D01*
X87062075Y-74104000D01*
X86240952Y-74104000D01*
X86230956Y-74107638D01*
X86230815Y-74107883D01*
X83307607Y-74107883D01*
X83307607Y-73583373D01*
X86236071Y-73583373D01*
X86237072Y-73593964D01*
X86238678Y-73595547D01*
X86240757Y-73596000D01*
X87057952Y-73596000D01*
X87067948Y-73592362D01*
X87071000Y-73587075D01*
X87071000Y-73582952D01*
X87579000Y-73582952D01*
X87582638Y-73592948D01*
X87587925Y-73596000D01*
X88409048Y-73596000D01*
X88419044Y-73592362D01*
X88419185Y-73592117D01*
X88418710Y-73586797D01*
X88354722Y-73412883D01*
X88351455Y-73406183D01*
X88248349Y-73239892D01*
X88243801Y-73233986D01*
X88109362Y-73091821D01*
X88103724Y-73086954D01*
X87943450Y-72974729D01*
X87936932Y-72971086D01*
X87757364Y-72893380D01*
X87750264Y-72891128D01*
X87591773Y-72858018D01*
X87581244Y-72859535D01*
X87579090Y-72861945D01*
X87579000Y-72862409D01*
X87579000Y-73582952D01*
X87071000Y-73582952D01*
X87071000Y-72870994D01*
X87067362Y-72860998D01*
X87063410Y-72858717D01*
X87001616Y-72864994D01*
X86994308Y-72866494D01*
X86807603Y-72925004D01*
X86800749Y-72927942D01*
X86629619Y-73022800D01*
X86623497Y-73027055D01*
X86474943Y-73154382D01*
X86469796Y-73159787D01*
X86349874Y-73314390D01*
X86345926Y-73320708D01*
X86259537Y-73496270D01*
X86256941Y-73503252D01*
X86236071Y-73583373D01*
X83307607Y-73583373D01*
X83307607Y-71342631D01*
X86144443Y-71342631D01*
X86163114Y-71547797D01*
X86221280Y-71745428D01*
X86316726Y-71927998D01*
X86445815Y-72088553D01*
X86448587Y-72090879D01*
X86448589Y-72090881D01*
X86600856Y-72218649D01*
X86600860Y-72218652D01*
X86603630Y-72220976D01*
X86784162Y-72320224D01*
X86805457Y-72326979D01*
X86977085Y-72381423D01*
X86977089Y-72381424D01*
X86980532Y-72382516D01*
X86984123Y-72382919D01*
X86984124Y-72382919D01*
X87010104Y-72385833D01*
X87140864Y-72400500D01*
X87501841Y-72400500D01*
X87655030Y-72385480D01*
X87852251Y-72325935D01*
X88034151Y-72229218D01*
X88193800Y-72099011D01*
X88325118Y-71940275D01*
X88330232Y-71930818D01*
X88421382Y-71762238D01*
X88423103Y-71759055D01*
X88424171Y-71755605D01*
X88424173Y-71755600D01*
X88482952Y-71565713D01*
X88484023Y-71562254D01*
X88505557Y-71357369D01*
X88486886Y-71152203D01*
X88428720Y-70954572D01*
X88333274Y-70772002D01*
X88204185Y-70611447D01*
X88201411Y-70609119D01*
X88049144Y-70481351D01*
X88049140Y-70481348D01*
X88046370Y-70479024D01*
X87865838Y-70379776D01*
X87832767Y-70369285D01*
X87672915Y-70318577D01*
X87672911Y-70318576D01*
X87669468Y-70317484D01*
X87665877Y-70317081D01*
X87665876Y-70317081D01*
X87625760Y-70312581D01*
X87509136Y-70299500D01*
X87148159Y-70299500D01*
X86994970Y-70314520D01*
X86797749Y-70374065D01*
X86615849Y-70470782D01*
X86456200Y-70600989D01*
X86324882Y-70759725D01*
X86323158Y-70762914D01*
X86323157Y-70762915D01*
X86318244Y-70772002D01*
X86226897Y-70940945D01*
X86225829Y-70944395D01*
X86225827Y-70944400D01*
X86221604Y-70958043D01*
X86165977Y-71137746D01*
X86144443Y-71342631D01*
X83307607Y-71342631D01*
X83307607Y-68842631D01*
X86144443Y-68842631D01*
X86163114Y-69047797D01*
X86221280Y-69245428D01*
X86316726Y-69427998D01*
X86445815Y-69588553D01*
X86448587Y-69590879D01*
X86448589Y-69590881D01*
X86600856Y-69718649D01*
X86600860Y-69718652D01*
X86603630Y-69720976D01*
X86784162Y-69820224D01*
X86805457Y-69826979D01*
X86977085Y-69881423D01*
X86977089Y-69881424D01*
X86980532Y-69882516D01*
X86984123Y-69882919D01*
X86984124Y-69882919D01*
X87010104Y-69885833D01*
X87140864Y-69900500D01*
X87501841Y-69900500D01*
X87655030Y-69885480D01*
X87852251Y-69825935D01*
X88034151Y-69729218D01*
X88193800Y-69599011D01*
X88325118Y-69440275D01*
X88330232Y-69430818D01*
X88421382Y-69262238D01*
X88423103Y-69259055D01*
X88424171Y-69255605D01*
X88424173Y-69255600D01*
X88482952Y-69065713D01*
X88484023Y-69062254D01*
X88505557Y-68857369D01*
X88486886Y-68652203D01*
X88428720Y-68454572D01*
X88333274Y-68272002D01*
X88204185Y-68111447D01*
X88201411Y-68109119D01*
X88049144Y-67981351D01*
X88049140Y-67981348D01*
X88046370Y-67979024D01*
X87865838Y-67879776D01*
X87832767Y-67869285D01*
X87672915Y-67818577D01*
X87672911Y-67818576D01*
X87669468Y-67817484D01*
X87665877Y-67817081D01*
X87665876Y-67817081D01*
X87625760Y-67812581D01*
X87509136Y-67799500D01*
X87148159Y-67799500D01*
X86994970Y-67814520D01*
X86797749Y-67874065D01*
X86615849Y-67970782D01*
X86456200Y-68100989D01*
X86324882Y-68259725D01*
X86323158Y-68262914D01*
X86323157Y-68262915D01*
X86318244Y-68272002D01*
X86226897Y-68440945D01*
X86225829Y-68444395D01*
X86225827Y-68444400D01*
X86221604Y-68458043D01*
X86165977Y-68637746D01*
X86144443Y-68842631D01*
X83307607Y-68842631D01*
X83307607Y-67003834D01*
X86149500Y-67003834D01*
X86152481Y-67035369D01*
X86197366Y-67163184D01*
X86277850Y-67272150D01*
X86386816Y-67352634D01*
X86514631Y-67397519D01*
X86519114Y-67397943D01*
X86519115Y-67397943D01*
X86544438Y-67400337D01*
X86544445Y-67400337D01*
X86546166Y-67400500D01*
X88103834Y-67400500D01*
X88105555Y-67400337D01*
X88105562Y-67400337D01*
X88130885Y-67397943D01*
X88130886Y-67397943D01*
X88135369Y-67397519D01*
X88263184Y-67352634D01*
X88372150Y-67272150D01*
X88452634Y-67163184D01*
X88497519Y-67035369D01*
X88500500Y-67003834D01*
X88500500Y-65696166D01*
X88497519Y-65664631D01*
X88452634Y-65536816D01*
X88372150Y-65427850D01*
X88263184Y-65347366D01*
X88135369Y-65302481D01*
X88130886Y-65302057D01*
X88130885Y-65302057D01*
X88105562Y-65299663D01*
X88105555Y-65299663D01*
X88103834Y-65299500D01*
X86546166Y-65299500D01*
X86544445Y-65299663D01*
X86544438Y-65299663D01*
X86519115Y-65302057D01*
X86519114Y-65302057D01*
X86514631Y-65302481D01*
X86386816Y-65347366D01*
X86277850Y-65427850D01*
X86197366Y-65536816D01*
X86152481Y-65664631D01*
X86149500Y-65696166D01*
X86149500Y-67003834D01*
X83307607Y-67003834D01*
X83307607Y-59107883D01*
X86230815Y-59107883D01*
X86231290Y-59113203D01*
X86295278Y-59287117D01*
X86298545Y-59293817D01*
X86401651Y-59460108D01*
X86406199Y-59466014D01*
X86540638Y-59608179D01*
X86546276Y-59613046D01*
X86706550Y-59725271D01*
X86713068Y-59728914D01*
X86892636Y-59806620D01*
X86899736Y-59808872D01*
X87058227Y-59841982D01*
X87068756Y-59840465D01*
X87070910Y-59838055D01*
X87071000Y-59837591D01*
X87071000Y-59829006D01*
X87579000Y-59829006D01*
X87582638Y-59839002D01*
X87586590Y-59841283D01*
X87648384Y-59835006D01*
X87655692Y-59833506D01*
X87842397Y-59774996D01*
X87849251Y-59772058D01*
X88020381Y-59677200D01*
X88026503Y-59672945D01*
X88175057Y-59545618D01*
X88180204Y-59540213D01*
X88300126Y-59385610D01*
X88304074Y-59379292D01*
X88390463Y-59203730D01*
X88393059Y-59196748D01*
X88413929Y-59116627D01*
X88412928Y-59106036D01*
X88411322Y-59104453D01*
X88409243Y-59104000D01*
X87592048Y-59104000D01*
X87582052Y-59107638D01*
X87579000Y-59112925D01*
X87579000Y-59829006D01*
X87071000Y-59829006D01*
X87071000Y-59117048D01*
X87067362Y-59107052D01*
X87062075Y-59104000D01*
X86240952Y-59104000D01*
X86230956Y-59107638D01*
X86230815Y-59107883D01*
X83307607Y-59107883D01*
X83307607Y-58583373D01*
X86236071Y-58583373D01*
X86237072Y-58593964D01*
X86238678Y-58595547D01*
X86240757Y-58596000D01*
X87057952Y-58596000D01*
X87067948Y-58592362D01*
X87071000Y-58587075D01*
X87071000Y-58582952D01*
X87579000Y-58582952D01*
X87582638Y-58592948D01*
X87587925Y-58596000D01*
X88409048Y-58596000D01*
X88419044Y-58592362D01*
X88419185Y-58592117D01*
X88418710Y-58586797D01*
X88354722Y-58412883D01*
X88351455Y-58406183D01*
X88248349Y-58239892D01*
X88243801Y-58233986D01*
X88109362Y-58091821D01*
X88103724Y-58086954D01*
X87943450Y-57974729D01*
X87936932Y-57971086D01*
X87757364Y-57893380D01*
X87750264Y-57891128D01*
X87591773Y-57858018D01*
X87581244Y-57859535D01*
X87579090Y-57861945D01*
X87579000Y-57862409D01*
X87579000Y-58582952D01*
X87071000Y-58582952D01*
X87071000Y-57870994D01*
X87067362Y-57860998D01*
X87063410Y-57858717D01*
X87001616Y-57864994D01*
X86994308Y-57866494D01*
X86807603Y-57925004D01*
X86800749Y-57927942D01*
X86629619Y-58022800D01*
X86623497Y-58027055D01*
X86474943Y-58154382D01*
X86469796Y-58159787D01*
X86349874Y-58314390D01*
X86345926Y-58320708D01*
X86259537Y-58496270D01*
X86256941Y-58503252D01*
X86236071Y-58583373D01*
X83307607Y-58583373D01*
X83307607Y-56342631D01*
X86144443Y-56342631D01*
X86163114Y-56547797D01*
X86221280Y-56745428D01*
X86316726Y-56927998D01*
X86445815Y-57088553D01*
X86448587Y-57090879D01*
X86448589Y-57090881D01*
X86600856Y-57218649D01*
X86600860Y-57218652D01*
X86603630Y-57220976D01*
X86784162Y-57320224D01*
X86805457Y-57326979D01*
X86977085Y-57381423D01*
X86977089Y-57381424D01*
X86980532Y-57382516D01*
X86984123Y-57382919D01*
X86984124Y-57382919D01*
X87010104Y-57385833D01*
X87140864Y-57400500D01*
X87501841Y-57400500D01*
X87655030Y-57385480D01*
X87852251Y-57325935D01*
X88034151Y-57229218D01*
X88193800Y-57099011D01*
X88325118Y-56940275D01*
X88330232Y-56930818D01*
X88421382Y-56762238D01*
X88423103Y-56759055D01*
X88424171Y-56755605D01*
X88424173Y-56755600D01*
X88482952Y-56565713D01*
X88484023Y-56562254D01*
X88505557Y-56357369D01*
X88486886Y-56152203D01*
X88428720Y-55954572D01*
X88333274Y-55772002D01*
X88204185Y-55611447D01*
X88201411Y-55609119D01*
X88049144Y-55481351D01*
X88049140Y-55481348D01*
X88046370Y-55479024D01*
X87865838Y-55379776D01*
X87832767Y-55369285D01*
X87672915Y-55318577D01*
X87672911Y-55318576D01*
X87669468Y-55317484D01*
X87665877Y-55317081D01*
X87665876Y-55317081D01*
X87625760Y-55312581D01*
X87509136Y-55299500D01*
X87148159Y-55299500D01*
X86994970Y-55314520D01*
X86797749Y-55374065D01*
X86615849Y-55470782D01*
X86456200Y-55600989D01*
X86324882Y-55759725D01*
X86323158Y-55762914D01*
X86323157Y-55762915D01*
X86318244Y-55772002D01*
X86226897Y-55940945D01*
X86225829Y-55944395D01*
X86225827Y-55944400D01*
X86221604Y-55958043D01*
X86165977Y-56137746D01*
X86144443Y-56342631D01*
X83307607Y-56342631D01*
X83307607Y-53842631D01*
X86144443Y-53842631D01*
X86163114Y-54047797D01*
X86221280Y-54245428D01*
X86271319Y-54341144D01*
X86312545Y-54420000D01*
X86316726Y-54427998D01*
X86445815Y-54588553D01*
X86448587Y-54590879D01*
X86448589Y-54590881D01*
X86600856Y-54718649D01*
X86600860Y-54718652D01*
X86603630Y-54720976D01*
X86784162Y-54820224D01*
X86805457Y-54826979D01*
X86977085Y-54881423D01*
X86977089Y-54881424D01*
X86980532Y-54882516D01*
X86984123Y-54882919D01*
X86984124Y-54882919D01*
X87010104Y-54885833D01*
X87140864Y-54900500D01*
X87501841Y-54900500D01*
X87655030Y-54885480D01*
X87852251Y-54825935D01*
X88034151Y-54729218D01*
X88193800Y-54599011D01*
X88325118Y-54440275D01*
X88330232Y-54430818D01*
X88421382Y-54262238D01*
X88423103Y-54259055D01*
X88424171Y-54255605D01*
X88424173Y-54255600D01*
X88482952Y-54065713D01*
X88484023Y-54062254D01*
X88505557Y-53857369D01*
X88502594Y-53824808D01*
X100235456Y-53824808D01*
X100254811Y-53971823D01*
X100257300Y-53981112D01*
X100314044Y-54118104D01*
X100318856Y-54126439D01*
X100409120Y-54244074D01*
X100415926Y-54250880D01*
X100533561Y-54341144D01*
X100541896Y-54345956D01*
X100678888Y-54402700D01*
X100688177Y-54405189D01*
X100798270Y-54419683D01*
X100803105Y-54420000D01*
X100876895Y-54420000D01*
X100881730Y-54419683D01*
X100991823Y-54405189D01*
X101001112Y-54402700D01*
X101138104Y-54345956D01*
X101146439Y-54341144D01*
X101264074Y-54250880D01*
X101270880Y-54244074D01*
X101361144Y-54126439D01*
X101365956Y-54118105D01*
X101422700Y-53981112D01*
X101425189Y-53971823D01*
X101444544Y-53824808D01*
X101444544Y-53815192D01*
X101425189Y-53668177D01*
X101422700Y-53658888D01*
X101365956Y-53521896D01*
X101361144Y-53513561D01*
X101270880Y-53395926D01*
X101264074Y-53389120D01*
X101146439Y-53298856D01*
X101138104Y-53294044D01*
X101001112Y-53237300D01*
X100991823Y-53234811D01*
X100881730Y-53220317D01*
X100876895Y-53220000D01*
X100803105Y-53220000D01*
X100798270Y-53220317D01*
X100688177Y-53234811D01*
X100678888Y-53237300D01*
X100541896Y-53294044D01*
X100533561Y-53298856D01*
X100415926Y-53389120D01*
X100409120Y-53395926D01*
X100318856Y-53513561D01*
X100314044Y-53521895D01*
X100257300Y-53658888D01*
X100254811Y-53668177D01*
X100235456Y-53815192D01*
X100235456Y-53824808D01*
X88502594Y-53824808D01*
X88486886Y-53652203D01*
X88448534Y-53521895D01*
X88429742Y-53458043D01*
X88429740Y-53458039D01*
X88428720Y-53454572D01*
X88347313Y-53298856D01*
X88334951Y-53275209D01*
X88334949Y-53275206D01*
X88333274Y-53272002D01*
X88303372Y-53234811D01*
X88206452Y-53114266D01*
X88206449Y-53114263D01*
X88204185Y-53111447D01*
X88201411Y-53109119D01*
X88049144Y-52981351D01*
X88049140Y-52981348D01*
X88046370Y-52979024D01*
X87865838Y-52879776D01*
X87832767Y-52869285D01*
X87672915Y-52818577D01*
X87672911Y-52818576D01*
X87669468Y-52817484D01*
X87665877Y-52817081D01*
X87665876Y-52817081D01*
X87625760Y-52812581D01*
X87509136Y-52799500D01*
X87148159Y-52799500D01*
X86994970Y-52814520D01*
X86797749Y-52874065D01*
X86615849Y-52970782D01*
X86456200Y-53100989D01*
X86385863Y-53186011D01*
X86343434Y-53237300D01*
X86324882Y-53259725D01*
X86323158Y-53262914D01*
X86323157Y-53262915D01*
X86318244Y-53272002D01*
X86226897Y-53440945D01*
X86225829Y-53444395D01*
X86225827Y-53444400D01*
X86187256Y-53569004D01*
X86165977Y-53637746D01*
X86144443Y-53842631D01*
X83307607Y-53842631D01*
X83307607Y-52003834D01*
X86149500Y-52003834D01*
X86152481Y-52035369D01*
X86197366Y-52163184D01*
X86277850Y-52272150D01*
X86386816Y-52352634D01*
X86514631Y-52397519D01*
X86519114Y-52397943D01*
X86519115Y-52397943D01*
X86544438Y-52400337D01*
X86544445Y-52400337D01*
X86546166Y-52400500D01*
X88103834Y-52400500D01*
X88105555Y-52400337D01*
X88105562Y-52400337D01*
X88130885Y-52397943D01*
X88130886Y-52397943D01*
X88135369Y-52397519D01*
X88263184Y-52352634D01*
X88372150Y-52272150D01*
X88452634Y-52163184D01*
X88497519Y-52035369D01*
X88500500Y-52003834D01*
X88500500Y-51361105D01*
X100139031Y-51361105D01*
X100178612Y-51525968D01*
X100256375Y-51676631D01*
X100259304Y-51679989D01*
X100259305Y-51679990D01*
X100261688Y-51682721D01*
X100367831Y-51804396D01*
X100371485Y-51806964D01*
X100371486Y-51806965D01*
X100378427Y-51811843D01*
X100506547Y-51901887D01*
X100664513Y-51963476D01*
X100793826Y-51980500D01*
X100882516Y-51980500D01*
X100884729Y-51980232D01*
X100884732Y-51980232D01*
X101003891Y-51965812D01*
X101008320Y-51965276D01*
X101109865Y-51926905D01*
X101162753Y-51906921D01*
X101162755Y-51906920D01*
X101166923Y-51905345D01*
X101217301Y-51870721D01*
X101302969Y-51811843D01*
X101302971Y-51811841D01*
X101306651Y-51809312D01*
X101419440Y-51682721D01*
X101498776Y-51532881D01*
X101499863Y-51528554D01*
X101538994Y-51372769D01*
X101538994Y-51372768D01*
X101540081Y-51368441D01*
X101540969Y-51198895D01*
X101501388Y-51034032D01*
X101447373Y-50929379D01*
X110444975Y-50929379D01*
X110445862Y-50932687D01*
X110445966Y-50932789D01*
X110482036Y-50956890D01*
X110487973Y-50960114D01*
X110663272Y-51035428D01*
X110669691Y-51037513D01*
X110855768Y-51079619D01*
X110862477Y-51080502D01*
X111053107Y-51087992D01*
X111059866Y-51087637D01*
X111248667Y-51060262D01*
X111255244Y-51058684D01*
X111435903Y-50997358D01*
X111442073Y-50994612D01*
X111548205Y-50935175D01*
X111555148Y-50927116D01*
X111555172Y-50925263D01*
X111553685Y-50922895D01*
X111009226Y-50378436D01*
X110999587Y-50373941D01*
X110993688Y-50375522D01*
X110449470Y-50919740D01*
X110444975Y-50929379D01*
X101447373Y-50929379D01*
X101423625Y-50883369D01*
X101420695Y-50880010D01*
X101315104Y-50758968D01*
X101315102Y-50758966D01*
X101312169Y-50755604D01*
X101305175Y-50750688D01*
X101177105Y-50660680D01*
X101173453Y-50658113D01*
X101015487Y-50596524D01*
X100886174Y-50579500D01*
X100797484Y-50579500D01*
X100795271Y-50579768D01*
X100795268Y-50579768D01*
X100676109Y-50594188D01*
X100671680Y-50594724D01*
X100570135Y-50633095D01*
X100517247Y-50653079D01*
X100517245Y-50653080D01*
X100513077Y-50654655D01*
X100509402Y-50657181D01*
X100377031Y-50748157D01*
X100377029Y-50748159D01*
X100373349Y-50750688D01*
X100260560Y-50877279D01*
X100258472Y-50881223D01*
X100198436Y-50994612D01*
X100181224Y-51027119D01*
X100180137Y-51031445D01*
X100180137Y-51031446D01*
X100165934Y-51087992D01*
X100139919Y-51191559D01*
X100139031Y-51361105D01*
X88500500Y-51361105D01*
X88500500Y-50696166D01*
X88497519Y-50664631D01*
X88452634Y-50536816D01*
X88372150Y-50427850D01*
X88301304Y-50375522D01*
X88267632Y-50350651D01*
X88267630Y-50350650D01*
X88263184Y-50347366D01*
X88135369Y-50302481D01*
X88130886Y-50302057D01*
X88130885Y-50302057D01*
X88105562Y-50299663D01*
X88105555Y-50299663D01*
X88103834Y-50299500D01*
X86546166Y-50299500D01*
X86544445Y-50299663D01*
X86544438Y-50299663D01*
X86519115Y-50302057D01*
X86519114Y-50302057D01*
X86514631Y-50302481D01*
X86386816Y-50347366D01*
X86382370Y-50350650D01*
X86382368Y-50350651D01*
X86348696Y-50375522D01*
X86277850Y-50427850D01*
X86197366Y-50536816D01*
X86152481Y-50664631D01*
X86149500Y-50696166D01*
X86149500Y-52003834D01*
X83307607Y-52003834D01*
X83307607Y-49985126D01*
X109920987Y-49985126D01*
X109933466Y-50175510D01*
X109934521Y-50182170D01*
X109981484Y-50367089D01*
X109983740Y-50373460D01*
X110063615Y-50546723D01*
X110066995Y-50552575D01*
X110072392Y-50560212D01*
X110081132Y-50566275D01*
X110084858Y-50565932D01*
X110631564Y-50019226D01*
X110635674Y-50010413D01*
X111363941Y-50010413D01*
X111365522Y-50016312D01*
X111909573Y-50560363D01*
X111919212Y-50564858D01*
X111921004Y-50564377D01*
X111922878Y-50562305D01*
X111984612Y-50452073D01*
X111987358Y-50445903D01*
X112048684Y-50265244D01*
X112050262Y-50258667D01*
X112077812Y-50068663D01*
X112078182Y-50064324D01*
X112079548Y-50012166D01*
X112079407Y-50007843D01*
X112061837Y-49816635D01*
X112060607Y-49809994D01*
X112008819Y-49626369D01*
X112006397Y-49620061D01*
X111927206Y-49459478D01*
X111919522Y-49452122D01*
X111918728Y-49452070D01*
X111914835Y-49454375D01*
X111368436Y-50000774D01*
X111363941Y-50010413D01*
X110635674Y-50010413D01*
X110636059Y-50009587D01*
X110634478Y-50003688D01*
X110089392Y-49458602D01*
X110079753Y-49454107D01*
X110078471Y-49454451D01*
X110076050Y-49457200D01*
X110004159Y-49593841D01*
X110001566Y-49600104D01*
X109944993Y-49782297D01*
X109943589Y-49788904D01*
X109921164Y-49978366D01*
X109920987Y-49985126D01*
X83307607Y-49985126D01*
X83307607Y-48710412D01*
X99710065Y-48710412D01*
X99723594Y-48916821D01*
X99774512Y-49117309D01*
X99775928Y-49120381D01*
X99775930Y-49120386D01*
X99859693Y-49302084D01*
X99861112Y-49305161D01*
X99863070Y-49307931D01*
X99978537Y-49471314D01*
X99978541Y-49471318D01*
X99980496Y-49474085D01*
X99982921Y-49476447D01*
X99982925Y-49476452D01*
X100044721Y-49536650D01*
X100128665Y-49618425D01*
X100300657Y-49733346D01*
X100303771Y-49734684D01*
X100303773Y-49734685D01*
X100392025Y-49772601D01*
X100490711Y-49815000D01*
X100692463Y-49860652D01*
X100790508Y-49864504D01*
X100895761Y-49868640D01*
X100895765Y-49868640D01*
X100899156Y-49868773D01*
X101103868Y-49839091D01*
X101299743Y-49772601D01*
X101302696Y-49770947D01*
X101302701Y-49770945D01*
X101477260Y-49673186D01*
X101480221Y-49671528D01*
X101482826Y-49669361D01*
X101482831Y-49669358D01*
X101636650Y-49541427D01*
X101639258Y-49539258D01*
X101650667Y-49525540D01*
X101769358Y-49382831D01*
X101769361Y-49382826D01*
X101771528Y-49380221D01*
X101815287Y-49302084D01*
X101870945Y-49202701D01*
X101870947Y-49202696D01*
X101872601Y-49199743D01*
X101908751Y-49093247D01*
X110445376Y-49093247D01*
X110445407Y-49095626D01*
X110446450Y-49097240D01*
X110990774Y-49641564D01*
X111000413Y-49646059D01*
X111006312Y-49644478D01*
X111549940Y-49100850D01*
X111554435Y-49091211D01*
X111553683Y-49088406D01*
X111552934Y-49087692D01*
X111492991Y-49049870D01*
X111486985Y-49046810D01*
X111309778Y-48976111D01*
X111303293Y-48974191D01*
X111116173Y-48936970D01*
X111109463Y-48936265D01*
X110918688Y-48933767D01*
X110911948Y-48934298D01*
X110723922Y-48966607D01*
X110717393Y-48968357D01*
X110538398Y-49034391D01*
X110532307Y-49037296D01*
X110452105Y-49085011D01*
X110445376Y-49093247D01*
X101908751Y-49093247D01*
X101939091Y-49003868D01*
X101968773Y-48799156D01*
X101970322Y-48740000D01*
X101967604Y-48710412D01*
X101952679Y-48547992D01*
X101951395Y-48534015D01*
X101950476Y-48530757D01*
X101950475Y-48530751D01*
X101910603Y-48389379D01*
X110444975Y-48389379D01*
X110445862Y-48392687D01*
X110445966Y-48392789D01*
X110482036Y-48416890D01*
X110487973Y-48420114D01*
X110663272Y-48495428D01*
X110669691Y-48497513D01*
X110855768Y-48539619D01*
X110862477Y-48540502D01*
X111053107Y-48547992D01*
X111059866Y-48547637D01*
X111248667Y-48520262D01*
X111255244Y-48518684D01*
X111435903Y-48457358D01*
X111442073Y-48454612D01*
X111548205Y-48395175D01*
X111555148Y-48387116D01*
X111555172Y-48385263D01*
X111553685Y-48382895D01*
X111009226Y-47838436D01*
X110999587Y-47833941D01*
X110993688Y-47835522D01*
X110449470Y-48379740D01*
X110444975Y-48389379D01*
X101910603Y-48389379D01*
X101896167Y-48338194D01*
X101896166Y-48338192D01*
X101895246Y-48334929D01*
X101803758Y-48149408D01*
X101714251Y-48029543D01*
X101682025Y-47986388D01*
X101682024Y-47986387D01*
X101679993Y-47983667D01*
X101528096Y-47843255D01*
X101353155Y-47732876D01*
X101237162Y-47686599D01*
X101164183Y-47657483D01*
X101164180Y-47657482D01*
X101161029Y-47656225D01*
X101157702Y-47655563D01*
X101157698Y-47655562D01*
X100961475Y-47616531D01*
X100961473Y-47616531D01*
X100958151Y-47615870D01*
X100866888Y-47614675D01*
X100754709Y-47613206D01*
X100754704Y-47613206D01*
X100751316Y-47613162D01*
X100747970Y-47613737D01*
X100747969Y-47613737D01*
X100688720Y-47623918D01*
X100547451Y-47648193D01*
X100353384Y-47719788D01*
X100175613Y-47825550D01*
X100020093Y-47961938D01*
X100017996Y-47964597D01*
X100017995Y-47964599D01*
X99965645Y-48031005D01*
X99892032Y-48124383D01*
X99849855Y-48204549D01*
X99797303Y-48304432D01*
X99797300Y-48304438D01*
X99795719Y-48307444D01*
X99734378Y-48504993D01*
X99710065Y-48710412D01*
X83307607Y-48710412D01*
X83307607Y-47474307D01*
X85390047Y-47474307D01*
X85391133Y-47478357D01*
X85659569Y-47684336D01*
X85662874Y-47686599D01*
X85960239Y-47867400D01*
X85963772Y-47869294D01*
X86278932Y-48016926D01*
X86282633Y-48018421D01*
X86611896Y-48131152D01*
X86615736Y-48132240D01*
X86955259Y-48208754D01*
X86959197Y-48209420D01*
X87304970Y-48248816D01*
X87308982Y-48249055D01*
X87656987Y-48250876D01*
X87660993Y-48250681D01*
X88007168Y-48214907D01*
X88011116Y-48214281D01*
X88351410Y-48141329D01*
X88355269Y-48140281D01*
X88685687Y-48031005D01*
X88689416Y-48029543D01*
X89006090Y-47885226D01*
X89009654Y-47883363D01*
X89308890Y-47705691D01*
X89312218Y-47703463D01*
X89590527Y-47494503D01*
X89593592Y-47491931D01*
X89604279Y-47481931D01*
X89609091Y-47472446D01*
X89607834Y-47467044D01*
X89585916Y-47445126D01*
X109920987Y-47445126D01*
X109933466Y-47635510D01*
X109934521Y-47642170D01*
X109981484Y-47827089D01*
X109983740Y-47833460D01*
X110063615Y-48006723D01*
X110066995Y-48012575D01*
X110072392Y-48020212D01*
X110081132Y-48026275D01*
X110084858Y-48025932D01*
X110631564Y-47479226D01*
X110635674Y-47470413D01*
X111363941Y-47470413D01*
X111365522Y-47476312D01*
X111909573Y-48020363D01*
X111919212Y-48024858D01*
X111921004Y-48024377D01*
X111922878Y-48022305D01*
X111984612Y-47912073D01*
X111987358Y-47905903D01*
X112048684Y-47725244D01*
X112050262Y-47718667D01*
X112077812Y-47528663D01*
X112078182Y-47524324D01*
X112079548Y-47472166D01*
X112079407Y-47467843D01*
X112061837Y-47276635D01*
X112060607Y-47269994D01*
X112008819Y-47086369D01*
X112006397Y-47080061D01*
X111927206Y-46919478D01*
X111919522Y-46912122D01*
X111918728Y-46912070D01*
X111914835Y-46914375D01*
X111368436Y-47460774D01*
X111363941Y-47470413D01*
X110635674Y-47470413D01*
X110636059Y-47469587D01*
X110634478Y-47463688D01*
X110089392Y-46918602D01*
X110079753Y-46914107D01*
X110078471Y-46914451D01*
X110076050Y-46917200D01*
X110004159Y-47053841D01*
X110001566Y-47060104D01*
X109944993Y-47242297D01*
X109943589Y-47248904D01*
X109921164Y-47438366D01*
X109920987Y-47445126D01*
X89585916Y-47445126D01*
X87509226Y-45368436D01*
X87499587Y-45363941D01*
X87493688Y-45365522D01*
X85394542Y-47464668D01*
X85390047Y-47474307D01*
X83307607Y-47474307D01*
X83307607Y-44990652D01*
X84245349Y-44990652D01*
X84262956Y-45338220D01*
X84263372Y-45342184D01*
X84318416Y-45685837D01*
X84319263Y-45689751D01*
X84411098Y-46025442D01*
X84412355Y-46029220D01*
X84539912Y-46353043D01*
X84541572Y-46356668D01*
X84703351Y-46664811D01*
X84705396Y-46668242D01*
X84899503Y-46957105D01*
X84901917Y-46960308D01*
X85020855Y-47101551D01*
X85030075Y-47106853D01*
X85034774Y-47106016D01*
X87131564Y-45009226D01*
X87135674Y-45000413D01*
X87863941Y-45000413D01*
X87865522Y-45006312D01*
X89961466Y-47102256D01*
X89971105Y-47106751D01*
X89975857Y-47105477D01*
X90077423Y-46987396D01*
X90079853Y-46984239D01*
X90276980Y-46697417D01*
X90279062Y-46694008D01*
X90354854Y-46553247D01*
X110445376Y-46553247D01*
X110445407Y-46555626D01*
X110446450Y-46557240D01*
X110990774Y-47101564D01*
X111000413Y-47106059D01*
X111006312Y-47104478D01*
X111549940Y-46560850D01*
X111554435Y-46551211D01*
X111553683Y-46548406D01*
X111552934Y-46547692D01*
X111492991Y-46509870D01*
X111486985Y-46506810D01*
X111309778Y-46436111D01*
X111303293Y-46434191D01*
X111116173Y-46396970D01*
X111109463Y-46396265D01*
X110918688Y-46393767D01*
X110911948Y-46394298D01*
X110723922Y-46426607D01*
X110717393Y-46428357D01*
X110538398Y-46494391D01*
X110532307Y-46497296D01*
X110452105Y-46545011D01*
X110445376Y-46553247D01*
X90354854Y-46553247D01*
X90444060Y-46387574D01*
X90445759Y-46383962D01*
X90576693Y-46061508D01*
X90577996Y-46057725D01*
X90673340Y-45723020D01*
X90674229Y-45719109D01*
X90732867Y-45376061D01*
X90733325Y-45372103D01*
X90754630Y-45023773D01*
X90754698Y-45021676D01*
X90754769Y-45001043D01*
X90754716Y-44998955D01*
X90749379Y-44900412D01*
X109870065Y-44900412D01*
X109883594Y-45106821D01*
X109934512Y-45307309D01*
X109935928Y-45310381D01*
X109935930Y-45310386D01*
X110019693Y-45492084D01*
X110021112Y-45495161D01*
X110023070Y-45497931D01*
X110138537Y-45661314D01*
X110138541Y-45661318D01*
X110140496Y-45664085D01*
X110142921Y-45666447D01*
X110142925Y-45666452D01*
X110200994Y-45723020D01*
X110288665Y-45808425D01*
X110460657Y-45923346D01*
X110463771Y-45924684D01*
X110463773Y-45924685D01*
X110552025Y-45962601D01*
X110650711Y-46005000D01*
X110852463Y-46050652D01*
X110950508Y-46054504D01*
X111055761Y-46058640D01*
X111055765Y-46058640D01*
X111059156Y-46058773D01*
X111263868Y-46029091D01*
X111459743Y-45962601D01*
X111462696Y-45960947D01*
X111462701Y-45960945D01*
X111637260Y-45863186D01*
X111640221Y-45861528D01*
X111642826Y-45859361D01*
X111642831Y-45859358D01*
X111796650Y-45731427D01*
X111799258Y-45729258D01*
X111835371Y-45685837D01*
X111929358Y-45572831D01*
X111929361Y-45572826D01*
X111931528Y-45570221D01*
X111975287Y-45492084D01*
X112030945Y-45392701D01*
X112030947Y-45392696D01*
X112032601Y-45389743D01*
X112099091Y-45193868D01*
X112128773Y-44989156D01*
X112130322Y-44930000D01*
X112127604Y-44900412D01*
X112111705Y-44727392D01*
X112111395Y-44724015D01*
X112110476Y-44720757D01*
X112110475Y-44720751D01*
X112056167Y-44528194D01*
X112056166Y-44528192D01*
X112055246Y-44524929D01*
X111963758Y-44339408D01*
X111839993Y-44173667D01*
X111688096Y-44033255D01*
X111513155Y-43922876D01*
X111457184Y-43900546D01*
X111324183Y-43847483D01*
X111324180Y-43847482D01*
X111321029Y-43846225D01*
X111317702Y-43845563D01*
X111317698Y-43845562D01*
X111121475Y-43806531D01*
X111121473Y-43806531D01*
X111118151Y-43805870D01*
X111026888Y-43804675D01*
X110914709Y-43803206D01*
X110914704Y-43803206D01*
X110911316Y-43803162D01*
X110907970Y-43803737D01*
X110907969Y-43803737D01*
X110848720Y-43813918D01*
X110707451Y-43838193D01*
X110513384Y-43909788D01*
X110335613Y-44015550D01*
X110180093Y-44151938D01*
X110177996Y-44154597D01*
X110177995Y-44154599D01*
X110064030Y-44299163D01*
X110052032Y-44314383D01*
X110009855Y-44394549D01*
X109957303Y-44494432D01*
X109957300Y-44494438D01*
X109955719Y-44497444D01*
X109894378Y-44694993D01*
X109870065Y-44900412D01*
X90749379Y-44900412D01*
X90735845Y-44650490D01*
X90735411Y-44646502D01*
X90679170Y-44303060D01*
X90678314Y-44299163D01*
X90585305Y-43963786D01*
X90584031Y-43960000D01*
X90455351Y-43636642D01*
X90453673Y-43633010D01*
X90290820Y-43325434D01*
X90288760Y-43322006D01*
X90093648Y-43033827D01*
X90091231Y-43030643D01*
X89979137Y-42898465D01*
X89969896Y-42893194D01*
X89965154Y-42894056D01*
X87868436Y-44990774D01*
X87863941Y-45000413D01*
X87135674Y-45000413D01*
X87136059Y-44999587D01*
X87134478Y-44993688D01*
X85038546Y-42897756D01*
X85028907Y-42893261D01*
X85024202Y-42894522D01*
X84915660Y-43021609D01*
X84913233Y-43024783D01*
X84717110Y-43312290D01*
X84715043Y-43315703D01*
X84551117Y-43622707D01*
X84549429Y-43626327D01*
X84419617Y-43949246D01*
X84418332Y-43953021D01*
X84324153Y-44288067D01*
X84323282Y-44291968D01*
X84265842Y-44635213D01*
X84265395Y-44639199D01*
X84245363Y-44986626D01*
X84245349Y-44990652D01*
X83307607Y-44990652D01*
X83307607Y-42527163D01*
X85390536Y-42527163D01*
X85391824Y-42532614D01*
X87490774Y-44631564D01*
X87500413Y-44636059D01*
X87506312Y-44634478D01*
X89605358Y-42535432D01*
X89609853Y-42525793D01*
X89608474Y-42520650D01*
X89607892Y-42520154D01*
X89398202Y-42360412D01*
X109870065Y-42360412D01*
X109883594Y-42566821D01*
X109934512Y-42767309D01*
X109935928Y-42770381D01*
X109935930Y-42770386D01*
X109993157Y-42894522D01*
X110021112Y-42955161D01*
X110023070Y-42957931D01*
X110138537Y-43121314D01*
X110138541Y-43121318D01*
X110140496Y-43124085D01*
X110142921Y-43126447D01*
X110142925Y-43126452D01*
X110204721Y-43186650D01*
X110288665Y-43268425D01*
X110460657Y-43383346D01*
X110463771Y-43384684D01*
X110463773Y-43384685D01*
X110552025Y-43422601D01*
X110650711Y-43465000D01*
X110852463Y-43510652D01*
X110950508Y-43514504D01*
X111055761Y-43518640D01*
X111055765Y-43518640D01*
X111059156Y-43518773D01*
X111263868Y-43489091D01*
X111459743Y-43422601D01*
X111462696Y-43420947D01*
X111462701Y-43420945D01*
X111637260Y-43323186D01*
X111640221Y-43321528D01*
X111642826Y-43319361D01*
X111642831Y-43319358D01*
X111796650Y-43191427D01*
X111799258Y-43189258D01*
X111810667Y-43175540D01*
X111929358Y-43032831D01*
X111929361Y-43032826D01*
X111931528Y-43030221D01*
X111975287Y-42952084D01*
X112030945Y-42852701D01*
X112030947Y-42852696D01*
X112032601Y-42849743D01*
X112099091Y-42653868D01*
X112128773Y-42449156D01*
X112130322Y-42390000D01*
X112127604Y-42360412D01*
X112111705Y-42187392D01*
X112111395Y-42184015D01*
X112110476Y-42180757D01*
X112110475Y-42180751D01*
X112056167Y-41988194D01*
X112056166Y-41988192D01*
X112055246Y-41984929D01*
X111963758Y-41799408D01*
X111955771Y-41788711D01*
X111842025Y-41636388D01*
X111842024Y-41636387D01*
X111839993Y-41633667D01*
X111688096Y-41493255D01*
X111513155Y-41382876D01*
X111457184Y-41360546D01*
X111324183Y-41307483D01*
X111324180Y-41307482D01*
X111321029Y-41306225D01*
X111317702Y-41305563D01*
X111317698Y-41305562D01*
X111121475Y-41266531D01*
X111121473Y-41266531D01*
X111118151Y-41265870D01*
X111026888Y-41264675D01*
X110914709Y-41263206D01*
X110914704Y-41263206D01*
X110911316Y-41263162D01*
X110907970Y-41263737D01*
X110907969Y-41263737D01*
X110848720Y-41273918D01*
X110707451Y-41298193D01*
X110513384Y-41369788D01*
X110335613Y-41475550D01*
X110180093Y-41611938D01*
X110052032Y-41774383D01*
X110009855Y-41854549D01*
X109957303Y-41954432D01*
X109957300Y-41954438D01*
X109955719Y-41957444D01*
X109894378Y-42154993D01*
X109870065Y-42360412D01*
X89398202Y-42360412D01*
X89331056Y-42309260D01*
X89327730Y-42307000D01*
X89029730Y-42127236D01*
X89026215Y-42125367D01*
X88710543Y-41978836D01*
X88706815Y-41977345D01*
X88377168Y-41865765D01*
X88373317Y-41864690D01*
X88033553Y-41789367D01*
X88029588Y-41788711D01*
X87683669Y-41750521D01*
X87679694Y-41750299D01*
X87331667Y-41749692D01*
X87327659Y-41749902D01*
X86981609Y-41786884D01*
X86977667Y-41787523D01*
X86637645Y-41861658D01*
X86633768Y-41862726D01*
X86303734Y-41973155D01*
X86300023Y-41974624D01*
X85983828Y-42120057D01*
X85980305Y-42121914D01*
X85681669Y-42300645D01*
X85678356Y-42302879D01*
X85400787Y-42512803D01*
X85397717Y-42515398D01*
X85395315Y-42517660D01*
X85390536Y-42527163D01*
X83307607Y-42527163D01*
X83307607Y-39039873D01*
X83308731Y-39027024D01*
X83311119Y-39013481D01*
X83311119Y-39013480D01*
X83312243Y-39007105D01*
X83311032Y-39000238D01*
X83310263Y-38980133D01*
X83320333Y-38877893D01*
X83323163Y-38863666D01*
X83358737Y-38746390D01*
X83364289Y-38732987D01*
X83422055Y-38624914D01*
X83430114Y-38612852D01*
X83507862Y-38518116D01*
X83518118Y-38507860D01*
X83612852Y-38430114D01*
X83624914Y-38422055D01*
X83638364Y-38414866D01*
X83732990Y-38364288D01*
X83746390Y-38358737D01*
X83863666Y-38323163D01*
X83877893Y-38320333D01*
X83980133Y-38310263D01*
X84000238Y-38311032D01*
X84007105Y-38312243D01*
X84013480Y-38311119D01*
X84013481Y-38311119D01*
X84027024Y-38308731D01*
X84039873Y-38307607D01*
X115960127Y-38307607D01*
X115972976Y-38308731D01*
G37*
%TD.AperFunction*%
%TD*%
M02*
