%TF.GenerationSoftware,KiCad,Pcbnew,(6.0.10-0)*%
%TF.CreationDate,2023-02-06T16:27:18-08:00*%
%TF.ProjectId,poe-led-bars,706f652d-6c65-4642-9d62-6172732e6b69,rev?*%
%TF.SameCoordinates,Original*%
%TF.FileFunction,Soldermask,Top*%
%TF.FilePolarity,Negative*%
%FSLAX46Y46*%
G04 Gerber Fmt 4.6, Leading zero omitted, Abs format (unit mm)*
G04 Created by KiCad (PCBNEW (6.0.10-0)) date 2023-02-06 16:27:18*
%MOMM*%
%LPD*%
G01*
G04 APERTURE LIST*
G04 Aperture macros list*
%AMRoundRect*
0 Rectangle with rounded corners*
0 $1 Rounding radius*
0 $2 $3 $4 $5 $6 $7 $8 $9 X,Y pos of 4 corners*
0 Add a 4 corners polygon primitive as box body*
4,1,4,$2,$3,$4,$5,$6,$7,$8,$9,$2,$3,0*
0 Add four circle primitives for the rounded corners*
1,1,$1+$1,$2,$3*
1,1,$1+$1,$4,$5*
1,1,$1+$1,$6,$7*
1,1,$1+$1,$8,$9*
0 Add four rect primitives between the rounded corners*
20,1,$1+$1,$2,$3,$4,$5,0*
20,1,$1+$1,$4,$5,$6,$7,0*
20,1,$1+$1,$6,$7,$8,$9,0*
20,1,$1+$1,$8,$9,$2,$3,0*%
%AMRotRect*
0 Rectangle, with rotation*
0 The origin of the aperture is its center*
0 $1 length*
0 $2 width*
0 $3 Rotation angle, in degrees counterclockwise*
0 Add horizontal line*
21,1,$1,$2,0,0,$3*%
G04 Aperture macros list end*
%ADD10R,0.900000X0.600000*%
%ADD11R,0.500000X0.600000*%
%ADD12RoundRect,0.050800X-0.162500X-0.635000X0.162500X-0.635000X0.162500X0.635000X-0.162500X0.635000X0*%
%ADD13C,6.200000*%
%ADD14R,0.600000X0.500000*%
%ADD15RoundRect,0.150000X-0.587500X-0.150000X0.587500X-0.150000X0.587500X0.150000X-0.587500X0.150000X0*%
%ADD16R,0.600000X0.900000*%
%ADD17R,0.900000X2.000000*%
%ADD18R,2.000000X0.900000*%
%ADD19R,5.000000X5.000000*%
%ADD20RoundRect,0.150000X0.150000X-0.512500X0.150000X0.512500X-0.150000X0.512500X-0.150000X-0.512500X0*%
%ADD21RotRect,0.500000X0.600000X45.000000*%
%ADD22RoundRect,0.062500X0.350000X0.062500X-0.350000X0.062500X-0.350000X-0.062500X0.350000X-0.062500X0*%
%ADD23RoundRect,0.062500X0.062500X0.350000X-0.062500X0.350000X-0.062500X-0.350000X0.062500X-0.350000X0*%
%ADD24R,2.600000X2.600000*%
%ADD25R,3.600000X1.500000*%
%ADD26RoundRect,0.150000X-0.725000X-0.150000X0.725000X-0.150000X0.725000X0.150000X-0.725000X0.150000X0*%
%ADD27RoundRect,0.250000X-0.725000X0.600000X-0.725000X-0.600000X0.725000X-0.600000X0.725000X0.600000X0*%
%ADD28O,1.950000X1.700000*%
%ADD29RoundRect,0.250000X-0.650000X0.325000X-0.650000X-0.325000X0.650000X-0.325000X0.650000X0.325000X0*%
%ADD30R,1.400000X1.200000*%
%ADD31R,0.760000X1.670000*%
%ADD32R,1.850000X1.850000*%
%ADD33C,1.850000*%
%ADD34C,3.250000*%
%ADD35RoundRect,0.250500X-0.499500X-0.499500X0.499500X-0.499500X0.499500X0.499500X-0.499500X0.499500X0*%
%ADD36C,1.500000*%
%ADD37C,2.500000*%
%ADD38C,0.500000*%
%ADD39C,0.800000*%
G04 APERTURE END LIST*
D10*
%TO.C,FB1*%
X7600000Y40550000D03*
X7600000Y39050000D03*
%TD*%
D11*
%TO.C,R22*%
X9230000Y18800000D03*
X10170000Y18800000D03*
%TD*%
D12*
%TO.C,U6*%
X-15930971Y47977787D03*
X-15280971Y47977787D03*
X-14630971Y47977787D03*
X-13980971Y47977787D03*
X-13330971Y47977787D03*
X-12680971Y47977787D03*
X-12030971Y47977787D03*
X-11380971Y47977787D03*
X-10730971Y47977787D03*
X-10080971Y47977787D03*
X-10080971Y55216787D03*
X-10730971Y55216787D03*
X-11380971Y55216787D03*
X-12030971Y55216787D03*
X-12680971Y55216787D03*
X-13330971Y55216787D03*
X-13980971Y55216787D03*
X-14630971Y55216787D03*
X-15280971Y55216787D03*
X-15930971Y55216787D03*
%TD*%
D10*
%TO.C,C16*%
X14600000Y45250000D03*
X14600000Y43750000D03*
%TD*%
D13*
%TO.C,*%
X-12500000Y6000000D03*
%TD*%
D11*
%TO.C,R23*%
X9230000Y17850000D03*
X10170000Y17850000D03*
%TD*%
D14*
%TO.C,R18*%
X11900000Y39230000D03*
X11900000Y40170000D03*
%TD*%
D11*
%TO.C,C5*%
X5530000Y33400000D03*
X6470000Y33400000D03*
%TD*%
D14*
%TO.C,C26*%
X-11255971Y44677287D03*
X-11255971Y45617287D03*
%TD*%
D13*
%TO.C,*%
X12500000Y6000000D03*
%TD*%
D11*
%TO.C,C4*%
X14670000Y34400000D03*
X13730000Y34400000D03*
%TD*%
D14*
%TO.C,R34*%
X-8600000Y72970000D03*
X-8600000Y72030000D03*
%TD*%
D11*
%TO.C,R32*%
X13430000Y42000000D03*
X14370000Y42000000D03*
%TD*%
D14*
%TO.C,C15*%
X10100000Y44030000D03*
X10100000Y44970000D03*
%TD*%
D11*
%TO.C,C2*%
X14670000Y38400000D03*
X13730000Y38400000D03*
%TD*%
D14*
%TO.C,C21*%
X4444029Y41877287D03*
X4444029Y42817287D03*
%TD*%
D15*
%TO.C,Q1*%
X-15843471Y59797287D03*
X-15843471Y57897287D03*
X-13968471Y58847287D03*
%TD*%
D11*
%TO.C,R13*%
X6470000Y35400000D03*
X5530000Y35400000D03*
%TD*%
D16*
%TO.C,C14*%
X-14355971Y56647287D03*
X-15855971Y56647287D03*
%TD*%
D17*
%TO.C,U1*%
X-15480000Y25000000D03*
X-14210000Y25000000D03*
X-12940000Y25000000D03*
X-11670000Y25000000D03*
X-10400000Y25000000D03*
X-9130000Y25000000D03*
X-7860000Y25000000D03*
X-6590000Y25000000D03*
X-5320000Y25000000D03*
X-4050000Y25000000D03*
X-2780000Y25000000D03*
X-1510000Y25000000D03*
X-240000Y25000000D03*
X1030000Y25000000D03*
D18*
X2030000Y27785000D03*
X2030000Y29055000D03*
X2030000Y30325000D03*
X2030000Y31595000D03*
X2030000Y32865000D03*
X2030000Y34135000D03*
X2030000Y35405000D03*
X2030000Y36675000D03*
X2030000Y37945000D03*
X2030000Y39215000D03*
D17*
X1030000Y42000000D03*
X-240000Y42000000D03*
X-1510000Y42000000D03*
X-2780000Y42000000D03*
X-4050000Y42000000D03*
X-5320000Y42000000D03*
X-6590000Y42000000D03*
X-7860000Y42000000D03*
X-9130000Y42000000D03*
X-10400000Y42000000D03*
X-11670000Y42000000D03*
X-12940000Y42000000D03*
X-14210000Y42000000D03*
X-15480000Y42000000D03*
D19*
X-7980000Y32500000D03*
%TD*%
D11*
%TO.C,R8*%
X13730000Y32200000D03*
X14670000Y32200000D03*
%TD*%
D14*
%TO.C,R42*%
X-9805971Y59777287D03*
X-9805971Y60717287D03*
%TD*%
D10*
%TO.C,C7*%
X13700000Y16950000D03*
X13700000Y15450000D03*
%TD*%
D11*
%TO.C,C25*%
X-13375971Y46647287D03*
X-12435971Y46647287D03*
%TD*%
D20*
%TO.C,U3*%
X11350000Y43462500D03*
X12300000Y43462500D03*
X13250000Y43462500D03*
X13250000Y45737500D03*
X12300000Y45737500D03*
X11350000Y45737500D03*
%TD*%
D11*
%TO.C,R20*%
X13730000Y33400000D03*
X14670000Y33400000D03*
%TD*%
D21*
%TO.C,R19*%
X9367660Y10067660D03*
X10032340Y10732340D03*
%TD*%
D11*
%TO.C,R25*%
X1024029Y43747287D03*
X1964029Y43747287D03*
%TD*%
D14*
%TO.C,R10*%
X-12905971Y22177287D03*
X-12905971Y23117287D03*
%TD*%
D11*
%TO.C,R7*%
X6470000Y32200000D03*
X5530000Y32200000D03*
%TD*%
%TO.C,R4*%
X5330000Y39800000D03*
X6270000Y39800000D03*
%TD*%
D22*
%TO.C,U2*%
X12037500Y34650000D03*
X12037500Y35150000D03*
X12037500Y35650000D03*
X12037500Y36150000D03*
X12037500Y36650000D03*
X12037500Y37150000D03*
D23*
X11350000Y37837500D03*
X10850000Y37837500D03*
X10350000Y37837500D03*
X9850000Y37837500D03*
X9350000Y37837500D03*
X8850000Y37837500D03*
D22*
X8162500Y37150000D03*
X8162500Y36650000D03*
X8162500Y36150000D03*
X8162500Y35650000D03*
X8162500Y35150000D03*
X8162500Y34650000D03*
D23*
X8850000Y33962500D03*
X9350000Y33962500D03*
X9850000Y33962500D03*
X10350000Y33962500D03*
X10850000Y33962500D03*
X11350000Y33962500D03*
D24*
X10100000Y35900000D03*
%TD*%
D21*
%TO.C,R11*%
X10073726Y9361594D03*
X10738406Y10026274D03*
%TD*%
D14*
%TO.C,R2*%
X14600000Y40270000D03*
X14600000Y39330000D03*
%TD*%
D13*
%TO.C,*%
X-12500000Y105000000D03*
%TD*%
D11*
%TO.C,R29*%
X12830000Y40900000D03*
X13770000Y40900000D03*
%TD*%
D25*
%TO.C,L2*%
X7300000Y45425000D03*
X7300000Y42375000D03*
%TD*%
D11*
%TO.C,R14*%
X6470000Y34400000D03*
X5530000Y34400000D03*
%TD*%
D26*
%TO.C,U5*%
X-15580971Y70692287D03*
X-15580971Y69422287D03*
X-15580971Y68152287D03*
X-15580971Y66882287D03*
X-15580971Y65612287D03*
X-15580971Y64342287D03*
X-15580971Y63072287D03*
X-15580971Y61802287D03*
X-10430971Y61802287D03*
X-10430971Y63072287D03*
X-10430971Y64342287D03*
X-10430971Y65612287D03*
X-10430971Y66882287D03*
X-10430971Y68152287D03*
X-10430971Y69422287D03*
X-10430971Y70692287D03*
%TD*%
D11*
%TO.C,R39*%
X-14435971Y44047287D03*
X-15375971Y44047287D03*
%TD*%
D14*
%TO.C,C27*%
X-6555971Y45617287D03*
X-6555971Y44677287D03*
%TD*%
D16*
%TO.C,C18*%
X10850000Y42000000D03*
X12350000Y42000000D03*
%TD*%
D11*
%TO.C,C3*%
X14670000Y35400000D03*
X13730000Y35400000D03*
%TD*%
%TO.C,R9*%
X12770000Y32200000D03*
X11830000Y32200000D03*
%TD*%
D14*
%TO.C,R28*%
X3994029Y39717287D03*
X3994029Y38777287D03*
%TD*%
D11*
%TO.C,R24*%
X9230000Y16950000D03*
X10170000Y16950000D03*
%TD*%
D27*
%TO.C,J3*%
X-12675000Y98650000D03*
D28*
X-12675000Y96150000D03*
X-12675000Y93650000D03*
X-12675000Y91150000D03*
%TD*%
D29*
%TO.C,C11*%
X12500000Y13975000D03*
X12500000Y11025000D03*
%TD*%
D11*
%TO.C,C20*%
X-10435971Y72147287D03*
X-11375971Y72147287D03*
%TD*%
D15*
%TO.C,Q3*%
X-12043471Y59797287D03*
X-12043471Y57897287D03*
X-10168471Y58847287D03*
%TD*%
D27*
%TO.C,J2*%
X-12675000Y83650000D03*
D28*
X-12675000Y81150000D03*
X-12675000Y78650000D03*
X-12675000Y76150000D03*
%TD*%
D30*
%TO.C,Q2*%
X-10005971Y44297287D03*
X-7805971Y45997287D03*
X-10005971Y45997287D03*
X-7805971Y44297287D03*
%TD*%
D31*
%TO.C,TR1*%
X14545000Y30465000D03*
X13275000Y30465000D03*
X12005000Y30465000D03*
X10735000Y30465000D03*
X9465000Y30465000D03*
X8195000Y30465000D03*
X6925000Y30465000D03*
X5655000Y30465000D03*
X5655000Y21935000D03*
X6925000Y21935000D03*
X8195000Y21935000D03*
X9465000Y21935000D03*
X10735000Y21935000D03*
X12005000Y21935000D03*
X13275000Y21935000D03*
X14545000Y21935000D03*
%TD*%
D11*
%TO.C,R26*%
X5330000Y38800000D03*
X6270000Y38800000D03*
%TD*%
D14*
%TO.C,R21*%
X13300000Y19770000D03*
X13300000Y18830000D03*
%TD*%
D11*
%TO.C,C1*%
X14670000Y37400000D03*
X13730000Y37400000D03*
%TD*%
D14*
%TO.C,R41*%
X-13505971Y59777287D03*
X-13505971Y60717287D03*
%TD*%
%TO.C,R31*%
X-8600000Y67770000D03*
X-8600000Y66830000D03*
%TD*%
D32*
%TO.C,PS1*%
X840000Y53000000D03*
X11000000Y53000000D03*
D33*
X840000Y55540000D03*
X11000000Y55540000D03*
X11000000Y58080000D03*
X840000Y58080000D03*
X11000000Y60620000D03*
X840000Y60620000D03*
X11000000Y63160000D03*
X11000000Y65700000D03*
X11000000Y99990000D03*
X840000Y96180000D03*
X11000000Y102530000D03*
X840000Y98720000D03*
X11000000Y105070000D03*
X11000000Y107610000D03*
X840000Y101260000D03*
%TD*%
D10*
%TO.C,C8*%
X12400000Y16950000D03*
X12400000Y15450000D03*
%TD*%
%TO.C,C6*%
X15000000Y16950000D03*
X15000000Y15450000D03*
%TD*%
D11*
%TO.C,R5*%
X-12435971Y44047287D03*
X-13375971Y44047287D03*
%TD*%
D14*
%TO.C,R30*%
X-8600000Y64070000D03*
X-8600000Y63130000D03*
%TD*%
D34*
%TO.C,J1*%
X-5715000Y9500000D03*
X5715000Y9500000D03*
D35*
X-4445000Y15850000D03*
D36*
X-3175000Y18390000D03*
X-1905000Y15850000D03*
X-635000Y18390000D03*
X635000Y15850000D03*
X1905000Y18390000D03*
X3175000Y15850000D03*
X4445000Y18390000D03*
X-4090000Y5440000D03*
X-6630000Y5440000D03*
X4090000Y5440000D03*
X6630000Y5440000D03*
D37*
X-7875000Y12550000D03*
X7875000Y12550000D03*
%TD*%
D10*
%TO.C,C9*%
X11100000Y16950000D03*
X11100000Y15450000D03*
%TD*%
D11*
%TO.C,R12*%
X-12435971Y45097287D03*
X-13375971Y45097287D03*
%TD*%
%TO.C,R40*%
X-14435971Y45097287D03*
X-15375971Y45097287D03*
%TD*%
D16*
%TO.C,C19*%
X-15555971Y72147287D03*
X-14055971Y72147287D03*
%TD*%
D14*
%TO.C,R33*%
X-8600000Y70370000D03*
X-8600000Y69430000D03*
%TD*%
D11*
%TO.C,R27*%
X-1830000Y43750000D03*
X-2770000Y43750000D03*
%TD*%
D16*
%TO.C,C10*%
X6450000Y37600000D03*
X4950000Y37600000D03*
%TD*%
D11*
%TO.C,R6*%
X7430000Y32200000D03*
X8370000Y32200000D03*
%TD*%
D14*
%TO.C,R16*%
X10900000Y39230000D03*
X10900000Y40170000D03*
%TD*%
D11*
%TO.C,R3*%
X13770000Y39750000D03*
X12830000Y39750000D03*
%TD*%
D16*
%TO.C,C17*%
X-14150000Y23000000D03*
X-15650000Y23000000D03*
%TD*%
D29*
%TO.C,C12*%
X-12500000Y13975000D03*
X-12500000Y11025000D03*
%TD*%
D14*
%TO.C,R1*%
X8600000Y40170000D03*
X8600000Y39230000D03*
%TD*%
%TO.C,R17*%
X9600000Y40170000D03*
X9600000Y39230000D03*
%TD*%
D11*
%TO.C,R15*%
X6470000Y36400000D03*
X5530000Y36400000D03*
%TD*%
D38*
X-6000000Y31000000D03*
X-12900000Y45900000D03*
X-16200000Y61000000D03*
X10100000Y35900000D03*
X-9000000Y34000000D03*
X9100000Y35900000D03*
X-14000000Y69700000D03*
X3700000Y35900000D03*
X12500000Y10000000D03*
X-15400000Y26500000D03*
X13400000Y10000000D03*
X-2700000Y51400000D03*
X3000000Y41400000D03*
X12500000Y38100000D03*
X15992894Y1007106D03*
X-12700000Y39200000D03*
X-11300000Y49400000D03*
X3600000Y32200000D03*
X7900000Y25000000D03*
X-9000000Y32000000D03*
X-10000000Y31000000D03*
X-6000000Y34000000D03*
X-6400000Y43800000D03*
X500000Y30500000D03*
X-200000Y45800000D03*
X3700000Y42900000D03*
X-200000Y48900000D03*
X400000Y36400000D03*
X2200000Y48900000D03*
X-100000Y27800000D03*
X400000Y39000000D03*
X4400000Y44500000D03*
X-13900000Y56600000D03*
X-13700000Y53800000D03*
X-11400000Y46500000D03*
X10400000Y25000000D03*
X-7000000Y34000000D03*
X5000000Y42900000D03*
X-13900000Y11000000D03*
X10100000Y34900000D03*
X13100000Y29000000D03*
X-11100000Y11000000D03*
X11100000Y35900000D03*
X-7000000Y33000000D03*
X-8000000Y31000000D03*
X2500000Y26600000D03*
X-6011364Y31980686D03*
X-12600000Y65500000D03*
X-12500000Y70700000D03*
X-9000000Y31000000D03*
X-4700000Y40000000D03*
X-8000000Y33000000D03*
X-11600000Y10000000D03*
X13900000Y11000000D03*
X9900000Y43000000D03*
X-8000000Y32000000D03*
X-12900000Y68000000D03*
X-12500000Y61800000D03*
X9600000Y40700000D03*
X-10000000Y32000000D03*
X-13400000Y10000000D03*
X-16200000Y52300000D03*
X-15992894Y110992894D03*
X12800000Y44600000D03*
X-9000000Y33000000D03*
X-10000000Y33000000D03*
X10100000Y36900000D03*
X10100000Y32100000D03*
X-6000000Y33000000D03*
X11700000Y42000000D03*
X-8700000Y57800000D03*
X6600142Y41103248D03*
X-10000000Y34000000D03*
X2100000Y42400000D03*
X11600000Y10000000D03*
X-7000000Y31000000D03*
X-7000000Y32000000D03*
X-8800000Y44300000D03*
X-15992894Y1007106D03*
X1900000Y23500000D03*
X15992894Y110992894D03*
X-8000000Y34000000D03*
X-13700000Y39200000D03*
X-12500000Y10000000D03*
X11800000Y44600000D03*
X12000000Y29000000D03*
X2200000Y45800000D03*
X-16400000Y23000000D03*
X4900000Y33400000D03*
X13300000Y31600000D03*
X12900000Y34000000D03*
X6900000Y31600000D03*
X8300000Y33400000D03*
X8300000Y38500000D03*
X10250000Y42000000D03*
X4800000Y38800000D03*
X9350000Y42000000D03*
X-10400000Y70050000D03*
X8600000Y40700000D03*
X-13900000Y49500000D03*
X9800000Y42000000D03*
X-13700000Y23700000D03*
X4800000Y39800000D03*
X-14200000Y23700000D03*
D39*
X14600000Y20200000D03*
X12000000Y20200000D03*
X9200000Y20200000D03*
X12100000Y24600000D03*
X13400000Y24600000D03*
D38*
X-12950000Y26350000D03*
X-15100000Y58850000D03*
X-12700000Y57150000D03*
X-14150000Y59800000D03*
X9290000Y38540000D03*
X-1500000Y26350000D03*
X12700000Y39000000D03*
X-4050000Y26350000D03*
X10900000Y40700000D03*
X11900000Y40700000D03*
X-2750000Y26350000D03*
X6350000Y40450000D03*
X-5300000Y40675000D03*
X-13905971Y44047287D03*
X-13905971Y45897287D03*
X11100000Y10600000D03*
X13000000Y36000000D03*
X4900000Y35400000D03*
X-6600000Y40675000D03*
X-12900000Y40675000D03*
X4900000Y34400000D03*
X4900000Y36400000D03*
X-9100000Y40675000D03*
X13000000Y35199500D03*
X10500000Y11200000D03*
X-1150000Y43750000D03*
X13650000Y36350000D03*
X2050000Y41300000D03*
X-14250000Y66900000D03*
X-8600000Y71350000D03*
X-14300000Y64200000D03*
X-250000Y26350000D03*
X-13200000Y62450000D03*
X1050000Y26350000D03*
X-13750000Y63150000D03*
X-250000Y44350000D03*
X-13550000Y65600000D03*
X3700000Y36900000D03*
X7500000Y37400000D03*
X-13650000Y40125000D03*
X-16350000Y50575000D03*
X-15849500Y51342245D03*
X-16050000Y53350000D03*
X1300000Y8750000D03*
M02*
