%TF.GenerationSoftware,KiCad,Pcbnew,(6.0.10-0)*%
%TF.CreationDate,2023-02-06T16:27:18-08:00*%
%TF.ProjectId,poe-led-bars,706f652d-6c65-4642-9d62-6172732e6b69,rev?*%
%TF.SameCoordinates,Original*%
%TF.FileFunction,Copper,L3,Inr*%
%TF.FilePolarity,Positive*%
%FSLAX46Y46*%
G04 Gerber Fmt 4.6, Leading zero omitted, Abs format (unit mm)*
G04 Created by KiCad (PCBNEW (6.0.10-0)) date 2023-02-06 16:27:18*
%MOMM*%
%LPD*%
G01*
G04 APERTURE LIST*
G04 Aperture macros list*
%AMRoundRect*
0 Rectangle with rounded corners*
0 $1 Rounding radius*
0 $2 $3 $4 $5 $6 $7 $8 $9 X,Y pos of 4 corners*
0 Add a 4 corners polygon primitive as box body*
4,1,4,$2,$3,$4,$5,$6,$7,$8,$9,$2,$3,0*
0 Add four circle primitives for the rounded corners*
1,1,$1+$1,$2,$3*
1,1,$1+$1,$4,$5*
1,1,$1+$1,$6,$7*
1,1,$1+$1,$8,$9*
0 Add four rect primitives between the rounded corners*
20,1,$1+$1,$2,$3,$4,$5,0*
20,1,$1+$1,$4,$5,$6,$7,0*
20,1,$1+$1,$6,$7,$8,$9,0*
20,1,$1+$1,$8,$9,$2,$3,0*%
G04 Aperture macros list end*
%TA.AperFunction,ComponentPad*%
%ADD10C,6.200000*%
%TD*%
%TA.AperFunction,ComponentPad*%
%ADD11RoundRect,0.250000X-0.725000X0.600000X-0.725000X-0.600000X0.725000X-0.600000X0.725000X0.600000X0*%
%TD*%
%TA.AperFunction,ComponentPad*%
%ADD12O,1.950000X1.700000*%
%TD*%
%TA.AperFunction,ComponentPad*%
%ADD13R,1.850000X1.850000*%
%TD*%
%TA.AperFunction,ComponentPad*%
%ADD14C,1.850000*%
%TD*%
%TA.AperFunction,ComponentPad*%
%ADD15RoundRect,0.250500X-0.499500X-0.499500X0.499500X-0.499500X0.499500X0.499500X-0.499500X0.499500X0*%
%TD*%
%TA.AperFunction,ComponentPad*%
%ADD16C,1.500000*%
%TD*%
%TA.AperFunction,ComponentPad*%
%ADD17C,2.500000*%
%TD*%
%TA.AperFunction,ViaPad*%
%ADD18C,0.500000*%
%TD*%
%TA.AperFunction,ViaPad*%
%ADD19C,0.800000*%
%TD*%
%TA.AperFunction,Conductor*%
%ADD20C,1.000000*%
%TD*%
%TA.AperFunction,Conductor*%
%ADD21C,0.200000*%
%TD*%
G04 APERTURE END LIST*
D10*
%TO.N,GNDD*%
%TO.C,*%
X-12500000Y6000000D03*
%TD*%
%TO.N,GNDD*%
%TO.C,*%
X12500000Y6000000D03*
%TD*%
%TO.N,GNDD*%
%TO.C,*%
X-12500000Y105000000D03*
%TD*%
D11*
%TO.N,+12V*%
%TO.C,J3*%
X-12675000Y98650000D03*
D12*
%TO.N,Net-(J3-Pad2)*%
X-12675000Y96150000D03*
%TO.N,Net-(J3-Pad3)*%
X-12675000Y93650000D03*
%TO.N,GNDD*%
X-12675000Y91150000D03*
%TD*%
D11*
%TO.N,+12V*%
%TO.C,J2*%
X-12675000Y83650000D03*
D12*
%TO.N,Net-(J2-Pad2)*%
X-12675000Y81150000D03*
%TO.N,Net-(J2-Pad3)*%
X-12675000Y78650000D03*
%TO.N,GNDD*%
X-12675000Y76150000D03*
%TD*%
D13*
%TO.N,POEA1*%
%TO.C,PS1*%
X11000000Y53000000D03*
D14*
%TO.N,POEA2*%
X11000000Y55540000D03*
%TO.N,POEB1*%
X11000000Y58080000D03*
%TO.N,POEB2*%
X11000000Y60620000D03*
%TO.N,unconnected-(PS1-Pad5)*%
X11000000Y63160000D03*
%TO.N,N/C*%
X11000000Y65700000D03*
%TO.N,GNDD*%
X11000000Y99990000D03*
X11000000Y102530000D03*
%TO.N,+12V*%
X11000000Y105070000D03*
X11000000Y107610000D03*
%TO.N,N/C*%
X840000Y101260000D03*
%TD*%
D15*
%TO.N,ETH_TXP*%
%TO.C,J1*%
X-4445000Y15850000D03*
D16*
%TO.N,ETH_TXN*%
X-3175000Y18390000D03*
%TO.N,ETH_RXP*%
X-1905000Y15850000D03*
%TO.N,POEB1*%
X-635000Y18390000D03*
X635000Y15850000D03*
%TO.N,ETH_RXN*%
X1905000Y18390000D03*
%TO.N,POEB2*%
X3175000Y15850000D03*
X4445000Y18390000D03*
%TO.N,GNDD*%
X-4090000Y5440000D03*
%TO.N,Net-(J1-Pad10)*%
X-6630000Y5440000D03*
%TO.N,Net-(J1-Pad11)*%
X4090000Y5440000D03*
%TO.N,+3V3*%
X6630000Y5440000D03*
D17*
%TO.N,Net-(C12-Pad1)*%
X-7875000Y12550000D03*
X7875000Y12550000D03*
%TD*%
D18*
%TO.N,GNDD*%
X-6000000Y31000000D03*
X-12900000Y45900000D03*
X-16200000Y61000000D03*
X10100000Y35900000D03*
X-9000000Y34000000D03*
X9100000Y35900000D03*
X-14000000Y69700000D03*
X3700000Y35900000D03*
X12500000Y10000000D03*
X-15400000Y26500000D03*
X13400000Y10000000D03*
X-2700000Y51400000D03*
X3000000Y41400000D03*
X12500000Y38100000D03*
X15992894Y1007106D03*
X-12700000Y39200000D03*
X-11300000Y49400000D03*
X3600000Y32200000D03*
X7900000Y25000000D03*
X-9000000Y32000000D03*
X-10000000Y31000000D03*
X-6000000Y34000000D03*
X-6400000Y43800000D03*
X500000Y30500000D03*
X-200000Y45800000D03*
X3700000Y42900000D03*
X-200000Y48900000D03*
X400000Y36400000D03*
X2200000Y48900000D03*
X-100000Y27800000D03*
X400000Y39000000D03*
X4400000Y44500000D03*
X-13900000Y56600000D03*
X-13700000Y53800000D03*
X-11400000Y46500000D03*
X10400000Y25000000D03*
X-7000000Y34000000D03*
X5000000Y42900000D03*
X-13900000Y11000000D03*
X10100000Y34900000D03*
X13100000Y29000000D03*
X-11100000Y11000000D03*
X11100000Y35900000D03*
X-7000000Y33000000D03*
X-8000000Y31000000D03*
X2500000Y26600000D03*
X-6011364Y31980686D03*
X-12600000Y65500000D03*
X-12500000Y70700000D03*
X-9000000Y31000000D03*
X-4700000Y40000000D03*
X-8000000Y33000000D03*
X-11600000Y10000000D03*
X13900000Y11000000D03*
X9900000Y43000000D03*
X-8000000Y32000000D03*
X-12900000Y68000000D03*
X-12500000Y61800000D03*
X9600000Y40700000D03*
X-10000000Y32000000D03*
X-13400000Y10000000D03*
X-16200000Y52300000D03*
X-15992894Y110992894D03*
X12800000Y44600000D03*
X-9000000Y33000000D03*
X-10000000Y33000000D03*
X10100000Y36900000D03*
X10100000Y32100000D03*
X-6000000Y33000000D03*
X11700000Y42000000D03*
X-8700000Y57800000D03*
X6600142Y41103248D03*
X-10000000Y34000000D03*
X2100000Y42400000D03*
X11600000Y10000000D03*
X-7000000Y31000000D03*
X-7000000Y32000000D03*
X-8800000Y44300000D03*
X-15992894Y1007106D03*
X1900000Y23500000D03*
X15992894Y110992894D03*
X-8000000Y34000000D03*
X-13700000Y39200000D03*
X-12500000Y10000000D03*
X11800000Y44600000D03*
X12000000Y29000000D03*
X2200000Y45800000D03*
X-16400000Y23000000D03*
X4900000Y33400000D03*
%TO.N,Net-(C3-Pad2)*%
X13300000Y31600000D03*
X12900000Y34000000D03*
X6900000Y31600000D03*
X8300000Y33400000D03*
X8300000Y38500000D03*
%TO.N,+3V3*%
X10250000Y42000000D03*
X4800000Y38800000D03*
X9350000Y42000000D03*
X-10400000Y70050000D03*
X8600000Y40700000D03*
X-13900000Y49500000D03*
X9800000Y42000000D03*
X-13700000Y23700000D03*
X4800000Y39800000D03*
X-14200000Y23700000D03*
D19*
%TO.N,ETH_RXP*%
X14600000Y20200000D03*
%TO.N,ETH_RXN*%
X12000000Y20200000D03*
%TO.N,POEA1*%
X9200000Y20200000D03*
X12100000Y24600000D03*
%TO.N,POEA2*%
X13400000Y24600000D03*
D18*
%TO.N,EN*%
X-12950000Y26350000D03*
X-15100000Y58850000D03*
%TO.N,Net-(Q3-Pad2)*%
X-12700000Y57150000D03*
X-14150000Y59800000D03*
%TO.N,CRS_DV*%
X9290000Y38540000D03*
X-1500000Y26350000D03*
%TO.N,RXD0*%
X12700000Y39000000D03*
X-4050000Y26350000D03*
X10900000Y40700000D03*
%TO.N,RXD1*%
X11900000Y40700000D03*
X-2750000Y26350000D03*
%TO.N,MDIO*%
X6350000Y40450000D03*
X-5300000Y40675000D03*
%TO.N,ESP32_TX*%
X-13905971Y44047287D03*
X-13905971Y45897287D03*
%TO.N,LINK_LED*%
X11100000Y10600000D03*
X13000000Y36000000D03*
%TO.N,TXD0*%
X4900000Y35400000D03*
X-6600000Y40675000D03*
%TO.N,TXD1*%
X-12900000Y40675000D03*
X4900000Y34400000D03*
%TO.N,TXEN*%
X4900000Y36400000D03*
X-9100000Y40675000D03*
%TO.N,100T_LED*%
X13000000Y35199500D03*
X10500000Y11200000D03*
%TO.N,Net-(R27-Pad1)*%
X-1150000Y43750000D03*
X13650000Y36350000D03*
%TO.N,OUT_DAT*%
X2050000Y41300000D03*
X-14250000Y66900000D03*
%TO.N,LED_CLK*%
X-8600000Y71350000D03*
X-14300000Y64200000D03*
%TO.N,OUT_C*%
X-250000Y26350000D03*
X-13200000Y62450000D03*
%TO.N,OUT_D*%
X1050000Y26350000D03*
X-13750000Y63150000D03*
%TO.N,OUT_CLK*%
X-250000Y44350000D03*
X-13550000Y65600000D03*
%TO.N,MDC*%
X3700000Y36900000D03*
X7500000Y37400000D03*
X-13650000Y40125000D03*
%TO.N,Net-(U6-Pad6)*%
X-16350000Y50575000D03*
%TO.N,Net-(U6-Pad7)*%
X-15849500Y51342245D03*
%TO.N,Net-(C14-Pad2)*%
X-16050000Y53350000D03*
X1300000Y8750000D03*
%TD*%
D20*
%TO.N,POEB1*%
X7757944Y23400000D02*
X14102944Y23400000D01*
X-635000Y18390000D02*
X1175000Y20200000D01*
X635000Y15850000D02*
X635000Y17120000D01*
X635000Y17120000D02*
X-635000Y18390000D01*
X14102944Y23400000D02*
X14700000Y23997056D01*
X4557944Y20200000D02*
X7757944Y23400000D01*
X1175000Y20200000D02*
X4557944Y20200000D01*
X14700000Y23997056D02*
X14700000Y54380000D01*
X14700000Y54380000D02*
X11000000Y58080000D01*
%TO.N,POEB2*%
X4445000Y18390000D02*
X8255000Y22200000D01*
X4400000Y17075000D02*
X4400000Y18345000D01*
X15900000Y23500000D02*
X15900000Y55720000D01*
X3175000Y15850000D02*
X4400000Y17075000D01*
X14600000Y22200000D02*
X15900000Y23500000D01*
X4400000Y18345000D02*
X4445000Y18390000D01*
X8255000Y22200000D02*
X14600000Y22200000D01*
X15900000Y55720000D02*
X11000000Y60620000D01*
D21*
%TO.N,MDC*%
X7500000Y37400000D02*
X4200000Y37400000D01*
X4200000Y37400000D02*
X3700000Y36900000D01*
%TD*%
%TA.AperFunction,Conductor*%
%TO.N,GNDD*%
G36*
X15972976Y111691269D02*
G01*
X15986519Y111688881D01*
X15986520Y111688881D01*
X15992895Y111687757D01*
X15999762Y111688968D01*
X16019867Y111689737D01*
X16122107Y111679667D01*
X16136334Y111676837D01*
X16253610Y111641263D01*
X16267010Y111635712D01*
X16361636Y111585134D01*
X16375086Y111577945D01*
X16387148Y111569886D01*
X16481882Y111492140D01*
X16492138Y111481884D01*
X16569886Y111387148D01*
X16577945Y111375086D01*
X16635711Y111267013D01*
X16641263Y111253610D01*
X16676837Y111136334D01*
X16679667Y111122107D01*
X16689737Y111019867D01*
X16688968Y110999762D01*
X16687757Y110992895D01*
X16688881Y110986520D01*
X16688881Y110986519D01*
X16691269Y110972976D01*
X16692393Y110960127D01*
X16692393Y56804022D01*
X16675080Y56756456D01*
X16631243Y56731146D01*
X16581393Y56739936D01*
X16566067Y56751696D01*
X12644086Y60673677D01*
X12622640Y60720197D01*
X12610680Y60872178D01*
X12610679Y60872183D01*
X12610452Y60875070D01*
X12550722Y61123860D01*
X12542151Y61144554D01*
X12468078Y61323381D01*
X12452809Y61360243D01*
X12319123Y61578399D01*
X12310049Y61589024D01*
X12154847Y61770742D01*
X12152956Y61772956D01*
X11958399Y61939123D01*
X11740243Y62072809D01*
X11605095Y62128789D01*
X11567775Y62162987D01*
X11561168Y62213172D01*
X11588366Y62255864D01*
X11597255Y62261720D01*
X11608814Y62268193D01*
X11608821Y62268198D01*
X11611780Y62269855D01*
X11763752Y62396248D01*
X11890145Y62548220D01*
X11930314Y62619946D01*
X11985073Y62717724D01*
X11985075Y62717728D01*
X11986728Y62720680D01*
X12050265Y62907854D01*
X12051569Y62916850D01*
X12078315Y63101310D01*
X12078316Y63101318D01*
X12078628Y63103472D01*
X12080108Y63160000D01*
X12069513Y63275304D01*
X12062332Y63353455D01*
X12062331Y63353460D01*
X12062021Y63356834D01*
X12054600Y63383150D01*
X12012338Y63533000D01*
X12008368Y63547076D01*
X11997014Y63570099D01*
X11922442Y63721316D01*
X11922440Y63721319D01*
X11920943Y63724355D01*
X11918920Y63727064D01*
X11918917Y63727069D01*
X11804709Y63880012D01*
X11804708Y63880013D01*
X11802677Y63882733D01*
X11800186Y63885036D01*
X11800183Y63885039D01*
X11660020Y64014604D01*
X11660016Y64014607D01*
X11657528Y64016907D01*
X11490359Y64122383D01*
X11487216Y64123637D01*
X11487214Y64123638D01*
X11309921Y64194371D01*
X11309918Y64194372D01*
X11306767Y64195629D01*
X11161299Y64224564D01*
X11116226Y64233530D01*
X11116224Y64233530D01*
X11112902Y64234191D01*
X11026049Y64235328D01*
X10918649Y64236734D01*
X10918645Y64236734D01*
X10915256Y64236778D01*
X10911910Y64236203D01*
X10911909Y64236203D01*
X10858176Y64226970D01*
X10720447Y64203304D01*
X10535002Y64134890D01*
X10365128Y64033826D01*
X10216517Y63903497D01*
X10094145Y63748269D01*
X10002110Y63573339D01*
X9943495Y63384567D01*
X9920262Y63188274D01*
X9933190Y62991034D01*
X9934024Y62987751D01*
X9976804Y62819304D01*
X9981845Y62799453D01*
X10064599Y62619946D01*
X10178679Y62458526D01*
X10320266Y62320598D01*
X10323089Y62318712D01*
X10410925Y62260022D01*
X10440857Y62219201D01*
X10437546Y62168690D01*
X10398132Y62130126D01*
X10388338Y62126069D01*
X10259757Y62072809D01*
X10041601Y61939123D01*
X9847044Y61772956D01*
X9845153Y61770742D01*
X9689952Y61589024D01*
X9680877Y61578399D01*
X9547191Y61360243D01*
X9531922Y61323381D01*
X9457850Y61144554D01*
X9449278Y61123860D01*
X9389548Y60875070D01*
X9389321Y60872183D01*
X9389320Y60872178D01*
X9373698Y60673677D01*
X9369474Y60620000D01*
X9369702Y60617103D01*
X9379241Y60495901D01*
X9389548Y60364930D01*
X9390226Y60362106D01*
X9447408Y60123931D01*
X9449278Y60116140D01*
X9450390Y60113457D01*
X9450391Y60113452D01*
X9518657Y59948645D01*
X9547191Y59879757D01*
X9680877Y59661601D01*
X9682769Y59659386D01*
X9682771Y59659383D01*
X9827931Y59489422D01*
X9847044Y59467044D01*
X9849258Y59465153D01*
X9918201Y59406270D01*
X9943127Y59362213D01*
X9933903Y59312442D01*
X9918201Y59293730D01*
X9847044Y59232956D01*
X9845153Y59230742D01*
X9689952Y59049024D01*
X9680877Y59038399D01*
X9547191Y58820243D01*
X9531922Y58783381D01*
X9457850Y58604554D01*
X9449278Y58583860D01*
X9448599Y58581033D01*
X9448598Y58581029D01*
X9433779Y58519304D01*
X9389548Y58335070D01*
X9389321Y58332183D01*
X9389320Y58332178D01*
X9376872Y58174001D01*
X9369474Y58080000D01*
X9369702Y58077103D01*
X9379241Y57955901D01*
X9389548Y57824930D01*
X9449278Y57576140D01*
X9450390Y57573457D01*
X9450391Y57573452D01*
X9465673Y57536558D01*
X9547191Y57339757D01*
X9680877Y57121601D01*
X9682769Y57119386D01*
X9682771Y57119383D01*
X9827931Y56949422D01*
X9847044Y56927044D01*
X9849258Y56925153D01*
X9918201Y56866270D01*
X9943127Y56822213D01*
X9933903Y56772442D01*
X9918201Y56753730D01*
X9891759Y56731146D01*
X9847044Y56692956D01*
X9845153Y56690742D01*
X9689952Y56509024D01*
X9680877Y56498399D01*
X9547191Y56280243D01*
X9531922Y56243381D01*
X9457850Y56064554D01*
X9449278Y56043860D01*
X9389548Y55795070D01*
X9389321Y55792183D01*
X9389320Y55792178D01*
X9376872Y55634001D01*
X9369474Y55540000D01*
X9369702Y55537103D01*
X9379241Y55415901D01*
X9389548Y55284930D01*
X9449278Y55036140D01*
X9450390Y55033457D01*
X9450391Y55033452D01*
X9509211Y54891448D01*
X9547191Y54799757D01*
X9548711Y54797277D01*
X9676110Y54589379D01*
X9686202Y54539776D01*
X9662049Y54495291D01*
X9651353Y54487420D01*
X9639592Y54480297D01*
X9519703Y54360408D01*
X9431873Y54215383D01*
X9381171Y54053594D01*
X9374500Y53980993D01*
X9374501Y52019008D01*
X9381171Y51946406D01*
X9382343Y51942665D01*
X9382344Y51942662D01*
X9411459Y51849757D01*
X9431873Y51784617D01*
X9519703Y51639592D01*
X9639592Y51519703D01*
X9784617Y51431873D01*
X9946406Y51381171D01*
X9966263Y51379346D01*
X10017317Y51374655D01*
X10017323Y51374655D01*
X10019007Y51374500D01*
X10999711Y51374500D01*
X11980992Y51374501D01*
X12041886Y51380095D01*
X12049687Y51380812D01*
X12049688Y51380812D01*
X12053594Y51381171D01*
X12057335Y51382343D01*
X12057338Y51382344D01*
X12211123Y51430538D01*
X12215383Y51431873D01*
X12360408Y51519703D01*
X12480297Y51639592D01*
X12568127Y51784617D01*
X12618829Y51946406D01*
X12625500Y52019007D01*
X12625499Y53980992D01*
X12618829Y54053594D01*
X12614479Y54067477D01*
X12569462Y54211123D01*
X12568127Y54215383D01*
X12480297Y54360408D01*
X12360408Y54480297D01*
X12348651Y54487417D01*
X12316933Y54526865D01*
X12317993Y54577473D01*
X12323890Y54589379D01*
X12452809Y54799757D01*
X12454233Y54798884D01*
X12487228Y54829616D01*
X12537780Y54832236D01*
X12568429Y54813808D01*
X13477826Y53904411D01*
X13499218Y53858535D01*
X13499500Y53852085D01*
X13499500Y36768155D01*
X13482187Y36720589D01*
X13459096Y36702221D01*
X13411658Y36678050D01*
X13321950Y36588342D01*
X13319306Y36583152D01*
X13319304Y36583150D01*
X13267000Y36480498D01*
X13264354Y36475304D01*
X13263443Y36469549D01*
X13256764Y36427380D01*
X13232224Y36383108D01*
X13184967Y36364967D01*
X13150080Y36373022D01*
X13130498Y36383000D01*
X13130495Y36383001D01*
X13125304Y36385646D01*
X13119552Y36386557D01*
X13119549Y36386558D01*
X13005752Y36404581D01*
X13000000Y36405492D01*
X12994248Y36404581D01*
X12880451Y36386558D01*
X12880448Y36386557D01*
X12874696Y36385646D01*
X12869505Y36383001D01*
X12869502Y36383000D01*
X12766850Y36330696D01*
X12766848Y36330694D01*
X12761658Y36328050D01*
X12671950Y36238342D01*
X12669306Y36233152D01*
X12669304Y36233150D01*
X12617000Y36130498D01*
X12614354Y36125304D01*
X12613443Y36119552D01*
X12613442Y36119549D01*
X12596781Y36014354D01*
X12594508Y36000000D01*
X12595419Y35994248D01*
X12613442Y35880451D01*
X12613443Y35880448D01*
X12614354Y35874696D01*
X12616999Y35869505D01*
X12617000Y35869502D01*
X12669304Y35766850D01*
X12669306Y35766848D01*
X12671950Y35761658D01*
X12761658Y35671950D01*
X12773958Y35665683D01*
X12808478Y35628665D01*
X12811128Y35578115D01*
X12780665Y35537689D01*
X12773973Y35533825D01*
X12761658Y35527550D01*
X12671950Y35437842D01*
X12669306Y35432652D01*
X12669304Y35432650D01*
X12624898Y35345498D01*
X12614354Y35324804D01*
X12613443Y35319052D01*
X12613442Y35319049D01*
X12605595Y35269502D01*
X12594508Y35199500D01*
X12595419Y35193748D01*
X12613442Y35079951D01*
X12613443Y35079948D01*
X12614354Y35074196D01*
X12616999Y35069005D01*
X12617000Y35069002D01*
X12669304Y34966350D01*
X12669306Y34966348D01*
X12671950Y34961158D01*
X12761658Y34871450D01*
X12766848Y34868806D01*
X12766850Y34868804D01*
X12869502Y34816500D01*
X12869505Y34816499D01*
X12874696Y34813854D01*
X12880448Y34812943D01*
X12880451Y34812942D01*
X12994248Y34794919D01*
X13000000Y34794008D01*
X13005752Y34794919D01*
X13119549Y34812942D01*
X13119552Y34812943D01*
X13125304Y34813854D01*
X13130495Y34816499D01*
X13130498Y34816500D01*
X13233150Y34868804D01*
X13233152Y34868806D01*
X13238342Y34871450D01*
X13328050Y34961158D01*
X13359567Y35023013D01*
X13396586Y35057533D01*
X13447136Y35060182D01*
X13487562Y35029719D01*
X13499500Y34989416D01*
X13499500Y32060537D01*
X13482187Y32012971D01*
X13438350Y31987661D01*
X13413926Y31987448D01*
X13300000Y32005492D01*
X13294248Y32004581D01*
X13180451Y31986558D01*
X13180448Y31986557D01*
X13174696Y31985646D01*
X13169505Y31983001D01*
X13169502Y31983000D01*
X13066850Y31930696D01*
X13066848Y31930694D01*
X13061658Y31928050D01*
X12971950Y31838342D01*
X12969306Y31833152D01*
X12969304Y31833150D01*
X12917000Y31730498D01*
X12914354Y31725304D01*
X12913443Y31719552D01*
X12913442Y31719549D01*
X12895419Y31605752D01*
X12894508Y31600000D01*
X12895419Y31594248D01*
X12913442Y31480451D01*
X12913443Y31480448D01*
X12914354Y31474696D01*
X12916999Y31469505D01*
X12917000Y31469502D01*
X12969304Y31366850D01*
X12969306Y31366848D01*
X12971950Y31361658D01*
X13061658Y31271950D01*
X13066848Y31269306D01*
X13066850Y31269304D01*
X13169502Y31217000D01*
X13169505Y31216999D01*
X13174696Y31214354D01*
X13180448Y31213443D01*
X13180451Y31213442D01*
X13294248Y31195419D01*
X13300000Y31194508D01*
X13413925Y31212552D01*
X13463613Y31202893D01*
X13495468Y31163555D01*
X13499500Y31139463D01*
X13499500Y25774346D01*
X13482187Y25726780D01*
X13438350Y25701470D01*
X13424533Y25700352D01*
X13401529Y25700653D01*
X13316680Y25701764D01*
X13316675Y25701764D01*
X13313286Y25701808D01*
X13309941Y25701233D01*
X13309938Y25701233D01*
X13213618Y25684682D01*
X13113949Y25667556D01*
X12924193Y25597551D01*
X12921280Y25595818D01*
X12786771Y25515794D01*
X12737040Y25506352D01*
X12709447Y25516806D01*
X12604618Y25582949D01*
X12604617Y25582950D01*
X12601757Y25584754D01*
X12598614Y25586008D01*
X12598612Y25586009D01*
X12417052Y25658444D01*
X12417049Y25658445D01*
X12413898Y25659702D01*
X12410571Y25660364D01*
X12410567Y25660365D01*
X12218849Y25698500D01*
X12215526Y25699161D01*
X12128249Y25700303D01*
X12016680Y25701764D01*
X12016675Y25701764D01*
X12013286Y25701808D01*
X12009941Y25701233D01*
X12009938Y25701233D01*
X11913618Y25684682D01*
X11813949Y25667556D01*
X11624193Y25597551D01*
X11450371Y25494138D01*
X11447827Y25491907D01*
X11447823Y25491904D01*
X11364710Y25419015D01*
X11298305Y25360780D01*
X11173089Y25201943D01*
X11078914Y25022947D01*
X11018937Y24829787D01*
X11018538Y24826413D01*
X10999528Y24665802D01*
X10976745Y24620601D01*
X10926041Y24600500D01*
X7800975Y24600500D01*
X7796135Y24600658D01*
X7729770Y24605008D01*
X7726383Y24605230D01*
X7723013Y24604831D01*
X7723010Y24604831D01*
X7633415Y24594226D01*
X7631488Y24594023D01*
X7541606Y24585764D01*
X7541605Y24585764D01*
X7538233Y24585454D01*
X7528598Y24582737D01*
X7517219Y24580473D01*
X7507276Y24579296D01*
X7504037Y24578290D01*
X7504031Y24578289D01*
X7417852Y24551530D01*
X7416027Y24550989D01*
X7325880Y24525565D01*
X7322843Y24524067D01*
X7322842Y24524067D01*
X7316898Y24521136D01*
X7306121Y24516836D01*
X7296564Y24513869D01*
X7293558Y24512288D01*
X7293552Y24512285D01*
X7213724Y24470285D01*
X7211999Y24469406D01*
X7140144Y24433970D01*
X7127997Y24427980D01*
X7125275Y24425947D01*
X7119980Y24421993D01*
X7110160Y24415797D01*
X7104304Y24412716D01*
X7101303Y24411137D01*
X7098647Y24409043D01*
X7098642Y24409040D01*
X7027755Y24353157D01*
X7026218Y24351978D01*
X6951211Y24295967D01*
X6948905Y24293472D01*
X6891853Y24231754D01*
X6889839Y24229659D01*
X4082355Y21422174D01*
X4036479Y21400782D01*
X4030029Y21400500D01*
X1218047Y21400500D01*
X1213207Y21400658D01*
X1211316Y21400782D01*
X1143440Y21405231D01*
X1140070Y21404832D01*
X1140067Y21404832D01*
X1050438Y21394223D01*
X1048511Y21394020D01*
X1024727Y21391834D01*
X955289Y21385454D01*
X952031Y21384535D01*
X952025Y21384534D01*
X945659Y21382738D01*
X934271Y21380473D01*
X924333Y21379297D01*
X921095Y21378291D01*
X921083Y21378289D01*
X834884Y21351523D01*
X833060Y21350982D01*
X742936Y21325565D01*
X739898Y21324067D01*
X739893Y21324065D01*
X733959Y21321139D01*
X723180Y21316839D01*
X716869Y21314879D01*
X716865Y21314877D01*
X713621Y21313870D01*
X710620Y21312291D01*
X710615Y21312289D01*
X630750Y21270270D01*
X629025Y21269391D01*
X548098Y21229482D01*
X548095Y21229480D01*
X545053Y21227980D01*
X537031Y21221990D01*
X527222Y21215800D01*
X518360Y21211138D01*
X444805Y21153152D01*
X443340Y21152027D01*
X368267Y21095967D01*
X312411Y21035542D01*
X308897Y21031741D01*
X306883Y21029646D01*
X-889757Y19833006D01*
X-930887Y19812185D01*
X-972302Y19805847D01*
X-975191Y19804903D01*
X-975194Y19804902D01*
X-1196134Y19732688D01*
X-1196138Y19732686D01*
X-1199018Y19731745D01*
X-1410586Y19621610D01*
X-1601325Y19478398D01*
X-1766113Y19305958D01*
X-1767824Y19303449D01*
X-1767827Y19303446D01*
X-1843870Y19191971D01*
X-1884977Y19162433D01*
X-1935453Y19166228D01*
X-1967133Y19193477D01*
X-1989065Y19227379D01*
X-2021845Y19278049D01*
X-2079205Y19341087D01*
X-2180328Y19452219D01*
X-2180329Y19452220D01*
X-2182371Y19454464D01*
X-2369555Y19602293D01*
X-2462046Y19653351D01*
X-2575707Y19716095D01*
X-2575712Y19716097D01*
X-2578369Y19717564D01*
X-2581235Y19718579D01*
X-2800336Y19796167D01*
X-2800340Y19796168D01*
X-2803206Y19797183D01*
X-2806201Y19797717D01*
X-2806203Y19797717D01*
X-2920617Y19818097D01*
X-3038028Y19839012D01*
X-3196973Y19840954D01*
X-3273492Y19841889D01*
X-3273493Y19841889D01*
X-3276529Y19841926D01*
X-3512302Y19805847D01*
X-3515182Y19804906D01*
X-3515185Y19804905D01*
X-3736134Y19732688D01*
X-3736138Y19732686D01*
X-3739018Y19731745D01*
X-3950586Y19621610D01*
X-4141325Y19478398D01*
X-4306113Y19305958D01*
X-4307824Y19303449D01*
X-4307827Y19303446D01*
X-4357517Y19230603D01*
X-4440525Y19108918D01*
X-4441804Y19106163D01*
X-4441805Y19106161D01*
X-4446382Y19096300D01*
X-4540949Y18892572D01*
X-4604691Y18662728D01*
X-4630037Y18425560D01*
X-4616306Y18187438D01*
X-4563869Y17954755D01*
X-4474133Y17733761D01*
X-4472547Y17731173D01*
X-4375166Y17572263D01*
X-4349507Y17530391D01*
X-4347518Y17528095D01*
X-4347516Y17528092D01*
X-4256440Y17422951D01*
X-4238382Y17375662D01*
X-4254946Y17327830D01*
X-4298380Y17301835D01*
X-4312373Y17300500D01*
X-4999450Y17300500D01*
X-5001096Y17300353D01*
X-5001098Y17300353D01*
X-5110263Y17290611D01*
X-5110268Y17290610D01*
X-5113776Y17290297D01*
X-5199042Y17265847D01*
X-5295884Y17238078D01*
X-5295888Y17238077D01*
X-5299492Y17237043D01*
X-5470707Y17147534D01*
X-5620426Y17025426D01*
X-5742534Y16875707D01*
X-5744272Y16872383D01*
X-5744273Y16872381D01*
X-5772019Y16819308D01*
X-5832043Y16704492D01*
X-5833077Y16700888D01*
X-5833078Y16700884D01*
X-5857169Y16616867D01*
X-5885297Y16518776D01*
X-5885610Y16515268D01*
X-5885611Y16515263D01*
X-5886864Y16501218D01*
X-5895500Y16404450D01*
X-5895500Y15295550D01*
X-5885297Y15181224D01*
X-5832043Y14995508D01*
X-5742534Y14824293D01*
X-5620426Y14674574D01*
X-5470707Y14552466D01*
X-5299492Y14462957D01*
X-5295888Y14461923D01*
X-5295884Y14461922D01*
X-5203070Y14435308D01*
X-5113776Y14409703D01*
X-5110268Y14409390D01*
X-5110263Y14409389D01*
X-5001098Y14399647D01*
X-5001096Y14399647D01*
X-4999450Y14399500D01*
X-3890550Y14399500D01*
X-3888904Y14399647D01*
X-3888902Y14399647D01*
X-3779737Y14409389D01*
X-3779732Y14409390D01*
X-3776224Y14409703D01*
X-3686930Y14435308D01*
X-3594116Y14461922D01*
X-3594112Y14461923D01*
X-3590508Y14462957D01*
X-3419293Y14552466D01*
X-3269574Y14674574D01*
X-3147466Y14824293D01*
X-3118089Y14880486D01*
X-3080709Y14914618D01*
X-3030135Y14916738D01*
X-2996577Y14894653D01*
X-2923340Y14810106D01*
X-2739824Y14657748D01*
X-2737206Y14656218D01*
X-2737200Y14656214D01*
X-2536514Y14538943D01*
X-2536509Y14538941D01*
X-2533888Y14537409D01*
X-2531049Y14536325D01*
X-2313908Y14453406D01*
X-2313904Y14453405D01*
X-2311063Y14452320D01*
X-2308079Y14451713D01*
X-2308076Y14451712D01*
X-2227447Y14435308D01*
X-2077334Y14404767D01*
X-1986385Y14401432D01*
X-1842015Y14396138D01*
X-1842009Y14396138D01*
X-1838975Y14396027D01*
X-1835963Y14396413D01*
X-1835959Y14396413D01*
X-1605404Y14425949D01*
X-1602391Y14426335D01*
X-1373932Y14494875D01*
X-1371208Y14496209D01*
X-1371204Y14496211D01*
X-1162463Y14598473D01*
X-1159736Y14599809D01*
X-965555Y14738317D01*
X-963403Y14740461D01*
X-798758Y14904532D01*
X-798755Y14904535D01*
X-796603Y14906680D01*
X-695149Y15047869D01*
X-653334Y15076393D01*
X-602965Y15071366D01*
X-571961Y15043351D01*
X-539507Y14990391D01*
X-537518Y14988095D01*
X-537516Y14988092D01*
X-466995Y14906680D01*
X-383340Y14810106D01*
X-199824Y14657748D01*
X-197206Y14656218D01*
X-197200Y14656214D01*
X3486Y14538943D01*
X3491Y14538941D01*
X6112Y14537409D01*
X8951Y14536325D01*
X226092Y14453406D01*
X226096Y14453405D01*
X228937Y14452320D01*
X231921Y14451713D01*
X231924Y14451712D01*
X312553Y14435308D01*
X462666Y14404767D01*
X553615Y14401432D01*
X697985Y14396138D01*
X697991Y14396138D01*
X701025Y14396027D01*
X704037Y14396413D01*
X704041Y14396413D01*
X934596Y14425949D01*
X937609Y14426335D01*
X1166068Y14494875D01*
X1168792Y14496209D01*
X1168796Y14496211D01*
X1377537Y14598473D01*
X1380264Y14599809D01*
X1574445Y14738317D01*
X1576597Y14740461D01*
X1741242Y14904532D01*
X1741245Y14904535D01*
X1743397Y14906680D01*
X1844851Y15047869D01*
X1886666Y15076393D01*
X1937035Y15071366D01*
X1968039Y15043351D01*
X2000493Y14990391D01*
X2002482Y14988095D01*
X2002484Y14988092D01*
X2073005Y14906680D01*
X2156660Y14810106D01*
X2340176Y14657748D01*
X2342794Y14656218D01*
X2342800Y14656214D01*
X2543486Y14538943D01*
X2543491Y14538941D01*
X2546112Y14537409D01*
X2548951Y14536325D01*
X2766092Y14453406D01*
X2766096Y14453405D01*
X2768937Y14452320D01*
X2771921Y14451713D01*
X2771924Y14451712D01*
X2852553Y14435308D01*
X3002666Y14404767D01*
X3093615Y14401432D01*
X3237985Y14396138D01*
X3237991Y14396138D01*
X3241025Y14396027D01*
X3244037Y14396413D01*
X3244041Y14396413D01*
X3474596Y14425949D01*
X3477609Y14426335D01*
X3706068Y14494875D01*
X3708792Y14496209D01*
X3708796Y14496211D01*
X3917537Y14598473D01*
X3920264Y14599809D01*
X4114445Y14738317D01*
X4116597Y14740461D01*
X4281242Y14904532D01*
X4281245Y14904535D01*
X4283397Y14906680D01*
X4285167Y14909143D01*
X4285172Y14909149D01*
X4420810Y15097911D01*
X4422582Y15100377D01*
X4528263Y15314205D01*
X4597600Y15542423D01*
X4599235Y15554843D01*
X4620276Y15597512D01*
X5218459Y16195695D01*
X5221993Y16199005D01*
X5271994Y16242855D01*
X5274543Y16245090D01*
X5332535Y16318653D01*
X5333727Y16320125D01*
X5393602Y16392117D01*
X5398493Y16400850D01*
X5404938Y16410497D01*
X5411137Y16418360D01*
X5454731Y16501218D01*
X5455656Y16502921D01*
X5499753Y16581660D01*
X5499758Y16581671D01*
X5501410Y16584621D01*
X5504628Y16594099D01*
X5509210Y16604765D01*
X5512288Y16610615D01*
X5513869Y16613620D01*
X5541636Y16703042D01*
X5542204Y16704792D01*
X5572332Y16793548D01*
X5573770Y16803465D01*
X5576331Y16814783D01*
X5579297Y16824333D01*
X5590300Y16917300D01*
X5590553Y16919221D01*
X5603503Y17008537D01*
X5603991Y17011902D01*
X5600557Y17099304D01*
X5600500Y17102209D01*
X5600500Y17488401D01*
X5614406Y17531583D01*
X5690810Y17637911D01*
X5692582Y17640377D01*
X5798263Y17854205D01*
X5867600Y18082423D01*
X5869235Y18094843D01*
X5890276Y18137512D01*
X7972698Y20219934D01*
X8018574Y20241326D01*
X8067469Y20228225D01*
X8096503Y20186761D01*
X8098866Y20172448D01*
X8108392Y20027106D01*
X8109226Y20023823D01*
X8156162Y19839012D01*
X8158178Y19831072D01*
X8159599Y19827989D01*
X8159600Y19827987D01*
X8193858Y19753677D01*
X8242856Y19647393D01*
X8244810Y19644628D01*
X8244813Y19644623D01*
X8357635Y19484983D01*
X8359588Y19482220D01*
X8504466Y19341087D01*
X8507278Y19339208D01*
X8507283Y19339204D01*
X8658251Y19238331D01*
X8672637Y19228718D01*
X8675751Y19227380D01*
X8675753Y19227379D01*
X8764508Y19189247D01*
X8858470Y19148878D01*
X8957755Y19126412D01*
X9052425Y19104990D01*
X9052426Y19104990D01*
X9055740Y19104240D01*
X9151462Y19100479D01*
X9254447Y19096433D01*
X9254451Y19096433D01*
X9257842Y19096300D01*
X9391504Y19115680D01*
X9454649Y19124835D01*
X9454650Y19124835D01*
X9458007Y19125322D01*
X9649531Y19190336D01*
X9652483Y19191989D01*
X9652487Y19191991D01*
X9823041Y19287505D01*
X9823044Y19287507D01*
X9826001Y19289163D01*
X9828606Y19291330D01*
X9828611Y19291333D01*
X9978897Y19416326D01*
X9981505Y19418495D01*
X10036803Y19484983D01*
X10108667Y19571389D01*
X10108670Y19571394D01*
X10110837Y19573999D01*
X10125628Y19600410D01*
X10208009Y19747513D01*
X10208011Y19747517D01*
X10209664Y19750469D01*
X10274678Y19941993D01*
X10303700Y20142158D01*
X10305215Y20200000D01*
X10302622Y20228225D01*
X10287018Y20398032D01*
X10286708Y20401409D01*
X10285789Y20404667D01*
X10285788Y20404673D01*
X10232728Y20592809D01*
X10232727Y20592811D01*
X10231807Y20596074D01*
X10142351Y20777473D01*
X10124079Y20801943D01*
X10064876Y20881224D01*
X10050288Y20929695D01*
X10070269Y20976203D01*
X10115471Y20998987D01*
X10124169Y20999500D01*
X11076263Y20999500D01*
X11123829Y20982187D01*
X11149139Y20938350D01*
X11140349Y20888500D01*
X11134377Y20879688D01*
X11073089Y20801943D01*
X10978914Y20622947D01*
X10918937Y20429787D01*
X10895164Y20228931D01*
X10908392Y20027106D01*
X10909226Y20023823D01*
X10956162Y19839012D01*
X10958178Y19831072D01*
X10959599Y19827989D01*
X10959600Y19827987D01*
X10993858Y19753677D01*
X11042856Y19647393D01*
X11044810Y19644628D01*
X11044813Y19644623D01*
X11157635Y19484983D01*
X11159588Y19482220D01*
X11304466Y19341087D01*
X11307278Y19339208D01*
X11307283Y19339204D01*
X11458251Y19238331D01*
X11472637Y19228718D01*
X11475751Y19227380D01*
X11475753Y19227379D01*
X11564508Y19189247D01*
X11658470Y19148878D01*
X11757755Y19126412D01*
X11852425Y19104990D01*
X11852426Y19104990D01*
X11855740Y19104240D01*
X11951462Y19100479D01*
X12054447Y19096433D01*
X12054451Y19096433D01*
X12057842Y19096300D01*
X12191504Y19115680D01*
X12254649Y19124835D01*
X12254650Y19124835D01*
X12258007Y19125322D01*
X12449531Y19190336D01*
X12452483Y19191989D01*
X12452487Y19191991D01*
X12623041Y19287505D01*
X12623044Y19287507D01*
X12626001Y19289163D01*
X12628606Y19291330D01*
X12628611Y19291333D01*
X12778897Y19416326D01*
X12781505Y19418495D01*
X12836803Y19484983D01*
X12908667Y19571389D01*
X12908670Y19571394D01*
X12910837Y19573999D01*
X12925628Y19600410D01*
X13008009Y19747513D01*
X13008011Y19747517D01*
X13009664Y19750469D01*
X13074678Y19941993D01*
X13103700Y20142158D01*
X13105215Y20200000D01*
X13102622Y20228225D01*
X13087018Y20398032D01*
X13086708Y20401409D01*
X13085789Y20404667D01*
X13085788Y20404673D01*
X13032728Y20592809D01*
X13032727Y20592811D01*
X13031807Y20596074D01*
X12942351Y20777473D01*
X12924079Y20801943D01*
X12864876Y20881224D01*
X12850288Y20929695D01*
X12870269Y20976203D01*
X12915471Y20998987D01*
X12924169Y20999500D01*
X13676263Y20999500D01*
X13723829Y20982187D01*
X13749139Y20938350D01*
X13740349Y20888500D01*
X13734377Y20879688D01*
X13673089Y20801943D01*
X13578914Y20622947D01*
X13518937Y20429787D01*
X13495164Y20228931D01*
X13508392Y20027106D01*
X13509226Y20023823D01*
X13556162Y19839012D01*
X13558178Y19831072D01*
X13559599Y19827989D01*
X13559600Y19827987D01*
X13593858Y19753677D01*
X13642856Y19647393D01*
X13644810Y19644628D01*
X13644813Y19644623D01*
X13757635Y19484983D01*
X13759588Y19482220D01*
X13904466Y19341087D01*
X13907278Y19339208D01*
X13907283Y19339204D01*
X14058251Y19238331D01*
X14072637Y19228718D01*
X14075751Y19227380D01*
X14075753Y19227379D01*
X14164508Y19189247D01*
X14258470Y19148878D01*
X14357755Y19126412D01*
X14452425Y19104990D01*
X14452426Y19104990D01*
X14455740Y19104240D01*
X14551462Y19100479D01*
X14654447Y19096433D01*
X14654451Y19096433D01*
X14657842Y19096300D01*
X14791504Y19115680D01*
X14854649Y19124835D01*
X14854650Y19124835D01*
X14858007Y19125322D01*
X15049531Y19190336D01*
X15052483Y19191989D01*
X15052487Y19191991D01*
X15223041Y19287505D01*
X15223044Y19287507D01*
X15226001Y19289163D01*
X15228606Y19291330D01*
X15228611Y19291333D01*
X15378897Y19416326D01*
X15381505Y19418495D01*
X15436803Y19484983D01*
X15508667Y19571389D01*
X15508670Y19571394D01*
X15510837Y19573999D01*
X15525628Y19600410D01*
X15608009Y19747513D01*
X15608011Y19747517D01*
X15609664Y19750469D01*
X15674678Y19941993D01*
X15703700Y20142158D01*
X15705215Y20200000D01*
X15702622Y20228225D01*
X15687018Y20398032D01*
X15686708Y20401409D01*
X15685789Y20404667D01*
X15685788Y20404673D01*
X15632728Y20592809D01*
X15632727Y20592811D01*
X15631807Y20596074D01*
X15542351Y20777473D01*
X15524079Y20801943D01*
X15423367Y20936812D01*
X15423366Y20936813D01*
X15421335Y20939533D01*
X15418844Y20941836D01*
X15418841Y20941839D01*
X15321585Y21031741D01*
X15272812Y21076826D01*
X15269937Y21078640D01*
X15267831Y21080256D01*
X15240632Y21122947D01*
X15247237Y21173133D01*
X15267064Y21197080D01*
X15330189Y21246843D01*
X15331726Y21248022D01*
X15404012Y21302001D01*
X15404013Y21302002D01*
X15406733Y21304033D01*
X15466090Y21368245D01*
X15468104Y21370340D01*
X16566067Y22468303D01*
X16611943Y22489695D01*
X16660838Y22476594D01*
X16689872Y22435130D01*
X16692393Y22415977D01*
X16692393Y1039873D01*
X16691269Y1027024D01*
X16687757Y1007105D01*
X16688882Y1000727D01*
X16688968Y1000238D01*
X16689737Y980133D01*
X16679667Y877893D01*
X16676837Y863666D01*
X16641263Y746390D01*
X16635711Y732987D01*
X16577945Y624914D01*
X16569886Y612852D01*
X16562612Y603988D01*
X16492140Y518118D01*
X16481882Y507860D01*
X16387148Y430114D01*
X16375087Y422056D01*
X16267010Y364288D01*
X16253610Y358737D01*
X16136334Y323163D01*
X16122107Y320333D01*
X16019867Y310263D01*
X15999762Y311032D01*
X15999645Y311053D01*
X15992895Y312243D01*
X15986520Y311119D01*
X15986519Y311119D01*
X15972976Y308731D01*
X15960127Y307607D01*
X-15960127Y307607D01*
X-15972976Y308731D01*
X-15986519Y311119D01*
X-15986520Y311119D01*
X-15992895Y312243D01*
X-15999645Y311053D01*
X-15999762Y311032D01*
X-16019867Y310263D01*
X-16122107Y320333D01*
X-16136334Y323163D01*
X-16253610Y358737D01*
X-16267010Y364288D01*
X-16375087Y422056D01*
X-16387148Y430114D01*
X-16481882Y507860D01*
X-16492140Y518118D01*
X-16562611Y603988D01*
X-16569886Y612852D01*
X-16577945Y624914D01*
X-16635711Y732987D01*
X-16641263Y746390D01*
X-16676837Y863666D01*
X-16679667Y877893D01*
X-16689737Y980133D01*
X-16688968Y1000238D01*
X-16688882Y1000727D01*
X-16687757Y1007105D01*
X-16691269Y1027024D01*
X-16692393Y1039873D01*
X-16692393Y3525693D01*
X-14609953Y3525693D01*
X-14608867Y3521643D01*
X-14340431Y3315664D01*
X-14337126Y3313401D01*
X-14039761Y3132600D01*
X-14036228Y3130706D01*
X-13721068Y2983074D01*
X-13717367Y2981579D01*
X-13388104Y2868848D01*
X-13384264Y2867760D01*
X-13044741Y2791246D01*
X-13040803Y2790580D01*
X-12695030Y2751184D01*
X-12691018Y2750945D01*
X-12343013Y2749124D01*
X-12339007Y2749319D01*
X-11992832Y2785093D01*
X-11988884Y2785719D01*
X-11648590Y2858671D01*
X-11644731Y2859719D01*
X-11314313Y2968995D01*
X-11310584Y2970457D01*
X-10993910Y3114774D01*
X-10990346Y3116637D01*
X-10691110Y3294309D01*
X-10687782Y3296537D01*
X-10409473Y3505497D01*
X-10406408Y3508069D01*
X-10395721Y3518069D01*
X-10391853Y3525693D01*
X10390047Y3525693D01*
X10391133Y3521643D01*
X10659569Y3315664D01*
X10662874Y3313401D01*
X10960239Y3132600D01*
X10963772Y3130706D01*
X11278932Y2983074D01*
X11282633Y2981579D01*
X11611896Y2868848D01*
X11615736Y2867760D01*
X11955259Y2791246D01*
X11959197Y2790580D01*
X12304970Y2751184D01*
X12308982Y2750945D01*
X12656987Y2749124D01*
X12660993Y2749319D01*
X13007168Y2785093D01*
X13011116Y2785719D01*
X13351410Y2858671D01*
X13355269Y2859719D01*
X13685687Y2968995D01*
X13689416Y2970457D01*
X14006090Y3114774D01*
X14009654Y3116637D01*
X14308890Y3294309D01*
X14312218Y3296537D01*
X14590527Y3505497D01*
X14593592Y3508069D01*
X14604279Y3518069D01*
X14609091Y3527554D01*
X14607834Y3532956D01*
X12509226Y5631564D01*
X12499587Y5636059D01*
X12493688Y5634478D01*
X10394542Y3535332D01*
X10390047Y3525693D01*
X-10391853Y3525693D01*
X-10390909Y3527554D01*
X-10392166Y3532956D01*
X-12490774Y5631564D01*
X-12500413Y5636059D01*
X-12506312Y5634478D01*
X-14605458Y3535332D01*
X-14609953Y3525693D01*
X-16692393Y3525693D01*
X-16692393Y6009348D01*
X-15754651Y6009348D01*
X-15737044Y5661780D01*
X-15736628Y5657816D01*
X-15681584Y5314163D01*
X-15680737Y5310249D01*
X-15588902Y4974558D01*
X-15587645Y4970780D01*
X-15460088Y4646957D01*
X-15458428Y4643332D01*
X-15296649Y4335189D01*
X-15294604Y4331758D01*
X-15100497Y4042895D01*
X-15098083Y4039692D01*
X-14979145Y3898449D01*
X-14969925Y3893147D01*
X-14965226Y3893984D01*
X-12868436Y5990774D01*
X-12864326Y5999587D01*
X-12136059Y5999587D01*
X-12134478Y5993688D01*
X-10038534Y3897744D01*
X-10028895Y3893249D01*
X-10024143Y3894523D01*
X-9922577Y4012604D01*
X-9920147Y4015761D01*
X-9723020Y4302583D01*
X-9720938Y4305992D01*
X-9555940Y4612426D01*
X-9554241Y4616038D01*
X-9423307Y4938492D01*
X-9422004Y4942275D01*
X-9326660Y5276980D01*
X-9325771Y5280891D01*
X-9298574Y5440000D01*
X-7535460Y5440000D01*
X-7535055Y5436147D01*
X-7518326Y5276980D01*
X-7515674Y5251744D01*
X-7457179Y5071716D01*
X-7362533Y4907784D01*
X-7235871Y4767112D01*
X-7082730Y4655849D01*
X-7079188Y4654272D01*
X-6913348Y4580434D01*
X-6913345Y4580433D01*
X-6909803Y4578856D01*
X-6906011Y4578050D01*
X-6906008Y4578049D01*
X-6730795Y4540807D01*
X-6724646Y4539500D01*
X-6535354Y4539500D01*
X-6529205Y4540807D01*
X-6353992Y4578049D01*
X-6353989Y4578050D01*
X-6350197Y4578856D01*
X-6346655Y4580433D01*
X-6346652Y4580434D01*
X-6196577Y4647253D01*
X-4518392Y4647253D01*
X-4513925Y4643570D01*
X-4373182Y4580909D01*
X-4365861Y4578530D01*
X-4188389Y4540807D01*
X-4180714Y4540000D01*
X-3999286Y4540000D01*
X-3991611Y4540807D01*
X-3814139Y4578530D01*
X-3806818Y4580909D01*
X-3668796Y4642359D01*
X-3661145Y4649747D01*
X-3663996Y4654786D01*
X-4080774Y5071564D01*
X-4090413Y5076059D01*
X-4096312Y5074478D01*
X-4513898Y4656892D01*
X-4518392Y4647253D01*
X-6196577Y4647253D01*
X-6180812Y4654272D01*
X-6177270Y4655849D01*
X-6024129Y4767112D01*
X-5897467Y4907784D01*
X-5802821Y5071716D01*
X-5744326Y5251744D01*
X-5741673Y5276980D01*
X-5724945Y5436147D01*
X-4994552Y5436147D01*
X-4975587Y5255707D01*
X-4973983Y5248158D01*
X-4917917Y5075607D01*
X-4914781Y5068565D01*
X-4886850Y5020186D01*
X-4878700Y5013348D01*
X-4876584Y5013348D01*
X-4874595Y5014615D01*
X-4458436Y5430774D01*
X-4454326Y5439587D01*
X-3726059Y5439587D01*
X-3724478Y5433688D01*
X-3308901Y5018111D01*
X-3299262Y5013616D01*
X-3297217Y5014164D01*
X-3295622Y5015906D01*
X-3265219Y5068565D01*
X-3262083Y5075607D01*
X-3206017Y5248158D01*
X-3204413Y5255707D01*
X-3185448Y5436147D01*
X-3185448Y5440000D01*
X3184540Y5440000D01*
X3184945Y5436147D01*
X3201674Y5276980D01*
X3204326Y5251744D01*
X3262821Y5071716D01*
X3357467Y4907784D01*
X3484129Y4767112D01*
X3637270Y4655849D01*
X3640812Y4654272D01*
X3806652Y4580434D01*
X3806655Y4580433D01*
X3810197Y4578856D01*
X3813989Y4578050D01*
X3813992Y4578049D01*
X3989205Y4540807D01*
X3995354Y4539500D01*
X4184646Y4539500D01*
X4190795Y4540807D01*
X4366008Y4578049D01*
X4366011Y4578050D01*
X4369803Y4578856D01*
X4373345Y4580433D01*
X4373348Y4580434D01*
X4539188Y4654272D01*
X4542730Y4655849D01*
X4695871Y4767112D01*
X4822533Y4907784D01*
X4917179Y5071716D01*
X4975674Y5251744D01*
X4978327Y5276980D01*
X4995055Y5436147D01*
X4995460Y5440000D01*
X5724540Y5440000D01*
X5724945Y5436147D01*
X5741674Y5276980D01*
X5744326Y5251744D01*
X5802821Y5071716D01*
X5897467Y4907784D01*
X6024129Y4767112D01*
X6177270Y4655849D01*
X6180812Y4654272D01*
X6346652Y4580434D01*
X6346655Y4580433D01*
X6350197Y4578856D01*
X6353989Y4578050D01*
X6353992Y4578049D01*
X6529205Y4540807D01*
X6535354Y4539500D01*
X6724646Y4539500D01*
X6730795Y4540807D01*
X6906008Y4578049D01*
X6906011Y4578050D01*
X6909803Y4578856D01*
X6913345Y4580433D01*
X6913348Y4580434D01*
X7079188Y4654272D01*
X7082730Y4655849D01*
X7235871Y4767112D01*
X7362533Y4907784D01*
X7457179Y5071716D01*
X7515674Y5251744D01*
X7518327Y5276980D01*
X7535055Y5436147D01*
X7535460Y5440000D01*
X7515674Y5628256D01*
X7457179Y5808284D01*
X7362533Y5972216D01*
X7358922Y5976227D01*
X7329099Y6009348D01*
X9245349Y6009348D01*
X9262956Y5661780D01*
X9263372Y5657816D01*
X9318416Y5314163D01*
X9319263Y5310249D01*
X9411098Y4974558D01*
X9412355Y4970780D01*
X9539912Y4646957D01*
X9541572Y4643332D01*
X9703351Y4335189D01*
X9705396Y4331758D01*
X9899503Y4042895D01*
X9901917Y4039692D01*
X10020855Y3898449D01*
X10030075Y3893147D01*
X10034774Y3893984D01*
X12131564Y5990774D01*
X12135674Y5999587D01*
X12863941Y5999587D01*
X12865522Y5993688D01*
X14961466Y3897744D01*
X14971105Y3893249D01*
X14975857Y3894523D01*
X15077423Y4012604D01*
X15079853Y4015761D01*
X15276980Y4302583D01*
X15279062Y4305992D01*
X15444060Y4612426D01*
X15445759Y4616038D01*
X15576693Y4938492D01*
X15577996Y4942275D01*
X15673340Y5276980D01*
X15674229Y5280891D01*
X15732867Y5623939D01*
X15733325Y5627897D01*
X15754630Y5976227D01*
X15754698Y5978324D01*
X15754769Y5998957D01*
X15754716Y6001045D01*
X15735845Y6349510D01*
X15735411Y6353498D01*
X15679170Y6696940D01*
X15678314Y6700837D01*
X15585305Y7036214D01*
X15584031Y7040000D01*
X15455351Y7363358D01*
X15453673Y7366990D01*
X15290820Y7674566D01*
X15288760Y7677994D01*
X15093648Y7966173D01*
X15091231Y7969357D01*
X14979137Y8101535D01*
X14969896Y8106806D01*
X14965154Y8105944D01*
X12868436Y6009226D01*
X12863941Y5999587D01*
X12135674Y5999587D01*
X12136059Y6000413D01*
X12134478Y6006312D01*
X10038546Y8102244D01*
X10028907Y8106739D01*
X10024202Y8105478D01*
X9915660Y7978391D01*
X9913233Y7975217D01*
X9717110Y7687710D01*
X9715043Y7684297D01*
X9551117Y7377293D01*
X9549429Y7373673D01*
X9419617Y7050754D01*
X9418332Y7046979D01*
X9324153Y6711933D01*
X9323282Y6708032D01*
X9265842Y6364787D01*
X9265395Y6360801D01*
X9245363Y6013374D01*
X9245349Y6009348D01*
X7329099Y6009348D01*
X7238464Y6110008D01*
X7235871Y6112888D01*
X7082730Y6224151D01*
X7052434Y6237640D01*
X6913348Y6299566D01*
X6913345Y6299567D01*
X6909803Y6301144D01*
X6906011Y6301950D01*
X6906008Y6301951D01*
X6728443Y6339693D01*
X6728442Y6339693D01*
X6724646Y6340500D01*
X6535354Y6340500D01*
X6531558Y6339693D01*
X6531557Y6339693D01*
X6353992Y6301951D01*
X6353989Y6301950D01*
X6350197Y6301144D01*
X6346655Y6299567D01*
X6346652Y6299566D01*
X6207566Y6237640D01*
X6177270Y6224151D01*
X6024129Y6112888D01*
X6021536Y6110008D01*
X5901079Y5976227D01*
X5897467Y5972216D01*
X5802821Y5808284D01*
X5744326Y5628256D01*
X5724540Y5440000D01*
X4995460Y5440000D01*
X4975674Y5628256D01*
X4917179Y5808284D01*
X4822533Y5972216D01*
X4818922Y5976227D01*
X4698464Y6110008D01*
X4695871Y6112888D01*
X4542730Y6224151D01*
X4512434Y6237640D01*
X4373348Y6299566D01*
X4373345Y6299567D01*
X4369803Y6301144D01*
X4366011Y6301950D01*
X4366008Y6301951D01*
X4188443Y6339693D01*
X4188442Y6339693D01*
X4184646Y6340500D01*
X3995354Y6340500D01*
X3991558Y6339693D01*
X3991557Y6339693D01*
X3813992Y6301951D01*
X3813989Y6301950D01*
X3810197Y6301144D01*
X3806655Y6299567D01*
X3806652Y6299566D01*
X3667566Y6237640D01*
X3637270Y6224151D01*
X3484129Y6112888D01*
X3481536Y6110008D01*
X3361079Y5976227D01*
X3357467Y5972216D01*
X3262821Y5808284D01*
X3204326Y5628256D01*
X3184540Y5440000D01*
X-3185448Y5440000D01*
X-3185448Y5443853D01*
X-3204413Y5624293D01*
X-3206017Y5631842D01*
X-3262083Y5804393D01*
X-3265219Y5811435D01*
X-3293150Y5859814D01*
X-3301300Y5866652D01*
X-3303416Y5866652D01*
X-3305405Y5865385D01*
X-3721564Y5449226D01*
X-3726059Y5439587D01*
X-4454326Y5439587D01*
X-4453941Y5440413D01*
X-4455522Y5446312D01*
X-4871099Y5861889D01*
X-4880738Y5866384D01*
X-4882783Y5865836D01*
X-4884378Y5864094D01*
X-4914781Y5811435D01*
X-4917917Y5804393D01*
X-4973983Y5631842D01*
X-4975587Y5624293D01*
X-4994552Y5443853D01*
X-4994552Y5436147D01*
X-5724945Y5436147D01*
X-5724540Y5440000D01*
X-5744326Y5628256D01*
X-5802821Y5808284D01*
X-5897467Y5972216D01*
X-5901078Y5976227D01*
X-6021536Y6110008D01*
X-6024129Y6112888D01*
X-6177270Y6224151D01*
X-6190973Y6230252D01*
X-4518854Y6230252D01*
X-4516003Y6225213D01*
X-4099226Y5808436D01*
X-4089587Y5803941D01*
X-4083688Y5805522D01*
X-3666102Y6223108D01*
X-3661607Y6232747D01*
X-3666075Y6236430D01*
X-3806818Y6299091D01*
X-3814139Y6301470D01*
X-3991611Y6339193D01*
X-3999286Y6340000D01*
X-4180714Y6340000D01*
X-4188389Y6339193D01*
X-4365851Y6301472D01*
X-4373194Y6299086D01*
X-4511203Y6237640D01*
X-4518854Y6230252D01*
X-6190973Y6230252D01*
X-6207566Y6237640D01*
X-6346652Y6299566D01*
X-6346655Y6299567D01*
X-6350197Y6301144D01*
X-6353989Y6301950D01*
X-6353992Y6301951D01*
X-6531557Y6339693D01*
X-6531558Y6339693D01*
X-6535354Y6340500D01*
X-6724646Y6340500D01*
X-6728442Y6339693D01*
X-6728443Y6339693D01*
X-6906008Y6301951D01*
X-6906011Y6301950D01*
X-6909803Y6301144D01*
X-6913345Y6299567D01*
X-6913348Y6299566D01*
X-7052434Y6237640D01*
X-7082730Y6224151D01*
X-7235871Y6112888D01*
X-7238464Y6110008D01*
X-7358921Y5976227D01*
X-7362533Y5972216D01*
X-7457179Y5808284D01*
X-7515674Y5628256D01*
X-7535460Y5440000D01*
X-9298574Y5440000D01*
X-9267133Y5623939D01*
X-9266675Y5627897D01*
X-9245370Y5976227D01*
X-9245302Y5978324D01*
X-9245231Y5998957D01*
X-9245284Y6001045D01*
X-9264155Y6349510D01*
X-9264589Y6353498D01*
X-9320830Y6696940D01*
X-9321686Y6700837D01*
X-9414695Y7036214D01*
X-9415969Y7040000D01*
X-9544649Y7363358D01*
X-9546327Y7366990D01*
X-9709180Y7674566D01*
X-9711240Y7677994D01*
X-9906352Y7966173D01*
X-9908769Y7969357D01*
X-10020863Y8101535D01*
X-10030104Y8106806D01*
X-10034846Y8105944D01*
X-12131564Y6009226D01*
X-12136059Y5999587D01*
X-12864326Y5999587D01*
X-12863941Y6000413D01*
X-12865522Y6006312D01*
X-14961454Y8102244D01*
X-14971093Y8106739D01*
X-14975798Y8105478D01*
X-15084340Y7978391D01*
X-15086767Y7975217D01*
X-15282890Y7687710D01*
X-15284957Y7684297D01*
X-15448883Y7377293D01*
X-15450571Y7373673D01*
X-15580383Y7050754D01*
X-15581668Y7046979D01*
X-15675847Y6711933D01*
X-15676718Y6708032D01*
X-15734158Y6364787D01*
X-15734605Y6360801D01*
X-15754637Y6013374D01*
X-15754651Y6009348D01*
X-16692393Y6009348D01*
X-16692393Y8472837D01*
X-14609464Y8472837D01*
X-14608176Y8467386D01*
X-12509226Y6368436D01*
X-12499587Y6363941D01*
X-12493688Y6365522D01*
X-10394642Y8464568D01*
X-10390147Y8474207D01*
X-10391526Y8479350D01*
X-10392108Y8479846D01*
X-10668944Y8690740D01*
X-10672270Y8693000D01*
X-10970270Y8872764D01*
X-10973785Y8874633D01*
X-11289457Y9021164D01*
X-11293185Y9022655D01*
X-11622832Y9134235D01*
X-11626683Y9135310D01*
X-11966447Y9210633D01*
X-11970412Y9211289D01*
X-12316331Y9249479D01*
X-12320306Y9249701D01*
X-12668333Y9250308D01*
X-12672341Y9250098D01*
X-13018391Y9213116D01*
X-13022333Y9212477D01*
X-13362355Y9138342D01*
X-13366232Y9137274D01*
X-13696266Y9026845D01*
X-13699977Y9025376D01*
X-14016172Y8879943D01*
X-14019695Y8878086D01*
X-14318331Y8699355D01*
X-14321644Y8697121D01*
X-14599213Y8487197D01*
X-14602283Y8484602D01*
X-14604685Y8482340D01*
X-14609464Y8472837D01*
X-16692393Y8472837D01*
X-16692393Y12611423D01*
X-9829517Y12611423D01*
X-9829414Y12608804D01*
X-9822205Y12425325D01*
X-9818673Y12335417D01*
X-9769047Y12063691D01*
X-9681630Y11801669D01*
X-9680464Y11799335D01*
X-9680460Y11799326D01*
X-9599529Y11637359D01*
X-9558166Y11554579D01*
X-9556682Y11552432D01*
X-9556678Y11552425D01*
X-9471313Y11428913D01*
X-9401118Y11327349D01*
X-9213620Y11124515D01*
X-8999412Y10950123D01*
X-8997171Y10948774D01*
X-8997167Y10948771D01*
X-8882553Y10879768D01*
X-8762770Y10807653D01*
X-8760366Y10806635D01*
X-8510825Y10700967D01*
X-8510819Y10700965D01*
X-8508415Y10699947D01*
X-8505882Y10699275D01*
X-8505878Y10699274D01*
X-8286222Y10641034D01*
X-8241421Y10629155D01*
X-7967116Y10596689D01*
X-7841196Y10599656D01*
X-7693592Y10603134D01*
X-7693588Y10603134D01*
X-7690973Y10603196D01*
X-7688398Y10603625D01*
X-7688394Y10603625D01*
X-7421084Y10648118D01*
X-7421081Y10648119D01*
X-7418502Y10648548D01*
X-7354570Y10668767D01*
X-7347727Y10670931D01*
X-7297154Y10668767D01*
X-7259804Y10634602D01*
X-7253153Y10584421D01*
X-7265584Y10556827D01*
X-7311506Y10493737D01*
X-7438236Y10252863D01*
X-7528867Y9996218D01*
X-7581500Y9729177D01*
X-7595033Y9457336D01*
X-7569182Y9186389D01*
X-7568544Y9183783D01*
X-7568544Y9183781D01*
X-7524498Y9003782D01*
X-7504489Y8922011D01*
X-7503480Y8919520D01*
X-7410815Y8690740D01*
X-7402310Y8669741D01*
X-7264783Y8434863D01*
X-7094791Y8222299D01*
X-6895895Y8036501D01*
X-6672261Y7881360D01*
X-6669867Y7880169D01*
X-6669862Y7880166D01*
X-6430967Y7761317D01*
X-6430961Y7761315D01*
X-6428574Y7760127D01*
X-6288149Y7714093D01*
X-6172489Y7676178D01*
X-6172486Y7676177D01*
X-6169938Y7675342D01*
X-5901772Y7628781D01*
X-5899518Y7628669D01*
X-5899511Y7628668D01*
X-5846961Y7626052D01*
X-5815778Y7624500D01*
X-5645856Y7624500D01*
X-5443536Y7639180D01*
X-5177758Y7697858D01*
X-4923235Y7794288D01*
X-4685298Y7926450D01*
X-4633249Y7966173D01*
X-4471061Y8089951D01*
X-4471059Y8089952D01*
X-4468932Y8091576D01*
X-4278669Y8286206D01*
X-4118494Y8506263D01*
X-3991764Y8747137D01*
X-3990753Y8750000D01*
X894508Y8750000D01*
X895419Y8744248D01*
X913442Y8630451D01*
X913443Y8630448D01*
X914354Y8624696D01*
X916999Y8619505D01*
X917000Y8619502D01*
X969304Y8516850D01*
X969306Y8516848D01*
X971950Y8511658D01*
X1061658Y8421950D01*
X1066848Y8419306D01*
X1066850Y8419304D01*
X1169502Y8367000D01*
X1169505Y8366999D01*
X1174696Y8364354D01*
X1180448Y8363443D01*
X1180451Y8363442D01*
X1294248Y8345419D01*
X1300000Y8344508D01*
X1305752Y8345419D01*
X1419549Y8363442D01*
X1419552Y8363443D01*
X1425304Y8364354D01*
X1430495Y8366999D01*
X1430498Y8367000D01*
X1533150Y8419304D01*
X1533152Y8419306D01*
X1538342Y8421950D01*
X1628050Y8511658D01*
X1630694Y8516848D01*
X1630696Y8516850D01*
X1683000Y8619502D01*
X1683001Y8619505D01*
X1685646Y8624696D01*
X1686557Y8630448D01*
X1686558Y8630451D01*
X1704581Y8744248D01*
X1705492Y8750000D01*
X1704581Y8755752D01*
X1686558Y8869549D01*
X1686557Y8869552D01*
X1685646Y8875304D01*
X1663117Y8919520D01*
X1630696Y8983150D01*
X1630694Y8983152D01*
X1628050Y8988342D01*
X1538342Y9078050D01*
X1533152Y9080694D01*
X1533150Y9080696D01*
X1430498Y9133000D01*
X1430495Y9133001D01*
X1425304Y9135646D01*
X1419552Y9136557D01*
X1419549Y9136558D01*
X1305752Y9154581D01*
X1300000Y9155492D01*
X1294248Y9154581D01*
X1180451Y9136558D01*
X1180448Y9136557D01*
X1174696Y9135646D01*
X1169505Y9133001D01*
X1169502Y9133000D01*
X1066850Y9080696D01*
X1066848Y9080694D01*
X1061658Y9078050D01*
X971950Y8988342D01*
X969306Y8983152D01*
X969304Y8983150D01*
X936883Y8919520D01*
X914354Y8875304D01*
X913443Y8869552D01*
X913442Y8869549D01*
X895419Y8755752D01*
X894508Y8750000D01*
X-3990753Y8750000D01*
X-3901133Y9003782D01*
X-3896876Y9025376D01*
X-3849020Y9268185D01*
X-3848500Y9270823D01*
X-3839215Y9457336D01*
X3834967Y9457336D01*
X3860818Y9186389D01*
X3861456Y9183783D01*
X3861456Y9183781D01*
X3905502Y9003782D01*
X3925511Y8922011D01*
X3926520Y8919520D01*
X4019185Y8690740D01*
X4027690Y8669741D01*
X4165217Y8434863D01*
X4335209Y8222299D01*
X4534105Y8036501D01*
X4757739Y7881360D01*
X4760133Y7880169D01*
X4760138Y7880166D01*
X4999033Y7761317D01*
X4999039Y7761315D01*
X5001426Y7760127D01*
X5141851Y7714093D01*
X5257511Y7676178D01*
X5257514Y7676177D01*
X5260062Y7675342D01*
X5528228Y7628781D01*
X5530482Y7628669D01*
X5530489Y7628668D01*
X5583039Y7626052D01*
X5614222Y7624500D01*
X5784144Y7624500D01*
X5986464Y7639180D01*
X6252242Y7697858D01*
X6506765Y7794288D01*
X6744702Y7926450D01*
X6796751Y7966173D01*
X6958939Y8089951D01*
X6958941Y8089952D01*
X6961068Y8091576D01*
X7151331Y8286206D01*
X7287176Y8472837D01*
X10390536Y8472837D01*
X10391824Y8467386D01*
X12490774Y6368436D01*
X12500413Y6363941D01*
X12506312Y6365522D01*
X14605358Y8464568D01*
X14609853Y8474207D01*
X14608474Y8479350D01*
X14607892Y8479846D01*
X14331056Y8690740D01*
X14327730Y8693000D01*
X14029730Y8872764D01*
X14026215Y8874633D01*
X13710543Y9021164D01*
X13706815Y9022655D01*
X13377168Y9134235D01*
X13373317Y9135310D01*
X13033553Y9210633D01*
X13029588Y9211289D01*
X12683669Y9249479D01*
X12679694Y9249701D01*
X12331667Y9250308D01*
X12327659Y9250098D01*
X11981609Y9213116D01*
X11977667Y9212477D01*
X11637645Y9138342D01*
X11633768Y9137274D01*
X11303734Y9026845D01*
X11300023Y9025376D01*
X10983828Y8879943D01*
X10980305Y8878086D01*
X10681669Y8699355D01*
X10678356Y8697121D01*
X10400787Y8487197D01*
X10397717Y8484602D01*
X10395315Y8482340D01*
X10390536Y8472837D01*
X7287176Y8472837D01*
X7311506Y8506263D01*
X7438236Y8747137D01*
X7528867Y9003782D01*
X7533124Y9025376D01*
X7580980Y9268185D01*
X7581500Y9270823D01*
X7595033Y9542664D01*
X7569182Y9813611D01*
X7568544Y9816219D01*
X7505128Y10075379D01*
X7505127Y10075383D01*
X7504489Y10077989D01*
X7434683Y10250333D01*
X7403318Y10327771D01*
X7403317Y10327774D01*
X7402310Y10330259D01*
X7317739Y10474696D01*
X7266322Y10562509D01*
X7257228Y10612305D01*
X7282269Y10656296D01*
X7329729Y10673899D01*
X7349144Y10671428D01*
X7508579Y10629155D01*
X7782884Y10596689D01*
X7908804Y10599656D01*
X8056408Y10603134D01*
X8056412Y10603134D01*
X8059027Y10603196D01*
X8061602Y10603625D01*
X8061606Y10603625D01*
X8328916Y10648118D01*
X8328919Y10648119D01*
X8331498Y10648548D01*
X8395430Y10668767D01*
X8592367Y10731050D01*
X8592370Y10731051D01*
X8594861Y10731839D01*
X8597216Y10732970D01*
X8597219Y10732971D01*
X8841514Y10850280D01*
X8843861Y10851407D01*
X8989577Y10948771D01*
X9071351Y11003410D01*
X9071358Y11003415D01*
X9073529Y11004866D01*
X9279283Y11189155D01*
X9288399Y11200000D01*
X10094508Y11200000D01*
X10095419Y11194248D01*
X10113442Y11080451D01*
X10113443Y11080448D01*
X10114354Y11074696D01*
X10116999Y11069505D01*
X10117000Y11069502D01*
X10169304Y10966850D01*
X10169306Y10966848D01*
X10171950Y10961658D01*
X10261658Y10871950D01*
X10266848Y10869306D01*
X10266850Y10869304D01*
X10369502Y10817000D01*
X10369505Y10816999D01*
X10374696Y10814354D01*
X10380448Y10813443D01*
X10380451Y10813442D01*
X10494248Y10795419D01*
X10500000Y10794508D01*
X10621327Y10813724D01*
X10621328Y10813724D01*
X10625304Y10814354D01*
X10625426Y10813581D01*
X10671094Y10811989D01*
X10708713Y10778120D01*
X10715752Y10728048D01*
X10714354Y10725304D01*
X10694508Y10600000D01*
X10695419Y10594248D01*
X10713442Y10480451D01*
X10713443Y10480448D01*
X10714354Y10474696D01*
X10716999Y10469505D01*
X10717000Y10469502D01*
X10769304Y10366850D01*
X10769306Y10366848D01*
X10771950Y10361658D01*
X10861658Y10271950D01*
X10866848Y10269306D01*
X10866850Y10269304D01*
X10969502Y10217000D01*
X10969505Y10216999D01*
X10974696Y10214354D01*
X10980448Y10213443D01*
X10980451Y10213442D01*
X11094248Y10195419D01*
X11100000Y10194508D01*
X11105752Y10195419D01*
X11219549Y10213442D01*
X11219552Y10213443D01*
X11225304Y10214354D01*
X11230495Y10216999D01*
X11230498Y10217000D01*
X11333150Y10269304D01*
X11333152Y10269306D01*
X11338342Y10271950D01*
X11428050Y10361658D01*
X11430694Y10366848D01*
X11430696Y10366850D01*
X11483000Y10469502D01*
X11483001Y10469505D01*
X11485646Y10474696D01*
X11486557Y10480448D01*
X11486558Y10480451D01*
X11504581Y10594248D01*
X11505492Y10600000D01*
X11496576Y10656296D01*
X11486558Y10719549D01*
X11486557Y10719552D01*
X11485646Y10725304D01*
X11483000Y10730498D01*
X11430696Y10833150D01*
X11430694Y10833152D01*
X11428050Y10838342D01*
X11338342Y10928050D01*
X11333152Y10930694D01*
X11333150Y10930696D01*
X11230498Y10983000D01*
X11230495Y10983001D01*
X11225304Y10985646D01*
X11219552Y10986557D01*
X11219549Y10986558D01*
X11105752Y11004581D01*
X11100000Y11005492D01*
X10978673Y10986276D01*
X10978672Y10986276D01*
X10974696Y10985646D01*
X10974574Y10986419D01*
X10928906Y10988011D01*
X10891287Y11021880D01*
X10884248Y11071952D01*
X10885646Y11074696D01*
X10905492Y11200000D01*
X10904581Y11205752D01*
X10886558Y11319549D01*
X10886557Y11319552D01*
X10885646Y11325304D01*
X10883000Y11330498D01*
X10830696Y11433150D01*
X10830694Y11433152D01*
X10828050Y11438342D01*
X10738342Y11528050D01*
X10733152Y11530694D01*
X10733150Y11530696D01*
X10630498Y11583000D01*
X10630495Y11583001D01*
X10625304Y11585646D01*
X10619552Y11586557D01*
X10619549Y11586558D01*
X10505752Y11604581D01*
X10500000Y11605492D01*
X10494248Y11604581D01*
X10380451Y11586558D01*
X10380448Y11586557D01*
X10374696Y11585646D01*
X10369505Y11583001D01*
X10369502Y11583000D01*
X10266850Y11530696D01*
X10266848Y11530694D01*
X10261658Y11528050D01*
X10171950Y11438342D01*
X10169306Y11433152D01*
X10169304Y11433150D01*
X10117000Y11330498D01*
X10114354Y11325304D01*
X10113443Y11319552D01*
X10113442Y11319549D01*
X10095419Y11205752D01*
X10094508Y11200000D01*
X9288399Y11200000D01*
X9457018Y11400597D01*
X9570775Y11583000D01*
X9601808Y11632759D01*
X9601809Y11632761D01*
X9603188Y11634972D01*
X9714875Y11887604D01*
X9789853Y12153453D01*
X9826623Y12427214D01*
X9830482Y12550000D01*
X9830348Y12551894D01*
X9811158Y12822923D01*
X9811157Y12822929D01*
X9810973Y12825530D01*
X9797364Y12888744D01*
X9753387Y13093006D01*
X9752837Y13095562D01*
X9657233Y13354709D01*
X9628552Y13407864D01*
X9527310Y13595499D01*
X9527307Y13595504D01*
X9526068Y13597800D01*
X9361960Y13819984D01*
X9168183Y14016829D01*
X9082897Y14081917D01*
X8950683Y14182820D01*
X8950677Y14182824D01*
X8948604Y14184406D01*
X8707604Y14319373D01*
X8449991Y14419036D01*
X8447448Y14419625D01*
X8447443Y14419627D01*
X8183451Y14480817D01*
X8183449Y14480817D01*
X8180905Y14481407D01*
X8178305Y14481632D01*
X8178300Y14481633D01*
X7908324Y14505015D01*
X7908325Y14505015D01*
X7905715Y14505241D01*
X7629913Y14490062D01*
X7627341Y14489550D01*
X7627338Y14489550D01*
X7437112Y14451712D01*
X7359001Y14436175D01*
X7356533Y14435308D01*
X7356532Y14435308D01*
X7100855Y14345521D01*
X7100852Y14345520D01*
X7098384Y14344653D01*
X7096064Y14343448D01*
X7096062Y14343447D01*
X6855578Y14218525D01*
X6855573Y14218522D01*
X6853263Y14217322D01*
X6628529Y14056725D01*
X6428665Y13866064D01*
X6257659Y13649144D01*
X6118923Y13410293D01*
X6015226Y13154277D01*
X5948636Y12886204D01*
X5920483Y12611423D01*
X5920586Y12608804D01*
X5927795Y12425325D01*
X5931327Y12335417D01*
X5980953Y12063691D01*
X6068370Y11801669D01*
X6069536Y11799335D01*
X6069540Y11799326D01*
X6150471Y11637359D01*
X6191834Y11554579D01*
X6193318Y11552432D01*
X6193322Y11552425D01*
X6278687Y11428913D01*
X6291490Y11379939D01*
X6269817Y11334194D01*
X6223811Y11313083D01*
X6194762Y11316521D01*
X6172494Y11323821D01*
X6172483Y11323824D01*
X6169938Y11324658D01*
X5901772Y11371219D01*
X5899518Y11371331D01*
X5899511Y11371332D01*
X5846961Y11373948D01*
X5815778Y11375500D01*
X5645856Y11375500D01*
X5443536Y11360820D01*
X5177758Y11302142D01*
X4923235Y11205712D01*
X4685298Y11073550D01*
X4683170Y11071926D01*
X4523571Y10950123D01*
X4468932Y10908424D01*
X4278669Y10713794D01*
X4118494Y10493737D01*
X3991764Y10252863D01*
X3901133Y9996218D01*
X3848500Y9729177D01*
X3834967Y9457336D01*
X-3839215Y9457336D01*
X-3834967Y9542664D01*
X-3860818Y9813611D01*
X-3861456Y9816219D01*
X-3924872Y10075379D01*
X-3924873Y10075383D01*
X-3925511Y10077989D01*
X-3995317Y10250333D01*
X-4026682Y10327771D01*
X-4026683Y10327774D01*
X-4027690Y10330259D01*
X-4165217Y10565137D01*
X-4335209Y10777701D01*
X-4496157Y10928050D01*
X-4532150Y10961673D01*
X-4532152Y10961675D01*
X-4534105Y10963499D01*
X-4757739Y11118640D01*
X-4760133Y11119831D01*
X-4760138Y11119834D01*
X-4999033Y11238683D01*
X-4999039Y11238685D01*
X-5001426Y11239873D01*
X-5193137Y11302719D01*
X-5257511Y11323822D01*
X-5257514Y11323823D01*
X-5260062Y11324658D01*
X-5528228Y11371219D01*
X-5530482Y11371331D01*
X-5530489Y11371332D01*
X-5583039Y11373948D01*
X-5614222Y11375500D01*
X-5784144Y11375500D01*
X-5986464Y11360820D01*
X-5989082Y11360242D01*
X-6187113Y11316521D01*
X-6198795Y11313942D01*
X-6248975Y11320593D01*
X-6283140Y11357943D01*
X-6285304Y11408516D01*
X-6277538Y11425361D01*
X-6275322Y11428913D01*
X-6146812Y11634972D01*
X-6035125Y11887604D01*
X-5960147Y12153453D01*
X-5923377Y12427214D01*
X-5919518Y12550000D01*
X-5919652Y12551894D01*
X-5938842Y12822923D01*
X-5938843Y12822929D01*
X-5939027Y12825530D01*
X-5952636Y12888744D01*
X-5996613Y13093006D01*
X-5997163Y13095562D01*
X-6092767Y13354709D01*
X-6121448Y13407864D01*
X-6222690Y13595499D01*
X-6222693Y13595504D01*
X-6223932Y13597800D01*
X-6388040Y13819984D01*
X-6581817Y14016829D01*
X-6667103Y14081917D01*
X-6799317Y14182820D01*
X-6799323Y14182824D01*
X-6801396Y14184406D01*
X-7042396Y14319373D01*
X-7300009Y14419036D01*
X-7302552Y14419625D01*
X-7302557Y14419627D01*
X-7566549Y14480817D01*
X-7566551Y14480817D01*
X-7569095Y14481407D01*
X-7571695Y14481632D01*
X-7571700Y14481633D01*
X-7841676Y14505015D01*
X-7841675Y14505015D01*
X-7844285Y14505241D01*
X-8120087Y14490062D01*
X-8122659Y14489550D01*
X-8122662Y14489550D01*
X-8312888Y14451712D01*
X-8390999Y14436175D01*
X-8393467Y14435308D01*
X-8393468Y14435308D01*
X-8649145Y14345521D01*
X-8649148Y14345520D01*
X-8651616Y14344653D01*
X-8653936Y14343448D01*
X-8653938Y14343447D01*
X-8894422Y14218525D01*
X-8894427Y14218522D01*
X-8896737Y14217322D01*
X-9121471Y14056725D01*
X-9321335Y13866064D01*
X-9492341Y13649144D01*
X-9631077Y13410293D01*
X-9734774Y13154277D01*
X-9801364Y12886204D01*
X-9829517Y12611423D01*
X-16692393Y12611423D01*
X-16692393Y23700000D01*
X-14605492Y23700000D01*
X-14604581Y23694248D01*
X-14586558Y23580451D01*
X-14586557Y23580448D01*
X-14585646Y23574696D01*
X-14583001Y23569505D01*
X-14583000Y23569502D01*
X-14530696Y23466850D01*
X-14530694Y23466848D01*
X-14528050Y23461658D01*
X-14438342Y23371950D01*
X-14433152Y23369306D01*
X-14433150Y23369304D01*
X-14330498Y23317000D01*
X-14330495Y23316999D01*
X-14325304Y23314354D01*
X-14319552Y23313443D01*
X-14319549Y23313442D01*
X-14205752Y23295419D01*
X-14200000Y23294508D01*
X-14194248Y23295419D01*
X-14080451Y23313442D01*
X-14080448Y23313443D01*
X-14074696Y23314354D01*
X-13983594Y23360773D01*
X-13933353Y23366941D01*
X-13916409Y23360774D01*
X-13825304Y23314354D01*
X-13819552Y23313443D01*
X-13819549Y23313442D01*
X-13705752Y23295419D01*
X-13700000Y23294508D01*
X-13694248Y23295419D01*
X-13580451Y23313442D01*
X-13580448Y23313443D01*
X-13574696Y23314354D01*
X-13569505Y23316999D01*
X-13569502Y23317000D01*
X-13466850Y23369304D01*
X-13466848Y23369306D01*
X-13461658Y23371950D01*
X-13371950Y23461658D01*
X-13369306Y23466848D01*
X-13369304Y23466850D01*
X-13317000Y23569502D01*
X-13316999Y23569505D01*
X-13314354Y23574696D01*
X-13313443Y23580448D01*
X-13313442Y23580451D01*
X-13295419Y23694248D01*
X-13294508Y23700000D01*
X-13295419Y23705752D01*
X-13313442Y23819549D01*
X-13313443Y23819552D01*
X-13314354Y23825304D01*
X-13317000Y23830498D01*
X-13369304Y23933150D01*
X-13369306Y23933152D01*
X-13371950Y23938342D01*
X-13461658Y24028050D01*
X-13466848Y24030694D01*
X-13466850Y24030696D01*
X-13569502Y24083000D01*
X-13569505Y24083001D01*
X-13574696Y24085646D01*
X-13580448Y24086557D01*
X-13580451Y24086558D01*
X-13694248Y24104581D01*
X-13700000Y24105492D01*
X-13705752Y24104581D01*
X-13819549Y24086558D01*
X-13819552Y24086557D01*
X-13825304Y24085646D01*
X-13916406Y24039227D01*
X-13966647Y24033059D01*
X-13983591Y24039226D01*
X-14074696Y24085646D01*
X-14080448Y24086557D01*
X-14080451Y24086558D01*
X-14194248Y24104581D01*
X-14200000Y24105492D01*
X-14205752Y24104581D01*
X-14319549Y24086558D01*
X-14319552Y24086557D01*
X-14325304Y24085646D01*
X-14330495Y24083001D01*
X-14330498Y24083000D01*
X-14433150Y24030696D01*
X-14433152Y24030694D01*
X-14438342Y24028050D01*
X-14528050Y23938342D01*
X-14530694Y23933152D01*
X-14530696Y23933150D01*
X-14583000Y23830498D01*
X-14585646Y23825304D01*
X-14586557Y23819552D01*
X-14586558Y23819549D01*
X-14604581Y23705752D01*
X-14605492Y23700000D01*
X-16692393Y23700000D01*
X-16692393Y26350000D01*
X-13355492Y26350000D01*
X-13354581Y26344248D01*
X-13336558Y26230451D01*
X-13336557Y26230448D01*
X-13335646Y26224696D01*
X-13333001Y26219505D01*
X-13333000Y26219502D01*
X-13280696Y26116850D01*
X-13280694Y26116848D01*
X-13278050Y26111658D01*
X-13188342Y26021950D01*
X-13183152Y26019306D01*
X-13183150Y26019304D01*
X-13080498Y25967000D01*
X-13080495Y25966999D01*
X-13075304Y25964354D01*
X-13069552Y25963443D01*
X-13069549Y25963442D01*
X-12955752Y25945419D01*
X-12950000Y25944508D01*
X-12944248Y25945419D01*
X-12830451Y25963442D01*
X-12830448Y25963443D01*
X-12824696Y25964354D01*
X-12819505Y25966999D01*
X-12819502Y25967000D01*
X-12716850Y26019304D01*
X-12716848Y26019306D01*
X-12711658Y26021950D01*
X-12621950Y26111658D01*
X-12619306Y26116848D01*
X-12619304Y26116850D01*
X-12567000Y26219502D01*
X-12566999Y26219505D01*
X-12564354Y26224696D01*
X-12563443Y26230448D01*
X-12563442Y26230451D01*
X-12545419Y26344248D01*
X-12544508Y26350000D01*
X-4455492Y26350000D01*
X-4454581Y26344248D01*
X-4436558Y26230451D01*
X-4436557Y26230448D01*
X-4435646Y26224696D01*
X-4433001Y26219505D01*
X-4433000Y26219502D01*
X-4380696Y26116850D01*
X-4380694Y26116848D01*
X-4378050Y26111658D01*
X-4288342Y26021950D01*
X-4283152Y26019306D01*
X-4283150Y26019304D01*
X-4180498Y25967000D01*
X-4180495Y25966999D01*
X-4175304Y25964354D01*
X-4169552Y25963443D01*
X-4169549Y25963442D01*
X-4055752Y25945419D01*
X-4050000Y25944508D01*
X-4044248Y25945419D01*
X-3930451Y25963442D01*
X-3930448Y25963443D01*
X-3924696Y25964354D01*
X-3919505Y25966999D01*
X-3919502Y25967000D01*
X-3816850Y26019304D01*
X-3816848Y26019306D01*
X-3811658Y26021950D01*
X-3721950Y26111658D01*
X-3719306Y26116848D01*
X-3719304Y26116850D01*
X-3667000Y26219502D01*
X-3666999Y26219505D01*
X-3664354Y26224696D01*
X-3663443Y26230448D01*
X-3663442Y26230451D01*
X-3645419Y26344248D01*
X-3644508Y26350000D01*
X-3155492Y26350000D01*
X-3154581Y26344248D01*
X-3136558Y26230451D01*
X-3136557Y26230448D01*
X-3135646Y26224696D01*
X-3133001Y26219505D01*
X-3133000Y26219502D01*
X-3080696Y26116850D01*
X-3080694Y26116848D01*
X-3078050Y26111658D01*
X-2988342Y26021950D01*
X-2983152Y26019306D01*
X-2983150Y26019304D01*
X-2880498Y25967000D01*
X-2880495Y25966999D01*
X-2875304Y25964354D01*
X-2869552Y25963443D01*
X-2869549Y25963442D01*
X-2755752Y25945419D01*
X-2750000Y25944508D01*
X-2744248Y25945419D01*
X-2630451Y25963442D01*
X-2630448Y25963443D01*
X-2624696Y25964354D01*
X-2619505Y25966999D01*
X-2619502Y25967000D01*
X-2516850Y26019304D01*
X-2516848Y26019306D01*
X-2511658Y26021950D01*
X-2421950Y26111658D01*
X-2419306Y26116848D01*
X-2419304Y26116850D01*
X-2367000Y26219502D01*
X-2366999Y26219505D01*
X-2364354Y26224696D01*
X-2363443Y26230448D01*
X-2363442Y26230451D01*
X-2345419Y26344248D01*
X-2344508Y26350000D01*
X-1905492Y26350000D01*
X-1904581Y26344248D01*
X-1886558Y26230451D01*
X-1886557Y26230448D01*
X-1885646Y26224696D01*
X-1883001Y26219505D01*
X-1883000Y26219502D01*
X-1830696Y26116850D01*
X-1830694Y26116848D01*
X-1828050Y26111658D01*
X-1738342Y26021950D01*
X-1733152Y26019306D01*
X-1733150Y26019304D01*
X-1630498Y25967000D01*
X-1630495Y25966999D01*
X-1625304Y25964354D01*
X-1619552Y25963443D01*
X-1619549Y25963442D01*
X-1505752Y25945419D01*
X-1500000Y25944508D01*
X-1494248Y25945419D01*
X-1380451Y25963442D01*
X-1380448Y25963443D01*
X-1374696Y25964354D01*
X-1369505Y25966999D01*
X-1369502Y25967000D01*
X-1266850Y26019304D01*
X-1266848Y26019306D01*
X-1261658Y26021950D01*
X-1171950Y26111658D01*
X-1169306Y26116848D01*
X-1169304Y26116850D01*
X-1117000Y26219502D01*
X-1116999Y26219505D01*
X-1114354Y26224696D01*
X-1113443Y26230448D01*
X-1113442Y26230451D01*
X-1095419Y26344248D01*
X-1094508Y26350000D01*
X-655492Y26350000D01*
X-654581Y26344248D01*
X-636558Y26230451D01*
X-636557Y26230448D01*
X-635646Y26224696D01*
X-633001Y26219505D01*
X-633000Y26219502D01*
X-580696Y26116850D01*
X-580694Y26116848D01*
X-578050Y26111658D01*
X-488342Y26021950D01*
X-483152Y26019306D01*
X-483150Y26019304D01*
X-380498Y25967000D01*
X-380495Y25966999D01*
X-375304Y25964354D01*
X-369552Y25963443D01*
X-369549Y25963442D01*
X-255752Y25945419D01*
X-250000Y25944508D01*
X-244248Y25945419D01*
X-130451Y25963442D01*
X-130448Y25963443D01*
X-124696Y25964354D01*
X-119505Y25966999D01*
X-119502Y25967000D01*
X-16850Y26019304D01*
X-16848Y26019306D01*
X-11658Y26021950D01*
X78050Y26111658D01*
X80694Y26116848D01*
X80696Y26116850D01*
X133000Y26219502D01*
X133001Y26219505D01*
X135646Y26224696D01*
X136557Y26230448D01*
X136558Y26230451D01*
X154581Y26344248D01*
X155492Y26350000D01*
X644508Y26350000D01*
X645419Y26344248D01*
X663442Y26230451D01*
X663443Y26230448D01*
X664354Y26224696D01*
X666999Y26219505D01*
X667000Y26219502D01*
X719304Y26116850D01*
X719306Y26116848D01*
X721950Y26111658D01*
X811658Y26021950D01*
X816848Y26019306D01*
X816850Y26019304D01*
X919502Y25967000D01*
X919505Y25966999D01*
X924696Y25964354D01*
X930448Y25963443D01*
X930451Y25963442D01*
X1044248Y25945419D01*
X1050000Y25944508D01*
X1055752Y25945419D01*
X1169549Y25963442D01*
X1169552Y25963443D01*
X1175304Y25964354D01*
X1180495Y25966999D01*
X1180498Y25967000D01*
X1283150Y26019304D01*
X1283152Y26019306D01*
X1288342Y26021950D01*
X1378050Y26111658D01*
X1380694Y26116848D01*
X1380696Y26116850D01*
X1433000Y26219502D01*
X1433001Y26219505D01*
X1435646Y26224696D01*
X1436557Y26230448D01*
X1436558Y26230451D01*
X1454581Y26344248D01*
X1455492Y26350000D01*
X1454581Y26355752D01*
X1436558Y26469549D01*
X1436557Y26469552D01*
X1435646Y26475304D01*
X1433000Y26480498D01*
X1380696Y26583150D01*
X1380694Y26583152D01*
X1378050Y26588342D01*
X1288342Y26678050D01*
X1283152Y26680694D01*
X1283150Y26680696D01*
X1180498Y26733000D01*
X1180495Y26733001D01*
X1175304Y26735646D01*
X1169552Y26736557D01*
X1169549Y26736558D01*
X1055752Y26754581D01*
X1050000Y26755492D01*
X1044248Y26754581D01*
X930451Y26736558D01*
X930448Y26736557D01*
X924696Y26735646D01*
X919505Y26733001D01*
X919502Y26733000D01*
X816850Y26680696D01*
X816848Y26680694D01*
X811658Y26678050D01*
X721950Y26588342D01*
X719306Y26583152D01*
X719304Y26583150D01*
X667000Y26480498D01*
X664354Y26475304D01*
X663443Y26469552D01*
X663442Y26469549D01*
X645419Y26355752D01*
X644508Y26350000D01*
X155492Y26350000D01*
X154581Y26355752D01*
X136558Y26469549D01*
X136557Y26469552D01*
X135646Y26475304D01*
X133000Y26480498D01*
X80696Y26583150D01*
X80694Y26583152D01*
X78050Y26588342D01*
X-11658Y26678050D01*
X-16848Y26680694D01*
X-16850Y26680696D01*
X-119502Y26733000D01*
X-119505Y26733001D01*
X-124696Y26735646D01*
X-130448Y26736557D01*
X-130451Y26736558D01*
X-244248Y26754581D01*
X-250000Y26755492D01*
X-255752Y26754581D01*
X-369549Y26736558D01*
X-369552Y26736557D01*
X-375304Y26735646D01*
X-380495Y26733001D01*
X-380498Y26733000D01*
X-483150Y26680696D01*
X-483152Y26680694D01*
X-488342Y26678050D01*
X-578050Y26588342D01*
X-580694Y26583152D01*
X-580696Y26583150D01*
X-633000Y26480498D01*
X-635646Y26475304D01*
X-636557Y26469552D01*
X-636558Y26469549D01*
X-654581Y26355752D01*
X-655492Y26350000D01*
X-1094508Y26350000D01*
X-1095419Y26355752D01*
X-1113442Y26469549D01*
X-1113443Y26469552D01*
X-1114354Y26475304D01*
X-1117000Y26480498D01*
X-1169304Y26583150D01*
X-1169306Y26583152D01*
X-1171950Y26588342D01*
X-1261658Y26678050D01*
X-1266848Y26680694D01*
X-1266850Y26680696D01*
X-1369502Y26733000D01*
X-1369505Y26733001D01*
X-1374696Y26735646D01*
X-1380448Y26736557D01*
X-1380451Y26736558D01*
X-1494248Y26754581D01*
X-1500000Y26755492D01*
X-1505752Y26754581D01*
X-1619549Y26736558D01*
X-1619552Y26736557D01*
X-1625304Y26735646D01*
X-1630495Y26733001D01*
X-1630498Y26733000D01*
X-1733150Y26680696D01*
X-1733152Y26680694D01*
X-1738342Y26678050D01*
X-1828050Y26588342D01*
X-1830694Y26583152D01*
X-1830696Y26583150D01*
X-1883000Y26480498D01*
X-1885646Y26475304D01*
X-1886557Y26469552D01*
X-1886558Y26469549D01*
X-1904581Y26355752D01*
X-1905492Y26350000D01*
X-2344508Y26350000D01*
X-2345419Y26355752D01*
X-2363442Y26469549D01*
X-2363443Y26469552D01*
X-2364354Y26475304D01*
X-2367000Y26480498D01*
X-2419304Y26583150D01*
X-2419306Y26583152D01*
X-2421950Y26588342D01*
X-2511658Y26678050D01*
X-2516848Y26680694D01*
X-2516850Y26680696D01*
X-2619502Y26733000D01*
X-2619505Y26733001D01*
X-2624696Y26735646D01*
X-2630448Y26736557D01*
X-2630451Y26736558D01*
X-2744248Y26754581D01*
X-2750000Y26755492D01*
X-2755752Y26754581D01*
X-2869549Y26736558D01*
X-2869552Y26736557D01*
X-2875304Y26735646D01*
X-2880495Y26733001D01*
X-2880498Y26733000D01*
X-2983150Y26680696D01*
X-2983152Y26680694D01*
X-2988342Y26678050D01*
X-3078050Y26588342D01*
X-3080694Y26583152D01*
X-3080696Y26583150D01*
X-3133000Y26480498D01*
X-3135646Y26475304D01*
X-3136557Y26469552D01*
X-3136558Y26469549D01*
X-3154581Y26355752D01*
X-3155492Y26350000D01*
X-3644508Y26350000D01*
X-3645419Y26355752D01*
X-3663442Y26469549D01*
X-3663443Y26469552D01*
X-3664354Y26475304D01*
X-3667000Y26480498D01*
X-3719304Y26583150D01*
X-3719306Y26583152D01*
X-3721950Y26588342D01*
X-3811658Y26678050D01*
X-3816848Y26680694D01*
X-3816850Y26680696D01*
X-3919502Y26733000D01*
X-3919505Y26733001D01*
X-3924696Y26735646D01*
X-3930448Y26736557D01*
X-3930451Y26736558D01*
X-4044248Y26754581D01*
X-4050000Y26755492D01*
X-4055752Y26754581D01*
X-4169549Y26736558D01*
X-4169552Y26736557D01*
X-4175304Y26735646D01*
X-4180495Y26733001D01*
X-4180498Y26733000D01*
X-4283150Y26680696D01*
X-4283152Y26680694D01*
X-4288342Y26678050D01*
X-4378050Y26588342D01*
X-4380694Y26583152D01*
X-4380696Y26583150D01*
X-4433000Y26480498D01*
X-4435646Y26475304D01*
X-4436557Y26469552D01*
X-4436558Y26469549D01*
X-4454581Y26355752D01*
X-4455492Y26350000D01*
X-12544508Y26350000D01*
X-12545419Y26355752D01*
X-12563442Y26469549D01*
X-12563443Y26469552D01*
X-12564354Y26475304D01*
X-12567000Y26480498D01*
X-12619304Y26583150D01*
X-12619306Y26583152D01*
X-12621950Y26588342D01*
X-12711658Y26678050D01*
X-12716848Y26680694D01*
X-12716850Y26680696D01*
X-12819502Y26733000D01*
X-12819505Y26733001D01*
X-12824696Y26735646D01*
X-12830448Y26736557D01*
X-12830451Y26736558D01*
X-12944248Y26754581D01*
X-12950000Y26755492D01*
X-12955752Y26754581D01*
X-13069549Y26736558D01*
X-13069552Y26736557D01*
X-13075304Y26735646D01*
X-13080495Y26733001D01*
X-13080498Y26733000D01*
X-13183150Y26680696D01*
X-13183152Y26680694D01*
X-13188342Y26678050D01*
X-13278050Y26588342D01*
X-13280694Y26583152D01*
X-13280696Y26583150D01*
X-13333000Y26480498D01*
X-13335646Y26475304D01*
X-13336557Y26469552D01*
X-13336558Y26469549D01*
X-13354581Y26355752D01*
X-13355492Y26350000D01*
X-16692393Y26350000D01*
X-16692393Y31600000D01*
X6494508Y31600000D01*
X6495419Y31594248D01*
X6513442Y31480451D01*
X6513443Y31480448D01*
X6514354Y31474696D01*
X6516999Y31469505D01*
X6517000Y31469502D01*
X6569304Y31366850D01*
X6569306Y31366848D01*
X6571950Y31361658D01*
X6661658Y31271950D01*
X6666848Y31269306D01*
X6666850Y31269304D01*
X6769502Y31217000D01*
X6769505Y31216999D01*
X6774696Y31214354D01*
X6780448Y31213443D01*
X6780451Y31213442D01*
X6894248Y31195419D01*
X6900000Y31194508D01*
X6905752Y31195419D01*
X7019549Y31213442D01*
X7019552Y31213443D01*
X7025304Y31214354D01*
X7030495Y31216999D01*
X7030498Y31217000D01*
X7133150Y31269304D01*
X7133152Y31269306D01*
X7138342Y31271950D01*
X7228050Y31361658D01*
X7230694Y31366848D01*
X7230696Y31366850D01*
X7283000Y31469502D01*
X7283001Y31469505D01*
X7285646Y31474696D01*
X7286557Y31480448D01*
X7286558Y31480451D01*
X7304581Y31594248D01*
X7305492Y31600000D01*
X7304581Y31605752D01*
X7286558Y31719549D01*
X7286557Y31719552D01*
X7285646Y31725304D01*
X7283000Y31730498D01*
X7230696Y31833150D01*
X7230694Y31833152D01*
X7228050Y31838342D01*
X7138342Y31928050D01*
X7133152Y31930694D01*
X7133150Y31930696D01*
X7030498Y31983000D01*
X7030495Y31983001D01*
X7025304Y31985646D01*
X7019552Y31986557D01*
X7019549Y31986558D01*
X6905752Y32004581D01*
X6900000Y32005492D01*
X6894248Y32004581D01*
X6780451Y31986558D01*
X6780448Y31986557D01*
X6774696Y31985646D01*
X6769505Y31983001D01*
X6769502Y31983000D01*
X6666850Y31930696D01*
X6666848Y31930694D01*
X6661658Y31928050D01*
X6571950Y31838342D01*
X6569306Y31833152D01*
X6569304Y31833150D01*
X6517000Y31730498D01*
X6514354Y31725304D01*
X6513443Y31719552D01*
X6513442Y31719549D01*
X6495419Y31605752D01*
X6494508Y31600000D01*
X-16692393Y31600000D01*
X-16692393Y33400000D01*
X7894508Y33400000D01*
X7895419Y33394248D01*
X7913442Y33280451D01*
X7913443Y33280448D01*
X7914354Y33274696D01*
X7916999Y33269505D01*
X7917000Y33269502D01*
X7969304Y33166850D01*
X7969306Y33166848D01*
X7971950Y33161658D01*
X8061658Y33071950D01*
X8066848Y33069306D01*
X8066850Y33069304D01*
X8169502Y33017000D01*
X8169505Y33016999D01*
X8174696Y33014354D01*
X8180448Y33013443D01*
X8180451Y33013442D01*
X8294248Y32995419D01*
X8300000Y32994508D01*
X8305752Y32995419D01*
X8419549Y33013442D01*
X8419552Y33013443D01*
X8425304Y33014354D01*
X8430495Y33016999D01*
X8430498Y33017000D01*
X8533150Y33069304D01*
X8533152Y33069306D01*
X8538342Y33071950D01*
X8628050Y33161658D01*
X8630694Y33166848D01*
X8630696Y33166850D01*
X8683000Y33269502D01*
X8683001Y33269505D01*
X8685646Y33274696D01*
X8686557Y33280448D01*
X8686558Y33280451D01*
X8704581Y33394248D01*
X8705492Y33400000D01*
X8704581Y33405752D01*
X8686558Y33519549D01*
X8686557Y33519552D01*
X8685646Y33525304D01*
X8650385Y33594508D01*
X8630696Y33633150D01*
X8630694Y33633152D01*
X8628050Y33638342D01*
X8538342Y33728050D01*
X8533152Y33730694D01*
X8533150Y33730696D01*
X8430498Y33783000D01*
X8430495Y33783001D01*
X8425304Y33785646D01*
X8419552Y33786557D01*
X8419549Y33786558D01*
X8305752Y33804581D01*
X8300000Y33805492D01*
X8294248Y33804581D01*
X8180451Y33786558D01*
X8180448Y33786557D01*
X8174696Y33785646D01*
X8169505Y33783001D01*
X8169502Y33783000D01*
X8066850Y33730696D01*
X8066848Y33730694D01*
X8061658Y33728050D01*
X7971950Y33638342D01*
X7969306Y33633152D01*
X7969304Y33633150D01*
X7949615Y33594508D01*
X7914354Y33525304D01*
X7913443Y33519552D01*
X7913442Y33519549D01*
X7895419Y33405752D01*
X7894508Y33400000D01*
X-16692393Y33400000D01*
X-16692393Y34400000D01*
X4494508Y34400000D01*
X4495419Y34394248D01*
X4513442Y34280451D01*
X4513443Y34280448D01*
X4514354Y34274696D01*
X4516999Y34269505D01*
X4517000Y34269502D01*
X4569304Y34166850D01*
X4569306Y34166848D01*
X4571950Y34161658D01*
X4661658Y34071950D01*
X4666848Y34069306D01*
X4666850Y34069304D01*
X4769502Y34017000D01*
X4769505Y34016999D01*
X4774696Y34014354D01*
X4780448Y34013443D01*
X4780451Y34013442D01*
X4894248Y33995419D01*
X4900000Y33994508D01*
X4905752Y33995419D01*
X4934676Y34000000D01*
X12494508Y34000000D01*
X12495419Y33994248D01*
X12513442Y33880451D01*
X12513443Y33880448D01*
X12514354Y33874696D01*
X12516999Y33869505D01*
X12517000Y33869502D01*
X12569304Y33766850D01*
X12569306Y33766848D01*
X12571950Y33761658D01*
X12661658Y33671950D01*
X12666848Y33669306D01*
X12666850Y33669304D01*
X12769502Y33617000D01*
X12769505Y33616999D01*
X12774696Y33614354D01*
X12780448Y33613443D01*
X12780451Y33613442D01*
X12894248Y33595419D01*
X12900000Y33594508D01*
X12905752Y33595419D01*
X13019549Y33613442D01*
X13019552Y33613443D01*
X13025304Y33614354D01*
X13030495Y33616999D01*
X13030498Y33617000D01*
X13133150Y33669304D01*
X13133152Y33669306D01*
X13138342Y33671950D01*
X13228050Y33761658D01*
X13230694Y33766848D01*
X13230696Y33766850D01*
X13283000Y33869502D01*
X13283001Y33869505D01*
X13285646Y33874696D01*
X13286557Y33880448D01*
X13286558Y33880451D01*
X13304581Y33994248D01*
X13305492Y34000000D01*
X13303219Y34014354D01*
X13286558Y34119549D01*
X13286557Y34119552D01*
X13285646Y34125304D01*
X13283000Y34130498D01*
X13230696Y34233150D01*
X13230694Y34233152D01*
X13228050Y34238342D01*
X13138342Y34328050D01*
X13133152Y34330694D01*
X13133150Y34330696D01*
X13030498Y34383000D01*
X13030495Y34383001D01*
X13025304Y34385646D01*
X13019552Y34386557D01*
X13019549Y34386558D01*
X12905752Y34404581D01*
X12900000Y34405492D01*
X12894248Y34404581D01*
X12780451Y34386558D01*
X12780448Y34386557D01*
X12774696Y34385646D01*
X12769505Y34383001D01*
X12769502Y34383000D01*
X12666850Y34330696D01*
X12666848Y34330694D01*
X12661658Y34328050D01*
X12571950Y34238342D01*
X12569306Y34233152D01*
X12569304Y34233150D01*
X12517000Y34130498D01*
X12514354Y34125304D01*
X12513443Y34119552D01*
X12513442Y34119549D01*
X12496781Y34014354D01*
X12494508Y34000000D01*
X4934676Y34000000D01*
X5019549Y34013442D01*
X5019552Y34013443D01*
X5025304Y34014354D01*
X5030495Y34016999D01*
X5030498Y34017000D01*
X5133150Y34069304D01*
X5133152Y34069306D01*
X5138342Y34071950D01*
X5228050Y34161658D01*
X5230694Y34166848D01*
X5230696Y34166850D01*
X5283000Y34269502D01*
X5283001Y34269505D01*
X5285646Y34274696D01*
X5286557Y34280448D01*
X5286558Y34280451D01*
X5304581Y34394248D01*
X5305492Y34400000D01*
X5304581Y34405752D01*
X5286558Y34519549D01*
X5286557Y34519552D01*
X5285646Y34525304D01*
X5283000Y34530498D01*
X5230696Y34633150D01*
X5230694Y34633152D01*
X5228050Y34638342D01*
X5138342Y34728050D01*
X5133152Y34730694D01*
X5133150Y34730696D01*
X5030498Y34783000D01*
X5030495Y34783001D01*
X5025304Y34785646D01*
X5019552Y34786557D01*
X5019549Y34786558D01*
X4905752Y34804581D01*
X4900000Y34805492D01*
X4894248Y34804581D01*
X4780451Y34786558D01*
X4780448Y34786557D01*
X4774696Y34785646D01*
X4769505Y34783001D01*
X4769502Y34783000D01*
X4666850Y34730696D01*
X4666848Y34730694D01*
X4661658Y34728050D01*
X4571950Y34638342D01*
X4569306Y34633152D01*
X4569304Y34633150D01*
X4517000Y34530498D01*
X4514354Y34525304D01*
X4513443Y34519552D01*
X4513442Y34519549D01*
X4495419Y34405752D01*
X4494508Y34400000D01*
X-16692393Y34400000D01*
X-16692393Y35400000D01*
X4494508Y35400000D01*
X4495419Y35394248D01*
X4513442Y35280451D01*
X4513443Y35280448D01*
X4514354Y35274696D01*
X4516999Y35269505D01*
X4517000Y35269502D01*
X4569304Y35166850D01*
X4569306Y35166848D01*
X4571950Y35161658D01*
X4661658Y35071950D01*
X4666848Y35069306D01*
X4666850Y35069304D01*
X4769502Y35017000D01*
X4769505Y35016999D01*
X4774696Y35014354D01*
X4780448Y35013443D01*
X4780451Y35013442D01*
X4894248Y34995419D01*
X4900000Y34994508D01*
X4905752Y34995419D01*
X5019549Y35013442D01*
X5019552Y35013443D01*
X5025304Y35014354D01*
X5030495Y35016999D01*
X5030498Y35017000D01*
X5133150Y35069304D01*
X5133152Y35069306D01*
X5138342Y35071950D01*
X5228050Y35161658D01*
X5230694Y35166848D01*
X5230696Y35166850D01*
X5283000Y35269502D01*
X5283001Y35269505D01*
X5285646Y35274696D01*
X5286557Y35280448D01*
X5286558Y35280451D01*
X5304581Y35394248D01*
X5305492Y35400000D01*
X5300321Y35432650D01*
X5286558Y35519549D01*
X5286557Y35519552D01*
X5285646Y35525304D01*
X5283000Y35530498D01*
X5230696Y35633150D01*
X5230694Y35633152D01*
X5228050Y35638342D01*
X5138342Y35728050D01*
X5133152Y35730694D01*
X5133150Y35730696D01*
X5030498Y35783000D01*
X5030495Y35783001D01*
X5025304Y35785646D01*
X5019552Y35786557D01*
X5019549Y35786558D01*
X4905752Y35804581D01*
X4900000Y35805492D01*
X4894248Y35804581D01*
X4780451Y35786558D01*
X4780448Y35786557D01*
X4774696Y35785646D01*
X4769505Y35783001D01*
X4769502Y35783000D01*
X4666850Y35730696D01*
X4666848Y35730694D01*
X4661658Y35728050D01*
X4571950Y35638342D01*
X4569306Y35633152D01*
X4569304Y35633150D01*
X4517000Y35530498D01*
X4514354Y35525304D01*
X4513443Y35519552D01*
X4513442Y35519549D01*
X4499679Y35432650D01*
X4494508Y35400000D01*
X-16692393Y35400000D01*
X-16692393Y36400000D01*
X4494508Y36400000D01*
X4495419Y36394248D01*
X4513442Y36280451D01*
X4513443Y36280448D01*
X4514354Y36274696D01*
X4516999Y36269505D01*
X4517000Y36269502D01*
X4569304Y36166850D01*
X4569306Y36166848D01*
X4571950Y36161658D01*
X4661658Y36071950D01*
X4666848Y36069306D01*
X4666850Y36069304D01*
X4769502Y36017000D01*
X4769505Y36016999D01*
X4774696Y36014354D01*
X4780448Y36013443D01*
X4780451Y36013442D01*
X4894248Y35995419D01*
X4900000Y35994508D01*
X4905752Y35995419D01*
X5019549Y36013442D01*
X5019552Y36013443D01*
X5025304Y36014354D01*
X5030495Y36016999D01*
X5030498Y36017000D01*
X5133150Y36069304D01*
X5133152Y36069306D01*
X5138342Y36071950D01*
X5228050Y36161658D01*
X5230694Y36166848D01*
X5230696Y36166850D01*
X5283000Y36269502D01*
X5283001Y36269505D01*
X5285646Y36274696D01*
X5286557Y36280448D01*
X5286558Y36280451D01*
X5304581Y36394248D01*
X5305492Y36400000D01*
X5304581Y36405752D01*
X5286558Y36519549D01*
X5286557Y36519552D01*
X5285646Y36525304D01*
X5256172Y36583150D01*
X5230696Y36633150D01*
X5230694Y36633152D01*
X5228050Y36638342D01*
X5138342Y36728050D01*
X5133152Y36730694D01*
X5133150Y36730696D01*
X5030498Y36783000D01*
X5030495Y36783001D01*
X5025304Y36785646D01*
X5019552Y36786557D01*
X5019549Y36786558D01*
X4905752Y36804581D01*
X4900000Y36805492D01*
X4894248Y36804581D01*
X4780451Y36786558D01*
X4780448Y36786557D01*
X4774696Y36785646D01*
X4769505Y36783001D01*
X4769502Y36783000D01*
X4666850Y36730696D01*
X4666848Y36730694D01*
X4661658Y36728050D01*
X4571950Y36638342D01*
X4569306Y36633152D01*
X4569304Y36633150D01*
X4543828Y36583150D01*
X4514354Y36525304D01*
X4513443Y36519552D01*
X4513442Y36519549D01*
X4495419Y36405752D01*
X4494508Y36400000D01*
X-16692393Y36400000D01*
X-16692393Y36900000D01*
X3294508Y36900000D01*
X3295419Y36894248D01*
X3313442Y36780451D01*
X3313443Y36780448D01*
X3314354Y36774696D01*
X3316999Y36769505D01*
X3317000Y36769502D01*
X3369304Y36666850D01*
X3369306Y36666848D01*
X3371950Y36661658D01*
X3461658Y36571950D01*
X3466848Y36569306D01*
X3466850Y36569304D01*
X3569502Y36517000D01*
X3569505Y36516999D01*
X3574696Y36514354D01*
X3580448Y36513443D01*
X3580451Y36513442D01*
X3694248Y36495419D01*
X3700000Y36494508D01*
X3705752Y36495419D01*
X3819549Y36513442D01*
X3819552Y36513443D01*
X3825304Y36514354D01*
X3830495Y36516999D01*
X3830498Y36517000D01*
X3933150Y36569304D01*
X3933152Y36569306D01*
X3938342Y36571950D01*
X4028050Y36661658D01*
X4030694Y36666848D01*
X4030696Y36666850D01*
X4083000Y36769502D01*
X4083001Y36769505D01*
X4085646Y36774696D01*
X4086557Y36780448D01*
X4086558Y36780451D01*
X4104581Y36894248D01*
X4105492Y36900000D01*
X4104386Y36906981D01*
X4104581Y36907984D01*
X4104581Y36911576D01*
X4105279Y36911576D01*
X4114041Y36956670D01*
X4125148Y36970888D01*
X4282087Y37127826D01*
X4327964Y37149218D01*
X4334413Y37149500D01*
X7153456Y37149500D01*
X7201022Y37132187D01*
X7205782Y37127826D01*
X7261658Y37071950D01*
X7266848Y37069306D01*
X7266850Y37069304D01*
X7369502Y37017000D01*
X7369505Y37016999D01*
X7374696Y37014354D01*
X7380448Y37013443D01*
X7380451Y37013442D01*
X7494248Y36995419D01*
X7500000Y36994508D01*
X7505752Y36995419D01*
X7619549Y37013442D01*
X7619552Y37013443D01*
X7625304Y37014354D01*
X7630495Y37016999D01*
X7630498Y37017000D01*
X7733150Y37069304D01*
X7733152Y37069306D01*
X7738342Y37071950D01*
X7828050Y37161658D01*
X7830694Y37166848D01*
X7830696Y37166850D01*
X7883000Y37269502D01*
X7883001Y37269505D01*
X7885646Y37274696D01*
X7886557Y37280448D01*
X7886558Y37280451D01*
X7904581Y37394248D01*
X7905492Y37400000D01*
X7904581Y37405752D01*
X7886558Y37519549D01*
X7886557Y37519552D01*
X7885646Y37525304D01*
X7870755Y37554530D01*
X7830696Y37633150D01*
X7830694Y37633152D01*
X7828050Y37638342D01*
X7738342Y37728050D01*
X7733152Y37730694D01*
X7733150Y37730696D01*
X7630498Y37783000D01*
X7630495Y37783001D01*
X7625304Y37785646D01*
X7619552Y37786557D01*
X7619549Y37786558D01*
X7505752Y37804581D01*
X7500000Y37805492D01*
X7494248Y37804581D01*
X7380451Y37786558D01*
X7380448Y37786557D01*
X7374696Y37785646D01*
X7369505Y37783001D01*
X7369502Y37783000D01*
X7266850Y37730696D01*
X7266848Y37730694D01*
X7261658Y37728050D01*
X7205782Y37672174D01*
X7159906Y37650782D01*
X7153456Y37650500D01*
X4231966Y37650500D01*
X4217531Y37651922D01*
X4200000Y37655409D01*
X4192852Y37653987D01*
X4109407Y37637388D01*
X4109406Y37637387D01*
X4102260Y37635966D01*
X4083551Y37623465D01*
X4019399Y37580601D01*
X4015350Y37574541D01*
X4009472Y37565744D01*
X4000269Y37554530D01*
X3770888Y37325148D01*
X3725012Y37303756D01*
X3706984Y37304386D01*
X3700000Y37305492D01*
X3694248Y37304581D01*
X3580451Y37286558D01*
X3580448Y37286557D01*
X3574696Y37285646D01*
X3569505Y37283001D01*
X3569502Y37283000D01*
X3466850Y37230696D01*
X3466848Y37230694D01*
X3461658Y37228050D01*
X3371950Y37138342D01*
X3369306Y37133152D01*
X3369304Y37133150D01*
X3340220Y37076069D01*
X3314354Y37025304D01*
X3313443Y37019552D01*
X3313442Y37019549D01*
X3295419Y36905752D01*
X3294508Y36900000D01*
X-16692393Y36900000D01*
X-16692393Y38800000D01*
X4394508Y38800000D01*
X4395419Y38794248D01*
X4413442Y38680451D01*
X4413443Y38680448D01*
X4414354Y38674696D01*
X4416999Y38669505D01*
X4417000Y38669502D01*
X4469304Y38566850D01*
X4469306Y38566848D01*
X4471950Y38561658D01*
X4561658Y38471950D01*
X4566848Y38469306D01*
X4566850Y38469304D01*
X4669502Y38417000D01*
X4669505Y38416999D01*
X4674696Y38414354D01*
X4680448Y38413443D01*
X4680451Y38413442D01*
X4794248Y38395419D01*
X4800000Y38394508D01*
X4805752Y38395419D01*
X4919549Y38413442D01*
X4919552Y38413443D01*
X4925304Y38414354D01*
X4930495Y38416999D01*
X4930498Y38417000D01*
X5033150Y38469304D01*
X5033152Y38469306D01*
X5038342Y38471950D01*
X5066392Y38500000D01*
X7894508Y38500000D01*
X7895419Y38494248D01*
X7913442Y38380451D01*
X7913443Y38380448D01*
X7914354Y38374696D01*
X7916999Y38369505D01*
X7917000Y38369502D01*
X7969304Y38266850D01*
X7969306Y38266848D01*
X7971950Y38261658D01*
X8061658Y38171950D01*
X8066848Y38169306D01*
X8066850Y38169304D01*
X8169502Y38117000D01*
X8169505Y38116999D01*
X8174696Y38114354D01*
X8180448Y38113443D01*
X8180451Y38113442D01*
X8294248Y38095419D01*
X8300000Y38094508D01*
X8305752Y38095419D01*
X8419549Y38113442D01*
X8419552Y38113443D01*
X8425304Y38114354D01*
X8430495Y38116999D01*
X8430498Y38117000D01*
X8533150Y38169304D01*
X8533152Y38169306D01*
X8538342Y38171950D01*
X8628050Y38261658D01*
X8630694Y38266848D01*
X8630696Y38266850D01*
X8683000Y38369502D01*
X8683001Y38369505D01*
X8685646Y38374696D01*
X8686557Y38380448D01*
X8686558Y38380451D01*
X8704581Y38494248D01*
X8705492Y38500000D01*
X8699157Y38540000D01*
X8884508Y38540000D01*
X8885419Y38534248D01*
X8903442Y38420451D01*
X8903443Y38420448D01*
X8904354Y38414696D01*
X8906999Y38409505D01*
X8907000Y38409502D01*
X8959304Y38306850D01*
X8959306Y38306848D01*
X8961950Y38301658D01*
X9051658Y38211950D01*
X9056848Y38209306D01*
X9056850Y38209304D01*
X9159502Y38157000D01*
X9159505Y38156999D01*
X9164696Y38154354D01*
X9170448Y38153443D01*
X9170451Y38153442D01*
X9284248Y38135419D01*
X9290000Y38134508D01*
X9295752Y38135419D01*
X9409549Y38153442D01*
X9409552Y38153443D01*
X9415304Y38154354D01*
X9420495Y38156999D01*
X9420498Y38157000D01*
X9523150Y38209304D01*
X9523152Y38209306D01*
X9528342Y38211950D01*
X9618050Y38301658D01*
X9620694Y38306848D01*
X9620696Y38306850D01*
X9673000Y38409502D01*
X9673001Y38409505D01*
X9675646Y38414696D01*
X9676557Y38420448D01*
X9676558Y38420451D01*
X9694581Y38534248D01*
X9695492Y38540000D01*
X9692062Y38561658D01*
X9676558Y38659549D01*
X9676557Y38659552D01*
X9675646Y38665304D01*
X9670161Y38676069D01*
X9620696Y38773150D01*
X9620694Y38773152D01*
X9618050Y38778342D01*
X9528342Y38868050D01*
X9523152Y38870694D01*
X9523150Y38870696D01*
X9420498Y38923000D01*
X9420495Y38923001D01*
X9415304Y38925646D01*
X9409552Y38926557D01*
X9409549Y38926558D01*
X9295752Y38944581D01*
X9290000Y38945492D01*
X9284248Y38944581D01*
X9170451Y38926558D01*
X9170448Y38926557D01*
X9164696Y38925646D01*
X9159505Y38923001D01*
X9159502Y38923000D01*
X9056850Y38870696D01*
X9056848Y38870694D01*
X9051658Y38868050D01*
X8961950Y38778342D01*
X8959306Y38773152D01*
X8959304Y38773150D01*
X8909839Y38676069D01*
X8904354Y38665304D01*
X8903443Y38659552D01*
X8903442Y38659549D01*
X8887938Y38561658D01*
X8884508Y38540000D01*
X8699157Y38540000D01*
X8696379Y38557539D01*
X8686558Y38619549D01*
X8686557Y38619552D01*
X8685646Y38625304D01*
X8683000Y38630498D01*
X8630696Y38733150D01*
X8630694Y38733152D01*
X8628050Y38738342D01*
X8538342Y38828050D01*
X8533152Y38830694D01*
X8533150Y38830696D01*
X8430498Y38883000D01*
X8430495Y38883001D01*
X8425304Y38885646D01*
X8419552Y38886557D01*
X8419549Y38886558D01*
X8305752Y38904581D01*
X8300000Y38905492D01*
X8294248Y38904581D01*
X8180451Y38886558D01*
X8180448Y38886557D01*
X8174696Y38885646D01*
X8169505Y38883001D01*
X8169502Y38883000D01*
X8066850Y38830696D01*
X8066848Y38830694D01*
X8061658Y38828050D01*
X7971950Y38738342D01*
X7969306Y38733152D01*
X7969304Y38733150D01*
X7917000Y38630498D01*
X7914354Y38625304D01*
X7913443Y38619552D01*
X7913442Y38619549D01*
X7903621Y38557539D01*
X7894508Y38500000D01*
X5066392Y38500000D01*
X5128050Y38561658D01*
X5130694Y38566848D01*
X5130696Y38566850D01*
X5183000Y38669502D01*
X5183001Y38669505D01*
X5185646Y38674696D01*
X5186557Y38680448D01*
X5186558Y38680451D01*
X5204581Y38794248D01*
X5205492Y38800000D01*
X5200630Y38830696D01*
X5186558Y38919549D01*
X5186557Y38919552D01*
X5185646Y38925304D01*
X5175360Y38945492D01*
X5147587Y39000000D01*
X12294508Y39000000D01*
X12295419Y38994248D01*
X12313442Y38880451D01*
X12313443Y38880448D01*
X12314354Y38874696D01*
X12316999Y38869505D01*
X12317000Y38869502D01*
X12369304Y38766850D01*
X12369306Y38766848D01*
X12371950Y38761658D01*
X12461658Y38671950D01*
X12466848Y38669306D01*
X12466850Y38669304D01*
X12569502Y38617000D01*
X12569505Y38616999D01*
X12574696Y38614354D01*
X12580448Y38613443D01*
X12580451Y38613442D01*
X12694248Y38595419D01*
X12700000Y38594508D01*
X12705752Y38595419D01*
X12819549Y38613442D01*
X12819552Y38613443D01*
X12825304Y38614354D01*
X12830495Y38616999D01*
X12830498Y38617000D01*
X12933150Y38669304D01*
X12933152Y38669306D01*
X12938342Y38671950D01*
X13028050Y38761658D01*
X13030694Y38766848D01*
X13030696Y38766850D01*
X13083000Y38869502D01*
X13083001Y38869505D01*
X13085646Y38874696D01*
X13086557Y38880448D01*
X13086558Y38880451D01*
X13104581Y38994248D01*
X13105492Y39000000D01*
X13098767Y39042461D01*
X13086558Y39119549D01*
X13086557Y39119552D01*
X13085646Y39125304D01*
X13082899Y39130696D01*
X13030696Y39233150D01*
X13030694Y39233152D01*
X13028050Y39238342D01*
X12938342Y39328050D01*
X12933152Y39330694D01*
X12933150Y39330696D01*
X12830498Y39383000D01*
X12830495Y39383001D01*
X12825304Y39385646D01*
X12819552Y39386557D01*
X12819549Y39386558D01*
X12705752Y39404581D01*
X12700000Y39405492D01*
X12694248Y39404581D01*
X12580451Y39386558D01*
X12580448Y39386557D01*
X12574696Y39385646D01*
X12569505Y39383001D01*
X12569502Y39383000D01*
X12466850Y39330696D01*
X12466848Y39330694D01*
X12461658Y39328050D01*
X12371950Y39238342D01*
X12369306Y39233152D01*
X12369304Y39233150D01*
X12317101Y39130696D01*
X12314354Y39125304D01*
X12313443Y39119552D01*
X12313442Y39119549D01*
X12301233Y39042461D01*
X12294508Y39000000D01*
X5147587Y39000000D01*
X5130696Y39033150D01*
X5130694Y39033152D01*
X5128050Y39038342D01*
X5038342Y39128050D01*
X5033152Y39130694D01*
X5033150Y39130696D01*
X4930498Y39183000D01*
X4930495Y39183001D01*
X4925304Y39185646D01*
X4919552Y39186557D01*
X4919549Y39186558D01*
X4805752Y39204581D01*
X4800000Y39205492D01*
X4794248Y39204581D01*
X4680451Y39186558D01*
X4680448Y39186557D01*
X4674696Y39185646D01*
X4669505Y39183001D01*
X4669502Y39183000D01*
X4566850Y39130696D01*
X4566848Y39130694D01*
X4561658Y39128050D01*
X4471950Y39038342D01*
X4469306Y39033152D01*
X4469304Y39033150D01*
X4424640Y38945492D01*
X4414354Y38925304D01*
X4413443Y38919552D01*
X4413442Y38919549D01*
X4399370Y38830696D01*
X4394508Y38800000D01*
X-16692393Y38800000D01*
X-16692393Y40125000D01*
X-14055492Y40125000D01*
X-14054581Y40119248D01*
X-14036558Y40005451D01*
X-14036557Y40005448D01*
X-14035646Y39999696D01*
X-14033001Y39994505D01*
X-14033000Y39994502D01*
X-13980696Y39891850D01*
X-13980694Y39891848D01*
X-13978050Y39886658D01*
X-13888342Y39796950D01*
X-13883152Y39794306D01*
X-13883150Y39794304D01*
X-13780498Y39742000D01*
X-13780495Y39741999D01*
X-13775304Y39739354D01*
X-13769552Y39738443D01*
X-13769549Y39738442D01*
X-13655752Y39720419D01*
X-13650000Y39719508D01*
X-13644248Y39720419D01*
X-13530451Y39738442D01*
X-13530448Y39738443D01*
X-13524696Y39739354D01*
X-13519505Y39741999D01*
X-13519502Y39742000D01*
X-13416850Y39794304D01*
X-13416848Y39794306D01*
X-13411658Y39796950D01*
X-13408608Y39800000D01*
X4394508Y39800000D01*
X4395419Y39794248D01*
X4413442Y39680451D01*
X4413443Y39680448D01*
X4414354Y39674696D01*
X4416999Y39669505D01*
X4417000Y39669502D01*
X4469304Y39566850D01*
X4469306Y39566848D01*
X4471950Y39561658D01*
X4561658Y39471950D01*
X4566848Y39469306D01*
X4566850Y39469304D01*
X4669502Y39417000D01*
X4669505Y39416999D01*
X4674696Y39414354D01*
X4680448Y39413443D01*
X4680451Y39413442D01*
X4794248Y39395419D01*
X4800000Y39394508D01*
X4805752Y39395419D01*
X4919549Y39413442D01*
X4919552Y39413443D01*
X4925304Y39414354D01*
X4930495Y39416999D01*
X4930498Y39417000D01*
X5033150Y39469304D01*
X5033152Y39469306D01*
X5038342Y39471950D01*
X5128050Y39561658D01*
X5130694Y39566848D01*
X5130696Y39566850D01*
X5183000Y39669502D01*
X5183001Y39669505D01*
X5185646Y39674696D01*
X5186557Y39680448D01*
X5186558Y39680451D01*
X5204581Y39794248D01*
X5205492Y39800000D01*
X5204581Y39805752D01*
X5186558Y39919549D01*
X5186557Y39919552D01*
X5185646Y39925304D01*
X5150388Y39994502D01*
X5130696Y40033150D01*
X5130694Y40033152D01*
X5128050Y40038342D01*
X5038342Y40128050D01*
X5033152Y40130694D01*
X5033150Y40130696D01*
X4930498Y40183000D01*
X4930495Y40183001D01*
X4925304Y40185646D01*
X4919552Y40186557D01*
X4919549Y40186558D01*
X4805752Y40204581D01*
X4800000Y40205492D01*
X4794248Y40204581D01*
X4680451Y40186558D01*
X4680448Y40186557D01*
X4674696Y40185646D01*
X4669505Y40183001D01*
X4669502Y40183000D01*
X4566850Y40130696D01*
X4566848Y40130694D01*
X4561658Y40128050D01*
X4471950Y40038342D01*
X4469306Y40033152D01*
X4469304Y40033150D01*
X4449612Y39994502D01*
X4414354Y39925304D01*
X4413443Y39919552D01*
X4413442Y39919549D01*
X4395419Y39805752D01*
X4394508Y39800000D01*
X-13408608Y39800000D01*
X-13321950Y39886658D01*
X-13319306Y39891848D01*
X-13319304Y39891850D01*
X-13267000Y39994502D01*
X-13266999Y39994505D01*
X-13264354Y39999696D01*
X-13263443Y40005448D01*
X-13263442Y40005451D01*
X-13245419Y40119248D01*
X-13244508Y40125000D01*
X-13254113Y40185646D01*
X-13263442Y40244549D01*
X-13263443Y40244552D01*
X-13264354Y40250304D01*
X-13283549Y40287976D01*
X-13289718Y40338217D01*
X-13262150Y40380670D01*
X-13213742Y40395470D01*
X-13165289Y40373897D01*
X-13138342Y40346950D01*
X-13133152Y40344306D01*
X-13133150Y40344304D01*
X-13030498Y40292000D01*
X-13030495Y40291999D01*
X-13025304Y40289354D01*
X-13019552Y40288443D01*
X-13019549Y40288442D01*
X-12905752Y40270419D01*
X-12900000Y40269508D01*
X-12894248Y40270419D01*
X-12780451Y40288442D01*
X-12780448Y40288443D01*
X-12774696Y40289354D01*
X-12769505Y40291999D01*
X-12769502Y40292000D01*
X-12666850Y40344304D01*
X-12666848Y40344306D01*
X-12661658Y40346950D01*
X-12571950Y40436658D01*
X-12569306Y40441848D01*
X-12569304Y40441850D01*
X-12517000Y40544502D01*
X-12516999Y40544505D01*
X-12514354Y40549696D01*
X-12513443Y40555448D01*
X-12513442Y40555451D01*
X-12495419Y40669248D01*
X-12494508Y40675000D01*
X-9505492Y40675000D01*
X-9504581Y40669248D01*
X-9486558Y40555451D01*
X-9486557Y40555448D01*
X-9485646Y40549696D01*
X-9483001Y40544505D01*
X-9483000Y40544502D01*
X-9430696Y40441850D01*
X-9430694Y40441848D01*
X-9428050Y40436658D01*
X-9338342Y40346950D01*
X-9333152Y40344306D01*
X-9333150Y40344304D01*
X-9230498Y40292000D01*
X-9230495Y40291999D01*
X-9225304Y40289354D01*
X-9219552Y40288443D01*
X-9219549Y40288442D01*
X-9105752Y40270419D01*
X-9100000Y40269508D01*
X-9094248Y40270419D01*
X-8980451Y40288442D01*
X-8980448Y40288443D01*
X-8974696Y40289354D01*
X-8969505Y40291999D01*
X-8969502Y40292000D01*
X-8866850Y40344304D01*
X-8866848Y40344306D01*
X-8861658Y40346950D01*
X-8771950Y40436658D01*
X-8769306Y40441848D01*
X-8769304Y40441850D01*
X-8717000Y40544502D01*
X-8716999Y40544505D01*
X-8714354Y40549696D01*
X-8713443Y40555448D01*
X-8713442Y40555451D01*
X-8695419Y40669248D01*
X-8694508Y40675000D01*
X-7005492Y40675000D01*
X-7004581Y40669248D01*
X-6986558Y40555451D01*
X-6986557Y40555448D01*
X-6985646Y40549696D01*
X-6983001Y40544505D01*
X-6983000Y40544502D01*
X-6930696Y40441850D01*
X-6930694Y40441848D01*
X-6928050Y40436658D01*
X-6838342Y40346950D01*
X-6833152Y40344306D01*
X-6833150Y40344304D01*
X-6730498Y40292000D01*
X-6730495Y40291999D01*
X-6725304Y40289354D01*
X-6719552Y40288443D01*
X-6719549Y40288442D01*
X-6605752Y40270419D01*
X-6600000Y40269508D01*
X-6594248Y40270419D01*
X-6480451Y40288442D01*
X-6480448Y40288443D01*
X-6474696Y40289354D01*
X-6469505Y40291999D01*
X-6469502Y40292000D01*
X-6366850Y40344304D01*
X-6366848Y40344306D01*
X-6361658Y40346950D01*
X-6271950Y40436658D01*
X-6269306Y40441848D01*
X-6269304Y40441850D01*
X-6217000Y40544502D01*
X-6216999Y40544505D01*
X-6214354Y40549696D01*
X-6213443Y40555448D01*
X-6213442Y40555451D01*
X-6195419Y40669248D01*
X-6194508Y40675000D01*
X-5705492Y40675000D01*
X-5704581Y40669248D01*
X-5686558Y40555451D01*
X-5686557Y40555448D01*
X-5685646Y40549696D01*
X-5683001Y40544505D01*
X-5683000Y40544502D01*
X-5630696Y40441850D01*
X-5630694Y40441848D01*
X-5628050Y40436658D01*
X-5538342Y40346950D01*
X-5533152Y40344306D01*
X-5533150Y40344304D01*
X-5430498Y40292000D01*
X-5430495Y40291999D01*
X-5425304Y40289354D01*
X-5419552Y40288443D01*
X-5419549Y40288442D01*
X-5305752Y40270419D01*
X-5300000Y40269508D01*
X-5294248Y40270419D01*
X-5180451Y40288442D01*
X-5180448Y40288443D01*
X-5174696Y40289354D01*
X-5169505Y40291999D01*
X-5169502Y40292000D01*
X-5066850Y40344304D01*
X-5066848Y40344306D01*
X-5061658Y40346950D01*
X-4971950Y40436658D01*
X-4969306Y40441848D01*
X-4969304Y40441850D01*
X-4965151Y40450000D01*
X5944508Y40450000D01*
X5945419Y40444248D01*
X5963442Y40330451D01*
X5963443Y40330448D01*
X5964354Y40324696D01*
X5966999Y40319505D01*
X5967000Y40319502D01*
X6019304Y40216850D01*
X6019306Y40216848D01*
X6021950Y40211658D01*
X6111658Y40121950D01*
X6116848Y40119306D01*
X6116850Y40119304D01*
X6219502Y40067000D01*
X6219505Y40066999D01*
X6224696Y40064354D01*
X6230448Y40063443D01*
X6230451Y40063442D01*
X6344248Y40045419D01*
X6350000Y40044508D01*
X6355752Y40045419D01*
X6469549Y40063442D01*
X6469552Y40063443D01*
X6475304Y40064354D01*
X6480495Y40066999D01*
X6480498Y40067000D01*
X6583150Y40119304D01*
X6583152Y40119306D01*
X6588342Y40121950D01*
X6678050Y40211658D01*
X6680694Y40216848D01*
X6680696Y40216850D01*
X6733000Y40319502D01*
X6733001Y40319505D01*
X6735646Y40324696D01*
X6736557Y40330448D01*
X6736558Y40330451D01*
X6754581Y40444248D01*
X6755492Y40450000D01*
X6745887Y40510646D01*
X6736558Y40569549D01*
X6736557Y40569552D01*
X6735646Y40575304D01*
X6687779Y40669248D01*
X6680696Y40683150D01*
X6680694Y40683152D01*
X6678050Y40688342D01*
X6666392Y40700000D01*
X8194508Y40700000D01*
X8195419Y40694248D01*
X8213442Y40580451D01*
X8213443Y40580448D01*
X8214354Y40574696D01*
X8216999Y40569505D01*
X8217000Y40569502D01*
X8269304Y40466850D01*
X8269306Y40466848D01*
X8271950Y40461658D01*
X8361658Y40371950D01*
X8366848Y40369306D01*
X8366850Y40369304D01*
X8469502Y40317000D01*
X8469505Y40316999D01*
X8474696Y40314354D01*
X8480448Y40313443D01*
X8480451Y40313442D01*
X8594248Y40295419D01*
X8600000Y40294508D01*
X8605752Y40295419D01*
X8719549Y40313442D01*
X8719552Y40313443D01*
X8725304Y40314354D01*
X8730495Y40316999D01*
X8730498Y40317000D01*
X8833150Y40369304D01*
X8833152Y40369306D01*
X8838342Y40371950D01*
X8928050Y40461658D01*
X8930694Y40466848D01*
X8930696Y40466850D01*
X8983000Y40569502D01*
X8983001Y40569505D01*
X8985646Y40574696D01*
X8986557Y40580448D01*
X8986558Y40580451D01*
X9004581Y40694248D01*
X9005492Y40700000D01*
X10494508Y40700000D01*
X10495419Y40694248D01*
X10513442Y40580451D01*
X10513443Y40580448D01*
X10514354Y40574696D01*
X10516999Y40569505D01*
X10517000Y40569502D01*
X10569304Y40466850D01*
X10569306Y40466848D01*
X10571950Y40461658D01*
X10661658Y40371950D01*
X10666848Y40369306D01*
X10666850Y40369304D01*
X10769502Y40317000D01*
X10769505Y40316999D01*
X10774696Y40314354D01*
X10780448Y40313443D01*
X10780451Y40313442D01*
X10894248Y40295419D01*
X10900000Y40294508D01*
X10905752Y40295419D01*
X11019549Y40313442D01*
X11019552Y40313443D01*
X11025304Y40314354D01*
X11030495Y40316999D01*
X11030498Y40317000D01*
X11133150Y40369304D01*
X11133152Y40369306D01*
X11138342Y40371950D01*
X11228050Y40461658D01*
X11230694Y40466848D01*
X11230696Y40466850D01*
X11283000Y40569502D01*
X11283001Y40569505D01*
X11285646Y40574696D01*
X11286557Y40580448D01*
X11286558Y40580451D01*
X11304581Y40694248D01*
X11305492Y40700000D01*
X11494508Y40700000D01*
X11495419Y40694248D01*
X11513442Y40580451D01*
X11513443Y40580448D01*
X11514354Y40574696D01*
X11516999Y40569505D01*
X11517000Y40569502D01*
X11569304Y40466850D01*
X11569306Y40466848D01*
X11571950Y40461658D01*
X11661658Y40371950D01*
X11666848Y40369306D01*
X11666850Y40369304D01*
X11769502Y40317000D01*
X11769505Y40316999D01*
X11774696Y40314354D01*
X11780448Y40313443D01*
X11780451Y40313442D01*
X11894248Y40295419D01*
X11900000Y40294508D01*
X11905752Y40295419D01*
X12019549Y40313442D01*
X12019552Y40313443D01*
X12025304Y40314354D01*
X12030495Y40316999D01*
X12030498Y40317000D01*
X12133150Y40369304D01*
X12133152Y40369306D01*
X12138342Y40371950D01*
X12228050Y40461658D01*
X12230694Y40466848D01*
X12230696Y40466850D01*
X12283000Y40569502D01*
X12283001Y40569505D01*
X12285646Y40574696D01*
X12286557Y40580448D01*
X12286558Y40580451D01*
X12304581Y40694248D01*
X12305492Y40700000D01*
X12293783Y40773931D01*
X12286558Y40819549D01*
X12286557Y40819552D01*
X12285646Y40825304D01*
X12281725Y40833000D01*
X12230696Y40933150D01*
X12230694Y40933152D01*
X12228050Y40938342D01*
X12138342Y41028050D01*
X12133152Y41030694D01*
X12133150Y41030696D01*
X12030498Y41083000D01*
X12030495Y41083001D01*
X12025304Y41085646D01*
X12019552Y41086557D01*
X12019549Y41086558D01*
X11905752Y41104581D01*
X11900000Y41105492D01*
X11894248Y41104581D01*
X11780451Y41086558D01*
X11780448Y41086557D01*
X11774696Y41085646D01*
X11769505Y41083001D01*
X11769502Y41083000D01*
X11666850Y41030696D01*
X11666848Y41030694D01*
X11661658Y41028050D01*
X11571950Y40938342D01*
X11569306Y40933152D01*
X11569304Y40933150D01*
X11518275Y40833000D01*
X11514354Y40825304D01*
X11513443Y40819552D01*
X11513442Y40819549D01*
X11506217Y40773931D01*
X11494508Y40700000D01*
X11305492Y40700000D01*
X11293783Y40773931D01*
X11286558Y40819549D01*
X11286557Y40819552D01*
X11285646Y40825304D01*
X11281725Y40833000D01*
X11230696Y40933150D01*
X11230694Y40933152D01*
X11228050Y40938342D01*
X11138342Y41028050D01*
X11133152Y41030694D01*
X11133150Y41030696D01*
X11030498Y41083000D01*
X11030495Y41083001D01*
X11025304Y41085646D01*
X11019552Y41086557D01*
X11019549Y41086558D01*
X10905752Y41104581D01*
X10900000Y41105492D01*
X10894248Y41104581D01*
X10780451Y41086558D01*
X10780448Y41086557D01*
X10774696Y41085646D01*
X10769505Y41083001D01*
X10769502Y41083000D01*
X10666850Y41030696D01*
X10666848Y41030694D01*
X10661658Y41028050D01*
X10571950Y40938342D01*
X10569306Y40933152D01*
X10569304Y40933150D01*
X10518275Y40833000D01*
X10514354Y40825304D01*
X10513443Y40819552D01*
X10513442Y40819549D01*
X10506217Y40773931D01*
X10494508Y40700000D01*
X9005492Y40700000D01*
X8993783Y40773931D01*
X8986558Y40819549D01*
X8986557Y40819552D01*
X8985646Y40825304D01*
X8981725Y40833000D01*
X8930696Y40933150D01*
X8930694Y40933152D01*
X8928050Y40938342D01*
X8838342Y41028050D01*
X8833152Y41030694D01*
X8833150Y41030696D01*
X8730498Y41083000D01*
X8730495Y41083001D01*
X8725304Y41085646D01*
X8719552Y41086557D01*
X8719549Y41086558D01*
X8605752Y41104581D01*
X8600000Y41105492D01*
X8594248Y41104581D01*
X8480451Y41086558D01*
X8480448Y41086557D01*
X8474696Y41085646D01*
X8469505Y41083001D01*
X8469502Y41083000D01*
X8366850Y41030696D01*
X8366848Y41030694D01*
X8361658Y41028050D01*
X8271950Y40938342D01*
X8269306Y40933152D01*
X8269304Y40933150D01*
X8218275Y40833000D01*
X8214354Y40825304D01*
X8213443Y40819552D01*
X8213442Y40819549D01*
X8206217Y40773931D01*
X8194508Y40700000D01*
X6666392Y40700000D01*
X6588342Y40778050D01*
X6583152Y40780694D01*
X6583150Y40780696D01*
X6480498Y40833000D01*
X6480495Y40833001D01*
X6475304Y40835646D01*
X6469552Y40836557D01*
X6469549Y40836558D01*
X6355752Y40854581D01*
X6350000Y40855492D01*
X6344248Y40854581D01*
X6230451Y40836558D01*
X6230448Y40836557D01*
X6224696Y40835646D01*
X6219505Y40833001D01*
X6219502Y40833000D01*
X6116850Y40780696D01*
X6116848Y40780694D01*
X6111658Y40778050D01*
X6021950Y40688342D01*
X6019306Y40683152D01*
X6019304Y40683150D01*
X6012221Y40669248D01*
X5964354Y40575304D01*
X5963443Y40569552D01*
X5963442Y40569549D01*
X5954113Y40510646D01*
X5944508Y40450000D01*
X-4965151Y40450000D01*
X-4917000Y40544502D01*
X-4916999Y40544505D01*
X-4914354Y40549696D01*
X-4913443Y40555448D01*
X-4913442Y40555451D01*
X-4895419Y40669248D01*
X-4894508Y40675000D01*
X-4896621Y40688342D01*
X-4913442Y40794549D01*
X-4913443Y40794552D01*
X-4914354Y40800304D01*
X-4917000Y40805498D01*
X-4969304Y40908150D01*
X-4969306Y40908152D01*
X-4971950Y40913342D01*
X-5061658Y41003050D01*
X-5066848Y41005694D01*
X-5066850Y41005696D01*
X-5169502Y41058000D01*
X-5169505Y41058001D01*
X-5174696Y41060646D01*
X-5180448Y41061557D01*
X-5180451Y41061558D01*
X-5294248Y41079581D01*
X-5300000Y41080492D01*
X-5305752Y41079581D01*
X-5419549Y41061558D01*
X-5419552Y41061557D01*
X-5425304Y41060646D01*
X-5430495Y41058001D01*
X-5430498Y41058000D01*
X-5533150Y41005696D01*
X-5533152Y41005694D01*
X-5538342Y41003050D01*
X-5628050Y40913342D01*
X-5630694Y40908152D01*
X-5630696Y40908150D01*
X-5683000Y40805498D01*
X-5685646Y40800304D01*
X-5686557Y40794552D01*
X-5686558Y40794549D01*
X-5703379Y40688342D01*
X-5705492Y40675000D01*
X-6194508Y40675000D01*
X-6196621Y40688342D01*
X-6213442Y40794549D01*
X-6213443Y40794552D01*
X-6214354Y40800304D01*
X-6217000Y40805498D01*
X-6269304Y40908150D01*
X-6269306Y40908152D01*
X-6271950Y40913342D01*
X-6361658Y41003050D01*
X-6366848Y41005694D01*
X-6366850Y41005696D01*
X-6469502Y41058000D01*
X-6469505Y41058001D01*
X-6474696Y41060646D01*
X-6480448Y41061557D01*
X-6480451Y41061558D01*
X-6594248Y41079581D01*
X-6600000Y41080492D01*
X-6605752Y41079581D01*
X-6719549Y41061558D01*
X-6719552Y41061557D01*
X-6725304Y41060646D01*
X-6730495Y41058001D01*
X-6730498Y41058000D01*
X-6833150Y41005696D01*
X-6833152Y41005694D01*
X-6838342Y41003050D01*
X-6928050Y40913342D01*
X-6930694Y40908152D01*
X-6930696Y40908150D01*
X-6983000Y40805498D01*
X-6985646Y40800304D01*
X-6986557Y40794552D01*
X-6986558Y40794549D01*
X-7003379Y40688342D01*
X-7005492Y40675000D01*
X-8694508Y40675000D01*
X-8696621Y40688342D01*
X-8713442Y40794549D01*
X-8713443Y40794552D01*
X-8714354Y40800304D01*
X-8717000Y40805498D01*
X-8769304Y40908150D01*
X-8769306Y40908152D01*
X-8771950Y40913342D01*
X-8861658Y41003050D01*
X-8866848Y41005694D01*
X-8866850Y41005696D01*
X-8969502Y41058000D01*
X-8969505Y41058001D01*
X-8974696Y41060646D01*
X-8980448Y41061557D01*
X-8980451Y41061558D01*
X-9094248Y41079581D01*
X-9100000Y41080492D01*
X-9105752Y41079581D01*
X-9219549Y41061558D01*
X-9219552Y41061557D01*
X-9225304Y41060646D01*
X-9230495Y41058001D01*
X-9230498Y41058000D01*
X-9333150Y41005696D01*
X-9333152Y41005694D01*
X-9338342Y41003050D01*
X-9428050Y40913342D01*
X-9430694Y40908152D01*
X-9430696Y40908150D01*
X-9483000Y40805498D01*
X-9485646Y40800304D01*
X-9486557Y40794552D01*
X-9486558Y40794549D01*
X-9503379Y40688342D01*
X-9505492Y40675000D01*
X-12494508Y40675000D01*
X-12496621Y40688342D01*
X-12513442Y40794549D01*
X-12513443Y40794552D01*
X-12514354Y40800304D01*
X-12517000Y40805498D01*
X-12569304Y40908150D01*
X-12569306Y40908152D01*
X-12571950Y40913342D01*
X-12661658Y41003050D01*
X-12666848Y41005694D01*
X-12666850Y41005696D01*
X-12769502Y41058000D01*
X-12769505Y41058001D01*
X-12774696Y41060646D01*
X-12780448Y41061557D01*
X-12780451Y41061558D01*
X-12894248Y41079581D01*
X-12900000Y41080492D01*
X-12905752Y41079581D01*
X-13019549Y41061558D01*
X-13019552Y41061557D01*
X-13025304Y41060646D01*
X-13030495Y41058001D01*
X-13030498Y41058000D01*
X-13133150Y41005696D01*
X-13133152Y41005694D01*
X-13138342Y41003050D01*
X-13228050Y40913342D01*
X-13230694Y40908152D01*
X-13230696Y40908150D01*
X-13283000Y40805498D01*
X-13285646Y40800304D01*
X-13286557Y40794552D01*
X-13286558Y40794549D01*
X-13303379Y40688342D01*
X-13305492Y40675000D01*
X-13304581Y40669248D01*
X-13286558Y40555451D01*
X-13286557Y40555448D01*
X-13285646Y40549696D01*
X-13266451Y40512024D01*
X-13260282Y40461783D01*
X-13287850Y40419330D01*
X-13336258Y40404530D01*
X-13384711Y40426103D01*
X-13411658Y40453050D01*
X-13416848Y40455694D01*
X-13416850Y40455696D01*
X-13519502Y40508000D01*
X-13519505Y40508001D01*
X-13524696Y40510646D01*
X-13530448Y40511557D01*
X-13530451Y40511558D01*
X-13644248Y40529581D01*
X-13650000Y40530492D01*
X-13655752Y40529581D01*
X-13769549Y40511558D01*
X-13769552Y40511557D01*
X-13775304Y40510646D01*
X-13780495Y40508001D01*
X-13780498Y40508000D01*
X-13883150Y40455696D01*
X-13883152Y40455694D01*
X-13888342Y40453050D01*
X-13978050Y40363342D01*
X-13980694Y40358152D01*
X-13980696Y40358150D01*
X-14033000Y40255498D01*
X-14035646Y40250304D01*
X-14036557Y40244552D01*
X-14036558Y40244549D01*
X-14045887Y40185646D01*
X-14055492Y40125000D01*
X-16692393Y40125000D01*
X-16692393Y41300000D01*
X1644508Y41300000D01*
X1645419Y41294248D01*
X1663442Y41180451D01*
X1663443Y41180448D01*
X1664354Y41174696D01*
X1666999Y41169505D01*
X1667000Y41169502D01*
X1719304Y41066850D01*
X1719306Y41066848D01*
X1721950Y41061658D01*
X1811658Y40971950D01*
X1816848Y40969306D01*
X1816850Y40969304D01*
X1919502Y40917000D01*
X1919505Y40916999D01*
X1924696Y40914354D01*
X1930448Y40913443D01*
X1930451Y40913442D01*
X2044248Y40895419D01*
X2050000Y40894508D01*
X2055752Y40895419D01*
X2169549Y40913442D01*
X2169552Y40913443D01*
X2175304Y40914354D01*
X2180495Y40916999D01*
X2180498Y40917000D01*
X2283150Y40969304D01*
X2283152Y40969306D01*
X2288342Y40971950D01*
X2378050Y41061658D01*
X2380694Y41066848D01*
X2380696Y41066850D01*
X2433000Y41169502D01*
X2433001Y41169505D01*
X2435646Y41174696D01*
X2436557Y41180448D01*
X2436558Y41180451D01*
X2454581Y41294248D01*
X2455492Y41300000D01*
X2454581Y41305752D01*
X2436558Y41419549D01*
X2436557Y41419552D01*
X2435646Y41425304D01*
X2433000Y41430498D01*
X2380696Y41533150D01*
X2380694Y41533152D01*
X2378050Y41538342D01*
X2288342Y41628050D01*
X2283152Y41630694D01*
X2283150Y41630696D01*
X2180498Y41683000D01*
X2180495Y41683001D01*
X2175304Y41685646D01*
X2169552Y41686557D01*
X2169549Y41686558D01*
X2055752Y41704581D01*
X2050000Y41705492D01*
X2044248Y41704581D01*
X1930451Y41686558D01*
X1930448Y41686557D01*
X1924696Y41685646D01*
X1919505Y41683001D01*
X1919502Y41683000D01*
X1816850Y41630696D01*
X1816848Y41630694D01*
X1811658Y41628050D01*
X1721950Y41538342D01*
X1719306Y41533152D01*
X1719304Y41533150D01*
X1667000Y41430498D01*
X1664354Y41425304D01*
X1663443Y41419552D01*
X1663442Y41419549D01*
X1645419Y41305752D01*
X1644508Y41300000D01*
X-16692393Y41300000D01*
X-16692393Y42000000D01*
X8944508Y42000000D01*
X8945419Y41994248D01*
X8963442Y41880451D01*
X8963443Y41880448D01*
X8964354Y41874696D01*
X8966999Y41869505D01*
X8967000Y41869502D01*
X9019304Y41766850D01*
X9019306Y41766848D01*
X9021950Y41761658D01*
X9111658Y41671950D01*
X9116848Y41669306D01*
X9116850Y41669304D01*
X9219502Y41617000D01*
X9219505Y41616999D01*
X9224696Y41614354D01*
X9230448Y41613443D01*
X9230451Y41613442D01*
X9344248Y41595419D01*
X9350000Y41594508D01*
X9355752Y41595419D01*
X9469549Y41613442D01*
X9469552Y41613443D01*
X9475304Y41614354D01*
X9541407Y41648035D01*
X9591647Y41654203D01*
X9608591Y41648037D01*
X9674696Y41614354D01*
X9680448Y41613443D01*
X9680451Y41613442D01*
X9794248Y41595419D01*
X9800000Y41594508D01*
X9805752Y41595419D01*
X9919549Y41613442D01*
X9919552Y41613443D01*
X9925304Y41614354D01*
X9991407Y41648035D01*
X10041647Y41654203D01*
X10058591Y41648037D01*
X10124696Y41614354D01*
X10130448Y41613443D01*
X10130451Y41613442D01*
X10244248Y41595419D01*
X10250000Y41594508D01*
X10255752Y41595419D01*
X10369549Y41613442D01*
X10369552Y41613443D01*
X10375304Y41614354D01*
X10380495Y41616999D01*
X10380498Y41617000D01*
X10483150Y41669304D01*
X10483152Y41669306D01*
X10488342Y41671950D01*
X10578050Y41761658D01*
X10580694Y41766848D01*
X10580696Y41766850D01*
X10633000Y41869502D01*
X10633001Y41869505D01*
X10635646Y41874696D01*
X10636557Y41880448D01*
X10636558Y41880451D01*
X10654581Y41994248D01*
X10655492Y42000000D01*
X10654581Y42005752D01*
X10636558Y42119549D01*
X10636557Y42119552D01*
X10635646Y42125304D01*
X10633000Y42130498D01*
X10580696Y42233150D01*
X10580694Y42233152D01*
X10578050Y42238342D01*
X10488342Y42328050D01*
X10483152Y42330694D01*
X10483150Y42330696D01*
X10380498Y42383000D01*
X10380495Y42383001D01*
X10375304Y42385646D01*
X10369552Y42386557D01*
X10369549Y42386558D01*
X10255752Y42404581D01*
X10250000Y42405492D01*
X10244248Y42404581D01*
X10130451Y42386558D01*
X10130448Y42386557D01*
X10124696Y42385646D01*
X10058593Y42351965D01*
X10008353Y42345797D01*
X9991409Y42351963D01*
X9925304Y42385646D01*
X9919552Y42386557D01*
X9919549Y42386558D01*
X9805752Y42404581D01*
X9800000Y42405492D01*
X9794248Y42404581D01*
X9680451Y42386558D01*
X9680448Y42386557D01*
X9674696Y42385646D01*
X9608593Y42351965D01*
X9558353Y42345797D01*
X9541409Y42351963D01*
X9475304Y42385646D01*
X9469552Y42386557D01*
X9469549Y42386558D01*
X9355752Y42404581D01*
X9350000Y42405492D01*
X9344248Y42404581D01*
X9230451Y42386558D01*
X9230448Y42386557D01*
X9224696Y42385646D01*
X9219505Y42383001D01*
X9219502Y42383000D01*
X9116850Y42330696D01*
X9116848Y42330694D01*
X9111658Y42328050D01*
X9021950Y42238342D01*
X9019306Y42233152D01*
X9019304Y42233150D01*
X8967000Y42130498D01*
X8964354Y42125304D01*
X8963443Y42119552D01*
X8963442Y42119549D01*
X8945419Y42005752D01*
X8944508Y42000000D01*
X-16692393Y42000000D01*
X-16692393Y44047287D01*
X-14311463Y44047287D01*
X-14310552Y44041535D01*
X-14292529Y43927738D01*
X-14292528Y43927735D01*
X-14291617Y43921983D01*
X-14288972Y43916792D01*
X-14288971Y43916789D01*
X-14236667Y43814137D01*
X-14236665Y43814135D01*
X-14234021Y43808945D01*
X-14144313Y43719237D01*
X-14139123Y43716593D01*
X-14139121Y43716591D01*
X-14036469Y43664287D01*
X-14036466Y43664286D01*
X-14031275Y43661641D01*
X-14025523Y43660730D01*
X-14025520Y43660729D01*
X-13911723Y43642706D01*
X-13905971Y43641795D01*
X-13900219Y43642706D01*
X-13786422Y43660729D01*
X-13786419Y43660730D01*
X-13780667Y43661641D01*
X-13775476Y43664286D01*
X-13775473Y43664287D01*
X-13672821Y43716591D01*
X-13672819Y43716593D01*
X-13667629Y43719237D01*
X-13636866Y43750000D01*
X-1555492Y43750000D01*
X-1554581Y43744248D01*
X-1536558Y43630451D01*
X-1536557Y43630448D01*
X-1535646Y43624696D01*
X-1533001Y43619505D01*
X-1533000Y43619502D01*
X-1480696Y43516850D01*
X-1480694Y43516848D01*
X-1478050Y43511658D01*
X-1388342Y43421950D01*
X-1383152Y43419306D01*
X-1383150Y43419304D01*
X-1280498Y43367000D01*
X-1280495Y43366999D01*
X-1275304Y43364354D01*
X-1269552Y43363443D01*
X-1269549Y43363442D01*
X-1155752Y43345419D01*
X-1150000Y43344508D01*
X-1144248Y43345419D01*
X-1030451Y43363442D01*
X-1030448Y43363443D01*
X-1024696Y43364354D01*
X-1019505Y43366999D01*
X-1019502Y43367000D01*
X-916850Y43419304D01*
X-916848Y43419306D01*
X-911658Y43421950D01*
X-821950Y43511658D01*
X-819306Y43516848D01*
X-819304Y43516850D01*
X-767000Y43619502D01*
X-766999Y43619505D01*
X-764354Y43624696D01*
X-763443Y43630448D01*
X-763442Y43630451D01*
X-745419Y43744248D01*
X-744508Y43750000D01*
X-754666Y43814137D01*
X-763442Y43869549D01*
X-763443Y43869552D01*
X-764354Y43875304D01*
X-767000Y43880498D01*
X-819304Y43983150D01*
X-819306Y43983152D01*
X-821950Y43988342D01*
X-911658Y44078050D01*
X-916848Y44080694D01*
X-916850Y44080696D01*
X-1019502Y44133000D01*
X-1019505Y44133001D01*
X-1024696Y44135646D01*
X-1030448Y44136557D01*
X-1030451Y44136558D01*
X-1144248Y44154581D01*
X-1150000Y44155492D01*
X-1155752Y44154581D01*
X-1269549Y44136558D01*
X-1269552Y44136557D01*
X-1275304Y44135646D01*
X-1280495Y44133001D01*
X-1280498Y44133000D01*
X-1383150Y44080696D01*
X-1383152Y44080694D01*
X-1388342Y44078050D01*
X-1478050Y43988342D01*
X-1480694Y43983152D01*
X-1480696Y43983150D01*
X-1533000Y43880498D01*
X-1535646Y43875304D01*
X-1536557Y43869552D01*
X-1536558Y43869549D01*
X-1545334Y43814137D01*
X-1555492Y43750000D01*
X-13636866Y43750000D01*
X-13577921Y43808945D01*
X-13575277Y43814135D01*
X-13575275Y43814137D01*
X-13522971Y43916789D01*
X-13522970Y43916792D01*
X-13520325Y43921983D01*
X-13519414Y43927735D01*
X-13519413Y43927738D01*
X-13501390Y44041535D01*
X-13500479Y44047287D01*
X-13510674Y44111658D01*
X-13519413Y44166836D01*
X-13519414Y44166839D01*
X-13520325Y44172591D01*
X-13544227Y44219502D01*
X-13575275Y44280437D01*
X-13575277Y44280439D01*
X-13577921Y44285629D01*
X-13642292Y44350000D01*
X-655492Y44350000D01*
X-654581Y44344248D01*
X-636558Y44230451D01*
X-636557Y44230448D01*
X-635646Y44224696D01*
X-633001Y44219505D01*
X-633000Y44219502D01*
X-580696Y44116850D01*
X-580694Y44116848D01*
X-578050Y44111658D01*
X-488342Y44021950D01*
X-483152Y44019306D01*
X-483150Y44019304D01*
X-380498Y43967000D01*
X-380495Y43966999D01*
X-375304Y43964354D01*
X-369552Y43963443D01*
X-369549Y43963442D01*
X-255752Y43945419D01*
X-250000Y43944508D01*
X-244248Y43945419D01*
X-130451Y43963442D01*
X-130448Y43963443D01*
X-124696Y43964354D01*
X-119505Y43966999D01*
X-119502Y43967000D01*
X-16850Y44019304D01*
X-16848Y44019306D01*
X-11658Y44021950D01*
X78050Y44111658D01*
X80694Y44116848D01*
X80696Y44116850D01*
X133000Y44219502D01*
X133001Y44219505D01*
X135646Y44224696D01*
X136557Y44230448D01*
X136558Y44230451D01*
X154581Y44344248D01*
X155492Y44350000D01*
X154581Y44355752D01*
X136558Y44469549D01*
X136557Y44469552D01*
X135646Y44475304D01*
X133000Y44480498D01*
X80696Y44583150D01*
X80694Y44583152D01*
X78050Y44588342D01*
X-11658Y44678050D01*
X-16848Y44680694D01*
X-16850Y44680696D01*
X-119502Y44733000D01*
X-119505Y44733001D01*
X-124696Y44735646D01*
X-130448Y44736557D01*
X-130451Y44736558D01*
X-244248Y44754581D01*
X-250000Y44755492D01*
X-255752Y44754581D01*
X-369549Y44736558D01*
X-369552Y44736557D01*
X-375304Y44735646D01*
X-380495Y44733001D01*
X-380498Y44733000D01*
X-483150Y44680696D01*
X-483152Y44680694D01*
X-488342Y44678050D01*
X-578050Y44588342D01*
X-580694Y44583152D01*
X-580696Y44583150D01*
X-633000Y44480498D01*
X-635646Y44475304D01*
X-636557Y44469552D01*
X-636558Y44469549D01*
X-654581Y44355752D01*
X-655492Y44350000D01*
X-13642292Y44350000D01*
X-13667629Y44375337D01*
X-13672819Y44377981D01*
X-13672821Y44377983D01*
X-13775473Y44430287D01*
X-13775476Y44430288D01*
X-13780667Y44432933D01*
X-13786419Y44433844D01*
X-13786422Y44433845D01*
X-13900219Y44451868D01*
X-13905971Y44452779D01*
X-13911723Y44451868D01*
X-14025520Y44433845D01*
X-14025523Y44433844D01*
X-14031275Y44432933D01*
X-14036466Y44430288D01*
X-14036469Y44430287D01*
X-14139121Y44377983D01*
X-14139123Y44377981D01*
X-14144313Y44375337D01*
X-14234021Y44285629D01*
X-14236665Y44280439D01*
X-14236667Y44280437D01*
X-14267715Y44219502D01*
X-14291617Y44172591D01*
X-14292528Y44166839D01*
X-14292529Y44166836D01*
X-14301268Y44111658D01*
X-14311463Y44047287D01*
X-16692393Y44047287D01*
X-16692393Y45897287D01*
X-14311463Y45897287D01*
X-14310552Y45891535D01*
X-14292529Y45777738D01*
X-14292528Y45777735D01*
X-14291617Y45771983D01*
X-14288972Y45766792D01*
X-14288971Y45766789D01*
X-14236667Y45664137D01*
X-14236665Y45664135D01*
X-14234021Y45658945D01*
X-14144313Y45569237D01*
X-14139123Y45566593D01*
X-14139121Y45566591D01*
X-14036469Y45514287D01*
X-14036466Y45514286D01*
X-14031275Y45511641D01*
X-14025523Y45510730D01*
X-14025520Y45510729D01*
X-13911723Y45492706D01*
X-13905971Y45491795D01*
X-13900219Y45492706D01*
X-13786422Y45510729D01*
X-13786419Y45510730D01*
X-13780667Y45511641D01*
X-13775476Y45514286D01*
X-13775473Y45514287D01*
X-13672821Y45566591D01*
X-13672819Y45566593D01*
X-13667629Y45569237D01*
X-13577921Y45658945D01*
X-13575277Y45664135D01*
X-13575275Y45664137D01*
X-13522971Y45766789D01*
X-13522970Y45766792D01*
X-13520325Y45771983D01*
X-13519414Y45777735D01*
X-13519413Y45777738D01*
X-13501390Y45891535D01*
X-13500479Y45897287D01*
X-13501390Y45903039D01*
X-13519413Y46016836D01*
X-13519414Y46016839D01*
X-13520325Y46022591D01*
X-13522971Y46027785D01*
X-13575275Y46130437D01*
X-13575277Y46130439D01*
X-13577921Y46135629D01*
X-13667629Y46225337D01*
X-13672819Y46227981D01*
X-13672821Y46227983D01*
X-13775473Y46280287D01*
X-13775476Y46280288D01*
X-13780667Y46282933D01*
X-13786419Y46283844D01*
X-13786422Y46283845D01*
X-13900219Y46301868D01*
X-13905971Y46302779D01*
X-13911723Y46301868D01*
X-14025520Y46283845D01*
X-14025523Y46283844D01*
X-14031275Y46282933D01*
X-14036466Y46280288D01*
X-14036469Y46280287D01*
X-14139121Y46227983D01*
X-14139123Y46227981D01*
X-14144313Y46225337D01*
X-14234021Y46135629D01*
X-14236665Y46130439D01*
X-14236667Y46130437D01*
X-14288971Y46027785D01*
X-14291617Y46022591D01*
X-14292528Y46016839D01*
X-14292529Y46016836D01*
X-14310552Y45903039D01*
X-14311463Y45897287D01*
X-16692393Y45897287D01*
X-16692393Y49500000D01*
X-14305492Y49500000D01*
X-14304581Y49494248D01*
X-14286558Y49380451D01*
X-14286557Y49380448D01*
X-14285646Y49374696D01*
X-14283001Y49369505D01*
X-14283000Y49369502D01*
X-14230696Y49266850D01*
X-14230694Y49266848D01*
X-14228050Y49261658D01*
X-14138342Y49171950D01*
X-14133152Y49169306D01*
X-14133150Y49169304D01*
X-14030498Y49117000D01*
X-14030495Y49116999D01*
X-14025304Y49114354D01*
X-14019552Y49113443D01*
X-14019549Y49113442D01*
X-13905752Y49095419D01*
X-13900000Y49094508D01*
X-13894248Y49095419D01*
X-13780451Y49113442D01*
X-13780448Y49113443D01*
X-13774696Y49114354D01*
X-13769505Y49116999D01*
X-13769502Y49117000D01*
X-13666850Y49169304D01*
X-13666848Y49169306D01*
X-13661658Y49171950D01*
X-13571950Y49261658D01*
X-13569306Y49266848D01*
X-13569304Y49266850D01*
X-13517000Y49369502D01*
X-13516999Y49369505D01*
X-13514354Y49374696D01*
X-13513443Y49380448D01*
X-13513442Y49380451D01*
X-13495419Y49494248D01*
X-13494508Y49500000D01*
X-13495419Y49505752D01*
X-13513442Y49619549D01*
X-13513443Y49619552D01*
X-13514354Y49625304D01*
X-13517000Y49630498D01*
X-13569304Y49733150D01*
X-13569306Y49733152D01*
X-13571950Y49738342D01*
X-13661658Y49828050D01*
X-13666848Y49830694D01*
X-13666850Y49830696D01*
X-13769502Y49883000D01*
X-13769505Y49883001D01*
X-13774696Y49885646D01*
X-13780448Y49886557D01*
X-13780451Y49886558D01*
X-13894248Y49904581D01*
X-13900000Y49905492D01*
X-13905752Y49904581D01*
X-14019549Y49886558D01*
X-14019552Y49886557D01*
X-14025304Y49885646D01*
X-14030495Y49883001D01*
X-14030498Y49883000D01*
X-14133150Y49830696D01*
X-14133152Y49830694D01*
X-14138342Y49828050D01*
X-14228050Y49738342D01*
X-14230694Y49733152D01*
X-14230696Y49733150D01*
X-14283000Y49630498D01*
X-14285646Y49625304D01*
X-14286557Y49619552D01*
X-14286558Y49619549D01*
X-14304581Y49505752D01*
X-14305492Y49500000D01*
X-16692393Y49500000D01*
X-16692393Y50179210D01*
X-16675080Y50226776D01*
X-16631243Y50252086D01*
X-16584798Y50245144D01*
X-16480498Y50192000D01*
X-16480495Y50191999D01*
X-16475304Y50189354D01*
X-16469552Y50188443D01*
X-16469549Y50188442D01*
X-16355752Y50170419D01*
X-16350000Y50169508D01*
X-16344248Y50170419D01*
X-16230451Y50188442D01*
X-16230448Y50188443D01*
X-16224696Y50189354D01*
X-16219505Y50191999D01*
X-16219502Y50192000D01*
X-16116850Y50244304D01*
X-16116848Y50244306D01*
X-16111658Y50246950D01*
X-16021950Y50336658D01*
X-16019306Y50341848D01*
X-16019304Y50341850D01*
X-15967000Y50444502D01*
X-15966999Y50444505D01*
X-15964354Y50449696D01*
X-15963443Y50455448D01*
X-15963442Y50455451D01*
X-15945419Y50569248D01*
X-15944508Y50575000D01*
X-15945419Y50580752D01*
X-15963442Y50694549D01*
X-15963443Y50694552D01*
X-15964354Y50700304D01*
X-15967000Y50705498D01*
X-16019304Y50808150D01*
X-16019306Y50808152D01*
X-16021950Y50813342D01*
X-16040315Y50831707D01*
X-16061707Y50877583D01*
X-16048606Y50926478D01*
X-16007142Y50955512D01*
X-15975109Y50954671D01*
X-15974804Y50956599D01*
X-15849500Y50936753D01*
X-15843748Y50937664D01*
X-15729951Y50955687D01*
X-15729948Y50955688D01*
X-15724196Y50956599D01*
X-15719005Y50959244D01*
X-15719002Y50959245D01*
X-15616350Y51011549D01*
X-15616348Y51011551D01*
X-15611158Y51014195D01*
X-15521450Y51103903D01*
X-15518806Y51109093D01*
X-15518804Y51109095D01*
X-15466500Y51211747D01*
X-15466499Y51211750D01*
X-15463854Y51216941D01*
X-15462943Y51222693D01*
X-15462942Y51222696D01*
X-15444919Y51336493D01*
X-15444008Y51342245D01*
X-15449141Y51374655D01*
X-15462942Y51461794D01*
X-15462943Y51461797D01*
X-15463854Y51467549D01*
X-15466500Y51472743D01*
X-15518804Y51575395D01*
X-15518806Y51575397D01*
X-15521450Y51580587D01*
X-15611158Y51670295D01*
X-15616348Y51672939D01*
X-15616350Y51672941D01*
X-15719002Y51725245D01*
X-15719005Y51725246D01*
X-15724196Y51727891D01*
X-15729948Y51728802D01*
X-15729951Y51728803D01*
X-15843748Y51746826D01*
X-15849500Y51747737D01*
X-15855252Y51746826D01*
X-15969049Y51728803D01*
X-15969052Y51728802D01*
X-15974804Y51727891D01*
X-15979995Y51725246D01*
X-15979998Y51725245D01*
X-16082650Y51672941D01*
X-16082652Y51672939D01*
X-16087842Y51670295D01*
X-16177550Y51580587D01*
X-16180194Y51575397D01*
X-16180196Y51575395D01*
X-16232500Y51472743D01*
X-16235146Y51467549D01*
X-16236057Y51461797D01*
X-16236058Y51461794D01*
X-16249859Y51374655D01*
X-16254992Y51342245D01*
X-16254081Y51336493D01*
X-16236058Y51222696D01*
X-16236057Y51222693D01*
X-16235146Y51216941D01*
X-16232501Y51211750D01*
X-16232500Y51211747D01*
X-16180196Y51109095D01*
X-16180194Y51109093D01*
X-16177550Y51103903D01*
X-16159185Y51085538D01*
X-16137793Y51039662D01*
X-16150894Y50990767D01*
X-16192358Y50961733D01*
X-16224391Y50962574D01*
X-16224696Y50960646D01*
X-16344248Y50979581D01*
X-16350000Y50980492D01*
X-16355752Y50979581D01*
X-16469549Y50961558D01*
X-16469552Y50961557D01*
X-16475304Y50960646D01*
X-16480495Y50958001D01*
X-16480498Y50958000D01*
X-16584798Y50904856D01*
X-16635039Y50898687D01*
X-16677492Y50926256D01*
X-16692393Y50970790D01*
X-16692393Y52909346D01*
X-311867Y52909346D01*
X-276059Y52700953D01*
X-202873Y52502575D01*
X-94762Y52320856D01*
X-92531Y52318312D01*
X-92528Y52318308D01*
X-16208Y52231282D01*
X44655Y52161881D01*
X210708Y52030976D01*
X397836Y51932523D01*
X401075Y51931517D01*
X401078Y51931516D01*
X596533Y51870826D01*
X599773Y51869820D01*
X748235Y51852248D01*
X769283Y51849757D01*
X769284Y51849757D01*
X771455Y51849500D01*
X893641Y51849500D01*
X895325Y51849655D01*
X895331Y51849655D01*
X1047181Y51863608D01*
X1047186Y51863609D01*
X1050560Y51863919D01*
X1053823Y51864839D01*
X1053827Y51864840D01*
X1149097Y51891709D01*
X1254069Y51921314D01*
X1443710Y52014835D01*
X1446422Y52016860D01*
X1446425Y52016862D01*
X1610412Y52139317D01*
X1610413Y52139318D01*
X1613133Y52141349D01*
X1667990Y52200694D01*
X1754360Y52294127D01*
X1754363Y52294131D01*
X1756663Y52296619D01*
X1770348Y52318308D01*
X1867690Y52472585D01*
X1867691Y52472586D01*
X1869495Y52475446D01*
X1879156Y52499662D01*
X1946590Y52668686D01*
X1946591Y52668689D01*
X1947848Y52671840D01*
X1989099Y52879225D01*
X1990968Y53021950D01*
X1991823Y53087261D01*
X1991823Y53087266D01*
X1991867Y53090654D01*
X1956059Y53299047D01*
X1882873Y53497425D01*
X1774762Y53679144D01*
X1772531Y53681688D01*
X1772528Y53681692D01*
X1637580Y53835570D01*
X1635345Y53838119D01*
X1612465Y53856156D01*
X1471950Y53966929D01*
X1471947Y53966931D01*
X1469292Y53969024D01*
X1282164Y54067477D01*
X1278925Y54068483D01*
X1278922Y54068484D01*
X1083467Y54129174D01*
X1080227Y54130180D01*
X931765Y54147752D01*
X910717Y54150243D01*
X910716Y54150243D01*
X908545Y54150500D01*
X786359Y54150500D01*
X784675Y54150345D01*
X784669Y54150345D01*
X632819Y54136392D01*
X632814Y54136391D01*
X629440Y54136081D01*
X626177Y54135161D01*
X626173Y54135160D01*
X530903Y54108291D01*
X425931Y54078686D01*
X236290Y53985165D01*
X233578Y53983140D01*
X233575Y53983138D01*
X211869Y53966929D01*
X66867Y53858651D01*
X45531Y53835570D01*
X-74360Y53705873D01*
X-74363Y53705869D01*
X-76663Y53703381D01*
X-78472Y53700514D01*
X-152523Y53583150D01*
X-189495Y53524554D01*
X-190749Y53521412D01*
X-190750Y53521409D01*
X-201587Y53494244D01*
X-267848Y53328160D01*
X-309099Y53120775D01*
X-311867Y52909346D01*
X-16692393Y52909346D01*
X-16692393Y53350000D01*
X-16455492Y53350000D01*
X-16454581Y53344248D01*
X-16436558Y53230451D01*
X-16436557Y53230448D01*
X-16435646Y53224696D01*
X-16433001Y53219505D01*
X-16433000Y53219502D01*
X-16380696Y53116850D01*
X-16380694Y53116848D01*
X-16378050Y53111658D01*
X-16288342Y53021950D01*
X-16283152Y53019306D01*
X-16283150Y53019304D01*
X-16180498Y52967000D01*
X-16180495Y52966999D01*
X-16175304Y52964354D01*
X-16169552Y52963443D01*
X-16169549Y52963442D01*
X-16055752Y52945419D01*
X-16050000Y52944508D01*
X-16044248Y52945419D01*
X-15930451Y52963442D01*
X-15930448Y52963443D01*
X-15924696Y52964354D01*
X-15919505Y52966999D01*
X-15919502Y52967000D01*
X-15816850Y53019304D01*
X-15816848Y53019306D01*
X-15811658Y53021950D01*
X-15721950Y53111658D01*
X-15719306Y53116848D01*
X-15719304Y53116850D01*
X-15667000Y53219502D01*
X-15666999Y53219505D01*
X-15664354Y53224696D01*
X-15663443Y53230448D01*
X-15663442Y53230451D01*
X-15645419Y53344248D01*
X-15644508Y53350000D01*
X-15645419Y53355752D01*
X-15663442Y53469549D01*
X-15663443Y53469552D01*
X-15664354Y53475304D01*
X-15675625Y53497425D01*
X-15719304Y53583150D01*
X-15719306Y53583152D01*
X-15721950Y53588342D01*
X-15811658Y53678050D01*
X-15816848Y53680694D01*
X-15816850Y53680696D01*
X-15919502Y53733000D01*
X-15919505Y53733001D01*
X-15924696Y53735646D01*
X-15930448Y53736557D01*
X-15930451Y53736558D01*
X-16044248Y53754581D01*
X-16050000Y53755492D01*
X-16055752Y53754581D01*
X-16169549Y53736558D01*
X-16169552Y53736557D01*
X-16175304Y53735646D01*
X-16180495Y53733001D01*
X-16180498Y53733000D01*
X-16283150Y53680696D01*
X-16283152Y53680694D01*
X-16288342Y53678050D01*
X-16378050Y53588342D01*
X-16380694Y53583152D01*
X-16380696Y53583150D01*
X-16424375Y53497425D01*
X-16435646Y53475304D01*
X-16436557Y53469552D01*
X-16436558Y53469549D01*
X-16454581Y53355752D01*
X-16455492Y53350000D01*
X-16692393Y53350000D01*
X-16692393Y55449346D01*
X-311867Y55449346D01*
X-276059Y55240953D01*
X-202873Y55042575D01*
X-94762Y54860856D01*
X-92531Y54858312D01*
X-92528Y54858308D01*
X-41180Y54799757D01*
X44655Y54701881D01*
X47314Y54699784D01*
X47316Y54699783D01*
X202467Y54577473D01*
X210708Y54570976D01*
X397836Y54472523D01*
X401075Y54471517D01*
X401078Y54471516D01*
X596533Y54410826D01*
X599773Y54409820D01*
X748235Y54392248D01*
X769283Y54389757D01*
X769284Y54389757D01*
X771455Y54389500D01*
X893641Y54389500D01*
X895325Y54389655D01*
X895331Y54389655D01*
X1047181Y54403608D01*
X1047186Y54403609D01*
X1050560Y54403919D01*
X1053823Y54404839D01*
X1053827Y54404840D01*
X1149097Y54431709D01*
X1254069Y54461314D01*
X1443710Y54554835D01*
X1446422Y54556860D01*
X1446425Y54556862D01*
X1610412Y54679317D01*
X1610413Y54679318D01*
X1613133Y54681349D01*
X1720296Y54797277D01*
X1754360Y54834127D01*
X1754363Y54834131D01*
X1756663Y54836619D01*
X1770348Y54858308D01*
X1867690Y55012585D01*
X1867691Y55012586D01*
X1869495Y55015446D01*
X1877751Y55036140D01*
X1946590Y55208686D01*
X1946591Y55208689D01*
X1947848Y55211840D01*
X1989099Y55419225D01*
X1991867Y55630654D01*
X1956059Y55839047D01*
X1882873Y56037425D01*
X1774762Y56219144D01*
X1772531Y56221688D01*
X1772528Y56221692D01*
X1637580Y56375570D01*
X1635345Y56378119D01*
X1482770Y56498399D01*
X1471950Y56506929D01*
X1471947Y56506931D01*
X1469292Y56509024D01*
X1282164Y56607477D01*
X1278925Y56608483D01*
X1278922Y56608484D01*
X1083467Y56669174D01*
X1080227Y56670180D01*
X931765Y56687752D01*
X910717Y56690243D01*
X910716Y56690243D01*
X908545Y56690500D01*
X786359Y56690500D01*
X784675Y56690345D01*
X784669Y56690345D01*
X632819Y56676392D01*
X632814Y56676391D01*
X629440Y56676081D01*
X626177Y56675161D01*
X626173Y56675160D01*
X530903Y56648291D01*
X425931Y56618686D01*
X236290Y56525165D01*
X233578Y56523140D01*
X233575Y56523138D01*
X197115Y56495912D01*
X66867Y56398651D01*
X45531Y56375570D01*
X-74360Y56245873D01*
X-74363Y56245869D01*
X-76663Y56243381D01*
X-78472Y56240514D01*
X-91955Y56219144D01*
X-189495Y56064554D01*
X-190749Y56061412D01*
X-190750Y56061409D01*
X-201587Y56034244D01*
X-267848Y55868160D01*
X-309099Y55660775D01*
X-311867Y55449346D01*
X-16692393Y55449346D01*
X-16692393Y57150000D01*
X-13105492Y57150000D01*
X-13104581Y57144248D01*
X-13086558Y57030451D01*
X-13086557Y57030448D01*
X-13085646Y57024696D01*
X-13083001Y57019505D01*
X-13083000Y57019502D01*
X-13030696Y56916850D01*
X-13030694Y56916848D01*
X-13028050Y56911658D01*
X-12938342Y56821950D01*
X-12933152Y56819306D01*
X-12933150Y56819304D01*
X-12830498Y56767000D01*
X-12830495Y56766999D01*
X-12825304Y56764354D01*
X-12819552Y56763443D01*
X-12819549Y56763442D01*
X-12705752Y56745419D01*
X-12700000Y56744508D01*
X-12694248Y56745419D01*
X-12580451Y56763442D01*
X-12580448Y56763443D01*
X-12574696Y56764354D01*
X-12569505Y56766999D01*
X-12569502Y56767000D01*
X-12466850Y56819304D01*
X-12466848Y56819306D01*
X-12461658Y56821950D01*
X-12371950Y56911658D01*
X-12369306Y56916848D01*
X-12369304Y56916850D01*
X-12317000Y57019502D01*
X-12316999Y57019505D01*
X-12314354Y57024696D01*
X-12313443Y57030448D01*
X-12313442Y57030451D01*
X-12295419Y57144248D01*
X-12294508Y57150000D01*
X-12295419Y57155752D01*
X-12313442Y57269549D01*
X-12313443Y57269552D01*
X-12314354Y57275304D01*
X-12317000Y57280498D01*
X-12369304Y57383150D01*
X-12369306Y57383152D01*
X-12371950Y57388342D01*
X-12461658Y57478050D01*
X-12466848Y57480694D01*
X-12466850Y57480696D01*
X-12569502Y57533000D01*
X-12569505Y57533001D01*
X-12574696Y57535646D01*
X-12580448Y57536557D01*
X-12580451Y57536558D01*
X-12694248Y57554581D01*
X-12700000Y57555492D01*
X-12705752Y57554581D01*
X-12819549Y57536558D01*
X-12819552Y57536557D01*
X-12825304Y57535646D01*
X-12830495Y57533001D01*
X-12830498Y57533000D01*
X-12933150Y57480696D01*
X-12933152Y57480694D01*
X-12938342Y57478050D01*
X-13028050Y57388342D01*
X-13030694Y57383152D01*
X-13030696Y57383150D01*
X-13083000Y57280498D01*
X-13085646Y57275304D01*
X-13086557Y57269552D01*
X-13086558Y57269549D01*
X-13104581Y57155752D01*
X-13105492Y57150000D01*
X-16692393Y57150000D01*
X-16692393Y57989346D01*
X-311867Y57989346D01*
X-276059Y57780953D01*
X-202873Y57582575D01*
X-94762Y57400856D01*
X-92531Y57398312D01*
X-92528Y57398308D01*
X-41180Y57339757D01*
X44655Y57241881D01*
X47314Y57239784D01*
X47316Y57239783D01*
X200044Y57119383D01*
X210708Y57110976D01*
X397836Y57012523D01*
X401075Y57011517D01*
X401078Y57011516D01*
X596533Y56950826D01*
X599773Y56949820D01*
X748235Y56932248D01*
X769283Y56929757D01*
X769284Y56929757D01*
X771455Y56929500D01*
X893641Y56929500D01*
X895325Y56929655D01*
X895331Y56929655D01*
X1047181Y56943608D01*
X1047186Y56943609D01*
X1050560Y56943919D01*
X1053823Y56944839D01*
X1053827Y56944840D01*
X1149097Y56971709D01*
X1254069Y57001314D01*
X1443710Y57094835D01*
X1446422Y57096860D01*
X1446425Y57096862D01*
X1610412Y57219317D01*
X1610413Y57219318D01*
X1613133Y57221349D01*
X1720296Y57337277D01*
X1754360Y57374127D01*
X1754363Y57374131D01*
X1756663Y57376619D01*
X1770348Y57398308D01*
X1867690Y57552585D01*
X1867691Y57552586D01*
X1869495Y57555446D01*
X1877751Y57576140D01*
X1946590Y57748686D01*
X1946591Y57748689D01*
X1947848Y57751840D01*
X1989099Y57959225D01*
X1991867Y58170654D01*
X1956059Y58379047D01*
X1882873Y58577425D01*
X1774762Y58759144D01*
X1772531Y58761688D01*
X1772528Y58761692D01*
X1637580Y58915570D01*
X1635345Y58918119D01*
X1562806Y58975304D01*
X1471950Y59046929D01*
X1471947Y59046931D01*
X1469292Y59049024D01*
X1282164Y59147477D01*
X1278925Y59148483D01*
X1278922Y59148484D01*
X1083467Y59209174D01*
X1080227Y59210180D01*
X931765Y59227752D01*
X910717Y59230243D01*
X910716Y59230243D01*
X908545Y59230500D01*
X786359Y59230500D01*
X784675Y59230345D01*
X784669Y59230345D01*
X632819Y59216392D01*
X632814Y59216391D01*
X629440Y59216081D01*
X626177Y59215161D01*
X626173Y59215160D01*
X530903Y59188291D01*
X425931Y59158686D01*
X236290Y59065165D01*
X233578Y59063140D01*
X233575Y59063138D01*
X197115Y59035912D01*
X66867Y58938651D01*
X45531Y58915570D01*
X-74360Y58785873D01*
X-74363Y58785869D01*
X-76663Y58783381D01*
X-78472Y58780514D01*
X-91955Y58759144D01*
X-189495Y58604554D01*
X-190749Y58601412D01*
X-190750Y58601409D01*
X-252983Y58445419D01*
X-267848Y58408160D01*
X-309099Y58200775D01*
X-311867Y57989346D01*
X-16692393Y57989346D01*
X-16692393Y58850000D01*
X-15505492Y58850000D01*
X-15504581Y58844248D01*
X-15486558Y58730451D01*
X-15486557Y58730448D01*
X-15485646Y58724696D01*
X-15483001Y58719505D01*
X-15483000Y58719502D01*
X-15430696Y58616850D01*
X-15430694Y58616848D01*
X-15428050Y58611658D01*
X-15338342Y58521950D01*
X-15333152Y58519306D01*
X-15333150Y58519304D01*
X-15230498Y58467000D01*
X-15230495Y58466999D01*
X-15225304Y58464354D01*
X-15219552Y58463443D01*
X-15219549Y58463442D01*
X-15105752Y58445419D01*
X-15100000Y58444508D01*
X-15094248Y58445419D01*
X-14980451Y58463442D01*
X-14980448Y58463443D01*
X-14974696Y58464354D01*
X-14969505Y58466999D01*
X-14969502Y58467000D01*
X-14866850Y58519304D01*
X-14866848Y58519306D01*
X-14861658Y58521950D01*
X-14771950Y58611658D01*
X-14769306Y58616848D01*
X-14769304Y58616850D01*
X-14717000Y58719502D01*
X-14716999Y58719505D01*
X-14714354Y58724696D01*
X-14713443Y58730448D01*
X-14713442Y58730451D01*
X-14695419Y58844248D01*
X-14694508Y58850000D01*
X-14705629Y58920217D01*
X-14713442Y58969549D01*
X-14713443Y58969552D01*
X-14714354Y58975304D01*
X-14745235Y59035912D01*
X-14769304Y59083150D01*
X-14769306Y59083152D01*
X-14771950Y59088342D01*
X-14861658Y59178050D01*
X-14866848Y59180694D01*
X-14866850Y59180696D01*
X-14969502Y59233000D01*
X-14969505Y59233001D01*
X-14974696Y59235646D01*
X-14980448Y59236557D01*
X-14980451Y59236558D01*
X-15094248Y59254581D01*
X-15100000Y59255492D01*
X-15105752Y59254581D01*
X-15219549Y59236558D01*
X-15219552Y59236557D01*
X-15225304Y59235646D01*
X-15230495Y59233001D01*
X-15230498Y59233000D01*
X-15333150Y59180696D01*
X-15333152Y59180694D01*
X-15338342Y59178050D01*
X-15428050Y59088342D01*
X-15430694Y59083152D01*
X-15430696Y59083150D01*
X-15454765Y59035912D01*
X-15485646Y58975304D01*
X-15486557Y58969552D01*
X-15486558Y58969549D01*
X-15494371Y58920217D01*
X-15505492Y58850000D01*
X-16692393Y58850000D01*
X-16692393Y59800000D01*
X-14555492Y59800000D01*
X-14554581Y59794248D01*
X-14536558Y59680451D01*
X-14536557Y59680448D01*
X-14535646Y59674696D01*
X-14533001Y59669505D01*
X-14533000Y59669502D01*
X-14480696Y59566850D01*
X-14480694Y59566848D01*
X-14478050Y59561658D01*
X-14388342Y59471950D01*
X-14383152Y59469306D01*
X-14383150Y59469304D01*
X-14280498Y59417000D01*
X-14280495Y59416999D01*
X-14275304Y59414354D01*
X-14269552Y59413443D01*
X-14269549Y59413442D01*
X-14155752Y59395419D01*
X-14150000Y59394508D01*
X-14144248Y59395419D01*
X-14030451Y59413442D01*
X-14030448Y59413443D01*
X-14024696Y59414354D01*
X-14019505Y59416999D01*
X-14019502Y59417000D01*
X-13916850Y59469304D01*
X-13916848Y59469306D01*
X-13911658Y59471950D01*
X-13821950Y59561658D01*
X-13819306Y59566848D01*
X-13819304Y59566850D01*
X-13767000Y59669502D01*
X-13766999Y59669505D01*
X-13764354Y59674696D01*
X-13763443Y59680448D01*
X-13763442Y59680451D01*
X-13745419Y59794248D01*
X-13744508Y59800000D01*
X-13757565Y59882442D01*
X-13763442Y59919549D01*
X-13763443Y59919552D01*
X-13764354Y59925304D01*
X-13767000Y59930498D01*
X-13819304Y60033150D01*
X-13819306Y60033152D01*
X-13821950Y60038342D01*
X-13911658Y60128050D01*
X-13916848Y60130694D01*
X-13916850Y60130696D01*
X-14019502Y60183000D01*
X-14019505Y60183001D01*
X-14024696Y60185646D01*
X-14030448Y60186557D01*
X-14030451Y60186558D01*
X-14144248Y60204581D01*
X-14150000Y60205492D01*
X-14155752Y60204581D01*
X-14269549Y60186558D01*
X-14269552Y60186557D01*
X-14275304Y60185646D01*
X-14280495Y60183001D01*
X-14280498Y60183000D01*
X-14383150Y60130696D01*
X-14383152Y60130694D01*
X-14388342Y60128050D01*
X-14478050Y60038342D01*
X-14480694Y60033152D01*
X-14480696Y60033150D01*
X-14533000Y59930498D01*
X-14535646Y59925304D01*
X-14536557Y59919552D01*
X-14536558Y59919549D01*
X-14542435Y59882442D01*
X-14555492Y59800000D01*
X-16692393Y59800000D01*
X-16692393Y60529346D01*
X-311867Y60529346D01*
X-276059Y60320953D01*
X-202873Y60122575D01*
X-94762Y59940856D01*
X-92531Y59938312D01*
X-92528Y59938308D01*
X-41180Y59879757D01*
X44655Y59781881D01*
X47314Y59779784D01*
X47316Y59779783D01*
X200044Y59659383D01*
X210708Y59650976D01*
X397836Y59552523D01*
X401075Y59551517D01*
X401078Y59551516D01*
X596533Y59490826D01*
X599773Y59489820D01*
X748235Y59472248D01*
X769283Y59469757D01*
X769284Y59469757D01*
X771455Y59469500D01*
X893641Y59469500D01*
X895325Y59469655D01*
X895331Y59469655D01*
X1047181Y59483608D01*
X1047186Y59483609D01*
X1050560Y59483919D01*
X1053823Y59484839D01*
X1053827Y59484840D01*
X1149097Y59511709D01*
X1254069Y59541314D01*
X1443710Y59634835D01*
X1446422Y59636860D01*
X1446425Y59636862D01*
X1610412Y59759317D01*
X1610413Y59759318D01*
X1613133Y59761349D01*
X1720296Y59877277D01*
X1754360Y59914127D01*
X1754363Y59914131D01*
X1756663Y59916619D01*
X1770348Y59938308D01*
X1867690Y60092585D01*
X1867691Y60092586D01*
X1869495Y60095446D01*
X1877751Y60116140D01*
X1946590Y60288686D01*
X1946591Y60288689D01*
X1947848Y60291840D01*
X1989099Y60499225D01*
X1991867Y60710654D01*
X1956059Y60919047D01*
X1882873Y61117425D01*
X1774762Y61299144D01*
X1772531Y61301688D01*
X1772528Y61301692D01*
X1637580Y61455570D01*
X1635345Y61458119D01*
X1482770Y61578399D01*
X1471950Y61586929D01*
X1471947Y61586931D01*
X1469292Y61589024D01*
X1282164Y61687477D01*
X1278925Y61688483D01*
X1278922Y61688484D01*
X1083467Y61749174D01*
X1080227Y61750180D01*
X931765Y61767752D01*
X910717Y61770243D01*
X910716Y61770243D01*
X908545Y61770500D01*
X786359Y61770500D01*
X784675Y61770345D01*
X784669Y61770345D01*
X632819Y61756392D01*
X632814Y61756391D01*
X629440Y61756081D01*
X626177Y61755161D01*
X626173Y61755160D01*
X530903Y61728291D01*
X425931Y61698686D01*
X236290Y61605165D01*
X233578Y61603140D01*
X233575Y61603138D01*
X197115Y61575912D01*
X66867Y61478651D01*
X45531Y61455570D01*
X-74360Y61325873D01*
X-74363Y61325869D01*
X-76663Y61323381D01*
X-78472Y61320514D01*
X-91955Y61299144D01*
X-189495Y61144554D01*
X-190749Y61141412D01*
X-190750Y61141409D01*
X-201587Y61114244D01*
X-267848Y60948160D01*
X-309099Y60740775D01*
X-311867Y60529346D01*
X-16692393Y60529346D01*
X-16692393Y63150000D01*
X-14155492Y63150000D01*
X-14154581Y63144248D01*
X-14136558Y63030451D01*
X-14136557Y63030448D01*
X-14135646Y63024696D01*
X-14133001Y63019505D01*
X-14133000Y63019502D01*
X-14080696Y62916850D01*
X-14080694Y62916848D01*
X-14078050Y62911658D01*
X-13988342Y62821950D01*
X-13983152Y62819306D01*
X-13983150Y62819304D01*
X-13880498Y62767000D01*
X-13880495Y62766999D01*
X-13875304Y62764354D01*
X-13869552Y62763443D01*
X-13869549Y62763442D01*
X-13755752Y62745419D01*
X-13750000Y62744508D01*
X-13624696Y62764354D01*
X-13624442Y62762753D01*
X-13581196Y62761243D01*
X-13543578Y62727372D01*
X-13536533Y62677246D01*
X-13542980Y62659040D01*
X-13585646Y62575304D01*
X-13586557Y62569552D01*
X-13586558Y62569549D01*
X-13589467Y62551182D01*
X-13605492Y62450000D01*
X-13604581Y62444248D01*
X-13586558Y62330451D01*
X-13586557Y62330448D01*
X-13585646Y62324696D01*
X-13583001Y62319505D01*
X-13583000Y62319502D01*
X-13530696Y62216850D01*
X-13530694Y62216848D01*
X-13528050Y62211658D01*
X-13438342Y62121950D01*
X-13433152Y62119306D01*
X-13433150Y62119304D01*
X-13330498Y62067000D01*
X-13330495Y62066999D01*
X-13325304Y62064354D01*
X-13319552Y62063443D01*
X-13319549Y62063442D01*
X-13205752Y62045419D01*
X-13200000Y62044508D01*
X-13194248Y62045419D01*
X-13080451Y62063442D01*
X-13080448Y62063443D01*
X-13074696Y62064354D01*
X-13069505Y62066999D01*
X-13069502Y62067000D01*
X-12966850Y62119304D01*
X-12966848Y62119306D01*
X-12961658Y62121950D01*
X-12871950Y62211658D01*
X-12869306Y62216848D01*
X-12869304Y62216850D01*
X-12817000Y62319502D01*
X-12816999Y62319505D01*
X-12814354Y62324696D01*
X-12813443Y62330448D01*
X-12813442Y62330451D01*
X-12795419Y62444248D01*
X-12794508Y62450000D01*
X-12810533Y62551182D01*
X-12813442Y62569549D01*
X-12813443Y62569552D01*
X-12814354Y62575304D01*
X-12837100Y62619946D01*
X-12869304Y62683150D01*
X-12869306Y62683152D01*
X-12871950Y62688342D01*
X-12961658Y62778050D01*
X-12966848Y62780694D01*
X-12966850Y62780696D01*
X-13069502Y62833000D01*
X-13069505Y62833001D01*
X-13074696Y62835646D01*
X-13080448Y62836557D01*
X-13080451Y62836558D01*
X-13194248Y62854581D01*
X-13200000Y62855492D01*
X-13325304Y62835646D01*
X-13325558Y62837247D01*
X-13368804Y62838757D01*
X-13406422Y62872628D01*
X-13413467Y62922754D01*
X-13407020Y62940960D01*
X-13364354Y63024696D01*
X-13363443Y63030448D01*
X-13363442Y63030451D01*
X-13345419Y63144248D01*
X-13344508Y63150000D01*
X-13346433Y63162157D01*
X-13363442Y63269549D01*
X-13363443Y63269552D01*
X-13364354Y63275304D01*
X-13404174Y63353455D01*
X-13419304Y63383150D01*
X-13419306Y63383152D01*
X-13421950Y63388342D01*
X-13511658Y63478050D01*
X-13516848Y63480694D01*
X-13516850Y63480696D01*
X-13619502Y63533000D01*
X-13619505Y63533001D01*
X-13624696Y63535646D01*
X-13630448Y63536557D01*
X-13630451Y63536558D01*
X-13744248Y63554581D01*
X-13750000Y63555492D01*
X-13755752Y63554581D01*
X-13869549Y63536558D01*
X-13869552Y63536557D01*
X-13875304Y63535646D01*
X-13880495Y63533001D01*
X-13880498Y63533000D01*
X-13983150Y63480696D01*
X-13983152Y63480694D01*
X-13988342Y63478050D01*
X-14078050Y63388342D01*
X-14080694Y63383152D01*
X-14080696Y63383150D01*
X-14095826Y63353455D01*
X-14135646Y63275304D01*
X-14136557Y63269552D01*
X-14136558Y63269549D01*
X-14153567Y63162157D01*
X-14155492Y63150000D01*
X-16692393Y63150000D01*
X-16692393Y64200000D01*
X-14705492Y64200000D01*
X-14704581Y64194248D01*
X-14686558Y64080451D01*
X-14686557Y64080448D01*
X-14685646Y64074696D01*
X-14683001Y64069505D01*
X-14683000Y64069502D01*
X-14630696Y63966850D01*
X-14630694Y63966848D01*
X-14628050Y63961658D01*
X-14538342Y63871950D01*
X-14533152Y63869306D01*
X-14533150Y63869304D01*
X-14430498Y63817000D01*
X-14430495Y63816999D01*
X-14425304Y63814354D01*
X-14419552Y63813443D01*
X-14419549Y63813442D01*
X-14305752Y63795419D01*
X-14300000Y63794508D01*
X-14294248Y63795419D01*
X-14180451Y63813442D01*
X-14180448Y63813443D01*
X-14174696Y63814354D01*
X-14169505Y63816999D01*
X-14169502Y63817000D01*
X-14066850Y63869304D01*
X-14066848Y63869306D01*
X-14061658Y63871950D01*
X-13971950Y63961658D01*
X-13969306Y63966848D01*
X-13969304Y63966850D01*
X-13917000Y64069502D01*
X-13916999Y64069505D01*
X-13914354Y64074696D01*
X-13913443Y64080448D01*
X-13913442Y64080451D01*
X-13895419Y64194248D01*
X-13894508Y64200000D01*
X-13895419Y64205752D01*
X-13913442Y64319549D01*
X-13913443Y64319552D01*
X-13914354Y64325304D01*
X-13917000Y64330498D01*
X-13969304Y64433150D01*
X-13969306Y64433152D01*
X-13971950Y64438342D01*
X-14061658Y64528050D01*
X-14066848Y64530694D01*
X-14066850Y64530696D01*
X-14169502Y64583000D01*
X-14169505Y64583001D01*
X-14174696Y64585646D01*
X-14180448Y64586557D01*
X-14180451Y64586558D01*
X-14294248Y64604581D01*
X-14300000Y64605492D01*
X-14305752Y64604581D01*
X-14419549Y64586558D01*
X-14419552Y64586557D01*
X-14425304Y64585646D01*
X-14430495Y64583001D01*
X-14430498Y64583000D01*
X-14533150Y64530696D01*
X-14533152Y64530694D01*
X-14538342Y64528050D01*
X-14628050Y64438342D01*
X-14630694Y64433152D01*
X-14630696Y64433150D01*
X-14683000Y64330498D01*
X-14685646Y64325304D01*
X-14686557Y64319552D01*
X-14686558Y64319549D01*
X-14704581Y64205752D01*
X-14705492Y64200000D01*
X-16692393Y64200000D01*
X-16692393Y65600000D01*
X-13955492Y65600000D01*
X-13954581Y65594248D01*
X-13936558Y65480451D01*
X-13936557Y65480448D01*
X-13935646Y65474696D01*
X-13933001Y65469505D01*
X-13933000Y65469502D01*
X-13880696Y65366850D01*
X-13880694Y65366848D01*
X-13878050Y65361658D01*
X-13788342Y65271950D01*
X-13783152Y65269306D01*
X-13783150Y65269304D01*
X-13680498Y65217000D01*
X-13680495Y65216999D01*
X-13675304Y65214354D01*
X-13669552Y65213443D01*
X-13669549Y65213442D01*
X-13555752Y65195419D01*
X-13550000Y65194508D01*
X-13544248Y65195419D01*
X-13430451Y65213442D01*
X-13430448Y65213443D01*
X-13424696Y65214354D01*
X-13419505Y65216999D01*
X-13419502Y65217000D01*
X-13316850Y65269304D01*
X-13316848Y65269306D01*
X-13311658Y65271950D01*
X-13221950Y65361658D01*
X-13219306Y65366848D01*
X-13219304Y65366850D01*
X-13167000Y65469502D01*
X-13166999Y65469505D01*
X-13164354Y65474696D01*
X-13163443Y65480448D01*
X-13163442Y65480451D01*
X-13145419Y65594248D01*
X-13144508Y65600000D01*
X-13160346Y65700000D01*
X-13163442Y65719549D01*
X-13163443Y65719552D01*
X-13164354Y65725304D01*
X-13165867Y65728274D01*
X9920262Y65728274D01*
X9933190Y65531034D01*
X9981845Y65339453D01*
X10064599Y65159946D01*
X10178679Y64998526D01*
X10320266Y64860598D01*
X10323089Y64858712D01*
X10481795Y64752668D01*
X10481800Y64752665D01*
X10484617Y64750783D01*
X10666228Y64672756D01*
X10859018Y64629132D01*
X10952668Y64625453D01*
X11053133Y64621505D01*
X11053137Y64621505D01*
X11056528Y64621372D01*
X11187962Y64640429D01*
X11248788Y64649248D01*
X11248789Y64649248D01*
X11252146Y64649735D01*
X11439320Y64713272D01*
X11442272Y64714925D01*
X11442276Y64714927D01*
X11608818Y64808196D01*
X11608819Y64808197D01*
X11611780Y64809855D01*
X11763752Y64936248D01*
X11890145Y65088220D01*
X11930314Y65159946D01*
X11985073Y65257724D01*
X11985075Y65257728D01*
X11986728Y65260680D01*
X12050265Y65447854D01*
X12054991Y65480451D01*
X12078315Y65641310D01*
X12078316Y65641318D01*
X12078628Y65643472D01*
X12080108Y65700000D01*
X12067396Y65838342D01*
X12062332Y65893455D01*
X12062331Y65893460D01*
X12062021Y65896834D01*
X12053286Y65927809D01*
X12009288Y66083813D01*
X12008368Y66087076D01*
X11997014Y66110099D01*
X11922442Y66261316D01*
X11922440Y66261319D01*
X11920943Y66264355D01*
X11918920Y66267064D01*
X11918917Y66267069D01*
X11804709Y66420012D01*
X11804708Y66420013D01*
X11802677Y66422733D01*
X11800186Y66425036D01*
X11800183Y66425039D01*
X11660020Y66554604D01*
X11660016Y66554607D01*
X11657528Y66556907D01*
X11627158Y66576069D01*
X11493220Y66660578D01*
X11493219Y66660579D01*
X11490359Y66662383D01*
X11487216Y66663637D01*
X11487214Y66663638D01*
X11309921Y66734371D01*
X11309918Y66734372D01*
X11306767Y66735629D01*
X11161299Y66764564D01*
X11116226Y66773530D01*
X11116224Y66773530D01*
X11112902Y66774191D01*
X11026049Y66775328D01*
X10918649Y66776734D01*
X10918645Y66776734D01*
X10915256Y66776778D01*
X10911910Y66776203D01*
X10911909Y66776203D01*
X10872912Y66769502D01*
X10720447Y66743304D01*
X10535002Y66674890D01*
X10365128Y66573826D01*
X10216517Y66443497D01*
X10094145Y66288269D01*
X10002110Y66113339D01*
X9943495Y65924567D01*
X9920262Y65728274D01*
X-13165867Y65728274D01*
X-13167000Y65730498D01*
X-13219304Y65833150D01*
X-13219306Y65833152D01*
X-13221950Y65838342D01*
X-13311658Y65928050D01*
X-13316848Y65930694D01*
X-13316850Y65930696D01*
X-13419502Y65983000D01*
X-13419505Y65983001D01*
X-13424696Y65985646D01*
X-13430448Y65986557D01*
X-13430451Y65986558D01*
X-13544248Y66004581D01*
X-13550000Y66005492D01*
X-13555752Y66004581D01*
X-13669549Y65986558D01*
X-13669552Y65986557D01*
X-13675304Y65985646D01*
X-13680495Y65983001D01*
X-13680498Y65983000D01*
X-13783150Y65930696D01*
X-13783152Y65930694D01*
X-13788342Y65928050D01*
X-13878050Y65838342D01*
X-13880694Y65833152D01*
X-13880696Y65833150D01*
X-13933000Y65730498D01*
X-13935646Y65725304D01*
X-13936557Y65719552D01*
X-13936558Y65719549D01*
X-13939654Y65700000D01*
X-13955492Y65600000D01*
X-16692393Y65600000D01*
X-16692393Y66900000D01*
X-14655492Y66900000D01*
X-14654581Y66894248D01*
X-14636558Y66780451D01*
X-14636557Y66780448D01*
X-14635646Y66774696D01*
X-14633001Y66769505D01*
X-14633000Y66769502D01*
X-14580696Y66666850D01*
X-14580694Y66666848D01*
X-14578050Y66661658D01*
X-14488342Y66571950D01*
X-14483152Y66569306D01*
X-14483150Y66569304D01*
X-14380498Y66517000D01*
X-14380495Y66516999D01*
X-14375304Y66514354D01*
X-14369552Y66513443D01*
X-14369549Y66513442D01*
X-14255752Y66495419D01*
X-14250000Y66494508D01*
X-14244248Y66495419D01*
X-14130451Y66513442D01*
X-14130448Y66513443D01*
X-14124696Y66514354D01*
X-14119505Y66516999D01*
X-14119502Y66517000D01*
X-14016850Y66569304D01*
X-14016848Y66569306D01*
X-14011658Y66571950D01*
X-13921950Y66661658D01*
X-13919306Y66666848D01*
X-13919304Y66666850D01*
X-13867000Y66769502D01*
X-13866999Y66769505D01*
X-13864354Y66774696D01*
X-13863443Y66780448D01*
X-13863442Y66780451D01*
X-13845419Y66894248D01*
X-13844508Y66900000D01*
X-13845419Y66905752D01*
X-13863442Y67019549D01*
X-13863443Y67019552D01*
X-13864354Y67025304D01*
X-13867000Y67030498D01*
X-13919304Y67133150D01*
X-13919306Y67133152D01*
X-13921950Y67138342D01*
X-14011658Y67228050D01*
X-14016848Y67230694D01*
X-14016850Y67230696D01*
X-14119502Y67283000D01*
X-14119505Y67283001D01*
X-14124696Y67285646D01*
X-14130448Y67286557D01*
X-14130451Y67286558D01*
X-14244248Y67304581D01*
X-14250000Y67305492D01*
X-14255752Y67304581D01*
X-14369549Y67286558D01*
X-14369552Y67286557D01*
X-14375304Y67285646D01*
X-14380495Y67283001D01*
X-14380498Y67283000D01*
X-14483150Y67230696D01*
X-14483152Y67230694D01*
X-14488342Y67228050D01*
X-14578050Y67138342D01*
X-14580694Y67133152D01*
X-14580696Y67133150D01*
X-14633000Y67030498D01*
X-14635646Y67025304D01*
X-14636557Y67019552D01*
X-14636558Y67019549D01*
X-14654581Y66905752D01*
X-14655492Y66900000D01*
X-16692393Y66900000D01*
X-16692393Y70050000D01*
X-10805492Y70050000D01*
X-10804581Y70044248D01*
X-10786558Y69930451D01*
X-10786557Y69930448D01*
X-10785646Y69924696D01*
X-10783001Y69919505D01*
X-10783000Y69919502D01*
X-10730696Y69816850D01*
X-10730694Y69816848D01*
X-10728050Y69811658D01*
X-10638342Y69721950D01*
X-10633152Y69719306D01*
X-10633150Y69719304D01*
X-10530498Y69667000D01*
X-10530495Y69666999D01*
X-10525304Y69664354D01*
X-10519552Y69663443D01*
X-10519549Y69663442D01*
X-10405752Y69645419D01*
X-10400000Y69644508D01*
X-10394248Y69645419D01*
X-10280451Y69663442D01*
X-10280448Y69663443D01*
X-10274696Y69664354D01*
X-10269505Y69666999D01*
X-10269502Y69667000D01*
X-10166850Y69719304D01*
X-10166848Y69719306D01*
X-10161658Y69721950D01*
X-10071950Y69811658D01*
X-10069306Y69816848D01*
X-10069304Y69816850D01*
X-10017000Y69919502D01*
X-10016999Y69919505D01*
X-10014354Y69924696D01*
X-10013443Y69930448D01*
X-10013442Y69930451D01*
X-9995419Y70044248D01*
X-9994508Y70050000D01*
X-9995419Y70055752D01*
X-10013442Y70169549D01*
X-10013443Y70169552D01*
X-10014354Y70175304D01*
X-10017000Y70180498D01*
X-10069304Y70283150D01*
X-10069306Y70283152D01*
X-10071950Y70288342D01*
X-10161658Y70378050D01*
X-10166848Y70380694D01*
X-10166850Y70380696D01*
X-10269502Y70433000D01*
X-10269505Y70433001D01*
X-10274696Y70435646D01*
X-10280448Y70436557D01*
X-10280451Y70436558D01*
X-10394248Y70454581D01*
X-10400000Y70455492D01*
X-10405752Y70454581D01*
X-10519549Y70436558D01*
X-10519552Y70436557D01*
X-10525304Y70435646D01*
X-10530495Y70433001D01*
X-10530498Y70433000D01*
X-10633150Y70380696D01*
X-10633152Y70380694D01*
X-10638342Y70378050D01*
X-10728050Y70288342D01*
X-10730694Y70283152D01*
X-10730696Y70283150D01*
X-10783000Y70180498D01*
X-10785646Y70175304D01*
X-10786557Y70169552D01*
X-10786558Y70169549D01*
X-10804581Y70055752D01*
X-10805492Y70050000D01*
X-16692393Y70050000D01*
X-16692393Y71350000D01*
X-9005492Y71350000D01*
X-9004581Y71344248D01*
X-8986558Y71230451D01*
X-8986557Y71230448D01*
X-8985646Y71224696D01*
X-8983001Y71219505D01*
X-8983000Y71219502D01*
X-8930696Y71116850D01*
X-8930694Y71116848D01*
X-8928050Y71111658D01*
X-8838342Y71021950D01*
X-8833152Y71019306D01*
X-8833150Y71019304D01*
X-8730498Y70967000D01*
X-8730495Y70966999D01*
X-8725304Y70964354D01*
X-8719552Y70963443D01*
X-8719549Y70963442D01*
X-8605752Y70945419D01*
X-8600000Y70944508D01*
X-8594248Y70945419D01*
X-8480451Y70963442D01*
X-8480448Y70963443D01*
X-8474696Y70964354D01*
X-8469505Y70966999D01*
X-8469502Y70967000D01*
X-8366850Y71019304D01*
X-8366848Y71019306D01*
X-8361658Y71021950D01*
X-8271950Y71111658D01*
X-8269306Y71116848D01*
X-8269304Y71116850D01*
X-8217000Y71219502D01*
X-8216999Y71219505D01*
X-8214354Y71224696D01*
X-8213443Y71230448D01*
X-8213442Y71230451D01*
X-8195419Y71344248D01*
X-8194508Y71350000D01*
X-8195419Y71355752D01*
X-8213442Y71469549D01*
X-8213443Y71469552D01*
X-8214354Y71475304D01*
X-8217000Y71480498D01*
X-8269304Y71583150D01*
X-8269306Y71583152D01*
X-8271950Y71588342D01*
X-8361658Y71678050D01*
X-8366848Y71680694D01*
X-8366850Y71680696D01*
X-8469502Y71733000D01*
X-8469505Y71733001D01*
X-8474696Y71735646D01*
X-8480448Y71736557D01*
X-8480451Y71736558D01*
X-8594248Y71754581D01*
X-8600000Y71755492D01*
X-8605752Y71754581D01*
X-8719549Y71736558D01*
X-8719552Y71736557D01*
X-8725304Y71735646D01*
X-8730495Y71733001D01*
X-8730498Y71733000D01*
X-8833150Y71680696D01*
X-8833152Y71680694D01*
X-8838342Y71678050D01*
X-8928050Y71588342D01*
X-8930694Y71583152D01*
X-8930696Y71583150D01*
X-8983000Y71480498D01*
X-8985646Y71475304D01*
X-8986557Y71469552D01*
X-8986558Y71469549D01*
X-9004581Y71355752D01*
X-9005492Y71350000D01*
X-16692393Y71350000D01*
X-16692393Y75892117D01*
X-13769185Y75892117D01*
X-13768710Y75886797D01*
X-13704722Y75712883D01*
X-13701455Y75706183D01*
X-13598349Y75539892D01*
X-13593801Y75533986D01*
X-13459362Y75391821D01*
X-13453724Y75386954D01*
X-13293450Y75274729D01*
X-13286932Y75271086D01*
X-13107364Y75193380D01*
X-13100264Y75191128D01*
X-12941773Y75158018D01*
X-12931244Y75159535D01*
X-12929090Y75161945D01*
X-12929000Y75162409D01*
X-12929000Y75170994D01*
X-12421000Y75170994D01*
X-12417362Y75160998D01*
X-12413410Y75158717D01*
X-12351616Y75164994D01*
X-12344308Y75166494D01*
X-12157603Y75225004D01*
X-12150749Y75227942D01*
X-11979619Y75322800D01*
X-11973497Y75327055D01*
X-11824943Y75454382D01*
X-11819796Y75459787D01*
X-11699874Y75614390D01*
X-11695926Y75620708D01*
X-11609537Y75796270D01*
X-11606941Y75803252D01*
X-11586071Y75883373D01*
X-11587072Y75893964D01*
X-11588678Y75895547D01*
X-11590757Y75896000D01*
X-12407952Y75896000D01*
X-12417948Y75892362D01*
X-12421000Y75887075D01*
X-12421000Y75170994D01*
X-12929000Y75170994D01*
X-12929000Y75882952D01*
X-12932638Y75892948D01*
X-12937925Y75896000D01*
X-13759048Y75896000D01*
X-13769044Y75892362D01*
X-13769185Y75892117D01*
X-16692393Y75892117D01*
X-16692393Y76416627D01*
X-13763929Y76416627D01*
X-13762928Y76406036D01*
X-13761322Y76404453D01*
X-13759243Y76404000D01*
X-12942048Y76404000D01*
X-12932052Y76407638D01*
X-12929000Y76412925D01*
X-12929000Y76417048D01*
X-12421000Y76417048D01*
X-12417362Y76407052D01*
X-12412075Y76404000D01*
X-11590952Y76404000D01*
X-11580956Y76407638D01*
X-11580815Y76407883D01*
X-11581290Y76413203D01*
X-11645278Y76587117D01*
X-11648545Y76593817D01*
X-11751651Y76760108D01*
X-11756199Y76766014D01*
X-11890638Y76908179D01*
X-11896276Y76913046D01*
X-12056550Y77025271D01*
X-12063068Y77028914D01*
X-12242636Y77106620D01*
X-12249736Y77108872D01*
X-12408227Y77141982D01*
X-12418756Y77140465D01*
X-12420910Y77138055D01*
X-12421000Y77137591D01*
X-12421000Y76417048D01*
X-12929000Y76417048D01*
X-12929000Y77129006D01*
X-12932638Y77139002D01*
X-12936590Y77141283D01*
X-12998384Y77135006D01*
X-13005692Y77133506D01*
X-13192397Y77074996D01*
X-13199251Y77072058D01*
X-13370381Y76977200D01*
X-13376503Y76972945D01*
X-13525057Y76845618D01*
X-13530204Y76840213D01*
X-13650126Y76685610D01*
X-13654074Y76679292D01*
X-13740463Y76503730D01*
X-13743059Y76496748D01*
X-13763929Y76416627D01*
X-16692393Y76416627D01*
X-16692393Y78600874D01*
X-13804459Y78600874D01*
X-13774065Y78399903D01*
X-13703881Y78209148D01*
X-13701906Y78205963D01*
X-13646797Y78117081D01*
X-13596774Y78036401D01*
X-13457119Y77888720D01*
X-13454054Y77886574D01*
X-13454053Y77886573D01*
X-13364979Y77824203D01*
X-13290621Y77772137D01*
X-13209079Y77736851D01*
X-13107516Y77692900D01*
X-13107512Y77692899D01*
X-13104081Y77691414D01*
X-13100419Y77690649D01*
X-13100416Y77690648D01*
X-12918728Y77652692D01*
X-12905120Y77649849D01*
X-12902292Y77649701D01*
X-12902286Y77649700D01*
X-12899422Y77649550D01*
X-12899408Y77649550D01*
X-12898461Y77649500D01*
X-12499200Y77649500D01*
X-12497343Y77649689D01*
X-12497336Y77649689D01*
X-12351515Y77664501D01*
X-12347784Y77664880D01*
X-12265558Y77690648D01*
X-12157404Y77724541D01*
X-12157401Y77724542D01*
X-12153828Y77725662D01*
X-11976056Y77824203D01*
X-11903287Y77886573D01*
X-11824578Y77954035D01*
X-11824577Y77954036D01*
X-11821729Y77956477D01*
X-11697152Y78117081D01*
X-11607413Y78299455D01*
X-11556178Y78496148D01*
X-11550690Y78600874D01*
X-11545737Y78695381D01*
X-11545737Y78695384D01*
X-11545541Y78699126D01*
X-11575935Y78900097D01*
X-11646119Y79090852D01*
X-11701119Y79179558D01*
X-11751252Y79260416D01*
X-11751254Y79260419D01*
X-11753226Y79263599D01*
X-11892881Y79411280D01*
X-11981537Y79473358D01*
X-12056304Y79525710D01*
X-12056305Y79525711D01*
X-12059379Y79527863D01*
X-12140921Y79563149D01*
X-12242484Y79607100D01*
X-12242488Y79607101D01*
X-12245919Y79608586D01*
X-12249581Y79609351D01*
X-12249584Y79609352D01*
X-12442099Y79649570D01*
X-12444880Y79650151D01*
X-12447708Y79650299D01*
X-12447714Y79650300D01*
X-12450578Y79650450D01*
X-12450592Y79650450D01*
X-12451539Y79650500D01*
X-12850800Y79650500D01*
X-12852657Y79650311D01*
X-12852664Y79650311D01*
X-12998485Y79635499D01*
X-13002216Y79635120D01*
X-13005793Y79633999D01*
X-13192596Y79575459D01*
X-13192599Y79575458D01*
X-13196172Y79574338D01*
X-13373944Y79475797D01*
X-13376788Y79473359D01*
X-13376790Y79473358D01*
X-13452391Y79408560D01*
X-13528271Y79343523D01*
X-13652848Y79182919D01*
X-13742587Y79000545D01*
X-13793822Y78803852D01*
X-13794018Y78800114D01*
X-13794018Y78800113D01*
X-13799506Y78695381D01*
X-13804459Y78600874D01*
X-16692393Y78600874D01*
X-16692393Y81100874D01*
X-13804459Y81100874D01*
X-13774065Y80899903D01*
X-13703881Y80709148D01*
X-13701906Y80705963D01*
X-13646797Y80617081D01*
X-13596774Y80536401D01*
X-13457119Y80388720D01*
X-13454054Y80386574D01*
X-13454053Y80386573D01*
X-13364979Y80324203D01*
X-13290621Y80272137D01*
X-13209079Y80236851D01*
X-13107516Y80192900D01*
X-13107512Y80192899D01*
X-13104081Y80191414D01*
X-13100419Y80190649D01*
X-13100416Y80190648D01*
X-12918728Y80152692D01*
X-12905120Y80149849D01*
X-12902292Y80149701D01*
X-12902286Y80149700D01*
X-12899422Y80149550D01*
X-12899408Y80149550D01*
X-12898461Y80149500D01*
X-12499200Y80149500D01*
X-12497343Y80149689D01*
X-12497336Y80149689D01*
X-12351515Y80164501D01*
X-12347784Y80164880D01*
X-12265558Y80190648D01*
X-12157404Y80224541D01*
X-12157401Y80224542D01*
X-12153828Y80225662D01*
X-11976056Y80324203D01*
X-11903287Y80386573D01*
X-11824578Y80454035D01*
X-11824577Y80454036D01*
X-11821729Y80456477D01*
X-11697152Y80617081D01*
X-11607413Y80799455D01*
X-11556178Y80996148D01*
X-11550690Y81100874D01*
X-11545737Y81195381D01*
X-11545737Y81195384D01*
X-11545541Y81199126D01*
X-11575935Y81400097D01*
X-11646119Y81590852D01*
X-11701119Y81679558D01*
X-11751252Y81760416D01*
X-11751254Y81760419D01*
X-11753226Y81763599D01*
X-11892881Y81911280D01*
X-11981537Y81973358D01*
X-12056304Y82025710D01*
X-12056305Y82025711D01*
X-12059379Y82027863D01*
X-12140921Y82063149D01*
X-12242484Y82107100D01*
X-12242488Y82107101D01*
X-12245919Y82108586D01*
X-12249581Y82109351D01*
X-12249584Y82109352D01*
X-12442099Y82149570D01*
X-12444880Y82150151D01*
X-12447708Y82150299D01*
X-12447714Y82150300D01*
X-12450578Y82150450D01*
X-12450592Y82150450D01*
X-12451539Y82150500D01*
X-12850800Y82150500D01*
X-12852657Y82150311D01*
X-12852664Y82150311D01*
X-12998485Y82135499D01*
X-13002216Y82135120D01*
X-13005793Y82133999D01*
X-13192596Y82075459D01*
X-13192599Y82075458D01*
X-13196172Y82074338D01*
X-13373944Y81975797D01*
X-13376788Y81973359D01*
X-13376790Y81973358D01*
X-13452391Y81908560D01*
X-13528271Y81843523D01*
X-13652848Y81682919D01*
X-13742587Y81500545D01*
X-13793822Y81303852D01*
X-13794018Y81300114D01*
X-13794018Y81300113D01*
X-13799506Y81195381D01*
X-13804459Y81100874D01*
X-16692393Y81100874D01*
X-16692393Y84281519D01*
X-13800500Y84281519D01*
X-13800499Y83018482D01*
X-13785646Y82924696D01*
X-13756848Y82868177D01*
X-13730696Y82816850D01*
X-13730694Y82816848D01*
X-13728050Y82811658D01*
X-13638342Y82721950D01*
X-13633152Y82719306D01*
X-13633150Y82719304D01*
X-13530498Y82667000D01*
X-13530495Y82666999D01*
X-13525304Y82664354D01*
X-13519552Y82663443D01*
X-13519549Y82663442D01*
X-13434398Y82649956D01*
X-13431519Y82649500D01*
X-12675000Y82649500D01*
X-11918482Y82649501D01*
X-11915610Y82649956D01*
X-11915608Y82649956D01*
X-11883910Y82654976D01*
X-11824696Y82664354D01*
X-11768177Y82693152D01*
X-11716850Y82719304D01*
X-11716848Y82719306D01*
X-11711658Y82721950D01*
X-11621950Y82811658D01*
X-11619306Y82816848D01*
X-11619304Y82816850D01*
X-11567000Y82919502D01*
X-11566999Y82919505D01*
X-11564354Y82924696D01*
X-11563443Y82930448D01*
X-11563442Y82930451D01*
X-11549955Y83015608D01*
X-11549500Y83018481D01*
X-11549501Y84281518D01*
X-11564354Y84375304D01*
X-11593152Y84431823D01*
X-11619304Y84483150D01*
X-11619306Y84483152D01*
X-11621950Y84488342D01*
X-11711658Y84578050D01*
X-11716848Y84580694D01*
X-11716850Y84580696D01*
X-11819502Y84633000D01*
X-11819505Y84633001D01*
X-11824696Y84635646D01*
X-11830448Y84636557D01*
X-11830451Y84636558D01*
X-11915608Y84650045D01*
X-11918481Y84650500D01*
X-11921390Y84650500D01*
X-12674999Y84650499D01*
X-13431518Y84650499D01*
X-13434390Y84650044D01*
X-13434392Y84650044D01*
X-13466090Y84645024D01*
X-13525304Y84635646D01*
X-13581823Y84606848D01*
X-13633150Y84580696D01*
X-13633152Y84580694D01*
X-13638342Y84578050D01*
X-13728050Y84488342D01*
X-13730694Y84483152D01*
X-13730696Y84483150D01*
X-13783000Y84380498D01*
X-13785646Y84375304D01*
X-13786557Y84369552D01*
X-13786558Y84369549D01*
X-13800045Y84284392D01*
X-13800500Y84281519D01*
X-16692393Y84281519D01*
X-16692393Y90892117D01*
X-13769185Y90892117D01*
X-13768710Y90886797D01*
X-13704722Y90712883D01*
X-13701455Y90706183D01*
X-13598349Y90539892D01*
X-13593801Y90533986D01*
X-13459362Y90391821D01*
X-13453724Y90386954D01*
X-13293450Y90274729D01*
X-13286932Y90271086D01*
X-13107364Y90193380D01*
X-13100264Y90191128D01*
X-12941773Y90158018D01*
X-12931244Y90159535D01*
X-12929090Y90161945D01*
X-12929000Y90162409D01*
X-12929000Y90170994D01*
X-12421000Y90170994D01*
X-12417362Y90160998D01*
X-12413410Y90158717D01*
X-12351616Y90164994D01*
X-12344308Y90166494D01*
X-12157603Y90225004D01*
X-12150749Y90227942D01*
X-11979619Y90322800D01*
X-11973497Y90327055D01*
X-11824943Y90454382D01*
X-11819796Y90459787D01*
X-11699874Y90614390D01*
X-11695926Y90620708D01*
X-11609537Y90796270D01*
X-11606941Y90803252D01*
X-11586071Y90883373D01*
X-11587072Y90893964D01*
X-11588678Y90895547D01*
X-11590757Y90896000D01*
X-12407952Y90896000D01*
X-12417948Y90892362D01*
X-12421000Y90887075D01*
X-12421000Y90170994D01*
X-12929000Y90170994D01*
X-12929000Y90882952D01*
X-12932638Y90892948D01*
X-12937925Y90896000D01*
X-13759048Y90896000D01*
X-13769044Y90892362D01*
X-13769185Y90892117D01*
X-16692393Y90892117D01*
X-16692393Y91416627D01*
X-13763929Y91416627D01*
X-13762928Y91406036D01*
X-13761322Y91404453D01*
X-13759243Y91404000D01*
X-12942048Y91404000D01*
X-12932052Y91407638D01*
X-12929000Y91412925D01*
X-12929000Y91417048D01*
X-12421000Y91417048D01*
X-12417362Y91407052D01*
X-12412075Y91404000D01*
X-11590952Y91404000D01*
X-11580956Y91407638D01*
X-11580815Y91407883D01*
X-11581290Y91413203D01*
X-11645278Y91587117D01*
X-11648545Y91593817D01*
X-11751651Y91760108D01*
X-11756199Y91766014D01*
X-11890638Y91908179D01*
X-11896276Y91913046D01*
X-12056550Y92025271D01*
X-12063068Y92028914D01*
X-12242636Y92106620D01*
X-12249736Y92108872D01*
X-12408227Y92141982D01*
X-12418756Y92140465D01*
X-12420910Y92138055D01*
X-12421000Y92137591D01*
X-12421000Y91417048D01*
X-12929000Y91417048D01*
X-12929000Y92129006D01*
X-12932638Y92139002D01*
X-12936590Y92141283D01*
X-12998384Y92135006D01*
X-13005692Y92133506D01*
X-13192397Y92074996D01*
X-13199251Y92072058D01*
X-13370381Y91977200D01*
X-13376503Y91972945D01*
X-13525057Y91845618D01*
X-13530204Y91840213D01*
X-13650126Y91685610D01*
X-13654074Y91679292D01*
X-13740463Y91503730D01*
X-13743059Y91496748D01*
X-13763929Y91416627D01*
X-16692393Y91416627D01*
X-16692393Y93600874D01*
X-13804459Y93600874D01*
X-13774065Y93399903D01*
X-13703881Y93209148D01*
X-13701906Y93205963D01*
X-13646797Y93117081D01*
X-13596774Y93036401D01*
X-13457119Y92888720D01*
X-13454054Y92886574D01*
X-13454053Y92886573D01*
X-13364979Y92824203D01*
X-13290621Y92772137D01*
X-13209079Y92736851D01*
X-13107516Y92692900D01*
X-13107512Y92692899D01*
X-13104081Y92691414D01*
X-13100419Y92690649D01*
X-13100416Y92690648D01*
X-12918728Y92652692D01*
X-12905120Y92649849D01*
X-12902292Y92649701D01*
X-12902286Y92649700D01*
X-12899422Y92649550D01*
X-12899408Y92649550D01*
X-12898461Y92649500D01*
X-12499200Y92649500D01*
X-12497343Y92649689D01*
X-12497336Y92649689D01*
X-12351515Y92664501D01*
X-12347784Y92664880D01*
X-12265558Y92690648D01*
X-12157404Y92724541D01*
X-12157401Y92724542D01*
X-12153828Y92725662D01*
X-11976056Y92824203D01*
X-11903287Y92886573D01*
X-11824578Y92954035D01*
X-11824577Y92954036D01*
X-11821729Y92956477D01*
X-11697152Y93117081D01*
X-11607413Y93299455D01*
X-11556178Y93496148D01*
X-11550690Y93600874D01*
X-11545737Y93695381D01*
X-11545737Y93695384D01*
X-11545541Y93699126D01*
X-11575935Y93900097D01*
X-11646119Y94090852D01*
X-11701119Y94179558D01*
X-11751252Y94260416D01*
X-11751254Y94260419D01*
X-11753226Y94263599D01*
X-11892881Y94411280D01*
X-11981537Y94473358D01*
X-12056304Y94525710D01*
X-12056305Y94525711D01*
X-12059379Y94527863D01*
X-12140921Y94563149D01*
X-12242484Y94607100D01*
X-12242488Y94607101D01*
X-12245919Y94608586D01*
X-12249581Y94609351D01*
X-12249584Y94609352D01*
X-12442099Y94649570D01*
X-12444880Y94650151D01*
X-12447708Y94650299D01*
X-12447714Y94650300D01*
X-12450578Y94650450D01*
X-12450592Y94650450D01*
X-12451539Y94650500D01*
X-12850800Y94650500D01*
X-12852657Y94650311D01*
X-12852664Y94650311D01*
X-12998485Y94635499D01*
X-13002216Y94635120D01*
X-13005793Y94633999D01*
X-13192596Y94575459D01*
X-13192599Y94575458D01*
X-13196172Y94574338D01*
X-13373944Y94475797D01*
X-13376788Y94473359D01*
X-13376790Y94473358D01*
X-13452391Y94408560D01*
X-13528271Y94343523D01*
X-13652848Y94182919D01*
X-13742587Y94000545D01*
X-13793822Y93803852D01*
X-13794018Y93800114D01*
X-13794018Y93800113D01*
X-13799506Y93695381D01*
X-13804459Y93600874D01*
X-16692393Y93600874D01*
X-16692393Y96100874D01*
X-13804459Y96100874D01*
X-13774065Y95899903D01*
X-13703881Y95709148D01*
X-13701906Y95705963D01*
X-13623806Y95580000D01*
X-13596774Y95536401D01*
X-13457119Y95388720D01*
X-13454054Y95386574D01*
X-13454053Y95386573D01*
X-13364979Y95324203D01*
X-13290621Y95272137D01*
X-13209079Y95236851D01*
X-13107516Y95192900D01*
X-13107512Y95192899D01*
X-13104081Y95191414D01*
X-13100419Y95190649D01*
X-13100416Y95190648D01*
X-12918728Y95152692D01*
X-12905120Y95149849D01*
X-12902292Y95149701D01*
X-12902286Y95149700D01*
X-12899422Y95149550D01*
X-12899408Y95149550D01*
X-12898461Y95149500D01*
X-12499200Y95149500D01*
X-12497343Y95149689D01*
X-12497336Y95149689D01*
X-12351515Y95164501D01*
X-12347784Y95164880D01*
X-12265558Y95190648D01*
X-12157404Y95224541D01*
X-12157401Y95224542D01*
X-12153828Y95225662D01*
X-11976056Y95324203D01*
X-11903287Y95386573D01*
X-11824578Y95454035D01*
X-11824577Y95454036D01*
X-11821729Y95456477D01*
X-11697152Y95617081D01*
X-11607413Y95799455D01*
X-11556178Y95996148D01*
X-11554986Y96018888D01*
X-11546795Y96175192D01*
X235456Y96175192D01*
X254811Y96028177D01*
X257300Y96018888D01*
X314044Y95881896D01*
X318856Y95873561D01*
X409120Y95755926D01*
X415926Y95749120D01*
X533561Y95658856D01*
X541896Y95654044D01*
X678888Y95597300D01*
X688177Y95594811D01*
X798270Y95580317D01*
X803105Y95580000D01*
X876895Y95580000D01*
X881730Y95580317D01*
X991823Y95594811D01*
X1001112Y95597300D01*
X1138104Y95654044D01*
X1146439Y95658856D01*
X1264074Y95749120D01*
X1270880Y95755926D01*
X1361144Y95873561D01*
X1365956Y95881895D01*
X1422700Y96018888D01*
X1425189Y96028177D01*
X1444544Y96175192D01*
X1444544Y96184808D01*
X1425189Y96331823D01*
X1422700Y96341112D01*
X1365956Y96478104D01*
X1361144Y96486439D01*
X1270880Y96604074D01*
X1264074Y96610880D01*
X1146439Y96701144D01*
X1138104Y96705956D01*
X1001112Y96762700D01*
X991823Y96765189D01*
X881730Y96779683D01*
X876895Y96780000D01*
X803105Y96780000D01*
X798270Y96779683D01*
X688177Y96765189D01*
X678888Y96762700D01*
X541896Y96705956D01*
X533561Y96701144D01*
X415926Y96610880D01*
X409120Y96604074D01*
X318856Y96486439D01*
X314044Y96478105D01*
X257300Y96341112D01*
X254811Y96331823D01*
X235456Y96184808D01*
X235456Y96175192D01*
X-11546795Y96175192D01*
X-11545737Y96195381D01*
X-11545737Y96195384D01*
X-11545541Y96199126D01*
X-11561928Y96307479D01*
X-11575374Y96396390D01*
X-11575375Y96396393D01*
X-11575935Y96400097D01*
X-11646119Y96590852D01*
X-11701119Y96679558D01*
X-11751252Y96760416D01*
X-11751254Y96760419D01*
X-11753226Y96763599D01*
X-11892881Y96911280D01*
X-11981537Y96973358D01*
X-12056304Y97025710D01*
X-12056305Y97025711D01*
X-12059379Y97027863D01*
X-12140921Y97063149D01*
X-12242484Y97107100D01*
X-12242488Y97107101D01*
X-12245919Y97108586D01*
X-12249581Y97109351D01*
X-12249584Y97109352D01*
X-12442099Y97149570D01*
X-12444880Y97150151D01*
X-12447708Y97150299D01*
X-12447714Y97150300D01*
X-12450578Y97150450D01*
X-12450592Y97150450D01*
X-12451539Y97150500D01*
X-12850800Y97150500D01*
X-12852657Y97150311D01*
X-12852664Y97150311D01*
X-12998485Y97135499D01*
X-13002216Y97135120D01*
X-13005793Y97133999D01*
X-13192596Y97075459D01*
X-13192599Y97075458D01*
X-13196172Y97074338D01*
X-13373944Y96975797D01*
X-13376788Y96973359D01*
X-13376790Y96973358D01*
X-13452391Y96908560D01*
X-13528271Y96843523D01*
X-13652848Y96682919D01*
X-13654501Y96679559D01*
X-13654502Y96679558D01*
X-13695943Y96595339D01*
X-13742587Y96500545D01*
X-13793822Y96303852D01*
X-13794018Y96300114D01*
X-13794018Y96300113D01*
X-13800564Y96175192D01*
X-13804459Y96100874D01*
X-16692393Y96100874D01*
X-16692393Y99281519D01*
X-13800500Y99281519D01*
X-13800499Y98018482D01*
X-13785646Y97924696D01*
X-13756848Y97868177D01*
X-13730696Y97816850D01*
X-13730694Y97816848D01*
X-13728050Y97811658D01*
X-13638342Y97721950D01*
X-13633152Y97719306D01*
X-13633150Y97719304D01*
X-13530498Y97667000D01*
X-13530495Y97666999D01*
X-13525304Y97664354D01*
X-13519552Y97663443D01*
X-13519549Y97663442D01*
X-13434398Y97649956D01*
X-13431519Y97649500D01*
X-12675000Y97649500D01*
X-11918482Y97649501D01*
X-11915610Y97649956D01*
X-11915608Y97649956D01*
X-11883910Y97654976D01*
X-11824696Y97664354D01*
X-11768177Y97693152D01*
X-11716850Y97719304D01*
X-11716848Y97719306D01*
X-11711658Y97721950D01*
X-11621950Y97811658D01*
X-11619306Y97816848D01*
X-11619304Y97816850D01*
X-11567000Y97919502D01*
X-11566999Y97919505D01*
X-11564354Y97924696D01*
X-11563443Y97930448D01*
X-11563442Y97930451D01*
X-11549955Y98015608D01*
X-11549500Y98018481D01*
X-11549500Y98638895D01*
X139031Y98638895D01*
X178612Y98474032D01*
X256375Y98323369D01*
X259304Y98320011D01*
X259305Y98320010D01*
X261688Y98317279D01*
X367831Y98195604D01*
X371485Y98193036D01*
X371486Y98193035D01*
X378427Y98188157D01*
X506547Y98098113D01*
X664513Y98036524D01*
X793826Y98019500D01*
X882516Y98019500D01*
X884729Y98019768D01*
X884732Y98019768D01*
X1003891Y98034188D01*
X1008320Y98034724D01*
X1109865Y98073095D01*
X1162753Y98093079D01*
X1162755Y98093080D01*
X1166923Y98094655D01*
X1217301Y98129279D01*
X1302969Y98188157D01*
X1302971Y98188159D01*
X1306651Y98190688D01*
X1419440Y98317279D01*
X1498776Y98467119D01*
X1499863Y98471446D01*
X1538994Y98627231D01*
X1538994Y98627232D01*
X1540081Y98631559D01*
X1540969Y98801105D01*
X1501388Y98965968D01*
X1447373Y99070621D01*
X10444975Y99070621D01*
X10445862Y99067313D01*
X10445966Y99067211D01*
X10482036Y99043110D01*
X10487973Y99039886D01*
X10663272Y98964572D01*
X10669691Y98962487D01*
X10855768Y98920381D01*
X10862477Y98919498D01*
X11053107Y98912008D01*
X11059866Y98912363D01*
X11248667Y98939738D01*
X11255244Y98941316D01*
X11435903Y99002642D01*
X11442073Y99005388D01*
X11548205Y99064825D01*
X11555148Y99072884D01*
X11555172Y99074737D01*
X11553685Y99077105D01*
X11009226Y99621564D01*
X10999587Y99626059D01*
X10993688Y99624478D01*
X10449470Y99080260D01*
X10444975Y99070621D01*
X1447373Y99070621D01*
X1423625Y99116631D01*
X1420695Y99119990D01*
X1315104Y99241032D01*
X1315102Y99241034D01*
X1312169Y99244396D01*
X1305175Y99249312D01*
X1177105Y99339320D01*
X1173453Y99341887D01*
X1015487Y99403476D01*
X886174Y99420500D01*
X797484Y99420500D01*
X795271Y99420232D01*
X795268Y99420232D01*
X676109Y99405812D01*
X671680Y99405276D01*
X577134Y99369550D01*
X517247Y99346921D01*
X517245Y99346920D01*
X513077Y99345345D01*
X509402Y99342819D01*
X377031Y99251843D01*
X377029Y99251841D01*
X373349Y99249312D01*
X260560Y99122721D01*
X258472Y99118777D01*
X198436Y99005388D01*
X181224Y98972881D01*
X180137Y98968555D01*
X180137Y98968554D01*
X165934Y98912008D01*
X139919Y98808441D01*
X139031Y98638895D01*
X-11549500Y98638895D01*
X-11549501Y99281518D01*
X-11564354Y99375304D01*
X-11597210Y99439788D01*
X-11619304Y99483150D01*
X-11619306Y99483152D01*
X-11621950Y99488342D01*
X-11711658Y99578050D01*
X-11716848Y99580694D01*
X-11716850Y99580696D01*
X-11819502Y99633000D01*
X-11819505Y99633001D01*
X-11824696Y99635646D01*
X-11830448Y99636557D01*
X-11830451Y99636558D01*
X-11915608Y99650045D01*
X-11918481Y99650500D01*
X-11921390Y99650500D01*
X-12674999Y99650499D01*
X-13431518Y99650499D01*
X-13434390Y99650044D01*
X-13434392Y99650044D01*
X-13466090Y99645024D01*
X-13525304Y99635646D01*
X-13543175Y99626540D01*
X-13633150Y99580696D01*
X-13633152Y99580694D01*
X-13638342Y99578050D01*
X-13728050Y99488342D01*
X-13730694Y99483152D01*
X-13730696Y99483150D01*
X-13771178Y99403699D01*
X-13785646Y99375304D01*
X-13786557Y99369552D01*
X-13786558Y99369549D01*
X-13800045Y99284392D01*
X-13800500Y99281519D01*
X-16692393Y99281519D01*
X-16692393Y100014874D01*
X9920987Y100014874D01*
X9933466Y99824490D01*
X9934521Y99817830D01*
X9981484Y99632911D01*
X9983740Y99626540D01*
X10063615Y99453277D01*
X10066995Y99447425D01*
X10072392Y99439788D01*
X10081132Y99433725D01*
X10084858Y99434068D01*
X10631564Y99980774D01*
X10635674Y99989587D01*
X11363941Y99989587D01*
X11365522Y99983688D01*
X11909573Y99439637D01*
X11919212Y99435142D01*
X11921004Y99435623D01*
X11922878Y99437695D01*
X11984612Y99547927D01*
X11987358Y99554097D01*
X12048684Y99734756D01*
X12050262Y99741333D01*
X12077812Y99931337D01*
X12078182Y99935676D01*
X12079548Y99987834D01*
X12079407Y99992157D01*
X12061837Y100183365D01*
X12060607Y100190006D01*
X12008819Y100373631D01*
X12006397Y100379939D01*
X11927206Y100540522D01*
X11919522Y100547878D01*
X11918728Y100547930D01*
X11914835Y100545625D01*
X11368436Y99999226D01*
X11363941Y99989587D01*
X10635674Y99989587D01*
X10636059Y99990413D01*
X10634478Y99996312D01*
X10089392Y100541398D01*
X10079753Y100545893D01*
X10078471Y100545549D01*
X10076050Y100542800D01*
X10004159Y100406159D01*
X10001566Y100399896D01*
X9944993Y100217703D01*
X9943589Y100211096D01*
X9921164Y100021634D01*
X9920987Y100014874D01*
X-16692393Y100014874D01*
X-16692393Y101288274D01*
X-239738Y101288274D01*
X-226810Y101091034D01*
X-219877Y101063735D01*
X-181238Y100911594D01*
X-178155Y100899453D01*
X-95401Y100719946D01*
X18679Y100558526D01*
X160266Y100420598D01*
X163089Y100418712D01*
X321795Y100312668D01*
X321800Y100312665D01*
X324617Y100310783D01*
X506228Y100232756D01*
X699018Y100189132D01*
X792668Y100185453D01*
X893133Y100181505D01*
X893137Y100181505D01*
X896528Y100181372D01*
X1027962Y100200429D01*
X1088788Y100209248D01*
X1088789Y100209248D01*
X1092146Y100209735D01*
X1279320Y100273272D01*
X1282272Y100274925D01*
X1282276Y100274927D01*
X1448818Y100368196D01*
X1448819Y100368197D01*
X1451780Y100369855D01*
X1603752Y100496248D01*
X1730145Y100648220D01*
X1770314Y100719946D01*
X1825073Y100817724D01*
X1825075Y100817728D01*
X1826728Y100820680D01*
X1855946Y100906753D01*
X10445376Y100906753D01*
X10445407Y100904374D01*
X10446450Y100902760D01*
X10990774Y100358436D01*
X11000413Y100353941D01*
X11006312Y100355522D01*
X11549940Y100899150D01*
X11554435Y100908789D01*
X11553683Y100911594D01*
X11552934Y100912308D01*
X11492991Y100950130D01*
X11486985Y100953190D01*
X11309778Y101023889D01*
X11303293Y101025809D01*
X11116173Y101063030D01*
X11109463Y101063735D01*
X10918688Y101066233D01*
X10911948Y101065702D01*
X10723922Y101033393D01*
X10717393Y101031643D01*
X10538398Y100965609D01*
X10532307Y100962704D01*
X10452105Y100914989D01*
X10445376Y100906753D01*
X1855946Y100906753D01*
X1890265Y101007854D01*
X1898265Y101063030D01*
X1918315Y101201310D01*
X1918316Y101201318D01*
X1918628Y101203472D01*
X1920108Y101260000D01*
X1917200Y101291647D01*
X1902332Y101453455D01*
X1902331Y101453460D01*
X1902021Y101456834D01*
X1895562Y101479738D01*
X1858649Y101610621D01*
X10444975Y101610621D01*
X10445862Y101607313D01*
X10445966Y101607211D01*
X10482036Y101583110D01*
X10487973Y101579886D01*
X10663272Y101504572D01*
X10669691Y101502487D01*
X10855768Y101460381D01*
X10862477Y101459498D01*
X11053107Y101452008D01*
X11059866Y101452363D01*
X11248667Y101479738D01*
X11255244Y101481316D01*
X11435903Y101542642D01*
X11442073Y101545388D01*
X11548205Y101604825D01*
X11555148Y101612884D01*
X11555172Y101614737D01*
X11553685Y101617105D01*
X11009226Y102161564D01*
X10999587Y102166059D01*
X10993688Y102164478D01*
X10449470Y101620260D01*
X10444975Y101610621D01*
X1858649Y101610621D01*
X1857488Y101614737D01*
X1848368Y101647076D01*
X1837014Y101670099D01*
X1762442Y101821316D01*
X1762440Y101821319D01*
X1760943Y101824355D01*
X1758920Y101827064D01*
X1758917Y101827069D01*
X1644709Y101980012D01*
X1644708Y101980013D01*
X1642677Y101982733D01*
X1640186Y101985036D01*
X1640183Y101985039D01*
X1500020Y102114604D01*
X1500016Y102114607D01*
X1497528Y102116907D01*
X1330359Y102222383D01*
X1327216Y102223637D01*
X1327214Y102223638D01*
X1149921Y102294371D01*
X1149918Y102294372D01*
X1146767Y102295629D01*
X1001299Y102324564D01*
X956226Y102333530D01*
X956224Y102333530D01*
X952902Y102334191D01*
X866049Y102335328D01*
X758649Y102336734D01*
X758645Y102336734D01*
X755256Y102336778D01*
X751910Y102336203D01*
X751909Y102336203D01*
X698176Y102326970D01*
X560447Y102303304D01*
X375002Y102234890D01*
X205128Y102133826D01*
X56517Y102003497D01*
X-65855Y101848269D01*
X-157890Y101673339D01*
X-216505Y101484567D01*
X-239738Y101288274D01*
X-16692393Y101288274D01*
X-16692393Y102525693D01*
X-14609953Y102525693D01*
X-14608867Y102521643D01*
X-14340431Y102315664D01*
X-14337126Y102313401D01*
X-14039761Y102132600D01*
X-14036228Y102130706D01*
X-13721068Y101983074D01*
X-13717367Y101981579D01*
X-13388104Y101868848D01*
X-13384264Y101867760D01*
X-13044741Y101791246D01*
X-13040803Y101790580D01*
X-12695030Y101751184D01*
X-12691018Y101750945D01*
X-12343013Y101749124D01*
X-12339007Y101749319D01*
X-11992832Y101785093D01*
X-11988884Y101785719D01*
X-11648590Y101858671D01*
X-11644731Y101859719D01*
X-11314313Y101968995D01*
X-11310584Y101970457D01*
X-10993910Y102114774D01*
X-10990346Y102116637D01*
X-10691110Y102294309D01*
X-10687782Y102296537D01*
X-10409473Y102505497D01*
X-10406408Y102508069D01*
X-10395721Y102518069D01*
X-10390909Y102527554D01*
X-10392166Y102532956D01*
X-10414084Y102554874D01*
X9920987Y102554874D01*
X9933466Y102364490D01*
X9934521Y102357830D01*
X9981484Y102172911D01*
X9983740Y102166540D01*
X10063615Y101993277D01*
X10066995Y101987425D01*
X10072392Y101979788D01*
X10081132Y101973725D01*
X10084858Y101974068D01*
X10631564Y102520774D01*
X10635674Y102529587D01*
X11363941Y102529587D01*
X11365522Y102523688D01*
X11909573Y101979637D01*
X11919212Y101975142D01*
X11921004Y101975623D01*
X11922878Y101977695D01*
X11984612Y102087927D01*
X11987358Y102094097D01*
X12048684Y102274756D01*
X12050262Y102281333D01*
X12077812Y102471337D01*
X12078182Y102475676D01*
X12079548Y102527834D01*
X12079407Y102532157D01*
X12061837Y102723365D01*
X12060607Y102730006D01*
X12008819Y102913631D01*
X12006397Y102919939D01*
X11927206Y103080522D01*
X11919522Y103087878D01*
X11918728Y103087930D01*
X11914835Y103085625D01*
X11368436Y102539226D01*
X11363941Y102529587D01*
X10635674Y102529587D01*
X10636059Y102530413D01*
X10634478Y102536312D01*
X10089392Y103081398D01*
X10079753Y103085893D01*
X10078471Y103085549D01*
X10076050Y103082800D01*
X10004159Y102946159D01*
X10001566Y102939896D01*
X9944993Y102757703D01*
X9943589Y102751096D01*
X9921164Y102561634D01*
X9920987Y102554874D01*
X-10414084Y102554874D01*
X-12490774Y104631564D01*
X-12500413Y104636059D01*
X-12506312Y104634478D01*
X-14605458Y102535332D01*
X-14609953Y102525693D01*
X-16692393Y102525693D01*
X-16692393Y105009348D01*
X-15754651Y105009348D01*
X-15737044Y104661780D01*
X-15736628Y104657816D01*
X-15681584Y104314163D01*
X-15680737Y104310249D01*
X-15588902Y103974558D01*
X-15587645Y103970780D01*
X-15460088Y103646957D01*
X-15458428Y103643332D01*
X-15296649Y103335189D01*
X-15294604Y103331758D01*
X-15100497Y103042895D01*
X-15098083Y103039692D01*
X-14979145Y102898449D01*
X-14969925Y102893147D01*
X-14965226Y102893984D01*
X-12868436Y104990774D01*
X-12864326Y104999587D01*
X-12136059Y104999587D01*
X-12134478Y104993688D01*
X-10038534Y102897744D01*
X-10028895Y102893249D01*
X-10024143Y102894523D01*
X-9922577Y103012604D01*
X-9920147Y103015761D01*
X-9723020Y103302583D01*
X-9720938Y103305992D01*
X-9645146Y103446753D01*
X10445376Y103446753D01*
X10445407Y103444374D01*
X10446450Y103442760D01*
X10990774Y102898436D01*
X11000413Y102893941D01*
X11006312Y102895522D01*
X11549940Y103439150D01*
X11554435Y103448789D01*
X11553683Y103451594D01*
X11552934Y103452308D01*
X11492991Y103490130D01*
X11486985Y103493190D01*
X11309778Y103563889D01*
X11303293Y103565809D01*
X11116173Y103603030D01*
X11109463Y103603735D01*
X10918688Y103606233D01*
X10911948Y103605702D01*
X10723922Y103573393D01*
X10717393Y103571643D01*
X10538398Y103505609D01*
X10532307Y103502704D01*
X10452105Y103454989D01*
X10445376Y103446753D01*
X-9645146Y103446753D01*
X-9555940Y103612426D01*
X-9554241Y103616038D01*
X-9423307Y103938492D01*
X-9422004Y103942275D01*
X-9326660Y104276980D01*
X-9325771Y104280891D01*
X-9267133Y104623939D01*
X-9266675Y104627897D01*
X-9245370Y104976227D01*
X-9245302Y104978324D01*
X-9245231Y104998957D01*
X-9245284Y105001045D01*
X-9250549Y105098274D01*
X9920262Y105098274D01*
X9933190Y104901034D01*
X9981845Y104709453D01*
X10064599Y104529946D01*
X10178679Y104368526D01*
X10320266Y104230598D01*
X10323089Y104228712D01*
X10481795Y104122668D01*
X10481800Y104122665D01*
X10484617Y104120783D01*
X10666228Y104042756D01*
X10859018Y103999132D01*
X10952668Y103995453D01*
X11053133Y103991505D01*
X11053137Y103991505D01*
X11056528Y103991372D01*
X11187962Y104010429D01*
X11248788Y104019248D01*
X11248789Y104019248D01*
X11252146Y104019735D01*
X11439320Y104083272D01*
X11442272Y104084925D01*
X11442276Y104084927D01*
X11608818Y104178196D01*
X11608819Y104178197D01*
X11611780Y104179855D01*
X11763752Y104306248D01*
X11890145Y104458220D01*
X11930314Y104529946D01*
X11985073Y104627724D01*
X11985075Y104627728D01*
X11986728Y104630680D01*
X12050265Y104817854D01*
X12050752Y104821212D01*
X12078315Y105011310D01*
X12078316Y105011318D01*
X12078628Y105013472D01*
X12080108Y105070000D01*
X12077200Y105101647D01*
X12062332Y105263455D01*
X12062331Y105263460D01*
X12062021Y105266834D01*
X12053286Y105297809D01*
X12009288Y105453813D01*
X12008368Y105457076D01*
X11997014Y105480099D01*
X11922442Y105631316D01*
X11922440Y105631319D01*
X11920943Y105634355D01*
X11918920Y105637064D01*
X11918917Y105637069D01*
X11804709Y105790012D01*
X11804708Y105790013D01*
X11802677Y105792733D01*
X11800186Y105795036D01*
X11800183Y105795039D01*
X11660020Y105924604D01*
X11660016Y105924607D01*
X11657528Y105926907D01*
X11490359Y106032383D01*
X11487216Y106033637D01*
X11487214Y106033638D01*
X11309921Y106104371D01*
X11309918Y106104372D01*
X11306767Y106105629D01*
X11161299Y106134564D01*
X11116226Y106143530D01*
X11116224Y106143530D01*
X11112902Y106144191D01*
X11026049Y106145328D01*
X10918649Y106146734D01*
X10918645Y106146734D01*
X10915256Y106146778D01*
X10911910Y106146203D01*
X10911909Y106146203D01*
X10858176Y106136970D01*
X10720447Y106113304D01*
X10535002Y106044890D01*
X10365128Y105943826D01*
X10216517Y105813497D01*
X10094145Y105658269D01*
X10002110Y105483339D01*
X9943495Y105294567D01*
X9920262Y105098274D01*
X-9250549Y105098274D01*
X-9264155Y105349510D01*
X-9264589Y105353498D01*
X-9320830Y105696940D01*
X-9321686Y105700837D01*
X-9414695Y106036214D01*
X-9415969Y106040000D01*
X-9544649Y106363358D01*
X-9546327Y106366990D01*
X-9709180Y106674566D01*
X-9711240Y106677994D01*
X-9906352Y106966173D01*
X-9908769Y106969357D01*
X-10020863Y107101535D01*
X-10030104Y107106806D01*
X-10034846Y107105944D01*
X-12131564Y105009226D01*
X-12136059Y104999587D01*
X-12864326Y104999587D01*
X-12863941Y105000413D01*
X-12865522Y105006312D01*
X-14961454Y107102244D01*
X-14971093Y107106739D01*
X-14975798Y107105478D01*
X-15084340Y106978391D01*
X-15086767Y106975217D01*
X-15282890Y106687710D01*
X-15284957Y106684297D01*
X-15448883Y106377293D01*
X-15450571Y106373673D01*
X-15580383Y106050754D01*
X-15581668Y106046979D01*
X-15675847Y105711933D01*
X-15676718Y105708032D01*
X-15734158Y105364787D01*
X-15734605Y105360801D01*
X-15754637Y105013374D01*
X-15754651Y105009348D01*
X-16692393Y105009348D01*
X-16692393Y107472837D01*
X-14609464Y107472837D01*
X-14608176Y107467386D01*
X-12509226Y105368436D01*
X-12499587Y105363941D01*
X-12493688Y105365522D01*
X-10394642Y107464568D01*
X-10390147Y107474207D01*
X-10391526Y107479350D01*
X-10392108Y107479846D01*
X-10600073Y107638274D01*
X9920262Y107638274D01*
X9933190Y107441034D01*
X9981845Y107249453D01*
X10064599Y107069946D01*
X10066551Y107067184D01*
X10131547Y106975217D01*
X10178679Y106908526D01*
X10320266Y106770598D01*
X10323089Y106768712D01*
X10481795Y106662668D01*
X10481800Y106662665D01*
X10484617Y106660783D01*
X10666228Y106582756D01*
X10859018Y106539132D01*
X10952668Y106535453D01*
X11053133Y106531505D01*
X11053137Y106531505D01*
X11056528Y106531372D01*
X11187962Y106550429D01*
X11248788Y106559248D01*
X11248789Y106559248D01*
X11252146Y106559735D01*
X11439320Y106623272D01*
X11442272Y106624925D01*
X11442276Y106624927D01*
X11608818Y106718196D01*
X11608819Y106718197D01*
X11611780Y106719855D01*
X11763752Y106846248D01*
X11871014Y106975217D01*
X11887971Y106995606D01*
X11890145Y106998220D01*
X11930314Y107069946D01*
X11985073Y107167724D01*
X11985075Y107167728D01*
X11986728Y107170680D01*
X12050265Y107357854D01*
X12050752Y107361212D01*
X12078315Y107551310D01*
X12078316Y107551318D01*
X12078628Y107553472D01*
X12080108Y107610000D01*
X12072481Y107693000D01*
X12062332Y107803455D01*
X12062331Y107803460D01*
X12062021Y107806834D01*
X12053286Y107837809D01*
X12009288Y107993813D01*
X12008368Y107997076D01*
X11995754Y108022655D01*
X11922442Y108171316D01*
X11922440Y108171319D01*
X11920943Y108174355D01*
X11918920Y108177064D01*
X11918917Y108177069D01*
X11804709Y108330012D01*
X11804708Y108330013D01*
X11802677Y108332733D01*
X11800186Y108335036D01*
X11800183Y108335039D01*
X11660020Y108464604D01*
X11660016Y108464607D01*
X11657528Y108466907D01*
X11490359Y108572383D01*
X11487216Y108573637D01*
X11487214Y108573638D01*
X11309921Y108644371D01*
X11309918Y108644372D01*
X11306767Y108645629D01*
X11161299Y108674564D01*
X11116226Y108683530D01*
X11116224Y108683530D01*
X11112902Y108684191D01*
X11026049Y108685328D01*
X10918649Y108686734D01*
X10918645Y108686734D01*
X10915256Y108686778D01*
X10911910Y108686203D01*
X10911909Y108686203D01*
X10858176Y108676970D01*
X10720447Y108653304D01*
X10535002Y108584890D01*
X10365128Y108483826D01*
X10216517Y108353497D01*
X10094145Y108198269D01*
X10002110Y108023339D01*
X9943495Y107834567D01*
X9920262Y107638274D01*
X-10600073Y107638274D01*
X-10668944Y107690740D01*
X-10672270Y107693000D01*
X-10970270Y107872764D01*
X-10973785Y107874633D01*
X-11289457Y108021164D01*
X-11293185Y108022655D01*
X-11622832Y108134235D01*
X-11626683Y108135310D01*
X-11966447Y108210633D01*
X-11970412Y108211289D01*
X-12316331Y108249479D01*
X-12320306Y108249701D01*
X-12668333Y108250308D01*
X-12672341Y108250098D01*
X-13018391Y108213116D01*
X-13022333Y108212477D01*
X-13362355Y108138342D01*
X-13366232Y108137274D01*
X-13696266Y108026845D01*
X-13699977Y108025376D01*
X-14016172Y107879943D01*
X-14019695Y107878086D01*
X-14318331Y107699355D01*
X-14321644Y107697121D01*
X-14599213Y107487197D01*
X-14602283Y107484602D01*
X-14604685Y107482340D01*
X-14609464Y107472837D01*
X-16692393Y107472837D01*
X-16692393Y110960127D01*
X-16691269Y110972976D01*
X-16688881Y110986519D01*
X-16688881Y110986520D01*
X-16687757Y110992895D01*
X-16688968Y110999762D01*
X-16689737Y111019867D01*
X-16679667Y111122107D01*
X-16676837Y111136334D01*
X-16641263Y111253610D01*
X-16635711Y111267013D01*
X-16577945Y111375086D01*
X-16569886Y111387148D01*
X-16492138Y111481884D01*
X-16481882Y111492140D01*
X-16387148Y111569886D01*
X-16375086Y111577945D01*
X-16361636Y111585134D01*
X-16267010Y111635712D01*
X-16253610Y111641263D01*
X-16136334Y111676837D01*
X-16122107Y111679667D01*
X-16019867Y111689737D01*
X-15999762Y111688968D01*
X-15992895Y111687757D01*
X-15986520Y111688881D01*
X-15986519Y111688881D01*
X-15972976Y111691269D01*
X-15960127Y111692393D01*
X15960127Y111692393D01*
X15972976Y111691269D01*
G37*
%TD.AperFunction*%
%TD*%
M02*
