M48
; DRILL file {KiCad (6.0.10-0)} date Monday, February 06, 2023 at 04:27:18 PM
; FORMAT={-:-/ absolute / inch / decimal}
; #@! TF.CreationDate,2023-02-06T16:27:18-08:00
; #@! TF.GenerationSoftware,Kicad,Pcbnew,(6.0.10-0)
; #@! TF.FileFunction,Plated,1,4,PTH
FMAT,2
INCH
; #@! TA.AperFunction,Plated,PTH,ViaDrill
T1C0.0098
; #@! TA.AperFunction,Plated,PTH,ViaDrill
T2C0.0157
; #@! TA.AperFunction,Plated,PTH,ComponentDrill
T3C0.0354
; #@! TA.AperFunction,Plated,PTH,ComponentDrill
T4C0.0374
; #@! TA.AperFunction,Plated,PTH,ComponentDrill
T5C0.0402
; #@! TA.AperFunction,Plated,PTH,ComponentDrill
T6C0.0630
; #@! TA.AperFunction,Plated,PTH,ComponentDrill
T7C0.1693
%
G90
G05
T1
X-0.6457Y0.9055
X-0.6437Y1.9911
X-0.6378Y2.4016
X-0.6378Y2.0591
X-0.6319Y2.1004
X-0.6296Y4.3698
X-0.6296Y0.0396
X-0.624Y2.0213
X-0.6063Y1.0433
X-0.5945Y2.3169
X-0.563Y2.5276
X-0.561Y2.6339
X-0.5591Y0.9331
X-0.5571Y2.3543
X-0.5512Y2.7441
X-0.5475Y1.807
X-0.5475Y1.7341
X-0.5472Y2.2283
X-0.5472Y1.9488
X-0.5472Y0.4331
X-0.5413Y2.4862
X-0.5394Y2.1181
X-0.5394Y1.5433
X-0.5394Y0.9331
X-0.5374Y1.5797
X-0.5335Y2.5827
X-0.5276Y0.3937
X-0.5197Y2.4587
X-0.5098Y1.0374
X-0.5079Y2.6772
X-0.5079Y1.8071
X-0.5079Y1.6014
X-0.5Y2.25
X-0.5Y1.5433
X-0.4961Y2.5787
X-0.4921Y2.7835
X-0.4921Y2.4331
X-0.4921Y0.3937
X-0.4567Y0.3937
X-0.4488Y1.8307
X-0.4449Y1.9449
X-0.437Y0.4331
X-0.4094Y2.7579
X-0.3937Y1.3386
X-0.3937Y1.2992
X-0.3937Y1.2598
X-0.3937Y1.2205
X-0.3583Y1.6014
X-0.3543Y1.3386
X-0.3543Y1.2992
X-0.3543Y1.2598
X-0.3543Y1.2205
X-0.3465Y1.7441
X-0.3425Y2.2756
X-0.3386Y2.8091
X-0.315Y1.3386
X-0.315Y1.2992
X-0.315Y1.2598
X-0.315Y1.2205
X-0.2756Y1.3386
X-0.2756Y1.2992
X-0.2756Y1.2598
X-0.2756Y1.2205
X-0.2598Y1.6014
X-0.252Y1.7244
X-0.2367Y1.2591
X-0.2362Y1.3386
X-0.2362Y1.2992
X-0.2362Y1.2205
X-0.2087Y1.6014
X-0.185Y1.5748
X-0.1594Y1.0374
X-0.1083Y1.0374
X-0.1063Y2.0236
X-0.0591Y1.0374
X-0.0453Y1.7224
X-0.0098Y1.7461
X-0.0098Y1.0374
X-0.0079Y1.9252
X-0.0079Y1.8031
X-0.0039Y1.0945
X0.0157Y1.5354
X0.0157Y1.4331
X0.0197Y1.2008
X0.0413Y1.0374
X0.0512Y0.3445
X0.0748Y0.9252
X0.0807Y1.626
X0.0827Y1.6693
X0.0866Y1.9252
X0.0866Y1.8031
X0.0984Y1.0472
X0.1181Y1.6299
X0.1417Y1.2677
X0.1457Y1.689
X0.1457Y1.4528
X0.1457Y1.4134
X0.1732Y1.752
X0.189Y1.5669
X0.189Y1.5276
X0.1929Y1.4331
X0.1929Y1.3937
X0.1929Y1.3543
X0.1929Y1.315
X0.1969Y1.689
X0.25Y1.5925
X0.2598Y1.6182
X0.2717Y1.2441
X0.2953Y1.4724
X0.311Y0.9843
X0.3268Y1.5157
X0.3268Y1.315
X0.3386Y1.6024
X0.3583Y1.4134
X0.3657Y1.5173
X0.3681Y1.6535
X0.378Y1.6024
X0.3858Y1.6535
X0.3898Y1.6929
X0.3976Y1.4528
X0.3976Y1.4134
X0.3976Y1.374
X0.3976Y1.2638
X0.4035Y1.6535
X0.4094Y0.9843
X0.4134Y0.4409
X0.4291Y1.6024
X0.437Y1.4134
X0.437Y0.4173
X0.4567Y0.3937
X0.4606Y1.6535
X0.4646Y1.7559
X0.4685Y1.6024
X0.4724Y1.1417
X0.4921Y1.5
X0.4921Y0.3937
X0.5Y1.5354
X0.5039Y1.7559
X0.5079Y1.3386
X0.5118Y1.4173
X0.5118Y1.3858
X0.5157Y1.1417
X0.5236Y1.2441
X0.5276Y0.3937
X0.5374Y1.4311
X0.5472Y0.4331
X0.6296Y4.3698
X0.6296Y0.0396
T2
X0.3622Y0.7953
X0.4724Y0.7953
X0.4764Y0.9685
X0.5276Y0.9685
X0.5748Y0.7953
T3
X-0.175Y0.624
X-0.125Y0.724
X-0.075Y0.624
X-0.025Y0.724
X0.025Y0.624
X0.0331Y3.9866
X0.0331Y3.8866
X0.0331Y3.7866
X0.0331Y2.3866
X0.0331Y2.2866
X0.0331Y2.1866
X0.0331Y2.0866
X0.075Y0.724
X0.125Y0.624
X0.175Y0.724
X0.4331Y4.2366
X0.4331Y4.1366
X0.4331Y4.0366
X0.4331Y3.9366
X0.4331Y2.5866
X0.4331Y2.4866
X0.4331Y2.3866
X0.4331Y2.2866
X0.4331Y2.1866
X0.4331Y2.0866
T4
X-0.499Y3.8839
X-0.499Y3.7854
X-0.499Y3.687
X-0.499Y3.5886
X-0.499Y3.2933
X-0.499Y3.1949
X-0.499Y3.0965
X-0.499Y2.998
T5
X-0.261Y0.2142
X-0.161Y0.2142
X0.161Y0.2142
X0.261Y0.2142
T6
X-0.31Y0.4941
X0.31Y0.4941
T7
X-0.4921Y4.1339
X-0.4921Y0.2362
X0.4921Y0.2362
T0
M30
