%TF.GenerationSoftware,KiCad,Pcbnew,(6.0.10-0)*%
%TF.CreationDate,2023-02-06T16:27:18-08:00*%
%TF.ProjectId,poe-led-bars,706f652d-6c65-4642-9d62-6172732e6b69,rev?*%
%TF.SameCoordinates,Original*%
%TF.FileFunction,Legend,Bot*%
%TF.FilePolarity,Positive*%
%FSLAX46Y46*%
G04 Gerber Fmt 4.6, Leading zero omitted, Abs format (unit mm)*
G04 Created by KiCad (PCBNEW (6.0.10-0)) date 2023-02-06 16:27:18*
%MOMM*%
%LPD*%
G01*
G04 APERTURE LIST*
G04 Aperture macros list*
%AMRoundRect*
0 Rectangle with rounded corners*
0 $1 Rounding radius*
0 $2 $3 $4 $5 $6 $7 $8 $9 X,Y pos of 4 corners*
0 Add a 4 corners polygon primitive as box body*
4,1,4,$2,$3,$4,$5,$6,$7,$8,$9,$2,$3,0*
0 Add four circle primitives for the rounded corners*
1,1,$1+$1,$2,$3*
1,1,$1+$1,$4,$5*
1,1,$1+$1,$6,$7*
1,1,$1+$1,$8,$9*
0 Add four rect primitives between the rounded corners*
20,1,$1+$1,$2,$3,$4,$5,0*
20,1,$1+$1,$4,$5,$6,$7,0*
20,1,$1+$1,$6,$7,$8,$9,0*
20,1,$1+$1,$8,$9,$2,$3,0*%
G04 Aperture macros list end*
%ADD10C,0.150000*%
%ADD11C,0.120000*%
%ADD12C,6.200000*%
%ADD13RoundRect,0.250000X-0.725000X0.600000X-0.725000X-0.600000X0.725000X-0.600000X0.725000X0.600000X0*%
%ADD14O,1.950000X1.700000*%
%ADD15R,1.850000X1.850000*%
%ADD16C,1.850000*%
%ADD17C,3.250000*%
%ADD18RoundRect,0.250500X-0.499500X-0.499500X0.499500X-0.499500X0.499500X0.499500X-0.499500X0.499500X0*%
%ADD19C,1.500000*%
%ADD20C,2.500000*%
%ADD21R,1.800000X1.900000*%
%ADD22R,1.425000X1.550000*%
%ADD23R,1.000000X1.900000*%
%ADD24R,1.650000X1.300000*%
%ADD25R,0.450000X1.380000*%
%ADD26C,0.500000*%
%ADD27C,0.800000*%
G04 APERTURE END LIST*
D10*
%TO.C,USB-UART1*%
X4190476Y6347620D02*
X4190476Y5538096D01*
X4142857Y5442858D01*
X4095238Y5395239D01*
X4000000Y5347620D01*
X3809523Y5347620D01*
X3714285Y5395239D01*
X3666666Y5442858D01*
X3619047Y5538096D01*
X3619047Y6347620D01*
X3190476Y5395239D02*
X3047619Y5347620D01*
X2809523Y5347620D01*
X2714285Y5395239D01*
X2666666Y5442858D01*
X2619047Y5538096D01*
X2619047Y5633334D01*
X2666666Y5728572D01*
X2714285Y5776191D01*
X2809523Y5823810D01*
X3000000Y5871429D01*
X3095238Y5919048D01*
X3142857Y5966667D01*
X3190476Y6061905D01*
X3190476Y6157143D01*
X3142857Y6252381D01*
X3095238Y6300000D01*
X3000000Y6347620D01*
X2761904Y6347620D01*
X2619047Y6300000D01*
X1857142Y5871429D02*
X1714285Y5823810D01*
X1666666Y5776191D01*
X1619047Y5680953D01*
X1619047Y5538096D01*
X1666666Y5442858D01*
X1714285Y5395239D01*
X1809523Y5347620D01*
X2190476Y5347620D01*
X2190476Y6347620D01*
X1857142Y6347620D01*
X1761904Y6300000D01*
X1714285Y6252381D01*
X1666666Y6157143D01*
X1666666Y6061905D01*
X1714285Y5966667D01*
X1761904Y5919048D01*
X1857142Y5871429D01*
X2190476Y5871429D01*
X1190476Y5728572D02*
X428571Y5728572D01*
X-47620Y6347620D02*
X-47620Y5538096D01*
X-95239Y5442858D01*
X-142858Y5395239D01*
X-238096Y5347620D01*
X-428572Y5347620D01*
X-523810Y5395239D01*
X-571429Y5442858D01*
X-619048Y5538096D01*
X-619048Y6347620D01*
X-1047620Y5633334D02*
X-1523810Y5633334D01*
X-952381Y5347620D02*
X-1285715Y6347620D01*
X-1619048Y5347620D01*
X-2523810Y5347620D02*
X-2190477Y5823810D01*
X-1952381Y5347620D02*
X-1952381Y6347620D01*
X-2333334Y6347620D01*
X-2428572Y6300000D01*
X-2476191Y6252381D01*
X-2523810Y6157143D01*
X-2523810Y6014286D01*
X-2476191Y5919048D01*
X-2428572Y5871429D01*
X-2333334Y5823810D01*
X-1952381Y5823810D01*
X-2809524Y6347620D02*
X-3380953Y6347620D01*
X-3095239Y5347620D02*
X-3095239Y6347620D01*
X-4238096Y5347620D02*
X-3666667Y5347620D01*
X-3952381Y5347620D02*
X-3952381Y6347620D01*
X-3857143Y6204762D01*
X-3761905Y6109524D01*
X-3666667Y6061905D01*
D11*
X3810000Y2440000D02*
X3810000Y4210000D01*
X3810000Y4210000D02*
X3430000Y4210000D01*
X-3810000Y4210000D02*
X-3810000Y2440000D01*
X-3810000Y160000D02*
X-3810000Y-100000D01*
X3810000Y-100000D02*
X3810000Y160000D01*
X-3810000Y4210000D02*
X-3430000Y4210000D01*
%TD*%
%LPC*%
D12*
%TO.C,*%
X-12500000Y6000000D03*
%TD*%
%TO.C,*%
X12500000Y6000000D03*
%TD*%
%TO.C,*%
X-12500000Y105000000D03*
%TD*%
D13*
%TO.C,J3*%
X-12675000Y98650000D03*
D14*
X-12675000Y96150000D03*
X-12675000Y93650000D03*
X-12675000Y91150000D03*
%TD*%
D13*
%TO.C,J2*%
X-12675000Y83650000D03*
D14*
X-12675000Y81150000D03*
X-12675000Y78650000D03*
X-12675000Y76150000D03*
%TD*%
D15*
%TO.C,PS1*%
X840000Y53000000D03*
X11000000Y53000000D03*
D16*
X840000Y55540000D03*
X11000000Y55540000D03*
X11000000Y58080000D03*
X840000Y58080000D03*
X11000000Y60620000D03*
X840000Y60620000D03*
X11000000Y63160000D03*
X11000000Y65700000D03*
X11000000Y99990000D03*
X840000Y96180000D03*
X11000000Y102530000D03*
X840000Y98720000D03*
X11000000Y105070000D03*
X11000000Y107610000D03*
X840000Y101260000D03*
%TD*%
D17*
%TO.C,J1*%
X-5715000Y9500000D03*
X5715000Y9500000D03*
D18*
X-4445000Y15850000D03*
D19*
X-3175000Y18390000D03*
X-1905000Y15850000D03*
X-635000Y18390000D03*
X635000Y15850000D03*
X1905000Y18390000D03*
X3175000Y15850000D03*
X4445000Y18390000D03*
X-4090000Y5440000D03*
X-6630000Y5440000D03*
X4090000Y5440000D03*
X6630000Y5440000D03*
D20*
X-7875000Y12550000D03*
X7875000Y12550000D03*
%TD*%
D21*
%TO.C,USB-UART1*%
X1150000Y1300000D03*
D22*
X-2487500Y3875000D03*
D23*
X-1550000Y1300000D03*
D24*
X-3375000Y1300000D03*
D22*
X2487500Y3875000D03*
D24*
X3375000Y1300000D03*
D25*
X1300000Y3960000D03*
X650000Y3960000D03*
X0Y3960000D03*
X-650000Y3960000D03*
X-1300000Y3960000D03*
%TD*%
D26*
X-6000000Y31000000D03*
X-12900000Y45900000D03*
X-16200000Y61000000D03*
X10100000Y35900000D03*
X-9000000Y34000000D03*
X9100000Y35900000D03*
X-14000000Y69700000D03*
X3700000Y35900000D03*
X12500000Y10000000D03*
X-15400000Y26500000D03*
X13400000Y10000000D03*
X-2700000Y51400000D03*
X3000000Y41400000D03*
X12500000Y38100000D03*
X15992894Y1007106D03*
X-12700000Y39200000D03*
X-11300000Y49400000D03*
X3600000Y32200000D03*
X7900000Y25000000D03*
X-9000000Y32000000D03*
X-10000000Y31000000D03*
X-6000000Y34000000D03*
X-6400000Y43800000D03*
X500000Y30500000D03*
X-200000Y45800000D03*
X3700000Y42900000D03*
X-200000Y48900000D03*
X400000Y36400000D03*
X2200000Y48900000D03*
X-100000Y27800000D03*
X400000Y39000000D03*
X4400000Y44500000D03*
X-13900000Y56600000D03*
X-13700000Y53800000D03*
X-11400000Y46500000D03*
X10400000Y25000000D03*
X-7000000Y34000000D03*
X5000000Y42900000D03*
X-13900000Y11000000D03*
X10100000Y34900000D03*
X13100000Y29000000D03*
X-11100000Y11000000D03*
X11100000Y35900000D03*
X-7000000Y33000000D03*
X-8000000Y31000000D03*
X2500000Y26600000D03*
X-6011364Y31980686D03*
X-12600000Y65500000D03*
X-12500000Y70700000D03*
X-9000000Y31000000D03*
X-4700000Y40000000D03*
X-8000000Y33000000D03*
X-11600000Y10000000D03*
X13900000Y11000000D03*
X9900000Y43000000D03*
X-8000000Y32000000D03*
X-12900000Y68000000D03*
X-12500000Y61800000D03*
X9600000Y40700000D03*
X-10000000Y32000000D03*
X-13400000Y10000000D03*
X-16200000Y52300000D03*
X-15992894Y110992894D03*
X12800000Y44600000D03*
X-9000000Y33000000D03*
X-10000000Y33000000D03*
X10100000Y36900000D03*
X10100000Y32100000D03*
X-6000000Y33000000D03*
X11700000Y42000000D03*
X-8700000Y57800000D03*
X6600142Y41103248D03*
X-10000000Y34000000D03*
X2100000Y42400000D03*
X11600000Y10000000D03*
X-7000000Y31000000D03*
X-7000000Y32000000D03*
X-8800000Y44300000D03*
X-15992894Y1007106D03*
X1900000Y23500000D03*
X15992894Y110992894D03*
X-8000000Y34000000D03*
X-13700000Y39200000D03*
X-12500000Y10000000D03*
X11800000Y44600000D03*
X12000000Y29000000D03*
X2200000Y45800000D03*
X-16400000Y23000000D03*
X4900000Y33400000D03*
X13300000Y31600000D03*
X12900000Y34000000D03*
X6900000Y31600000D03*
X8300000Y33400000D03*
X8300000Y38500000D03*
X10250000Y42000000D03*
X4800000Y38800000D03*
X9350000Y42000000D03*
X-10400000Y70050000D03*
X8600000Y40700000D03*
X-13900000Y49500000D03*
X9800000Y42000000D03*
X-13700000Y23700000D03*
X4800000Y39800000D03*
X-14200000Y23700000D03*
D27*
X14600000Y20200000D03*
X12000000Y20200000D03*
X9200000Y20200000D03*
X12100000Y24600000D03*
X13400000Y24600000D03*
D26*
X-12950000Y26350000D03*
X-15100000Y58850000D03*
X-12700000Y57150000D03*
X-14150000Y59800000D03*
X9290000Y38540000D03*
X-1500000Y26350000D03*
X12700000Y39000000D03*
X-4050000Y26350000D03*
X10900000Y40700000D03*
X11900000Y40700000D03*
X-2750000Y26350000D03*
X6350000Y40450000D03*
X-5300000Y40675000D03*
X-13905971Y44047287D03*
X-13905971Y45897287D03*
X11100000Y10600000D03*
X13000000Y36000000D03*
X4900000Y35400000D03*
X-6600000Y40675000D03*
X-12900000Y40675000D03*
X4900000Y34400000D03*
X4900000Y36400000D03*
X-9100000Y40675000D03*
X13000000Y35199500D03*
X10500000Y11200000D03*
X-1150000Y43750000D03*
X13650000Y36350000D03*
X2050000Y41300000D03*
X-14250000Y66900000D03*
X-8600000Y71350000D03*
X-14300000Y64200000D03*
X-250000Y26350000D03*
X-13200000Y62450000D03*
X1050000Y26350000D03*
X-13750000Y63150000D03*
X-250000Y44350000D03*
X-13550000Y65600000D03*
X3700000Y36900000D03*
X7500000Y37400000D03*
X-13650000Y40125000D03*
X-16350000Y50575000D03*
X-15849500Y51342245D03*
X-16050000Y53350000D03*
X1300000Y8750000D03*
M02*
